v 2 -1.5 0.40000000000000002
v 2 1.5 0.40000000000000002
v 1.2 -1.5 0.40000000000000002
v 1.2 1.5 0.40000000000000002
v 0 -1.5 0
v 0 1.5 0
v -1.2 -1.5 -0.40000000000000002
v -1.2 1.5 -0.40000000000000002
v -2 -1.5 -0.40000000000000002
v -2 1.5 -0.40000000000000002
v 2 -1.5 -2
v 2 1.5 -2
v 1.2 -1.5 -2
v 1.2 1.5 -2
v 0 -1.5 -2
v 0 1.5 -2
v -1.2 -1.5 -2
v -1.2 1.5 -2
v -2 -1.5 -2
v -2 1.5 -2
f 1 3 4
f 1 4 2
f 3 5 6
f 3 6 4
f 5 7 8
f 5 8 6
f 7 9 10
f 7 10 8
f 14 13 11
f 14 11 12
f 16 15 13
f 16 13 14
f 18 17 15
f 18 15 16
f 20 19 17
f 20 17 18
f 1 2 12
f 1 12 11
f 9 10 20
f 9 20 19
f 2 4 14
f 2 14 12
f 4 6 16
f 4 16 14
f 6 8 18
f 6 18 16
f 8 10 20
f 8 20 18
f 1 11 13
f 1 13 3
f 3 13 15
f 3 15 5
f 5 15 17
f 5 17 7
f 7 17 19
f 7 19 9
