# Blender 4.3.2
# www.blender.org
mtllib rock5_high_res.mtl
o rock5
v -1.564421 0.294483 -0.969543
v -1.564056 0.351489 -1.026271
v -1.571905 0.330894 -0.989726
v -1.571790 0.390000 -1.036775
v -1.590782 0.390000 -0.990000
v -1.563012 0.470912 -1.082908
v -1.577973 0.450547 -1.053657
v -1.602129 0.450000 -0.990000
v -1.514048 0.287514 -1.036201
v -1.532429 0.278679 -0.989726
v -1.509334 0.345611 -1.088143
v -1.531691 0.328550 -1.051236
v -1.554048 0.311489 -1.009543
v -1.519280 0.390000 -1.097317
v -1.549280 0.390000 -1.066774
v -1.533824 0.450547 -1.101124
v -1.556373 0.430912 -1.076095
v -1.452678 0.235890 -0.975353
v -1.453712 0.291349 -1.087925
v -1.472227 0.276057 -1.053720
v -1.471607 0.246729 -0.993212
v -1.443132 0.356548 -1.141980
v -1.468422 0.331080 -1.108034
v -1.493712 0.305611 -1.076201
v -1.452205 0.390000 -1.148773
v -1.482205 0.390000 -1.127317
v -1.461440 0.450000 -1.154060
v -1.491440 0.450000 -1.134224
v -1.564010 0.294832 -0.930000
v -1.560925 0.298627 -0.897670
v -1.578360 0.330000 -0.930000
v -1.566522 0.330000 -0.886060
v -1.591325 0.390000 -0.930000
v -1.572333 0.390000 -0.873740
v -1.594153 0.450000 -0.930000
v -1.572231 0.450000 -0.873918
v -1.502856 0.238064 -0.908921
v -1.502856 0.238064 -0.884249
v -1.525714 0.261347 -0.929352
v -1.527952 0.269725 -0.870959
v -1.511978 0.280238 -0.810000
v -1.502923 0.292829 -0.775346
v -1.553269 0.330000 -0.856060
v -1.529698 0.330000 -0.810000
v -1.506429 0.330000 -0.770170
v -1.558000 0.390000 -0.843740
v -1.536722 0.390000 -0.810000
v -1.508722 0.390000 -0.767116
v -1.557972 0.450000 -0.843918
v -1.536386 0.450000 -0.810000
v -1.508414 0.450000 -0.767660
v -1.471607 0.231223 -0.929352
v -1.475417 0.227615 -0.866550
v -1.463859 0.225621 -0.810000
v -1.452784 0.230950 -0.763080
v -1.492678 0.242468 -0.948921
v -1.499029 0.240822 -0.844249
v -1.493860 0.250238 -0.810000
v -1.470508 0.268415 -0.749213
v -1.448232 0.284002 -0.711816
v -1.485133 0.330000 -0.740170
v -1.455133 0.330000 -0.703190
v -1.487904 0.390000 -0.737116
v -1.457904 0.390000 -0.697589
v -1.487316 0.450000 -0.737660
v -1.457316 0.450000 -0.697335
v -1.566780 0.510000 -1.086096
v -1.589957 0.510000 -1.050000
v -1.606614 0.510000 -0.990000
v -1.568854 0.570000 -1.088158
v -1.591661 0.570000 -1.050000
v -1.605913 0.570000 -0.990000
v -1.565779 0.610674 -1.085656
v -1.578059 0.630405 -1.052088
v -1.598186 0.630000 -0.990000
v -1.569536 0.677156 -1.033480
v -1.575058 0.694294 -0.992695
v -1.563795 0.727712 -0.974491
v -1.530000 0.510000 -1.112943
v -1.530000 0.570000 -1.111319
v -1.524512 0.630405 -1.090978
v -1.540853 0.650674 -1.073480
v -1.500853 0.660358 -1.080201
v -1.528801 0.688757 -1.050933
v -1.556750 0.717156 -1.014491
v -1.516750 0.730625 -1.028386
v -1.534166 0.749168 -0.992837
v -1.511583 0.791689 -0.971183
v -1.463561 0.510000 -1.151516
v -1.493561 0.510000 -1.136847
v -1.455970 0.552468 -1.146326
v -1.473582 0.571481 -1.132162
v -1.470000 0.630000 -1.105095
v -1.470000 0.666221 -1.083725
v -1.470000 0.696221 -1.065754
v -1.470000 0.742431 -1.035754
v -1.470000 0.772430 -1.013003
v -1.464845 0.811013 -0.978790
v -1.441408 0.840568 -0.960647
v -1.593867 0.510000 -0.930000
v -1.570431 0.510000 -0.878492
v -1.591904 0.570000 -0.930000
v -1.568798 0.570000 -0.883301
v -1.586574 0.630000 -0.930000
v -1.566628 0.630000 -0.888633
v -1.571364 0.692049 -0.927475
v -1.563380 0.673415 -0.894450
v -1.563795 0.727712 -0.945791
v -1.555508 0.510000 -0.848492
v -1.531441 0.510000 -0.810000
v -1.505933 0.510000 -0.771289
v -1.552214 0.570000 -0.853301
v -1.519374 0.575890 -0.804022
v -1.502672 0.559817 -0.776112
v -1.548320 0.630000 -0.858634
v -1.518320 0.630000 -0.813014
v -1.558381 0.713415 -0.905791
v -1.546022 0.692049 -0.872670
v -1.513742 0.690000 -0.820095
v -1.549107 0.748627 -0.927475
v -1.529669 0.750000 -0.870000
v -1.506972 0.750000 -0.829963
v -1.517599 0.803049 -0.930000
v -1.510301 0.796912 -0.870000
v -1.501853 0.783506 -0.837141
v -1.484840 0.510000 -0.741289
v -1.454840 0.510000 -0.700289
v -1.499976 0.599817 -0.780036
v -1.484758 0.575890 -0.753667
v -1.450967 0.570000 -0.706012
v -1.497953 0.630000 -0.783014
v -1.473251 0.630000 -0.750000
v -1.445298 0.630000 -0.714030
v -1.492921 0.690000 -0.790095
v -1.458977 0.686442 -0.746611
v -1.441068 0.664071 -0.718976
v -1.482762 0.750000 -0.799963
v -1.452762 0.750000 -0.765837
v -1.485288 0.833049 -0.930000
v -1.488130 0.826912 -0.870000
v -1.464473 0.803268 -0.816813
v -1.443749 0.783029 -0.776764
v -1.455288 0.847994 -0.930000
v -1.458130 0.850060 -0.870000
v -1.445197 0.843323 -0.836486
v -1.392983 0.237726 -1.026729
v -1.411790 0.230500 -0.993212
v -1.410000 0.281936 -1.100177
v -1.411790 0.250288 -1.048038
v -1.432983 0.241233 -1.015353
v -1.410000 0.343877 -1.147459
v -1.410000 0.313877 -1.130177
v -1.410000 0.390000 -1.166884
v -1.410000 0.450000 -1.178913
v -1.350000 0.234644 -1.036409
v -1.350000 0.219174 -0.990000
v -1.350000 0.274894 -1.107481
v -1.350000 0.244894 -1.066409
v -1.350000 0.335428 -1.150208
v -1.350000 0.305428 -1.137481
v -1.350000 0.390000 -1.170838
v -1.350000 0.450000 -1.182375
v -1.290000 0.231765 -1.037859
v -1.290000 0.213887 -0.990000
v -1.290000 0.279972 -1.098873
v -1.290000 0.249972 -1.067859
v -1.307672 0.345283 -1.145645
v -1.288603 0.327170 -1.128928
v -1.288603 0.392760 -1.150983
v -1.267672 0.374600 -1.136384
v -1.290000 0.450000 -1.162195
v -1.230000 0.233168 -1.029685
v -1.230000 0.213760 -0.990000
v -1.242341 0.291337 -1.087500
v -1.225405 0.270802 -1.063229
v -1.225405 0.325600 -1.097583
v -1.202341 0.302666 -1.079135
v -1.257541 0.414600 -1.141338
v -1.234524 0.392760 -1.123358
v -1.251058 0.450000 -1.144673
v -1.221058 0.450000 -1.128675
v -1.189198 0.237002 -1.024251
v -1.169519 0.224148 -0.993516
v -1.169519 0.267063 -1.038714
v -1.149199 0.245105 -1.015860
v -1.190186 0.342666 -1.085422
v -1.170111 0.325600 -1.068766
v -1.178426 0.390000 -1.091910
v -1.148426 0.390000 -1.075306
v -1.164629 0.445515 -1.097274
v -1.141049 0.422525 -1.079403
v -1.110000 0.231706 -0.972627
v -1.126489 0.285105 -1.027804
v -1.107894 0.267063 -1.003741
v -1.107894 0.331535 -1.034566
v -1.086489 0.312558 -1.016065
v -1.110000 0.390000 -1.052109
v -1.133388 0.462525 -1.083889
v -1.112033 0.445515 -1.066784
v -1.078888 0.239147 -0.960977
v -1.055333 0.274751 -0.971221
v -1.076629 0.352558 -1.022135
v -1.053977 0.331535 -0.999605
v -1.069130 0.390000 -1.026803
v -1.039130 0.390000 -1.006679
v -1.058996 0.450000 -1.033928
v -1.028996 0.450000 -1.013723
v -1.018152 0.297918 -0.961660
v -1.011242 0.330000 -0.967457
v -1.000056 0.390000 -0.976679
v -0.985942 0.452379 -0.979675
v -1.410000 0.213173 -0.930000
v -1.410000 0.202591 -0.870000
v -1.410000 0.200341 -0.810000
v -1.413561 0.220330 -0.745848
v -1.395935 0.232427 -0.712320
v -1.435935 0.244002 -0.723080
v -1.413561 0.266401 -0.701917
v -1.410000 0.330000 -0.679103
v -1.408002 0.391406 -0.667366
v -1.386669 0.412343 -0.658624
v -1.424939 0.450000 -0.667335
v -1.394939 0.450000 -0.653934
v -1.350000 0.202523 -0.930000
v -1.350000 0.190125 -0.870000
v -1.350000 0.186911 -0.810000
v -1.350000 0.208168 -0.750000
v -1.350000 0.233389 -0.713490
v -1.350000 0.270000 -0.695840
v -1.350000 0.330000 -0.676053
v -1.350000 0.377232 -0.663702
v -1.350000 0.407232 -0.657238
v -1.350000 0.450000 -0.647392
v -1.276067 0.178414 -0.848325
v -1.274884 0.178355 -0.810000
v -1.263778 0.179393 -0.779259
v -1.290000 0.197006 -0.930000
v -1.293640 0.184140 -0.868995
v -1.304884 0.182190 -0.810000
v -1.288487 0.210645 -0.750606
v -1.313197 0.238758 -0.719000
v -1.273197 0.244106 -0.721952
v -1.291918 0.266464 -0.709667
v -1.290000 0.330000 -0.684141
v -1.290000 0.380993 -0.666307
v -1.290000 0.410993 -0.657637
v -1.290000 0.450000 -0.648770
v -1.230000 0.178171 -0.855245
v -1.235119 0.178173 -0.814597
v -1.258531 0.179393 -0.779259
v -1.230000 0.192658 -0.930000
v -1.230000 0.182066 -0.885245
v -1.218531 0.187996 -0.797662
v -1.235119 0.208797 -0.760977
v -1.230000 0.250659 -0.726777
v -1.230000 0.280659 -0.711079
v -1.230000 0.330000 -0.691712
v -1.232471 0.394415 -0.669741
v -1.254119 0.417359 -0.659155
v -1.214119 0.426345 -0.662057
v -1.232471 0.447807 -0.653701
v -1.186174 0.179148 -0.852002
v -1.186174 0.179148 -0.837662
v -1.170000 0.193761 -0.930000
v -1.167704 0.181301 -0.871201
v -1.167704 0.191365 -0.814597
v -1.170000 0.223908 -0.763878
v -1.170000 0.261144 -0.733878
v -1.170000 0.291144 -0.715550
v -1.170000 0.330000 -0.700789
v -1.170000 0.390000 -0.680776
v -1.167188 0.447807 -0.665378
v -1.185313 0.466345 -0.655752
v -1.110000 0.207150 -0.930000
v -1.110000 0.186322 -0.870000
v -1.110000 0.197370 -0.810000
v -1.110000 0.226493 -0.768342
v -1.113666 0.274852 -0.737188
v -1.136111 0.298086 -0.718997
v -1.096111 0.309644 -0.724191
v -1.113666 0.329786 -0.711810
v -1.110000 0.390000 -0.690990
v -1.110000 0.450000 -0.677053
v -1.055333 0.229744 -0.925706
v -1.050000 0.208039 -0.870000
v -1.050000 0.212505 -0.810000
v -1.050000 0.232286 -0.773819
v -1.038888 0.257918 -0.942843
v -1.050000 0.270000 -0.753686
v -1.045142 0.329786 -0.728174
v -1.061903 0.349644 -0.715581
v -1.021903 0.361127 -0.720467
v -1.045142 0.384676 -0.705973
v -1.050000 0.450000 -0.688884
v -1.017654 0.237745 -0.902843
v -1.013726 0.232949 -0.870000
v -1.014217 0.233344 -0.810000
v -1.018309 0.238272 -0.778723
v -1.006477 0.274751 -0.925706
v -0.979974 0.273991 -0.871758
v -0.984217 0.266906 -0.810000
v -0.994986 0.275534 -0.772184
v -0.977987 0.325741 -0.930227
v -0.961655 0.302902 -0.892930
v -0.990000 0.330000 -0.746864
v -0.970056 0.390000 -0.950718
v -0.985366 0.384676 -0.725142
v -1.002276 0.401127 -0.712399
v -0.963237 0.433965 -0.957246
v -0.962276 0.425117 -0.721003
v -0.985366 0.447070 -0.707747
v -1.410000 0.510000 -1.170366
v -1.410000 0.560574 -1.150879
v -1.410000 0.590574 -1.135006
v -1.410000 0.630000 -1.113785
v -1.410000 0.674595 -1.088779
v -1.410000 0.704595 -1.070406
v -1.412830 0.755570 -1.037102
v -1.434716 0.779283 -1.019487
v -1.394716 0.781939 -1.021296
v -1.414547 0.810402 -0.990067
v -1.434378 0.840568 -0.960647
v -1.350000 0.510000 -1.173679
v -1.350000 0.563803 -1.151934
v -1.350000 0.593803 -1.136837
v -1.350000 0.630000 -1.117570
v -1.350000 0.677912 -1.090734
v -1.350000 0.707912 -1.072428
v -1.350000 0.750000 -1.044922
v -1.350000 0.783730 -1.022494
v -1.352286 0.818303 -0.986384
v -1.333810 0.842868 -0.963974
v -1.290000 0.510000 -1.160006
v -1.290000 0.559035 -1.147307
v -1.290000 0.589035 -1.136719
v -1.290000 0.630000 -1.117905
v -1.290000 0.678846 -1.091186
v -1.290000 0.708846 -1.073252
v -1.290000 0.750000 -1.045650
v -1.290000 0.783330 -1.022398
v -1.290624 0.816313 -0.986384
v -1.311040 0.842868 -0.963974
v -1.246835 0.510000 -1.145177
v -1.216835 0.510000 -1.133338
v -1.251910 0.548607 -1.142010
v -1.231146 0.569164 -1.131620
v -1.230000 0.630000 -1.111447
v -1.230000 0.676934 -1.089429
v -1.230000 0.706934 -1.072676
v -1.231298 0.754836 -1.038841
v -1.212163 0.778060 -1.017615
v -1.252163 0.781406 -1.021168
v -1.231298 0.796634 -0.994569
v -1.170000 0.510000 -1.110389
v -1.170000 0.570000 -1.110442
v -1.170000 0.630000 -1.097715
v -1.170000 0.667706 -1.083913
v -1.170000 0.697706 -1.069043
v -1.170000 0.745798 -1.039043
v -1.170000 0.775798 -1.014756
v -1.170000 0.793091 -0.984756
v -1.126719 0.510000 -1.087051
v -1.096719 0.510000 -1.070292
v -1.123727 0.570000 -1.088765
v -1.093727 0.570000 -1.072248
v -1.131733 0.630000 -1.084772
v -1.101733 0.630000 -1.068438
v -1.139580 0.660464 -1.080189
v -1.115748 0.684279 -1.058261
v -1.110000 0.735852 -1.030071
v -1.110000 0.765852 -1.006675
v -1.110000 0.788350 -0.976676
v -1.045870 0.513648 -1.036577
v -1.023117 0.496081 -1.017676
v -1.050000 0.570000 -1.044004
v -1.046398 0.628842 -1.035812
v -1.023997 0.648071 -1.016440
v -1.065459 0.690000 -1.029694
v -1.035459 0.690000 -1.003395
v -1.076615 0.724798 -1.022585
v -1.055775 0.743116 -0.984131
v -1.074934 0.783916 -0.966842
v -1.019316 0.536081 -1.020572
v -0.995590 0.513648 -0.997711
v -1.017857 0.570000 -1.021756
v -0.987857 0.570000 -0.994264
v -1.017826 0.608071 -1.021770
v -0.991857 0.626112 -0.989054
v -1.008562 0.690000 -0.973395
v -1.018862 0.721435 -0.961420
v -1.428957 0.510000 -0.670289
v -1.398957 0.510000 -0.649063
v -1.422409 0.570000 -0.676012
v -1.392408 0.570000 -0.651824
v -1.406711 0.632578 -0.680054
v -1.384517 0.614297 -0.656970
v -1.433248 0.704071 -0.724352
v -1.411949 0.686442 -0.703419
v -1.411949 0.748641 -0.741073
v -1.393248 0.727735 -0.712005
v -1.394378 0.838865 -0.957340
v -1.383367 0.839352 -0.841381
v -1.406020 0.820597 -0.813892
v -1.410000 0.786233 -0.773078
v -1.412627 0.850768 -0.934404
v -1.406020 0.852421 -0.864829
v -1.423367 0.843323 -0.836486
v -1.350000 0.510000 -0.636597
v -1.350000 0.570000 -0.637209
v -1.375224 0.654297 -0.661383
v -1.353135 0.632578 -0.650416
v -1.353135 0.687239 -0.676241
v -1.335224 0.665398 -0.656339
v -1.350000 0.759994 -0.743808
v -1.350000 0.729994 -0.709263
v -1.373810 0.838865 -0.957340
v -1.350000 0.834008 -0.852903
v -1.350000 0.809210 -0.810000
v -1.350000 0.785203 -0.773808
v -1.352286 0.847192 -0.934404
v -1.350000 0.846839 -0.882903
v -1.290000 0.510000 -0.637373
v -1.290000 0.570000 -0.632137
v -1.290000 0.630000 -0.642228
v -1.290000 0.695144 -0.682819
v -1.290000 0.665144 -0.656330
v -1.273174 0.776806 -0.785158
v -1.291904 0.759255 -0.754643
v -1.290000 0.726464 -0.712819
v -1.277679 0.834701 -0.930000
v -1.291519 0.827031 -0.873494
v -1.291904 0.793912 -0.807095
v -1.313174 0.781655 -0.777738
v -1.307679 0.843524 -0.930000
v -1.312532 0.841830 -0.895823
v -1.230000 0.510000 -0.643954
v -1.230000 0.570000 -0.642031
v -1.217328 0.645895 -0.667863
v -1.234397 0.627537 -0.651931
v -1.203969 0.718850 -0.721106
v -1.230649 0.690155 -0.692304
v -1.257328 0.661461 -0.658767
v -1.230000 0.771463 -0.793786
v -1.226382 0.738987 -0.744664
v -1.243969 0.723028 -0.716746
v -1.230000 0.820044 -0.930000
v -1.230000 0.810105 -0.870000
v -1.230000 0.789800 -0.823786
v -1.151061 0.510000 -0.663579
v -1.181061 0.510000 -0.654115
v -1.156308 0.570000 -0.666109
v -1.186308 0.570000 -0.655278
v -1.171385 0.627537 -0.677116
v -1.192309 0.605895 -0.657303
v -1.170000 0.709319 -0.729293
v -1.170000 0.679319 -0.707680
v -1.146818 0.777933 -0.844812
v -1.168091 0.765715 -0.811934
v -1.170000 0.733694 -0.759293
v -1.170000 0.805593 -0.930000
v -1.168091 0.792518 -0.866887
v -1.186818 0.784194 -0.833223
v -1.110000 0.510000 -0.675543
v -1.110000 0.570000 -0.680098
v -1.089097 0.654592 -0.723868
v -1.109458 0.632755 -0.702332
v -1.109458 0.688145 -0.740330
v -1.129097 0.666908 -0.715710
v -1.081014 0.779654 -0.901610
v -1.104609 0.773039 -0.866887
v -1.110000 0.747207 -0.810000
v -1.110000 0.725649 -0.772512
v -1.104609 0.790549 -0.924966
v -1.121014 0.786449 -0.884812
v -1.050000 0.510000 -0.686159
v -1.050000 0.570000 -0.687621
v -1.050000 0.650891 -0.727948
v -1.050000 0.620891 -0.704567
v -1.036898 0.712625 -0.791895
v -1.054139 0.691575 -0.761597
v -1.052961 0.764386 -0.924966
v -1.050000 0.755489 -0.870000
v -1.054139 0.729516 -0.811137
v -1.076898 0.721084 -0.778731
v -1.074934 0.783916 -0.941610
v -0.990000 0.510000 -0.695100
v -0.990000 0.570000 -0.691455
v -0.965887 0.644154 -0.950713
v -0.960656 0.659532 -0.780507
v -0.984394 0.647075 -0.748038
v -0.990000 0.614195 -0.706739
v -0.979169 0.689572 -0.930428
v -0.974356 0.707295 -0.870000
v -0.986300 0.693199 -0.806201
v -1.000656 0.672625 -0.766729
v -1.009546 0.730743 -0.930000
v -1.004357 0.732640 -0.870000
v -1.011943 0.723965 -0.831895
v -0.958603 0.473965 -0.961160
v -0.957430 0.296652 -0.852930
v -0.957643 0.296906 -0.810000
v -0.959427 0.299223 -0.779286
v -0.951698 0.342902 -0.910377
v -0.944836 0.325741 -0.871758
v -0.936760 0.330000 -0.810000
v -0.949488 0.330000 -0.769789
v -0.941177 0.390000 -0.920718
v -0.912302 0.390956 -0.871092
v -0.909118 0.377914 -0.810000
v -0.927934 0.391375 -0.757572
v -0.937168 0.452379 -0.934348
v -0.902507 0.450000 -0.893647
v -0.932815 0.447070 -0.735148
v -0.954692 0.465117 -0.716897
v -0.896227 0.411594 -0.851820
v -0.894387 0.407914 -0.810000
v -0.896289 0.412291 -0.774518
v -0.891309 0.450000 -0.863647
v -0.882510 0.450000 -0.810000
v -0.891201 0.450000 -0.768183
v -0.955746 0.510000 -0.963883
v -0.955706 0.570000 -0.964264
v -0.958549 0.604154 -0.961669
v -0.920680 0.508391 -0.924202
v -0.900138 0.487318 -0.899709
v -0.915873 0.510000 -0.731060
v -0.945873 0.510000 -0.710905
v -0.923173 0.564603 -0.924202
v -0.904347 0.581006 -0.889447
v -0.914807 0.570000 -0.738742
v -0.944807 0.570000 -0.707822
v -0.946104 0.626492 -0.930428
v -0.914756 0.628738 -0.869668
v -0.927782 0.640471 -0.804304
v -0.931963 0.615131 -0.755981
v -0.953271 0.605664 -0.712787
v -0.953943 0.669287 -0.910713
v -0.945185 0.677295 -0.870000
v -0.946304 0.673772 -0.820507
v -0.899787 0.527318 -0.900336
v -0.890526 0.508391 -0.875826
v -0.874457 0.510000 -0.810000
v -0.886140 0.510000 -0.761060
v -0.899787 0.541006 -0.900336
v -0.893174 0.564603 -0.869668
v -0.883769 0.570000 -0.810000
v -0.892142 0.570000 -0.768742
v -0.896598 0.607896 -0.849447
v -0.897435 0.605940 -0.810000
v -0.899983 0.600024 -0.779968
vn -0.8909 -0.2862 -0.3526
vn -0.9126 -0.1726 -0.3706
vn -0.6489 -0.6582 -0.3818
vn -0.7214 -0.4130 -0.5558
vn -0.8408 -0.3842 -0.3814
vn -0.7168 -0.3567 -0.5991
vn -0.7609 -0.3085 -0.5709
vn -0.6864 -0.2726 -0.6742
vn -0.6259 -0.2308 -0.7450
vn -0.7952 -0.2368 -0.5582
vn -0.3936 -0.8288 -0.3977
vn -0.4188 -0.7227 -0.5498
vn -0.5133 -0.4234 -0.7465
vn -0.6658 -0.4918 -0.5610
vn -0.5883 -0.3725 -0.7178
vn -0.6022 -0.2888 -0.7443
vn -0.5427 -0.1780 -0.8208
vn -0.6054 -0.1940 -0.7720
vn -0.9258 -0.3778 0.0130
vn -0.9325 -0.2593 0.2512
vn -0.9774 -0.2112 -0.0088
vn -0.9359 -0.1555 0.3160
vn -0.9988 -0.0471 -0.0090
vn -0.9475 0.0026 0.3198
vn -0.5248 -0.8319 -0.1804
vn -0.7837 -0.6212 -0.0000
vn -0.6916 -0.7182 0.0765
vn -0.7656 -0.4380 0.4711
vn -0.8486 -0.3022 0.4343
vn -0.8537 -0.1500 0.4987
vn -0.8910 -0.1577 0.4257
vn -0.8417 -0.0985 0.5308
vn -0.8620 -0.0586 0.5036
vn -0.9023 0.0017 0.4311
vn -0.8436 0.0047 0.5369
vn -0.8373 0.0093 0.5467
vn -0.2574 -0.9637 -0.0710
vn -0.2959 -0.9305 -0.2161
vn -0.4572 -0.8379 -0.2981
vn -0.5832 -0.7779 -0.2340
vn -0.4107 -0.9061 0.1018
vn -0.6062 -0.7387 0.2946
vn -0.8261 -0.4989 0.2619
vn -0.7396 -0.5117 0.4371
vn -0.7388 -0.5129 0.4372
vn -0.7183 -0.2650 0.6433
vn -0.7561 -0.2285 0.6133
vn -0.8197 -0.0668 0.5688
vn -0.7931 -0.0928 0.6020
vn -0.8215 0.0132 0.5701
vn -0.8023 0.0053 0.5969
vn -0.8400 -0.1370 -0.5250
vn -0.9611 -0.0718 -0.2668
vn -0.8581 -0.0244 -0.5129
vn -0.9729 0.0114 -0.2311
vn -0.8833 0.1840 -0.4313
vn -0.9654 0.1243 -0.2293
vn -0.9127 0.3176 -0.2570
vn -0.5852 -0.1218 -0.8017
vn -0.5115 -0.0472 -0.8580
vn -0.5099 0.0912 -0.8554
vn -0.6207 0.5553 -0.5535
vn -0.2664 0.5521 -0.7901
vn -0.6089 0.3867 -0.6926
vn -0.8627 0.4138 -0.2907
vn -0.4334 0.6943 -0.5745
vn -0.8602 0.4349 -0.2663
vn -0.4386 -0.0547 -0.8970
vn -0.6123 -0.1161 -0.7821
vn -0.4603 0.2152 -0.8613
vn -0.5484 0.0226 -0.8359
vn -0.2344 0.3293 -0.9147
vn -0.2169 0.4777 -0.8513
vn -0.2691 0.5500 -0.7906
vn -0.2704 0.5157 -0.8130
vn -0.4325 0.6950 -0.5744
vn -0.4281 0.5802 -0.6929
vn -0.9913 0.0047 0.1318
vn -0.9299 0.0556 0.3635
vn -0.9733 0.0319 0.2273
vn -0.9087 0.0579 0.4134
vn -0.9781 0.0869 0.1893
vn -0.8940 0.0716 0.4423
vn -0.9699 0.2352 0.0630
vn -0.8937 0.1246 0.4309
vn -0.9692 0.2381 0.0631
vn -0.9010 0.0696 0.4282
vn -0.8458 0.0697 0.5289
vn -0.8331 0.0677 0.5490
vn -0.8921 0.0845 0.4438
vn -0.8334 0.1033 0.5430
vn -0.8302 0.1073 0.5470
vn -0.8709 0.0993 0.4814
vn -0.8333 0.1064 0.5426
vn -0.9162 0.2111 0.3406
vn -0.8321 0.1515 0.5335
vn -0.8287 0.1275 0.5450
vn -0.8184 0.5747 -0.0000
vn -0.8824 0.3923 0.2597
vn -0.8585 0.2209 0.4629
vn -0.8563 0.1765 0.4854
vn -0.8421 0.4757 -0.2542
vn -0.9139 0.3773 0.1497
vn -0.8462 0.2320 0.4797
vn -0.8161 0.0684 0.5739
vn -0.8008 0.0624 0.5957
vn -0.8236 0.1101 0.5563
vn -0.8134 0.1084 0.5716
vn -0.8023 0.1078 0.5871
vn -0.8223 0.1102 0.5583
vn -0.8024 0.1312 0.5821
vn -0.7801 0.1547 0.6062
vn -0.8198 0.1344 0.5566
vn -0.7720 0.1583 0.6156
vn -0.7761 0.1839 0.6031
vn -0.8001 0.2268 0.5553
vn -0.7514 0.2573 0.6076
vn -0.6515 0.7016 -0.2887
vn -0.7943 0.5870 0.1566
vn -0.7336 0.5422 0.4098
vn -0.5949 0.4209 0.6848
vn -0.6916 0.3899 0.6080
vn -0.4113 0.8256 -0.3863
vn -0.6101 0.7906 0.0520
vn -0.6310 0.5648 0.5318
vn -0.3140 -0.8068 -0.5005
vn -0.1667 -0.9404 -0.2963
vn -0.3172 -0.8408 -0.4386
vn -0.2815 -0.9231 -0.2619
vn -0.3170 -0.4734 -0.8218
vn -0.4325 -0.5295 -0.7298
vn -0.3784 -0.2817 -0.8817
vn -0.4305 -0.1448 -0.8909
vn -0.1379 -0.9396 -0.3132
vn -0.1643 -0.7966 -0.5818
vn -0.1892 -0.9098 -0.3693
vn -0.1648 -0.3852 -0.9080
vn -0.1820 -0.6732 -0.7167
vn -0.0606 -0.3874 -0.9199
vn -0.0645 -0.1962 -0.9785
vn -0.0823 -0.9336 -0.3488
vn 0.1586 -0.7097 -0.6865
vn -0.0531 -0.9450 -0.3229
vn 0.2834 -0.4720 -0.8348
vn 0.1596 -0.6919 -0.7042
vn 0.1802 -0.3478 -0.9201
vn 0.3928 -0.2571 -0.8829
vn 0.3136 -0.1793 -0.9325
vn -0.0019 -0.8983 -0.4393
vn 0.2585 -0.6410 -0.7227
vn 0.0903 -0.8514 -0.5167
vn 0.3133 -0.5167 -0.7968
vn 0.2950 -0.4010 -0.8673
vn 0.4599 -0.2229 -0.8595
vn 0.4150 -0.3172 -0.8527
vn 0.3976 -0.1670 -0.9022
vn 0.4639 -0.1669 -0.8700
vn 0.1257 -0.8840 -0.4502
vn 0.1596 -0.6676 -0.7272
vn 0.2771 -0.5578 -0.7823
vn 0.4656 -0.2738 -0.8416
vn 0.2917 -0.5878 -0.7546
vn 0.4293 -0.2722 -0.8612
vn 0.4709 -0.2336 -0.8507
vn 0.4728 -0.1911 -0.8602
vn 0.4618 -0.1983 -0.8645
vn 0.4744 -0.4881 -0.7326
vn 0.2816 -0.8143 -0.5076
vn 0.3841 -0.4186 -0.8229
vn 0.4543 -0.3039 -0.8374
vn 0.4847 -0.2484 -0.8387
vn 0.5156 -0.1924 -0.8350
vn 0.5042 -0.2196 -0.8352
vn 0.4010 -0.6185 -0.6757
vn 0.5515 -0.2564 -0.7938
vn 0.5178 -0.4420 -0.7324
vn 0.4910 -0.2341 -0.8391
vn 0.5446 -0.2103 -0.8119
vn 0.5282 -0.1989 -0.8255
vn 0.5470 -0.1892 -0.8155
vn 0.4567 -0.4065 -0.7913
vn 0.5779 -0.2411 -0.7797
vn 0.5976 -0.1923 -0.7784
vn -0.2334 -0.9394 -0.2509
vn -0.2788 -0.9457 -0.1668
vn -0.4246 -0.9047 -0.0339
vn -0.3571 -0.8972 0.2598
vn -0.4081 -0.8032 0.4340
vn -0.3492 -0.4353 0.8298
vn -0.4217 -0.3635 0.8307
vn -0.3961 -0.2903 0.8711
vn -0.5095 -0.1455 0.8481
vn -0.5093 -0.1477 0.8478
vn -0.3997 -0.1992 0.8947
vn -0.1686 -0.9498 -0.2636
vn -0.1994 -0.9596 -0.1983
vn -0.2181 -0.9745 -0.0522
vn -0.2064 -0.9223 0.3268
vn 0.0317 -0.8224 0.5681
vn 0.0320 -0.4340 0.9003
vn -0.0482 -0.3128 0.9486
vn -0.0491 -0.2527 0.9663
vn -0.0662 -0.2102 0.9754
vn -0.0679 -0.2238 0.9723
vn -0.0882 -0.9589 -0.2698
vn -0.0895 -0.9735 -0.2106
vn -0.1268 -0.9919 0.0024
vn -0.1045 -0.9931 -0.0527
vn -0.4142 -0.7710 0.4837
vn 0.0406 -0.9054 0.4226
vn 0.0362 -0.7325 0.6798
vn 0.1440 -0.6808 0.7182
vn 0.1830 -0.4372 0.8806
vn 0.1936 -0.3708 0.9083
vn 0.0616 -0.3295 0.9421
vn 0.0238 -0.2776 0.9604
vn 0.0224 -0.2216 0.9749
vn -0.0054 -1.0000 -0.0006
vn -0.0006 -0.9994 0.0341
vn -0.0682 -0.9412 -0.3310
vn -0.0703 -0.9707 -0.2297
vn -0.0829 -0.9763 -0.2000
vn 0.3064 -0.9225 0.2349
vn -0.0000 -0.5280 0.8492
vn 0.1803 -0.6354 0.7508
vn 0.1669 -0.4571 0.8736
vn 0.1167 -0.3629 0.9245
vn 0.1297 -0.3156 0.9400
vn 0.1291 -0.3124 0.9411
vn 0.1370 -0.3055 0.9423
vn 0.0746 -0.2270 0.9710
vn 0.0223 -0.9998 -0.0000
vn 0.1289 -0.8949 -0.4272
vn 0.0350 -0.9774 -0.2085
vn 0.0316 -0.9912 -0.1287
vn 0.1158 -0.9933 -0.0000
vn 0.1766 -0.9213 0.3466
vn 0.2315 -0.8140 0.5328
vn 0.1978 -0.6150 0.7633
vn 0.1529 -0.5152 0.8433
vn 0.1400 -0.3516 0.9256
vn 0.1420 -0.3132 0.9390
vn 0.1865 -0.2613 0.9471
vn 0.1993 -0.2910 0.9357
vn 0.1898 -0.8507 -0.4901
vn 0.2063 -0.9244 -0.3209
vn 0.0876 -0.9797 0.1804
vn 0.0777 -0.8171 0.5712
vn 0.1764 -0.5236 0.8335
vn 0.1714 -0.4993 0.8493
vn 0.2403 -0.4438 0.8633
vn 0.1796 -0.3367 0.9243
vn 0.1800 -0.3312 0.9262
vn 0.1636 -0.2232 0.9609
vn 0.3695 -0.8064 -0.4618
vn 0.3798 -0.8491 -0.3672
vn 0.2440 -0.9671 0.0720
vn 0.1275 -0.8703 0.4758
vn 0.5447 -0.5440 -0.6383
vn 0.1250 -0.4672 0.8752
vn 0.2267 -0.3978 0.8890
vn 0.2212 -0.3823 0.8972
vn 0.2197 -0.3835 0.8970
vn 0.1849 -0.3412 0.9216
vn 0.2006 -0.2339 0.9513
vn 0.5563 -0.8101 -0.1848
vn 0.5032 -0.8641 0.0098
vn 0.4933 -0.8470 0.1980
vn 0.5954 -0.5734 -0.5628
vn 0.4922 -0.6437 -0.5859
vn 0.7849 -0.4795 -0.3924
vn 0.7718 -0.6356 -0.0199
vn 0.7307 -0.6532 0.1985
vn 0.3297 -0.3595 0.8729
vn 0.7025 -0.2703 -0.6584
vn 0.6934 -0.4382 -0.5720
vn 0.3267 -0.4228 0.8452
vn 0.6366 -0.2317 -0.7356
vn 0.3494 -0.3714 0.8602
vn 0.3319 -0.3403 0.8798
vn 0.6157 -0.1762 -0.7680
vn 0.3696 -0.3010 0.8791
vn 0.2667 -0.1938 0.9441
vn -0.3318 0.0282 -0.9429
vn -0.3270 0.1720 -0.9292
vn -0.1809 0.4742 -0.8616
vn -0.1667 0.4223 -0.8910
vn -0.1238 0.5042 -0.8546
vn -0.1425 0.5086 -0.8491
vn -0.1396 0.5392 -0.8305
vn -0.2550 0.5843 -0.7704
vn -0.0788 0.7114 -0.6984
vn -0.2579 0.6601 -0.7055
vn -0.1666 0.6084 -0.7759
vn -0.0546 0.1408 -0.9885
vn -0.0514 0.3591 -0.9319
vn -0.0407 0.4673 -0.8832
vn -0.0523 0.4733 -0.8793
vn -0.0549 0.4884 -0.8709
vn -0.0566 0.5214 -0.8514
vn -0.0560 0.5439 -0.8373
vn -0.0564 0.5415 -0.8388
vn -0.0508 0.7219 -0.6902
vn 0.3158 0.1361 -0.9390
vn 0.2067 0.3666 -0.9071
vn 0.0375 0.4492 -0.8926
vn -0.0049 0.4698 -0.8827
vn -0.0049 0.4887 -0.8725
vn -0.0145 0.5208 -0.8535
vn -0.0102 0.5470 -0.8370
vn 0.0050 0.5537 -0.8327
vn 0.0233 0.7229 -0.6906
vn -0.0000 0.6740 -0.7388
vn 0.4101 0.0333 -0.9114
vn 0.4702 -0.0405 -0.8817
vn 0.1992 0.2457 -0.9487
vn 0.3643 0.1236 -0.9231
vn 0.2170 0.3249 -0.9205
vn 0.0973 0.4154 -0.9044
vn 0.0940 0.4778 -0.8734
vn 0.0246 0.5130 -0.8581
vn 0.0257 0.5568 -0.8302
vn 0.0557 0.5713 -0.8189
vn 0.1206 0.6137 -0.7802
vn 0.0594 0.7367 -0.6736
vn 0.4378 -0.1002 -0.8935
vn 0.3241 0.1057 -0.9401
vn 0.3092 0.2941 -0.9044
vn 0.1469 0.4201 -0.8955
vn 0.1268 0.4836 -0.8660
vn 0.0823 0.5765 -0.8130
vn 0.0904 0.6303 -0.7711
vn 0.1358 0.8234 -0.5509
vn 0.4538 -0.1412 -0.8798
vn 0.4838 -0.1257 -0.8661
vn 0.4746 -0.0008 -0.8802
vn 0.4871 -0.0492 -0.8720
vn 0.3141 0.1970 -0.9287
vn 0.4746 0.1214 -0.8718
vn 0.1931 0.3373 -0.9214
vn 0.4633 0.2474 -0.8510
vn 0.2106 0.4342 -0.8759
vn 0.2098 0.5175 -0.8296
vn 0.2046 0.6159 -0.7608
vn 0.2063 0.8477 -0.4886
vn 0.5293 -0.1709 -0.8311
vn 0.5609 -0.1496 -0.8143
vn 0.5418 -0.0544 -0.8388
vn 0.5383 0.1248 -0.8334
vn 0.4509 0.2756 -0.8490
vn 0.5081 0.2411 -0.8269
vn 0.3296 0.4243 -0.8434
vn 0.6192 0.3428 -0.7064
vn 0.3556 0.5748 -0.7370
vn 0.2601 0.7725 -0.5793
vn 0.6304 -0.1155 -0.7676
vn 0.6187 -0.1452 -0.7721
vn 0.5567 -0.0683 -0.8279
vn 0.6746 -0.0547 -0.7362
vn 0.4915 0.0905 -0.8662
vn 0.6756 -0.0008 -0.7373
vn 0.5420 0.1926 -0.8180
vn 0.6886 0.3803 -0.6174
vn 0.6458 0.4663 -0.6046
vn -0.6796 -0.0094 0.7335
vn -0.4058 -0.1009 0.9084
vn -0.7493 0.1435 0.6465
vn -0.6243 0.1038 0.7743
vn -0.6539 0.2110 0.7266
vn -0.6152 0.1982 0.7630
vn -0.7219 0.2289 0.6531
vn -0.6054 0.2664 0.7500
vn -0.4396 0.4920 0.7515
vn -0.4701 0.3787 0.7972
vn -0.2639 0.7990 0.5403
vn -0.1432 0.6459 0.7499
vn 0.0874 0.7244 -0.6838
vn -0.0000 0.9719 -0.2355
vn -0.0687 0.9969 -0.0376
vn 0.1371 0.9156 0.3779
vn -0.0000 0.9804 0.1971
vn -0.0000 0.7051 0.7091
vn -0.1418 -0.1753 0.9742
vn -0.3258 0.0096 0.9454
vn -0.6072 0.2251 0.7620
vn -0.3017 0.1824 0.9358
vn -0.3509 0.5703 0.7427
vn -0.1954 0.2764 0.9410
vn -0.1135 0.7705 0.6272
vn -0.0818 0.6130 0.7859
vn -0.0604 0.7713 -0.6336
vn 0.1142 0.7743 0.6224
vn 0.1086 0.7552 0.6464
vn 0.0210 0.7654 0.6432
vn -0.1339 0.9652 -0.2248
vn -0.0000 0.8876 -0.4606
vn 0.0889 0.9955 -0.0321
vn 0.2724 0.8847 0.3784
vn 0.0226 -0.1866 0.9822
vn -0.0839 -0.0866 0.9927
vn -0.0831 0.1653 0.9827
vn -0.0067 0.6705 0.7419
vn 0.0019 0.3724 0.9281
vn 0.0830 0.7524 0.6534
vn 0.0832 0.6893 0.7197
vn 0.1989 0.8485 0.4904
vn 0.1944 0.8471 0.4946
vn 0.1379 0.8254 0.5475
vn 0.1269 0.7679 0.6279
vn 0.5588 0.7421 -0.3703
vn 0.0903 0.9920 -0.0886
vn 0.2811 0.9557 0.0873
vn 0.1328 0.9911 0.0009
vn 0.2378 0.8976 0.3712
vn 0.0784 -0.1574 0.9844
vn 0.1090 -0.0318 0.9935
vn 0.1601 0.1792 0.9707
vn 0.3792 0.5322 0.7570
vn 0.1294 0.6563 0.7433
vn 0.1768 0.3079 0.9349
vn 0.1639 0.8083 0.5655
vn 0.1462 0.8164 0.5587
vn 0.1106 0.7846 0.6101
vn 0.1738 0.6320 0.7552
vn 0.2748 0.8938 -0.3546
vn 0.2504 0.9493 0.1902
vn 0.1771 0.8803 0.4401
vn 0.2053 0.8350 0.5104
vn 0.3658 -0.1215 0.9227
vn 0.2030 -0.0564 0.9776
vn 0.3002 0.0664 0.9516
vn 0.2032 0.0367 0.9785
vn 0.4866 0.2855 0.8257
vn 0.3273 0.4272 0.8429
vn 0.2886 0.1019 0.9520
vn 0.2961 0.5254 0.7977
vn 0.3507 0.4691 0.8106
vn 0.2141 0.8220 0.5277
vn 0.3468 0.7279 0.5915
vn 0.1085 0.9339 -0.3408
vn 0.2312 0.9598 0.1590
vn 0.2450 0.9006 0.3590
vn 0.2025 0.8966 0.3939
vn 0.2279 0.8256 0.5161
vn 0.2796 -0.0242 0.9598
vn 0.2790 0.0727 0.9575
vn 0.3356 0.3120 0.8888
vn 0.3289 0.5693 0.7535
vn 0.3191 0.5540 0.7690
vn 0.2930 0.4901 0.8210
vn 0.2525 0.8422 0.4763
vn 0.2456 0.8242 0.5103
vn 0.3443 0.6143 0.7100
vn 0.1064 0.9694 -0.2213
vn 0.2439 0.9497 0.1966
vn 0.1974 0.9611 0.1931
vn 0.3001 0.8750 0.3799
vn 0.1933 -0.0445 0.9801
vn 0.1244 0.0242 0.9919
vn 0.1524 0.6183 0.7710
vn 0.1181 0.3137 0.9421
vn 0.1394 0.6395 0.7560
vn 0.3031 0.8769 0.3730
vn 0.2995 0.8577 0.4179
vn 0.3229 0.8357 0.4442
vn 0.2085 0.8478 0.4876
vn 0.2471 0.6220 0.7430
vn 0.8455 0.4885 -0.2158
vn 0.1850 0.9808 -0.0610
vn 0.5779 0.7976 0.1728
vn 0.2689 -0.1707 0.9479
vn 0.1471 -0.0600 0.9873
vn 0.0967 0.6118 0.7850
vn 0.0603 0.3262 0.9434
vn 0.6981 0.3373 -0.6316
vn 0.4236 0.7310 0.5351
vn 0.3075 0.6905 0.6547
vn 0.2525 0.6708 0.6973
vn 0.7446 0.4364 -0.5050
vn 0.6119 0.7346 -0.2932
vn 0.7816 0.5791 -0.2321
vn 0.6166 0.7817 0.0933
vn 0.6177 0.7312 0.2895
vn 0.3110 0.8613 0.4019
vn 0.4295 0.7623 0.4841
vn 0.7485 -0.6631 0.0076
vn 0.7453 -0.6602 0.0931
vn 0.8798 -0.3562 -0.3146
vn 0.7674 -0.6161 -0.1773
vn 0.8927 -0.4423 -0.0862
vn 0.8423 -0.5315 0.0890
vn 0.4528 -0.3932 0.8002
vn 0.6910 -0.2956 -0.6596
vn 0.8296 -0.2901 -0.4771
vn 0.8865 -0.4408 -0.1403
vn 0.8354 -0.4819 0.2644
vn 0.4928 -0.3331 0.8039
vn 0.7100 -0.1496 -0.6881
vn 0.7044 -0.2099 -0.6781
vn 0.7423 -0.1882 -0.6431
vn 0.5700 -0.2634 0.7783
vn 0.5344 -0.1860 0.8245
vn 0.8949 -0.4394 -0.0780
vn 0.8930 -0.4384 0.1019
vn 0.8654 -0.2976 -0.4032
vn 0.9718 -0.1735 -0.1594
vn 0.9589 -0.2706 0.0848
vn 0.6169 -0.2106 0.7584
vn 0.6237 -0.1287 -0.7710
vn 0.6444 -0.0417 -0.7635
vn 0.6753 0.1158 -0.7284
vn 0.7427 -0.1088 -0.6607
vn 0.7240 -0.0892 -0.6840
vn 0.5279 -0.1958 0.8264
vn 0.3311 -0.1885 0.9246
vn 0.7760 -0.0045 -0.6307
vn 0.7156 0.0762 0.6943
vn 0.3367 -0.0543 0.9400
vn 0.7787 0.1117 -0.6173
vn 0.7165 0.3035 -0.6281
vn 0.8009 0.2416 -0.5479
vn 0.4812 0.6412 0.5978
vn 0.7493 0.4650 0.4716
vn 0.2729 0.7342 0.6216
vn 0.3331 0.2071 0.9199
vn 0.7454 0.4412 -0.4998
vn 0.8259 0.3536 -0.4392
vn 0.7174 0.6510 -0.2481
vn 0.8458 0.5304 0.0569
vn 0.4979 0.8225 0.2749
vn 0.6689 0.5912 0.4505
vn 0.9318 -0.0138 -0.3628
vn 0.9306 -0.1155 -0.3474
vn 0.9699 -0.0621 -0.2353
vn 0.9707 -0.1303 0.2017
vn 0.7031 -0.1420 0.6968
vn 0.7297 0.0324 -0.6830
vn 0.9355 -0.0000 -0.3535
vn 0.8015 0.2404 -0.5476
vn 0.9686 0.0717 -0.2382
vn 0.9689 0.1504 0.1966
vn 0.7882 0.1551 0.5955
vn 0.8471 0.3503 -0.3996
vn 0.9736 0.1552 -0.1675
vn 0.7405 0.6715 0.0270
vn 0.9245 0.3515 0.1477
vn 0.6210 0.6708 0.4055
vn 0.7320 0.3979 0.5530
vn -0.8902 -0.2774 -0.3614
vn -0.9172 -0.1912 -0.3497
vn -0.6674 -0.4918 -0.5591
vn -0.8408 -0.3740 -0.3914
vn -0.6051 -0.6640 -0.4392
vn -0.6824 -0.2914 -0.6703
vn -0.7158 -0.3567 -0.6003
vn -0.6441 -0.2011 -0.7380
vn -0.7934 -0.2278 -0.5644
vn -0.7712 -0.2655 -0.5786
vn -0.4530 -0.8257 -0.3361
vn -0.4068 -0.5279 -0.7455
vn -0.6635 -0.4398 -0.6052
vn -0.4259 -0.7232 -0.5437
vn -0.5536 -0.3073 -0.7740
vn -0.5095 -0.3730 -0.7754
vn -0.5743 -0.1591 -0.8030
vn -0.6184 -0.1832 -0.7642
vn -0.9604 -0.2571 -0.1077
vn -0.9178 -0.3745 0.1315
vn -0.9470 -0.3030 -0.1069
vn -0.9452 -0.2042 0.2547
vn -0.9743 -0.1843 0.1295
vn -0.9305 -0.0439 0.3637
vn -0.6583 -0.7526 0.0135
vn -0.7409 -0.6682 0.0675
vn -0.6523 -0.7431 0.1494
vn -0.8730 -0.2985 0.3857
vn -0.8517 -0.4313 0.2976
vn -0.8841 -0.3148 0.3454
vn -0.9015 -0.1691 0.3983
vn -0.8785 -0.1616 0.4496
vn -0.8333 -0.0976 0.5441
vn -0.9032 0.0028 0.4293
vn -0.8458 0.0020 0.5334
vn -0.8344 0.0047 0.5512
vn -0.3559 -0.9345 -0.0000
vn -0.3068 -0.9224 -0.2347
vn -0.5628 -0.8090 -0.1696
vn -0.3238 -0.9279 -0.1846
vn -0.7539 -0.6466 0.1167
vn -0.4441 -0.8940 0.0592
vn -0.7984 -0.5224 0.2993
vn -0.6172 -0.7521 0.2311
vn -0.7916 -0.4781 0.3805
vn -0.8055 -0.1556 0.5718
vn -0.7744 -0.2681 0.5730
vn -0.8139 -0.0605 0.5778
vn -0.7748 -0.0678 0.6286
vn -0.8179 0.0094 0.5752
vn -0.7965 0.0133 0.6045
vn -0.8349 -0.1242 -0.5361
vn -0.9218 -0.1642 -0.3512
vn -0.8405 -0.0476 -0.5397
vn -0.9632 -0.0274 -0.2674
vn -0.8544 0.0960 -0.5107
vn -0.9325 0.1996 -0.3010
vn -0.9128 0.2834 -0.2941
vn -0.5852 -0.1217 -0.8017
vn -0.5894 0.0219 -0.8075
vn -0.2739 0.3292 -0.9037
vn -0.3243 0.4546 -0.8295
vn -0.2601 0.5022 -0.8247
vn -0.4561 0.5558 -0.6950
vn -0.4575 0.4965 -0.7377
vn -0.4313 0.5209 -0.7367
vn -0.6739 0.6764 -0.2972
vn -0.5515 0.0159 -0.8340
vn -0.5476 -0.0559 -0.8348
vn -0.4317 0.1851 -0.8828
vn -0.3449 0.1822 -0.9208
vn -0.3251 0.4133 -0.8506
vn -0.1913 0.4988 -0.8454
vn -0.1920 0.5043 -0.8419
vn -0.2604 0.5257 -0.8098
vn -0.2680 0.5821 -0.7676
vn -0.3745 0.6427 -0.6684
vn -0.9756 -0.0729 0.2073
vn -0.9102 0.0043 0.4141
vn -0.9781 0.0114 0.2078
vn -0.8959 0.0293 0.4433
vn -0.9662 0.1244 0.2256
vn -0.8979 0.0798 0.4329
vn -0.9234 0.3397 0.1787
vn -0.9163 0.2108 0.3405
vn -0.9476 0.3194 -0.0000
vn -0.8937 0.0607 0.4446
vn -0.8412 0.0754 0.5354
vn -0.8324 0.0686 0.5499
vn -0.8735 0.0625 0.4829
vn -0.8446 0.0887 0.5281
vn -0.8269 0.1012 0.5531
vn -0.8511 0.0769 0.5194
vn -0.8311 0.1025 0.5466
vn -0.8488 0.2397 0.4713
vn -0.8461 0.1325 0.5163
vn -0.8401 0.1491 0.5216
vn -0.6359 0.7592 -0.1391
vn -0.9182 0.3169 0.2375
vn -0.8694 0.4041 0.2844
vn -0.8295 0.2102 0.5175
vn -0.8260 0.5326 -0.1844
vn -0.8282 0.4920 0.2684
vn -0.8602 0.3551 0.3660
vn -0.8161 0.0685 0.5738
vn -0.8051 0.0689 0.5891
vn -0.8139 0.1108 0.5703
vn -0.8132 0.1086 0.5718
vn -0.8042 0.1107 0.5839
vn -0.8231 0.1087 0.5573
vn -0.7956 0.1121 0.5953
vn -0.8010 0.1308 0.5842
vn -0.8147 0.1289 0.5654
vn -0.7932 0.1366 0.5935
vn -0.7663 0.1564 0.6232
vn -0.7644 0.1877 0.6169
vn -0.7310 0.2295 0.6426
vn -0.3982 0.7619 -0.5109
vn -0.6798 0.7322 0.0427
vn -0.6034 0.5938 0.5323
vn -0.7543 0.2457 0.6088
vn -0.7000 0.4225 0.5757
vn -0.4841 0.7034 -0.5205
vn -0.4453 0.8939 -0.0519
vn -0.5682 0.7364 0.3673
vn -0.2938 -0.8033 -0.5181
vn -0.1856 -0.9094 -0.3723
vn -0.3523 -0.8436 -0.4053
vn -0.2286 -0.9438 -0.2387
vn -0.4326 -0.5363 -0.7247
vn -0.3318 -0.6458 -0.6876
vn -0.2881 -0.3717 -0.8825
vn -0.3878 -0.1812 -0.9038
vn -0.1577 -0.9434 -0.2919
vn -0.2244 -0.8296 -0.5113
vn -0.1393 -0.9371 -0.3202
vn -0.1093 -0.4962 -0.8613
vn -0.1667 -0.6910 -0.7033
vn -0.0922 -0.3521 -0.9314
vn -0.0566 -0.1885 -0.9804
vn -0.0531 -0.9473 -0.3158
vn 0.0540 -0.8063 -0.5890
vn 0.0597 -0.8534 -0.5179
vn 0.1868 -0.3837 -0.9044
vn 0.2956 -0.5193 -0.8018
vn 0.3088 -0.2279 -0.9234
vn 0.4317 -0.3229 -0.8423
vn 0.3100 -0.1754 -0.9344
vn 0.0694 -0.9345 -0.3491
vn 0.3196 -0.6811 -0.6588
vn 0.2632 -0.6596 -0.7040
vn 0.3919 -0.4327 -0.8119
vn 0.3229 -0.5994 -0.7324
vn 0.4251 -0.2165 -0.8788
vn 0.4729 -0.2590 -0.8422
vn 0.4051 -0.1590 -0.9003
vn 0.4837 -0.1931 -0.8537
vn 0.1415 -0.8893 -0.4349
vn 0.2992 -0.5656 -0.7685
vn 0.2726 -0.8130 -0.5146
vn 0.4272 -0.2656 -0.8643
vn 0.5198 -0.3860 -0.7621
vn 0.4668 -0.2329 -0.8531
vn 0.4644 -0.1988 -0.8630
vn 0.4729 -0.2149 -0.8545
vn 0.3949 -0.4614 -0.7945
vn 0.4995 -0.5889 -0.6354
vn 0.4804 -0.3118 -0.8198
vn 0.5183 -0.4422 -0.7320
vn 0.5027 -0.2318 -0.8328
vn 0.4711 -0.1869 -0.8621
vn 0.5199 -0.2005 -0.8303
vn 0.5012 -0.5287 -0.6851
vn 0.4977 -0.2488 -0.8309
vn 0.5834 -0.3742 -0.7208
vn 0.5150 -0.2069 -0.8318
vn 0.5643 -0.2389 -0.7903
vn 0.5172 -0.1865 -0.8353
vn 0.5486 -0.1883 -0.8146
vn 0.5738 -0.2637 -0.7754
vn 0.5928 -0.2292 -0.7721
vn 0.6166 -0.1764 -0.7673
vn -0.2770 -0.9378 -0.2091
vn -0.3597 -0.9300 -0.0752
vn -0.3552 -0.9340 0.0396
vn -0.4164 -0.8871 0.1991
vn -0.7179 -0.5136 0.4700
vn -0.3604 -0.8008 0.4784
vn -0.7139 -0.3843 0.5854
vn -0.4582 -0.2298 0.8586
vn -0.4683 -0.1035 0.8775
vn -0.6797 0.0036 0.7335
vn -0.3026 -0.0880 0.9491
vn -0.1613 -0.9529 -0.2566
vn -0.1722 -0.9701 -0.1711
vn -0.2033 -0.9784 -0.0367
vn -0.1621 -0.9446 0.2853
vn -0.1465 -0.9034 0.4030
vn -0.0717 -0.3258 0.9427
vn -0.0710 -0.3333 0.9402
vn -0.1065 -0.1833 0.9773
vn -0.1263 -0.2699 0.9546
vn -0.1424 -0.1531 0.9779
vn -0.0846 -0.9601 -0.2665
vn -0.0999 -0.9744 -0.2014
vn -0.2276 -0.9708 -0.0755
vn -0.1039 -0.9932 -0.0532
vn -0.1264 -0.9888 0.0791
vn -0.0981 -0.9380 0.3323
vn 0.2009 -0.8060 0.5568
vn 0.1204 -0.3987 0.9091
vn 0.1944 -0.4260 0.8836
vn 0.1270 -0.3107 0.9420
vn 0.1293 -0.2509 0.9593
vn 0.0556 -0.2103 0.9761
vn 0.0205 -0.2243 0.9743
vn -0.0047 -1.0000 -0.0014
vn -0.0000 -0.9994 0.0338
vn -0.0020 -0.9626 -0.2708
vn -0.0855 -0.9739 -0.2105
vn -0.0245 -0.9914 -0.1287
vn 0.4182 -0.6959 0.5837
vn 0.1304 -0.6121 0.7800
vn 0.1179 -0.6764 0.7270
vn 0.1133 -0.4039 0.9077
vn 0.1066 -0.3734 0.9215
vn 0.1183 -0.3278 0.9373
vn 0.0895 -0.2765 0.9568
vn 0.1284 -0.2626 0.9563
vn 0.0803 -0.2209 0.9720
vn 0.0212 -0.9998 0.0027
vn 0.0173 -0.9432 -0.3317
vn 0.0179 -0.9730 -0.2303
vn 0.0106 -0.9948 -0.1013
vn 0.3971 -0.9036 0.1607
vn 0.1841 -0.9177 0.3519
vn 0.2116 -0.8060 0.5528
vn 0.1809 -0.6354 0.7507
vn 0.1827 -0.4558 0.8711
vn 0.1320 -0.3622 0.9227
vn 0.1435 -0.3145 0.9383
vn 0.1442 -0.3091 0.9400
vn 0.1408 -0.2523 0.9573
vn 0.2566 -0.8726 -0.4155
vn 0.0891 -0.9737 -0.2098
vn 0.0817 -0.9813 0.1745
vn 0.0443 -0.8399 0.5409
vn 0.0847 -0.6251 0.7759
vn 0.1901 -0.5118 0.8378
vn 0.2223 -0.3626 0.9051
vn 0.1655 -0.3502 0.9219
vn 0.1594 -0.3124 0.9365
vn 0.2027 -0.2613 0.9438
vn 0.3667 -0.8061 -0.4644
vn 0.3235 -0.8939 -0.3103
vn 0.3354 -0.9265 0.1706
vn 0.2025 -0.8026 0.5611
vn 0.5454 -0.6444 -0.5360
vn 0.1761 -0.5236 0.8335
vn 0.1959 -0.4284 0.8821
vn 0.2090 -0.3733 0.9038
vn 0.2123 -0.3516 0.9117
vn 0.1943 -0.3311 0.9234
vn 0.1886 -0.2222 0.9566
vn 0.4003 -0.8402 -0.3657
vn 0.5650 -0.8228 0.0612
vn 0.2333 -0.8532 0.4665
vn 0.5187 -0.5691 -0.6381
vn 0.5952 -0.5447 -0.5907
vn 0.7556 -0.6292 -0.1822
vn 0.7455 -0.6664 0.0105
vn 0.7683 -0.5410 0.3422
vn 0.2199 -0.4594 0.8606
vn 0.7225 -0.4502 -0.5247
vn 0.6648 -0.6672 -0.3360
vn 0.2963 -0.3951 0.8695
vn 0.6957 -0.2948 -0.6551
vn 0.2918 -0.4268 0.8560
vn 0.2564 -0.3104 0.9154
vn 0.6399 -0.2091 -0.7395
vn 0.3260 -0.2133 0.9210
vn 0.2301 -0.2302 0.9455
vn -0.4315 0.1272 -0.8931
vn -0.1540 0.3553 -0.9220
vn -0.1676 0.4610 -0.8714
vn -0.1265 0.4701 -0.8735
vn -0.1403 0.4843 -0.8636
vn -0.1377 0.5173 -0.8447
vn -0.1428 0.5358 -0.8322
vn -0.1365 0.5065 -0.8514
vn -0.0741 0.5497 -0.8321
vn -0.1418 0.7270 -0.6718
vn -0.0000 0.6982 -0.7159
vn -0.0570 0.1432 -0.9880
vn -0.0364 0.3745 -0.9265
vn -0.0514 0.4489 -0.8921
vn -0.0556 0.4691 -0.8814
vn -0.0554 0.4879 -0.8711
vn -0.0575 0.5200 -0.8522
vn -0.0584 0.5461 -0.8357
vn -0.0445 0.5532 -0.8319
vn -0.0474 0.7200 -0.6924
vn 0.2221 0.0356 -0.9744
vn 0.0942 0.2496 -0.9638
vn 0.0987 0.3312 -0.9384
vn 0.0349 0.4171 -0.9082
vn -0.0141 0.4798 -0.8772
vn -0.0198 0.5130 -0.8582
vn -0.0201 0.5569 -0.8303
vn -0.0100 0.5721 -0.8201
vn 0.0060 0.7375 -0.6753
vn 0.0211 0.6542 -0.7560
vn 0.3247 -0.0308 -0.9453
vn 0.3653 -0.0977 -0.9257
vn 0.3226 0.1194 -0.9390
vn 0.3534 0.1125 -0.9287
vn 0.1802 0.2927 -0.9391
vn 0.1843 0.3062 -0.9340
vn 0.0400 0.4244 -0.9046
vn 0.0411 0.4872 -0.8723
vn 0.0470 0.5771 -0.8153
vn 0.0468 0.5785 -0.8144
vn 0.1184 0.8188 -0.5617
vn 0.1793 0.7865 -0.5910
vn 0.4733 -0.1375 -0.8701
vn 0.4400 -0.0008 -0.8980
vn 0.2185 0.2025 -0.9546
vn 0.2101 0.3361 -0.9181
vn 0.1490 0.4392 -0.8860
vn 0.1316 0.5247 -0.8411
vn 0.0861 0.6269 -0.7743
vn 0.0801 0.8636 -0.4978
vn 0.4709 -0.1243 -0.8734
vn 0.5294 -0.1709 -0.8310
vn 0.4237 -0.0470 -0.9046
vn 0.4816 -0.0525 -0.8748
vn 0.4214 0.1161 -0.8994
vn 0.4789 0.1191 -0.8698
vn 0.3126 0.2196 -0.9242
vn 0.4831 0.2803 -0.8295
vn 0.2838 0.4802 -0.8300
vn 0.2781 0.4367 -0.8556
vn 0.2147 0.6006 -0.7702
vn 0.1425 0.7919 -0.5938
vn 0.5539 -0.1483 -0.8193
vn 0.5530 -0.1410 -0.8211
vn 0.5547 -0.0686 -0.8292
vn 0.5073 0.0883 -0.8572
vn 0.4970 0.2384 -0.8344
vn 0.6090 0.3826 -0.6947
vn 0.4418 0.3134 -0.8406
vn 0.6657 0.4660 -0.5828
vn 0.5081 0.6376 -0.5791
vn 0.5051 0.5269 -0.6836
vn 0.5815 -0.1136 -0.8056
vn 0.6335 -0.1250 -0.7635
vn 0.5683 -0.0531 -0.8211
vn 0.6699 -0.0466 -0.7410
vn 0.5691 -0.0008 -0.8222
vn 0.7465 0.1141 -0.6555
vn 0.7109 0.1995 -0.6744
vn 0.7333 0.3365 -0.5908
vn 0.6664 0.4460 -0.5975
vn -0.7556 0.0633 0.6519
vn -0.5776 0.0015 0.8163
vn -0.7198 0.1118 0.6852
vn -0.5719 0.1395 0.8083
vn -0.7151 0.1585 0.6808
vn -0.6197 0.2044 0.7577
vn -0.5855 0.2193 0.7804
vn -0.6561 0.1876 0.7310
vn -0.7279 0.2628 0.6333
vn -0.5131 0.5055 0.6937
vn -0.1413 0.7640 0.6295
vn -0.4681 0.3901 0.7929
vn 0.0728 0.9077 -0.4132
vn -0.0922 0.9515 -0.2934
vn -0.0433 0.9989 -0.0196
vn 0.1531 0.7531 0.6399
vn -0.0699 0.9615 0.2658
vn -0.1919 0.5055 0.8412
vn -0.2456 -0.0948 0.9647
vn -0.2461 0.0714 0.9666
vn -0.2967 0.1725 0.9393
vn -0.3213 0.1656 0.9324
vn -0.6192 0.2610 0.7406
vn -0.2497 0.5323 0.8089
vn -0.0807 0.7526 0.6536
vn -0.3960 0.3554 0.8467
vn -0.0000 0.8162 -0.5778
vn 0.2974 0.8266 0.4778
vn 0.0210 0.8331 0.5527
vn -0.0854 0.6485 0.7564
vn -0.1820 0.7339 -0.6544
vn 0.0546 0.9210 -0.3856
vn 0.0592 0.9982 0.0042
vn 0.1971 0.9249 0.3251
vn 0.0127 -0.1771 0.9841
vn 0.0129 0.0102 0.9999
vn -0.1180 0.1994 0.9728
vn 0.0036 0.6619 0.7496
vn -0.1154 0.2371 0.9646
vn 0.1235 0.7837 0.6088
vn 0.0060 0.6110 0.7916
vn 0.2555 0.8646 0.4327
vn 0.2031 0.7897 0.5789
vn 0.1978 0.8454 0.4962
vn 0.1410 0.7580 0.6369
vn 0.2818 0.9583 -0.0464
vn -0.0000 0.9998 -0.0193
vn 0.3963 0.8918 0.2181
vn 0.0759 0.9953 0.0601
vn 0.2503 0.8902 0.3807
vn 0.1071 -0.1855 0.9768
vn 0.1621 -0.0858 0.9830
vn 0.1766 0.1632 0.9707
vn 0.3501 0.4067 0.8438
vn 0.1713 0.6771 0.7156
vn 0.1105 0.3701 0.9224
vn 0.2075 0.8230 0.5288
vn 0.1489 0.6282 0.7637
vn 0.1639 0.8084 0.5654
vn 0.1125 0.6873 0.7176
vn 0.2549 0.9074 -0.3341
vn 0.2902 0.9441 0.1564
vn 0.2233 0.8924 0.3921
vn 0.1903 0.8463 0.4975
vn 0.3002 -0.0649 0.9517
vn 0.1048 -0.1581 0.9819
vn 0.3392 0.0479 0.9395
vn 0.2900 -0.0306 0.9565
vn 0.3376 0.1092 0.9350
vn 0.3412 0.4336 0.8340
vn 0.2158 0.1816 0.9594
vn 0.3384 0.5501 0.7635
vn 0.2961 0.5285 0.7956
vn 0.2270 0.8284 0.5121
vn 0.2109 0.8330 0.5114
vn 0.2286 0.9491 -0.2167
vn 0.2596 0.9472 0.1884
vn 0.2705 0.8321 0.4842
vn 0.2387 0.9034 0.3562
vn 0.2193 0.8325 0.5088
vn 0.2023 -0.0807 0.9760
vn 0.2885 0.0655 0.9552
vn 0.2799 0.2506 0.9267
vn 0.3180 0.4987 0.8063
vn 0.3350 0.5647 0.7543
vn 0.3066 0.4777 0.8233
vn 0.3168 0.8520 0.4169
vn 0.2205 0.8455 0.4862
vn 0.2361 0.7542 0.6128
vn 0.2285 0.9714 -0.0651
vn 0.3060 0.8752 0.3747
vn 0.2070 0.9611 0.1827
vn 0.2508 0.9011 0.3536
vn 0.1742 -0.0248 0.9844
vn 0.1737 0.0745 0.9820
vn 0.1391 0.6087 0.7811
vn 0.1014 0.3315 0.9380
vn 0.2695 0.5510 0.7898
vn 0.5418 0.8338 0.1058
vn 0.2837 0.8698 0.4037
vn 0.3571 0.6595 0.6614
vn 0.2815 0.8618 0.4220
vn 0.2263 0.6362 0.7376
vn 0.6643 0.7475 -0.0000
vn 0.1254 0.9921 -0.0000
vn 0.2927 0.9451 0.1452
vn 0.1472 -0.0449 0.9881
vn 0.0638 0.0243 0.9977
vn 0.2346 0.7447 0.6248
vn 0.0694 0.3152 0.9465
vn 0.7424 0.4420 -0.5035
vn 0.4268 0.6950 0.5787
vn 0.4304 0.7268 0.5353
vn 0.2915 0.6271 0.7223
vn 0.7414 0.5510 -0.3831
vn 0.5380 0.7514 -0.3821
vn 0.6433 0.7614 -0.0797
vn 0.4466 0.8922 -0.0668
vn 0.6108 0.7414 0.2781
vn 0.4296 0.8582 0.2809
vn 0.3269 0.8359 0.4409
vn 0.7209 -0.6924 -0.0299
vn 0.5679 -0.7525 0.3334
vn 0.7055 -0.4235 -0.5683
vn 0.8612 -0.4803 -0.1660
vn 0.8457 -0.5336 0.0074
vn 0.8849 -0.3722 0.2801
vn 0.4345 -0.4121 0.8009
vn 0.6875 -0.2989 -0.6618
vn 0.8443 -0.4178 -0.3356
vn 0.8635 -0.4982 -0.0786
vn 0.8385 -0.3735 0.3968
vn 0.4592 -0.3613 0.8115
vn 0.6319 -0.1477 -0.7609
vn 0.7207 -0.1919 -0.6662
vn 0.8224 -0.3169 -0.4724
vn 0.4901 -0.3610 0.7934
vn 0.3693 -0.1639 0.9147
vn 0.8440 -0.5139 -0.1537
vn 0.6446 -0.6522 0.3988
vn 0.9135 -0.2220 -0.3410
vn 0.9603 -0.2710 -0.0661
vn 0.9658 -0.1640 0.2007
vn 0.5833 -0.2589 0.7699
vn 0.6377 -0.1082 -0.7627
vn 0.6822 -0.0051 -0.7311
vn 0.6780 0.1117 -0.7266
vn 0.7382 -0.0963 -0.6677
vn 0.7480 -0.1524 -0.6459
vn 0.5446 -0.2152 0.8106
vn 0.3662 -0.1574 0.9172
vn 0.7496 0.0332 -0.6611
vn 0.5569 -0.0525 0.8289
vn 0.3400 -0.0570 0.9387
vn 0.8226 0.2536 -0.5090
vn 0.7991 0.2907 -0.5262
vn 0.8232 0.3611 -0.4381
vn 0.6575 0.6424 0.3937
vn 0.6934 0.2582 0.6727
vn 0.5179 0.7458 0.4190
vn 0.2256 0.3184 0.9207
vn 0.8051 0.3634 -0.4688
vn 0.8154 0.5091 -0.2755
vn 0.6883 0.6693 -0.2797
vn 0.8546 0.5133 0.0782
vn 0.7154 0.6956 0.0657
vn 0.5150 0.7323 0.4455
vn 0.7589 -0.0169 -0.6510
vn 0.9468 -0.0778 -0.3123
vn 0.9783 -0.1313 -0.1605
vn 0.9669 -0.1090 0.2308
vn 0.6164 -0.2152 0.7574
vn 0.7524 -0.0000 -0.6587
vn 0.9615 0.0743 -0.2645
vn 0.9148 0.1998 -0.3510
vn 0.9743 0.1512 -0.1672
vn 0.9649 0.1260 0.2303
vn 0.7081 0.0773 0.7018
vn 0.9165 0.2265 -0.3298
vn 0.9340 0.3552 0.0374
vn 0.7542 0.6548 0.0485
vn 0.9306 0.3136 0.1889
vn 0.7529 0.6307 0.1881
vn 0.6606 0.4736 0.5825
s 0
f 5//1 2//1 3//1
f 8//2 4//2 5//2
f 13//3 9//3 10//3
f 13//4 2//4 12//4
f 13//5 1//5 3//5
f 15//6 11//6 12//6
f 15//7 2//7 4//7
f 17//8 14//8 15//8
f 17//9 6//9 16//9
f 17//10 4//10 7//10
f 21//11 9//11 20//11
f 24//12 19//12 20//12
f 24//13 11//13 23//13
f 24//14 9//14 12//14
f 26//15 22//15 23//15
f 26//16 11//16 14//16
f 27//17 26//17 28//17
f 28//18 14//18 16//18
f 31//19 1//19 29//19
f 31//20 30//20 32//20
f 5//21 31//21 33//21
f 33//22 32//22 34//22
f 35//23 5//23 33//23
f 36//24 33//24 34//24
f 39//25 1//25 10//25
f 40//26 37//26 38//26
f 30//27 39//27 40//27
f 43//28 30//28 40//28
f 43//29 41//29 44//29
f 44//30 42//30 45//30
f 34//31 43//31 46//31
f 46//32 44//32 47//32
f 48//33 44//33 45//33
f 49//34 34//34 46//34
f 49//35 47//35 50//35
f 51//36 47//36 48//36
f 53//37 37//37 52//37
f 56//38 18//38 52//38
f 56//39 10//39 21//39
f 56//40 37//40 39//40
f 57//41 38//41 53//41
f 57//42 54//42 58//42
f 41//43 57//43 58//43
f 58//44 55//44 59//44
f 42//45 58//45 59//45
f 61//46 42//46 59//46
f 61//47 60//47 62//47
f 48//48 61//48 63//48
f 63//49 62//49 64//49
f 65//50 48//50 63//50
f 65//51 64//51 66//51
f 68//52 6//52 7//52
f 68//53 8//53 69//53
f 70//54 68//54 71//54
f 71//55 69//55 72//55
f 73//56 71//56 74//56
f 75//57 71//57 72//57
f 76//58 75//58 77//58
f 79//59 6//59 67//59
f 80//60 67//60 70//60
f 73//61 80//61 70//61
f 82//62 73//62 74//62
f 83//63 82//63 84//63
f 76//64 82//64 74//64
f 85//65 76//65 77//65
f 86//66 85//66 87//66
f 78//67 85//67 77//67
f 89//68 28//68 90//68
f 79//69 28//69 16//69
f 91//70 90//70 92//70
f 80//71 90//71 79//71
f 93//72 80//72 81//72
f 83//73 93//73 81//73
f 95//74 83//74 84//74
f 86//75 95//75 84//75
f 97//76 86//76 87//76
f 88//77 97//77 87//77
f 100//78 8//78 35//78
f 101//79 35//79 36//79
f 72//80 100//80 102//80
f 103//81 100//81 101//81
f 75//82 102//82 104//82
f 105//83 102//83 103//83
f 77//84 104//84 106//84
f 107//85 104//85 105//85
f 108//86 77//86 106//86
f 109//87 36//87 49//87
f 109//88 50//88 110//88
f 110//89 51//89 111//89
f 112//90 101//90 109//90
f 112//91 110//91 113//91
f 114//92 110//92 111//92
f 115//93 103//93 112//93
f 116//94 112//94 113//94
f 107//95 117//95 106//95
f 107//96 115//96 118//96
f 119//97 115//97 116//97
f 120//98 78//98 108//98
f 108//99 117//99 120//99
f 121//100 117//100 118//100
f 121//101 119//101 122//101
f 88//102 120//102 123//102
f 123//103 121//103 124//103
f 125//104 121//104 122//104
f 126//105 51//105 65//105
f 127//106 65//106 66//106
f 114//107 128//107 113//107
f 114//108 126//108 129//108
f 130//109 126//109 127//109
f 116//110 128//110 131//110
f 132//111 128//111 129//111
f 132//112 130//112 133//112
f 134//113 116//113 131//113
f 134//114 132//114 135//114
f 136//115 132//115 133//115
f 137//116 119//116 134//116
f 138//117 134//117 135//117
f 139//118 88//118 123//118
f 140//119 123//119 124//119
f 125//120 140//120 124//120
f 125//121 137//121 141//121
f 142//122 137//122 138//122
f 99//123 139//123 143//123
f 144//124 139//124 140//124
f 145//125 140//125 141//125
f 149//126 19//126 148//126
f 150//127 146//127 147//127
f 150//128 20//128 149//128
f 150//129 18//129 21//129
f 152//130 22//130 151//130
f 152//131 19//131 23//131
f 153//132 22//132 25//132
f 154//133 25//133 27//133
f 156//134 146//134 155//134
f 158//135 148//135 157//135
f 158//136 146//136 149//136
f 152//137 159//137 160//137
f 160//138 148//138 152//138
f 161//139 151//139 153//139
f 154//140 161//140 153//140
f 156//141 163//141 164//141
f 166//142 157//142 165//142
f 158//143 163//143 155//143
f 160//144 167//144 168//144
f 160//145 165//145 157//145
f 161//146 167//146 159//146
f 170//147 167//147 169//147
f 171//148 161//148 162//148
f 164//149 172//149 173//149
f 166//150 174//150 175//150
f 166//151 172//151 163//151
f 168//152 174//152 165//152
f 177//153 174//153 176//153
f 170//154 178//154 179//154
f 170//155 176//155 168//155
f 171//156 178//156 169//156
f 181//157 178//157 180//157
f 173//158 182//158 183//158
f 175//159 182//159 172//159
f 185//160 182//160 184//160
f 177//161 186//161 187//161
f 177//162 184//162 175//162
f 179//163 186//163 176//163
f 189//164 186//164 188//164
f 181//165 188//165 179//165
f 191//166 188//166 190//166
f 185//167 193//167 194//167
f 185//168 192//168 183//168
f 187//169 193//169 184//169
f 196//170 193//170 195//170
f 189//171 195//171 187//171
f 191//172 198//172 199//172
f 191//173 197//173 189//173
f 194//174 200//174 192//174
f 196//175 202//175 203//175
f 196//176 201//176 194//176
f 197//177 202//177 195//177
f 205//178 202//178 204//178
f 206//179 197//179 199//179
f 206//180 205//180 204//180
f 203//181 208//181 201//181
f 205//182 209//182 203//182
f 207//183 210//183 205//183
f 212//184 18//184 147//184
f 213//185 52//185 212//185
f 54//186 213//186 214//186
f 55//187 214//187 215//187
f 217//188 55//188 215//188
f 217//189 216//189 218//189
f 60//190 217//190 218//190
f 219//191 60//191 218//191
f 64//192 219//192 220//192
f 222//193 64//193 220//193
f 222//194 221//194 223//194
f 212//195 156//195 224//195
f 213//196 224//196 225//196
f 214//197 225//197 226//197
f 227//198 214//198 226//198
f 216//199 227//199 228//199
f 229//200 216//200 228//200
f 219//201 229//201 230//201
f 231//202 219//202 230//202
f 221//203 231//203 232//203
f 233//204 221//204 232//204
f 224//205 164//205 237//205
f 238//206 224//206 237//206
f 239//207 234//207 235//207
f 239//208 225//208 238//208
f 239//209 236//209 240//209
f 227//210 239//210 240//210
f 241//211 227//211 240//211
f 242//212 241//212 240//212
f 229//213 241//213 243//213
f 244//214 229//214 243//214
f 231//215 244//215 245//215
f 232//216 245//216 246//216
f 233//217 246//217 247//217
f 249//218 234//218 248//218
f 250//219 235//219 249//219
f 237//220 173//220 251//220
f 252//221 237//221 251//221
f 252//222 234//222 238//222
f 253//223 250//223 249//223
f 254//224 236//224 250//224
f 242//225 254//225 255//225
f 256//226 242//226 255//226
f 244//227 256//227 257//227
f 245//228 257//228 258//228
f 259//229 245//229 258//229
f 260//230 259//230 258//230
f 247//231 259//231 261//231
f 263//232 248//232 262//232
f 264//233 173//233 183//233
f 252//234 264//234 265//234
f 252//235 262//235 248//235
f 265//236 263//236 262//236
f 253//237 263//237 266//237
f 267//238 253//238 266//238
f 255//239 267//239 268//239
f 256//240 268//240 269//240
f 257//241 269//241 270//241
f 271//242 257//242 270//242
f 260//243 271//243 272//243
f 273//244 260//244 272//244
f 264//245 192//245 274//245
f 275//246 264//246 274//246
f 266//247 275//247 276//247
f 267//248 276//248 277//248
f 268//249 277//249 278//249
f 279//250 268//250 278//250
f 280//251 279//251 278//251
f 270//252 279//252 281//252
f 282//253 270//253 281//253
f 283//254 271//254 282//254
f 274//255 200//255 284//255
f 285//256 274//256 284//256
f 276//257 285//257 286//257
f 277//258 286//258 287//258
f 288//259 200//259 201//259
f 289//260 277//260 287//260
f 280//261 289//261 290//261
f 291//262 280//262 290//262
f 292//263 291//263 290//263
f 282//264 291//264 293//264
f 294//265 282//265 293//265
f 285//266 295//266 296//266
f 286//267 296//267 297//267
f 298//268 286//268 297//268
f 288//269 208//269 299//269
f 288//270 295//270 284//270
f 300//271 295//271 299//271
f 301//272 296//272 300//272
f 301//273 298//273 297//273
f 289//274 298//274 302//274
f 303//275 208//275 209//275
f 304//276 299//276 303//276
f 305//277 289//277 302//277
f 306//278 209//278 210//278
f 292//279 305//279 307//279
f 308//280 292//280 307//280
f 309//281 210//281 211//281
f 310//282 308//282 307//282
f 294//283 308//283 311//283
f 312//284 27//284 89//284
f 91//285 312//285 89//285
f 314//286 91//286 92//286
f 93//287 314//287 92//287
f 94//288 315//288 93//288
f 95//289 316//289 94//289
f 96//290 317//290 95//290
f 319//291 96//291 97//291
f 320//292 319//292 321//292
f 98//293 319//293 97//293
f 99//294 321//294 98//294
f 323//295 154//295 312//295
f 313//296 323//296 312//296
f 314//297 324//297 313//297
f 315//298 325//298 314//298
f 316//299 326//299 315//299
f 317//300 327//300 316//300
f 329//301 317//301 318//301
f 320//302 329//302 318//302
f 331//303 320//303 321//303
f 323//304 171//304 162//304
f 324//305 333//305 323//305
f 335//306 324//306 325//306
f 336//307 325//307 326//307
f 327//308 336//308 326//308
f 328//309 337//309 327//309
f 339//310 328//310 329//310
f 340//311 329//311 330//311
f 341//312 330//312 331//312
f 342//313 331//313 332//313
f 333//314 180//314 171//314
f 343//315 181//315 180//315
f 345//316 333//316 334//316
f 345//317 344//317 343//317
f 335//318 345//318 334//318
f 347//319 335//319 336//319
f 337//320 347//320 336//320
f 349//321 337//321 338//321
f 339//322 349//322 338//322
f 352//323 339//323 340//323
f 352//324 351//324 350//324
f 341//325 352//325 340//325
f 354//326 181//326 344//326
f 355//327 344//327 346//327
f 347//328 355//328 346//328
f 357//329 347//329 348//329
f 358//330 348//330 349//330
f 359//331 349//331 350//331
f 351//332 359//332 350//332
f 361//333 351//333 353//333
f 354//334 198//334 190//334
f 363//335 198//335 362//335
f 355//336 362//336 354//336
f 364//337 363//337 362//337
f 366//338 355//338 356//338
f 367//339 364//339 366//339
f 368//340 356//340 357//340
f 368//341 367//341 366//341
f 358//342 368//342 357//342
f 370//343 358//343 359//343
f 371//344 359//344 360//344
f 361//345 371//345 360//345
f 363//346 206//346 199//346
f 374//347 206//347 373//347
f 375//348 363//348 365//348
f 367//349 375//349 365//349
f 378//350 367//350 369//350
f 378//351 377//351 376//351
f 380//352 369//352 370//352
f 380//353 379//353 378//353
f 371//354 380//354 370//354
f 382//355 371//355 372//355
f 374//356 383//356 384//356
f 374//357 211//357 207//357
f 375//358 383//358 373//358
f 386//359 383//359 385//359
f 387//360 375//360 376//360
f 387//361 386//361 385//361
f 377//362 387//362 376//362
f 389//363 377//363 379//363
f 390//364 379//364 381//364
f 391//365 66//365 222//365
f 392//366 222//366 223//366
f 393//367 127//367 391//367
f 393//368 392//368 394//368
f 133//369 393//369 395//369
f 396//370 393//370 394//370
f 136//371 397//371 135//371
f 136//372 395//372 398//372
f 138//373 397//373 399//373
f 400//374 397//374 398//374
f 142//375 403//375 141//375
f 142//376 399//376 404//376
f 322//377 401//377 321//377
f 143//378 322//378 99//378
f 144//379 405//379 143//379
f 407//380 402//380 406//380
f 407//381 144//381 145//381
f 145//382 403//382 407//382
f 408//383 223//383 233//383
f 394//384 408//384 409//384
f 396//385 410//385 395//385
f 396//386 409//386 411//386
f 398//387 410//387 412//387
f 413//388 410//388 411//388
f 400//389 414//389 399//389
f 400//390 412//390 415//390
f 401//391 331//391 321//391
f 418//392 402//392 403//392
f 404//393 418//393 403//393
f 404//394 414//394 419//394
f 332//395 416//395 420//395
f 405//396 416//396 401//396
f 421//397 405//397 406//397
f 421//398 402//398 417//398
f 422//399 233//399 247//399
f 409//400 422//400 423//400
f 424//401 409//401 423//401
f 413//402 425//402 412//402
f 413//403 424//403 426//403
f 429//404 414//404 415//404
f 415//405 425//405 429//405
f 432//406 417//406 418//406
f 433//407 427//407 432//407
f 433//408 418//408 419//408
f 433//409 414//409 428//409
f 342//410 430//410 341//410
f 434//411 332//411 420//411
f 435//412 430//412 434//412
f 435//413 420//413 421//413
f 435//414 417//414 431//414
f 436//415 247//415 261//415
f 437//416 422//416 436//416
f 439//417 423//417 437//417
f 442//418 438//418 441//418
f 442//419 425//419 426//419
f 442//420 424//420 439//420
f 444//421 427//421 428//421
f 445//422 440//422 444//422
f 445//423 428//423 429//423
f 445//424 425//424 441//424
f 446//425 341//425 430//425
f 447//426 430//426 431//426
f 448//427 431//427 432//427
f 448//428 427//428 443//428
f 449//429 273//429 272//429
f 436//430 273//430 450//430
f 451//431 450//431 449//431
f 452//432 436//432 450//432
f 454//433 451//433 453//433
f 454//434 438//434 439//434
f 454//435 437//435 452//435
f 456//436 440//436 441//436
f 456//437 438//437 453//437
f 459//438 443//438 444//438
f 459//439 440//439 455//439
f 446//440 361//440 353//440
f 447//441 460//441 446//441
f 462//442 457//442 461//442
f 462//443 447//443 448//443
f 462//444 443//444 458//444
f 449//445 283//445 463//445
f 464//446 449//446 463//446
f 453//447 464//447 466//447
f 468//448 465//448 467//448
f 468//449 455//449 456//449
f 468//450 453//450 466//450
f 471//451 457//451 458//451
f 459//452 471//452 458//452
f 472//453 455//453 467//453
f 460//454 372//454 361//454
f 474//455 469//455 473//455
f 474//456 460//456 461//456
f 474//457 457//457 470//457
f 475//458 283//458 294//458
f 464//459 475//459 476//459
f 478//460 465//460 466//460
f 478//461 464//461 476//461
f 480//462 465//462 477//462
f 482//463 469//463 470//463
f 471//464 482//464 470//464
f 484//465 479//465 483//465
f 484//466 471//466 472//466
f 484//467 467//467 480//467
f 382//468 481//468 381//468
f 485//469 372//469 473//469
f 485//470 469//470 481//470
f 486//471 294//471 311//471
f 487//472 475//472 486//472
f 491//473 477//473 478//473
f 491//474 476//474 487//474
f 389//475 488//475 388//475
f 495//476 489//476 494//476
f 495//477 479//477 480//477
f 495//478 477//478 490//478
f 390//479 492//479 389//479
f 481//480 390//480 381//480
f 496//481 493//481 492//481
f 482//482 496//482 481//482
f 498//483 493//483 497//483
f 498//484 482//484 483//484
f 498//485 479//485 494//485
f 301//486 500//486 501//486
f 502//487 301//487 501//487
f 304//488 503//488 504//488
f 304//489 500//489 300//489
f 505//490 500//490 504//490
f 505//491 502//491 501//491
f 305//492 502//492 506//492
f 306//493 503//493 303//493
f 508//494 503//494 507//494
f 509//495 504//495 508//495
f 509//496 506//496 505//496
f 307//497 506//497 510//497
f 309//498 499//498 511//498
f 309//499 507//499 306//499
f 512//500 507//500 511//500
f 310//501 510//501 513//501
f 514//502 310//502 513//502
f 509//503 515//503 516//503
f 517//504 509//504 516//504
f 512//505 515//505 508//505
f 519//506 515//506 518//506
f 519//507 517//507 516//507
f 513//508 517//508 520//508
f 384//509 499//509 211//509
f 386//510 521//510 384//510
f 523//511 386//511 388//511
f 524//512 499//512 521//512
f 525//513 511//513 524//513
f 526//514 514//514 513//514
f 486//515 514//515 527//515
f 528//516 521//516 522//516
f 531//517 526//517 530//517
f 531//518 486//518 527//518
f 523//519 528//519 522//519
f 488//520 523//520 388//520
f 532//521 529//521 528//521
f 535//522 489//522 490//522
f 536//523 530//523 535//523
f 536//524 490//524 491//524
f 536//525 487//525 531//525
f 537//526 488//526 492//526
f 537//527 533//527 532//527
f 493//528 537//528 492//528
f 539//529 533//529 538//529
f 539//530 493//530 494//530
f 539//531 489//531 534//531
f 525//532 540//532 541//532
f 525//533 518//533 512//533
f 542//534 518//534 541//534
f 542//535 520//535 519//535
f 526//536 520//536 543//536
f 544//537 524//537 528//537
f 544//538 541//538 540//538
f 529//539 544//539 528//539
f 545//540 542//540 541//540
f 547//541 542//541 546//541
f 530//542 543//542 547//542
f 548//543 529//543 533//543
f 548//544 546//544 545//544
f 534//545 548//545 533//545
f 550//546 546//546 549//546
f 550//547 534//547 535//547
f 550//548 530//548 547//548
f 5//549 4//549 2//549
f 8//550 7//550 4//550
f 13//551 12//551 9//551
f 13//552 3//552 2//552
f 13//553 10//553 1//553
f 15//554 14//554 11//554
f 15//555 12//555 2//555
f 17//556 16//556 14//556
f 17//557 7//557 6//557
f 17//558 15//558 4//558
f 21//559 10//559 9//559
f 24//560 23//560 19//560
f 24//561 12//561 11//561
f 24//562 20//562 9//562
f 26//563 25//563 22//563
f 26//564 23//564 11//564
f 27//565 25//565 26//565
f 28//566 26//566 14//566
f 31//567 3//567 1//567
f 31//568 29//568 30//568
f 5//569 3//569 31//569
f 33//570 31//570 32//570
f 35//571 8//571 5//571
f 36//572 35//572 33//572
f 39//573 29//573 1//573
f 40//574 39//574 37//574
f 30//575 29//575 39//575
f 43//576 32//576 30//576
f 43//577 40//577 41//577
f 44//578 41//578 42//578
f 34//579 32//579 43//579
f 46//580 43//580 44//580
f 48//581 47//581 44//581
f 49//582 36//582 34//582
f 49//583 46//583 47//583
f 51//584 50//584 47//584
f 53//585 38//585 37//585
f 56//586 21//586 18//586
f 56//587 39//587 10//587
f 56//588 52//588 37//588
f 57//589 40//589 38//589
f 57//590 53//590 54//590
f 41//591 40//591 57//591
f 58//592 54//592 55//592
f 42//593 41//593 58//593
f 61//594 45//594 42//594
f 61//595 59//595 60//595
f 48//596 45//596 61//596
f 63//597 61//597 62//597
f 65//598 51//598 48//598
f 65//599 63//599 64//599
f 68//600 67//600 6//600
f 68//601 7//601 8//601
f 70//602 67//602 68//602
f 71//603 68//603 69//603
f 73//604 70//604 71//604
f 75//605 74//605 71//605
f 76//606 74//606 75//606
f 79//607 16//607 6//607
f 80//608 79//608 67//608
f 73//609 81//609 80//609
f 82//610 81//610 73//610
f 83//611 81//611 82//611
f 76//612 84//612 82//612
f 85//613 84//613 76//613
f 86//614 84//614 85//614
f 78//615 87//615 85//615
f 89//616 27//616 28//616
f 79//617 90//617 28//617
f 91//618 89//618 90//618
f 80//619 92//619 90//619
f 93//620 92//620 80//620
f 83//621 94//621 93//621
f 95//622 94//622 83//622
f 86//623 96//623 95//623
f 97//624 96//624 86//624
f 88//625 98//625 97//625
f 100//626 69//626 8//626
f 101//627 100//627 35//627
f 72//628 69//628 100//628
f 103//629 102//629 100//629
f 75//630 72//630 102//630
f 105//631 104//631 102//631
f 77//632 75//632 104//632
f 107//633 106//633 104//633
f 108//634 78//634 77//634
f 109//635 101//635 36//635
f 109//636 49//636 50//636
f 110//637 50//637 51//637
f 112//638 103//638 101//638
f 112//639 109//639 110//639
f 114//640 113//640 110//640
f 115//641 105//641 103//641
f 116//642 115//642 112//642
f 107//643 118//643 117//643
f 107//644 105//644 115//644
f 119//645 118//645 115//645
f 120//646 87//646 78//646
f 108//647 106//647 117//647
f 121//648 120//648 117//648
f 121//649 118//649 119//649
f 88//650 87//650 120//650
f 123//651 120//651 121//651
f 125//652 124//652 121//652
f 126//653 111//653 51//653
f 127//654 126//654 65//654
f 114//655 129//655 128//655
f 114//656 111//656 126//656
f 130//657 129//657 126//657
f 116//658 113//658 128//658
f 132//659 131//659 128//659
f 132//660 129//660 130//660
f 134//661 119//661 116//661
f 134//662 131//662 132//662
f 136//663 135//663 132//663
f 137//664 122//664 119//664
f 138//665 137//665 134//665
f 139//666 98//666 88//666
f 140//667 139//667 123//667
f 125//668 141//668 140//668
f 125//669 122//669 137//669
f 142//670 141//670 137//670
f 99//671 98//671 139//671
f 144//672 143//672 139//672
f 145//673 144//673 140//673
f 149//674 20//674 19//674
f 150//675 149//675 146//675
f 150//676 21//676 20//676
f 150//677 147//677 18//677
f 152//678 23//678 22//678
f 152//679 148//679 19//679
f 153//680 151//680 22//680
f 154//681 153//681 25//681
f 156//682 147//682 146//682
f 158//683 149//683 148//683
f 158//684 155//684 146//684
f 152//685 151//685 159//685
f 160//686 157//686 148//686
f 161//687 159//687 151//687
f 154//688 162//688 161//688
f 156//689 155//689 163//689
f 166//690 158//690 157//690
f 158//691 166//691 163//691
f 160//692 159//692 167//692
f 160//693 168//693 165//693
f 161//694 169//694 167//694
f 170//695 168//695 167//695
f 171//696 169//696 161//696
f 164//697 163//697 172//697
f 166//698 165//698 174//698
f 166//699 175//699 172//699
f 168//700 176//700 174//700
f 177//701 175//701 174//701
f 170//702 169//702 178//702
f 170//703 179//703 176//703
f 171//704 180//704 178//704
f 181//705 179//705 178//705
f 173//706 172//706 182//706
f 175//707 184//707 182//707
f 185//708 183//708 182//708
f 177//709 176//709 186//709
f 177//710 187//710 184//710
f 179//711 188//711 186//711
f 189//171 187//171 186//171
f 181//712 190//712 188//712
f 191//713 189//713 188//713
f 185//714 184//714 193//714
f 185//715 194//715 192//715
f 187//716 195//716 193//716
f 196//717 194//717 193//717
f 189//718 197//718 195//718
f 191//719 190//719 198//719
f 191//720 199//720 197//720
f 194//721 201//721 200//721
f 196//722 195//722 202//722
f 196//723 203//723 201//723
f 197//724 204//724 202//724
f 205//725 203//725 202//725
f 206//726 204//726 197//726
f 206//727 207//727 205//727
f 203//728 209//728 208//728
f 205//729 210//729 209//729
f 207//730 211//730 210//730
f 212//731 52//731 18//731
f 213//732 53//732 52//732
f 54//733 53//733 213//733
f 55//734 54//734 214//734
f 217//735 59//735 55//735
f 217//736 215//736 216//736
f 60//737 59//737 217//737
f 219//738 62//738 60//738
f 64//739 62//739 219//739
f 222//740 66//740 64//740
f 222//741 220//741 221//741
f 212//742 147//742 156//742
f 213//743 212//743 224//743
f 214//744 213//744 225//744
f 227//745 215//745 214//745
f 216//746 215//746 227//746
f 229//747 218//747 216//747
f 219//748 218//748 229//748
f 231//749 220//749 219//749
f 221//750 220//750 231//750
f 233//751 223//751 221//751
f 224//752 156//752 164//752
f 238//753 225//753 224//753
f 239//754 238//754 234//754
f 239//755 226//755 225//755
f 239//756 235//756 236//756
f 227//757 226//757 239//757
f 241//758 228//758 227//758
f 242//759 243//759 241//759
f 229//760 228//760 241//760
f 244//761 230//761 229//761
f 231//762 230//762 244//762
f 232//763 231//763 245//763
f 233//764 232//764 246//764
f 249//765 235//765 234//765
f 250//766 236//766 235//766
f 237//767 164//767 173//767
f 252//768 238//768 237//768
f 252//769 248//769 234//769
f 253//770 254//770 250//770
f 254//771 240//771 236//771
f 242//772 240//772 254//772
f 256//773 243//773 242//773
f 244//774 243//774 256//774
f 245//775 244//775 257//775
f 259//776 246//776 245//776
f 260//777 261//777 259//777
f 247//778 246//778 259//778
f 263//779 249//779 248//779
f 264//780 251//780 173//780
f 252//781 251//781 264//781
f 252//782 265//782 262//782
f 265//783 266//783 263//783
f 253//784 249//784 263//784
f 267//785 254//785 253//785
f 255//786 254//786 267//786
f 256//787 255//787 268//787
f 257//788 256//788 269//788
f 271//789 258//789 257//789
f 260//790 258//790 271//790
f 273//791 261//791 260//791
f 264//792 183//792 192//792
f 275//793 265//793 264//793
f 266//794 265//794 275//794
f 267//795 266//795 276//795
f 268//796 267//796 277//796
f 279//797 269//797 268//797
f 280//798 281//798 279//798
f 270//799 269//799 279//799
f 282//800 271//800 270//800
f 283//801 272//801 271//801
f 274//802 192//802 200//802
f 285//803 275//803 274//803
f 276//804 275//804 285//804
f 277//805 276//805 286//805
f 288//806 284//806 200//806
f 289//807 278//807 277//807
f 280//808 278//808 289//808
f 291//809 281//809 280//809
f 292//810 293//810 291//810
f 282//811 281//811 291//811
f 294//812 283//812 282//812
f 285//813 284//813 295//813
f 286//814 285//814 296//814
f 298//815 287//815 286//815
f 288//816 201//816 208//816
f 288//817 299//817 295//817
f 300//818 296//818 295//818
f 301//819 297//819 296//819
f 301//820 302//820 298//820
f 289//821 287//821 298//821
f 303//822 299//822 208//822
f 304//823 300//823 299//823
f 305//824 290//824 289//824
f 306//825 303//825 209//825
f 292//826 290//826 305//826
f 308//827 293//827 292//827
f 309//828 306//828 210//828
f 310//829 311//829 308//829
f 294//830 293//830 308//830
f 312//831 154//831 27//831
f 91//832 313//832 312//832
f 314//833 313//833 91//833
f 93//834 315//834 314//834
f 94//835 316//835 315//835
f 95//836 317//836 316//836
f 96//837 318//837 317//837
f 319//838 318//838 96//838
f 320//839 318//839 319//839
f 98//840 321//840 319//840
f 99//841 322//841 321//841
f 323//842 162//842 154//842
f 313//843 324//843 323//843
f 314//844 325//844 324//844
f 315//845 326//845 325//845
f 316//846 327//846 326//846
f 317//847 328//847 327//847
f 329//848 328//848 317//848
f 320//849 330//849 329//849
f 331//850 330//850 320//850
f 323//851 333//851 171//851
f 324//852 334//852 333//852
f 335//853 334//853 324//853
f 336//854 335//854 325//854
f 327//855 337//855 336//855
f 328//856 338//856 337//856
f 339//857 338//857 328//857
f 340//858 339//858 329//858
f 341//859 340//859 330//859
f 342//860 341//860 331//860
f 333//861 343//861 180//861
f 343//862 344//862 181//862
f 345//863 343//863 333//863
f 345//864 346//864 344//864
f 335//865 346//865 345//865
f 347//866 346//866 335//866
f 337//867 348//867 347//867
f 349//868 348//868 337//868
f 339//869 350//869 349//869
f 352//870 350//870 339//870
f 352//871 353//871 351//871
f 341//872 353//872 352//872
f 354//873 190//873 181//873
f 355//874 354//874 344//874
f 347//875 356//875 355//875
f 357//876 356//876 347//876
f 358//877 357//877 348//877
f 359//878 358//878 349//878
f 351//879 360//879 359//879
f 361//880 360//880 351//880
f 354//881 362//881 198//881
f 363//882 199//882 198//882
f 355//883 364//883 362//883
f 364//884 365//884 363//884
f 366//885 364//885 355//885
f 367//886 365//886 364//886
f 368//887 366//887 356//887
f 368//888 369//888 367//888
f 358//889 369//889 368//889
f 370//890 369//890 358//890
f 371//891 370//891 359//891
f 361//892 372//892 371//892
f 363//893 373//893 206//893
f 374//894 207//894 206//894
f 375//895 373//895 363//895
f 367//896 376//896 375//896
f 378//897 376//897 367//897
f 378//898 379//898 377//898
f 380//899 378//899 369//899
f 380//900 381//900 379//900
f 371//901 381//901 380//901
f 382//902 381//902 371//902
f 374//903 373//903 383//903
f 374//904 384//904 211//904
f 375//905 385//905 383//905
f 386//906 384//906 383//906
f 387//907 385//907 375//907
f 387//908 388//908 386//908
f 377//909 388//909 387//909
f 389//910 388//910 377//910
f 390//911 389//911 379//911
f 391//912 127//912 66//912
f 392//913 391//913 222//913
f 393//914 130//914 127//914
f 393//915 391//915 392//915
f 133//916 130//916 393//916
f 396//917 395//917 393//917
f 136//918 398//918 397//918
f 136//919 133//919 395//919
f 138//920 135//920 397//920
f 400//921 399//921 397//921
f 142//922 404//922 403//922
f 142//923 138//923 399//923
f 322//924 405//924 401//924
f 143//925 405//925 322//925
f 144//926 406//926 405//926
f 407//927 403//927 402//927
f 407//928 406//928 144//928
f 145//929 141//929 403//929
f 408//930 392//930 223//930
f 394//931 392//931 408//931
f 396//932 411//932 410//932
f 396//933 394//933 409//933
f 398//934 395//934 410//934
f 413//935 412//935 410//935
f 400//936 415//936 414//936
f 400//937 398//937 412//937
f 401//938 416//938 331//938
f 418//939 417//939 402//939
f 404//940 419//940 418//940
f 404//941 399//941 414//941
f 332//942 331//942 416//942
f 405//943 420//943 416//943
f 421//944 420//944 405//944
f 421//945 406//945 402//945
f 422//946 408//946 233//946
f 409//947 408//947 422//947
f 424//948 411//948 409//948
f 413//949 426//949 425//949
f 413//950 411//950 424//950
f 429//951 428//951 414//951
f 415//952 412//952 425//952
f 432//953 431//953 417//953
f 433//954 428//954 427//954
f 433//955 432//955 418//955
f 433//956 419//956 414//956
f 342//957 434//957 430//957
f 434//958 342//958 332//958
f 435//959 431//959 430//959
f 435//960 434//960 420//960
f 435//961 421//961 417//961
f 436//962 422//962 247//962
f 437//963 423//963 422//963
f 439//964 424//964 423//964
f 442//965 439//965 438//965
f 442//966 441//966 425//966
f 442//967 426//967 424//967
f 444//968 443//968 427//968
f 445//969 441//969 440//969
f 445//970 444//970 428//970
f 445//971 429//971 425//971
f 446//972 353//972 341//972
f 447//973 446//973 430//973
f 448//974 447//974 431//974
f 448//975 432//975 427//975
f 449//976 450//976 273//976
f 436//977 261//977 273//977
f 451//978 452//978 450//978
f 452//979 437//979 436//979
f 454//980 452//980 451//980
f 454//981 453//981 438//981
f 454//982 439//982 437//982
f 456//983 455//983 440//983
f 456//984 441//984 438//984
f 459//985 458//985 443//985
f 459//986 444//986 440//986
f 446//987 460//987 361//987
f 447//988 461//988 460//988
f 462//989 458//989 457//989
f 462//990 461//990 447//990
f 462//991 448//991 443//991
f 449//992 272//992 283//992
f 464//993 451//993 449//993
f 453//994 451//994 464//994
f 468//995 466//995 465//995
f 468//996 467//996 455//996
f 468//997 456//997 453//997
f 471//998 470//998 457//998
f 459//999 472//999 471//999
f 472//1000 459//1000 455//1000
f 460//1001 473//1001 372//1001
f 474//1002 470//1002 469//1002
f 474//1003 473//1003 460//1003
f 474//1004 461//1004 457//1004
f 475//1005 463//1005 283//1005
f 464//1006 463//1006 475//1006
f 478//1007 477//1007 465//1007
f 478//1008 466//1008 464//1008
f 480//1009 467//1009 465//1009
f 482//1010 481//1010 469//1010
f 471//1011 483//1011 482//1011
f 484//1012 480//1012 479//1012
f 484//1013 483//1013 471//1013
f 484//1014 472//1014 467//1014
f 382//1015 485//1015 481//1015
f 485//1016 382//1016 372//1016
f 485//1017 473//1017 469//1017
f 486//1018 475//1018 294//1018
f 487//1019 476//1019 475//1019
f 491//1020 490//1020 477//1020
f 491//1021 478//1021 476//1021
f 389//1022 492//1022 488//1022
f 495//1023 490//1023 489//1023
f 495//1024 494//1024 479//1024
f 495//1025 480//1025 477//1025
f 390//1026 496//1026 492//1026
f 481//1027 496//1027 390//1027
f 496//1028 497//1028 493//1028
f 482//1029 497//1029 496//1029
f 498//1030 494//1030 493//1030
f 498//1031 497//1031 482//1031
f 498//1032 483//1032 479//1032
f 301//1033 300//1033 500//1033
f 502//1034 302//1034 301//1034
f 304//1035 303//1035 503//1035
f 304//1036 504//1036 500//1036
f 505//1037 501//1037 500//1037
f 505//1038 506//1038 502//1038
f 305//1039 302//1039 502//1039
f 306//1040 507//1040 503//1040
f 508//1041 504//1041 503//1041
f 509//1042 505//1042 504//1042
f 509//1043 510//1043 506//1043
f 307//1044 305//1044 506//1044
f 309//1045 211//1045 499//1045
f 309//1046 511//1046 507//1046
f 512//1047 508//1047 507//1047
f 310//1048 307//1048 510//1048
f 514//1049 311//1049 310//1049
f 509//1050 508//1050 515//1050
f 517//1051 510//1051 509//1051
f 512//1052 518//1052 515//1052
f 519//1053 516//1053 515//1053
f 519//1054 520//1054 517//1054
f 513//1055 510//1055 517//1055
f 384//1056 521//1056 499//1056
f 386//1057 522//1057 521//1057
f 523//1058 522//1058 386//1058
f 524//1059 511//1059 499//1059
f 525//1060 512//1060 511//1060
f 526//1061 527//1061 514//1061
f 486//1062 311//1062 514//1062
f 528//1063 524//1063 521//1063
f 531//1064 527//1064 526//1064
f 531//1065 487//1065 486//1065
f 523//1066 532//1066 528//1066
f 488//1067 532//1067 523//1067
f 532//1068 533//1068 529//1068
f 535//1069 534//1069 489//1069
f 536//1070 531//1070 530//1070
f 536//1071 535//1071 490//1071
f 536//1072 491//1072 487//1072
f 537//1073 532//1073 488//1073
f 537//1074 538//1074 533//1074
f 493//1075 538//1075 537//1075
f 539//1076 534//1076 533//1076
f 539//1077 538//1077 493//1077
f 539//1078 494//1078 489//1078
f 525//1079 524//1079 540//1079
f 525//1080 541//1080 518//1080
f 542//1081 519//1081 518//1081
f 542//1082 543//1082 520//1082
f 526//1083 513//1083 520//1083
f 544//1084 540//1084 524//1084
f 544//1085 545//1085 541//1085
f 529//1086 545//1086 544//1086
f 545//1087 546//1087 542//1087
f 547//1088 543//1088 542//1088
f 530//1089 526//1089 543//1089
f 548//1090 545//1090 529//1090
f 548//1091 549//1091 546//1091
f 534//1092 549//1092 548//1092
f 550//1093 547//1093 546//1093
f 550//1094 549//1094 534//1094
f 550//1095 535//1095 530//1095
