# Blender 4.3.2
# www.blender.org
mtllib rock1_high_res.mtl
o rock1
v -0.483609 -0.378584 -0.748269
v -0.144945 -0.486258 -1.158838
v -0.336186 -0.520315 -0.831214
v -0.205563 -0.579685 -0.962992
v -0.133578 -0.609808 -1.068001
v -0.139431 -0.581276 -1.126392
v -0.183761 -0.570049 -1.183007
v -0.229764 -0.599457 -1.201485
v -0.360276 -0.567481 -1.232122
v -0.492581 -0.508136 -0.729158
v -0.204562 -0.643456 -1.159726
v -0.262627 -0.655149 -1.194525
v -0.545575 -0.548793 -0.728149
v -0.463992 -0.631099 -0.775633
v -0.203637 -0.724875 -1.045109
v -0.206450 -0.696395 -1.111819
v -0.261583 -0.710502 -1.163898
v -0.646702 -0.540542 -0.770711
v -0.550328 -0.624960 -0.730620
v -0.547116 -0.685016 -0.743680
v -0.509367 -0.755491 -0.777597
v -0.351652 -0.713332 -0.897956
v -0.280502 -0.778904 -1.007747
v -0.297773 -0.824062 -1.041194
v -0.306684 -0.775919 -1.134456
v -0.613333 -0.671767 -0.756266
v -0.576555 -0.741310 -0.764528
v -0.545170 -0.801988 -0.820223
v -0.474685 -0.776933 -0.842972
v -0.444779 -0.837425 -0.915357
v -0.423753 -0.827617 -1.042940
v -0.393261 -0.804345 -1.120631
v -0.437422 -0.757262 -1.176573
v -0.577831 -0.816832 -0.893116
v -0.696583 -0.655318 -0.797059
v -0.721879 -0.727596 -0.833775
v -0.647484 -0.790486 -1.006538
v -0.566924 -0.783263 -1.125969
v -0.529491 -0.751383 -1.185337
v -0.465072 -0.680197 -1.212852
v -0.761540 -0.573972 -0.827803
v -0.785975 -0.651295 -0.849086
v -0.805225 -0.680634 -0.879338
v -0.814868 -0.707615 -0.914858
v -0.751672 -0.741691 -1.080851
v -0.709071 -0.736231 -1.174822
v -0.621526 -0.676189 -1.210786
v -0.833390 -0.542802 -0.884879
v -0.867943 -0.588350 -0.968438
v -0.828834 -0.677220 -1.044342
v -0.797819 -0.655734 -1.128447
v -0.730204 -0.640777 -1.208820
v -0.874626 -0.507248 -0.940786
v -0.891141 -0.473969 -0.992294
v -0.854060 -0.545892 -1.076005
v -0.798846 -0.576450 -1.181828
v -0.749465 -0.571566 -1.225830
v -0.749161 -0.437895 -0.833121
v -0.855052 -0.353598 -0.917954
v -0.883433 -0.374235 -0.985400
v -0.862668 -0.423348 -1.081094
v -0.811394 -0.451508 -1.142087
v -0.755028 -0.512180 -1.222043
v -0.682901 -0.554016 -1.235818
v -0.830024 -0.277632 -0.978259
v -0.744261 -0.319938 -1.106072
v -0.648234 -0.387201 -1.209735
v -0.592519 -0.442982 -1.250586
v -0.519850 -0.536042 -1.243884
v -0.707132 -0.188171 -1.026116
v -0.739125 -0.296014 -0.845651
v -0.698632 -0.147529 -0.890118
v -0.682940 -0.132139 -0.961937
v -0.605064 -0.143040 -0.977081
v -0.587996 -0.141095 -1.062674
v -0.544981 -0.238142 -1.167650
v -0.496142 -0.304004 -1.226483
v -0.511088 -0.398416 -1.252491
v -0.425724 -0.457246 -1.256122
v -0.638352 -0.209318 -0.817386
v -0.654227 -0.163943 -0.853897
v -0.639614 -0.122221 -0.911570
v -0.459521 -0.188882 -1.008909
v -0.400274 -0.196584 -1.130943
v -0.427400 -0.193817 -1.174529
v -0.403591 -0.304825 -1.234135
v -0.373132 -0.410341 -1.250886
v -0.552811 -0.199322 -0.866978
v -0.303684 -0.238448 -1.148021
v -0.285518 -0.312095 -1.193162
v -0.333635 -0.360895 -1.237941
v -0.609902 -0.335929 -0.778248
v -0.283596 -0.445794 -1.232693
v -0.385631 -0.279939 -0.882070
v -0.265647 -0.287548 -1.024797
v -0.193508 -0.318415 -1.129655
v -0.179410 -0.386912 -1.167554
v -0.215750 -0.446756 -1.209519
v -0.392647 -0.371384 -0.774944
v -0.275230 -0.405296 -0.909424
v -0.137501 -0.409036 -0.983699
v -0.101125 -0.446591 -1.087975
v -0.223362 -0.522913 -1.213709
v -0.819308 -0.611718 -0.882109
v -0.842201 -0.580321 -0.901560
v -0.828118 -0.649237 -0.898790
v -0.117352 -0.528199 -1.077988
v -0.153344 -0.513138 -1.025483
v -0.169571 -0.594746 -1.015496
v -0.438128 -0.374984 -0.761607
v -0.467164 -0.418281 -0.745085
v -0.421683 -0.414681 -0.758423
v -0.123035 -0.466424 -1.123407
v -0.162178 -0.436585 -1.163196
v -0.140267 -0.416752 -1.127764
v -0.333938 -0.388340 -0.842184
v -0.364416 -0.445849 -0.803079
v -0.305708 -0.462806 -0.870319
v -0.696248 -0.353570 -1.157903
v -0.729814 -0.419354 -1.175911
v -0.777828 -0.385723 -1.124079
v -0.246195 -0.627303 -1.198005
v -0.311451 -0.611315 -1.213323
v -0.295020 -0.583469 -1.216804
v -0.773195 -0.732119 -0.895893
v -0.768373 -0.718629 -0.878134
v -0.547274 -0.233778 -0.823393
v -0.572303 -0.223239 -0.828308
v -0.541737 -0.268234 -0.779809
v -0.120278 -0.513933 -1.107183
v -0.136505 -0.595542 -1.097197
v -0.328364 -0.428068 -1.241789
v -0.353383 -0.385618 -1.244413
v -0.308616 -0.403345 -1.235317
v -0.798333 -0.616092 -1.155138
v -0.764525 -0.608613 -1.195324
v -0.764012 -0.648255 -1.168633
v -0.505554 -0.658057 -0.759656
v -0.507160 -0.628029 -0.753127
v -0.548722 -0.654988 -0.737150
v -0.205043 -0.710635 -1.078464
v -0.250282 -0.766749 -1.060593
v -0.251688 -0.752509 -1.093948
v -0.234017 -0.703449 -1.137859
v -0.256567 -0.736157 -1.123137
v -0.284133 -0.743211 -1.149177
v -0.345093 -0.806484 -1.098354
v -0.360339 -0.818120 -1.059508
v -0.408507 -0.815981 -1.081785
v -0.528242 -0.720253 -0.760638
v -0.561836 -0.713163 -0.754104
v -0.542961 -0.748401 -0.771062
v -0.372053 -0.766590 -1.155514
v -0.349972 -0.790132 -1.127543
v -0.415341 -0.780804 -1.148602
v -0.506166 -0.194102 -0.937943
v -0.469221 -0.239630 -0.874524
v -0.422576 -0.234410 -0.945490
v -0.344113 -0.702910 -1.196553
v -0.374747 -0.732044 -1.182351
v -0.406788 -0.728128 -1.190776
v -0.844684 -0.486111 -0.895270
v -0.865302 -0.468333 -0.923224
v -0.854008 -0.525025 -0.912832
v -0.440063 -0.551762 -1.238003
v -0.412674 -0.623839 -1.222487
v -0.492461 -0.608119 -1.228368
v -0.316077 -0.746118 -0.952852
v -0.405474 -0.772179 -0.926567
v -0.369899 -0.804965 -0.981463
v -0.253479 -0.484353 -1.223201
v -0.249673 -0.446275 -1.221106
v -0.219556 -0.484834 -1.211614
v -0.289137 -0.801483 -1.024471
v -0.352127 -0.803261 -1.025344
v -0.360763 -0.825840 -1.042067
v -0.580225 -0.678391 -0.749973
v -0.581831 -0.648363 -0.743443
v -0.480092 -0.793804 -1.123300
v -0.502173 -0.770262 -1.151271
v -0.620376 -0.415092 -1.230160
v -0.579661 -0.392808 -1.231113
v -0.551803 -0.420699 -1.251539
v -0.600376 -0.755247 -0.779688
v -0.515469 -0.467229 -1.248188
v -0.556185 -0.489512 -1.247235
v -0.598091 -0.782366 -0.810687
v -0.585927 -0.794131 -0.824981
v -0.509928 -0.789461 -0.831597
v -0.561500 -0.809410 -0.856669
v -0.526258 -0.796883 -0.868044
v -0.679103 -0.771448 -0.853334
v -0.674282 -0.756935 -0.831757
v -0.731522 -0.756623 -0.876929
v -0.664449 -0.788792 -0.906068
v -0.654676 -0.786728 -0.885023
v -0.451247 -0.718729 -1.194713
v -0.420613 -0.689595 -1.208915
v -0.764184 -0.281585 -0.867332
v -0.728268 -0.246033 -0.853741
v -0.753327 -0.231604 -0.875422
v -0.548208 -0.767323 -1.155653
v -0.594225 -0.729726 -1.168378
v -0.575508 -0.713786 -1.198061
v -0.856728 -0.325934 -0.981830
v -0.863234 -0.343929 -0.999507
v -0.723000 -0.762841 -1.010856
v -0.729149 -0.757095 -0.983366
v -0.841406 -0.647982 -0.941648
v -0.832940 -0.662727 -0.916550
v -0.859477 -0.603095 -0.943340
v -0.819824 -0.700462 -1.002267
v -0.839379 -0.656027 -0.964316
v -0.848388 -0.632785 -1.006390
v -0.562982 -0.323343 -0.768875
v -0.516062 -0.310757 -0.759501
v -0.575819 -0.302082 -0.779029
v -0.719638 -0.688504 -1.191821
v -0.753445 -0.695983 -1.151634
v -0.284665 -0.262998 -1.086409
v -0.229577 -0.302981 -1.077226
v -0.248596 -0.278431 -1.138838
v -0.492026 -0.766212 -0.810284
v -0.469339 -0.704016 -0.809302
v -0.486679 -0.693295 -0.776615
v -0.239513 -0.315255 -1.161408
v -0.294601 -0.275271 -1.170591
v -0.774155 -0.574008 -1.203829
v -0.776937 -0.544315 -1.201936
v -0.752246 -0.541873 -1.223937
v -0.624127 -0.272624 -0.797817
v -0.600849 -0.291543 -0.783944
v -0.615074 -0.228237 -0.803512
v -0.882883 -0.490609 -0.966540
v -0.879030 -0.440741 -0.963093
v -0.887287 -0.424102 -0.988847
v -0.872600 -0.509930 -1.034150
v -0.884789 -0.434460 -1.011016
v -0.866248 -0.470421 -1.052871
v -0.813326 -0.666477 -1.086395
v -0.841447 -0.611556 -1.060174
v -0.825940 -0.600813 -1.102226
v -0.218401 -0.377674 -1.188214
v -0.197580 -0.416834 -1.188537
v -0.236571 -0.407596 -1.209197
v -0.870552 -0.409149 -1.055416
v -0.811349 -0.357444 -1.067904
v -0.803465 -0.371643 -1.093583
v -0.495338 -0.805440 -1.084455
v -0.535618 -0.809052 -1.024739
v -0.607204 -0.786875 -1.066254
v -0.792478 -0.233938 -0.917269
v -0.782678 -0.215072 -0.927105
v -0.637710 -0.498499 -1.243202
v -0.665568 -0.470609 -1.222777
v -0.690518 -0.730130 -0.812359
v -0.673038 -0.748390 -0.814312
v -0.659157 -0.732665 -0.790943
v -0.291819 -0.545197 -1.222915
v -0.226563 -0.561185 -1.207597
v -0.784207 -0.222273 -0.944842
v -0.790597 -0.229308 -0.968025
v -0.768578 -0.232901 -1.002187
v -0.775083 -0.250897 -1.019865
v -0.656098 -0.165606 -1.001598
v -0.695036 -0.160155 -0.994027
v -0.644002 -0.137589 -0.969509
v -0.723372 -0.157056 -0.906217
v -0.717055 -0.156561 -0.959864
v -0.726280 -0.159082 -0.942548
v -0.520562 -0.271073 -1.197067
v -0.480264 -0.235011 -1.182872
v -0.455845 -0.267942 -1.212288
v -0.669123 -0.134875 -0.900844
v -0.676430 -0.155736 -0.872007
v -0.646921 -0.143082 -0.882733
v -0.503615 -0.351210 -1.239487
v -0.449867 -0.304415 -1.230309
v -0.457340 -0.351620 -1.243313
v -0.855515 -0.391509 -0.911808
v -0.870251 -0.364397 -0.946244
v -0.863114 -0.396908 -0.925953
v -0.468406 -0.427831 -1.254307
v -0.442110 -0.404379 -1.251688
v -0.399428 -0.433793 -1.253504
v -0.496571 -0.189085 -1.111758
v -0.526194 -0.185234 -1.050741
v -0.429897 -0.192733 -1.069926
v -0.486190 -0.215980 -1.171089
v -0.472628 -0.217363 -1.149297
v -0.685819 -0.179997 -0.857864
v -0.677881 -0.202684 -0.839608
v -0.646289 -0.186630 -0.835642
v -0.596138 -0.544667 -0.749430
v -0.598515 -0.582751 -0.750666
v -0.547952 -0.586877 -0.729385
v -0.595582 -0.204320 -0.842182
v -0.603519 -0.181632 -0.860438
v -0.350533 -0.271987 -1.195628
v -0.359616 -0.235163 -1.173058
v -0.671642 -0.597930 -0.783885
v -0.654958 -0.663543 -0.776662
v -0.630018 -0.606155 -0.763489
v -0.368613 -0.332860 -1.236038
v -0.344554 -0.308460 -1.213649
v -0.309577 -0.336495 -1.215551
v -0.205506 -0.669925 -1.135772
v -0.233072 -0.676979 -1.161812
v -0.679532 -0.386912 -0.805685
v -0.697932 -0.489219 -0.801916
v -0.628302 -0.438236 -0.774480
v -0.170014 -0.653102 -1.089910
v -0.172940 -0.638835 -1.119106
v -0.242069 -0.751889 -1.026428
v -0.250705 -0.774468 -1.043151
v -0.287350 -0.680987 -1.191326
v -0.262105 -0.682826 -1.179211
v -0.312072 -0.706826 -1.188128
v -0.203561 -0.546481 -1.198358
v -0.471650 -0.483057 -0.735530
v -0.450719 -0.457979 -0.741902
v -0.487549 -0.450859 -0.729990
v -0.862818 -0.562544 -0.929514
v -0.871284 -0.547799 -0.954612
v -0.183386 -0.367069 -1.056386
v -0.147317 -0.382503 -1.108815
v -0.437793 -0.336241 -0.775007
v -0.483274 -0.339841 -0.761669
v -0.330431 -0.342618 -0.895747
v -0.389139 -0.325661 -0.828507
v -0.763552 -0.704115 -0.856557
v -0.753927 -0.689445 -0.841430
v -0.709231 -0.691457 -0.815417
v -0.741279 -0.653306 -0.823072
v -0.809682 -0.597049 -0.866982
v -0.119313 -0.427814 -1.035837
v -0.171532 -0.494361 -0.973346
v -0.485579 -0.414721 -0.739130
v -0.180348 -0.466507 -1.184179
v -0.186459 -0.352663 -1.148605
v -0.393452 -0.489147 -0.786558
v -0.725697 -0.254054 -1.066094
v -0.793648 -0.316781 -1.059843
v -0.647564 -0.164633 -1.044395
v -0.596530 -0.142067 -1.019878
v -0.592867 -0.181585 -1.092574
v -0.649999 -0.184878 -1.059345
v -0.668564 -0.250762 -1.099323
v -0.568924 -0.209863 -1.130112
v -0.644621 -0.279040 -1.136861
v -0.596608 -0.312672 -1.188693
v -0.572188 -0.345603 -1.218109
v -0.701631 -0.449690 -1.215889
v -0.783211 -0.481844 -1.182065
v -0.837031 -0.437428 -1.111591
v -0.336174 -0.637154 -1.210125
v -0.810815 -0.723704 -0.960193
v -0.780941 -0.742229 -0.939606
v -0.782968 -0.734184 -0.916939
v -0.512338 -0.284666 -0.777439
v -0.482939 -0.301098 -0.775069
v -0.517875 -0.250210 -0.821023
v -0.161596 -0.575662 -1.154700
v -0.164353 -0.528153 -1.170923
v -0.142188 -0.533767 -1.142615
v -0.388362 -0.357583 -1.242511
v -0.295514 -0.364666 -1.223408
v -0.270494 -0.407115 -1.220783
v -0.739834 -0.606171 -1.217325
v -0.504784 -0.589946 -0.751891
v -0.296926 -0.808623 -1.076076
v -0.301805 -0.792271 -1.105266
v -0.594944 -0.706538 -0.760397
v -0.362584 -0.238215 -1.016853
v -0.332960 -0.242066 -1.077870
v -0.532292 -0.165961 -0.992995
v -0.523759 -0.164988 -1.035792
v -0.661277 -0.127180 -0.936754
v -0.670502 -0.129700 -0.919437
v -0.578938 -0.171181 -0.922029
v -0.622339 -0.132630 -0.944326
v -0.596213 -0.160772 -0.889274
v -0.206365 -0.407166 -0.946562
v -0.201574 -0.348292 -1.004248
v -0.270438 -0.346422 -0.967111
v -0.325639 -0.283744 -0.953434
v -0.434285 -0.290518 -0.828570
v -0.309378 -0.741372 -1.161292
v -0.773757 -0.612633 -0.838444
v -0.797465 -0.558387 -0.856341
v -0.755350 -0.505934 -0.830462
v -0.791276 -0.490348 -0.859000
v -0.836040 -0.387360 -0.893887
v -0.816102 -0.345301 -0.882112
v -0.802570 -0.433657 -0.869392
v -0.782632 -0.391598 -0.857617
v -0.368216 -0.633237 -1.218550
v -0.543299 -0.678193 -1.211819
v -0.497281 -0.715790 -1.199095
v -0.675865 -0.658483 -1.209803
v -0.665298 -0.706210 -1.192804
v -0.706553 -0.597396 -1.222319
v -0.716183 -0.562791 -1.230824
v -0.718965 -0.533098 -1.228930
v -0.601376 -0.545029 -1.239851
v -0.570688 -0.606115 -1.227335
v -0.652214 -0.615103 -1.223302
v -0.393000 -0.512363 -1.244122
v -0.366704 -0.488911 -1.241504
v -0.472787 -0.496644 -1.250003
v -0.398216 -0.775378 -0.906657
v -0.459296 -0.831026 -0.955178
v -0.184153 -0.504586 -1.186274
v -0.441525 -0.829322 -0.999059
v -0.483456 -0.754323 -1.180955
v -0.617856 -0.736987 -0.777735
v -0.626685 -0.786273 -0.829740
v -0.602258 -0.801553 -0.861428
v -0.822147 -0.310377 -0.903484
v -0.802673 -0.306229 -0.885563
v -0.777614 -0.320657 -0.863881
v -0.637998 -0.759747 -1.150396
v -0.860736 -0.354286 -1.021676
v -0.878437 -0.394950 -1.029737
v -0.850137 -0.321014 -0.962252
v -0.843747 -0.313980 -0.939069
v -0.699276 -0.775620 -0.962779
v -0.546755 -0.357257 -0.763259
v -0.571602 -0.396894 -0.754443
v -0.508456 -0.418222 -0.739453
v -0.533302 -0.457859 -0.730637
v -0.512941 -0.482997 -0.729897
v -0.499835 -0.344671 -0.753885
v -0.730371 -0.738961 -1.127836
v -0.774746 -0.698712 -1.104649
v -0.365542 -0.216132 -1.161275
v -0.351979 -0.217516 -1.139482
v -0.278607 -0.646508 -0.930474
v -0.243032 -0.679294 -0.985370
v -0.240396 -0.492490 -0.936208
v -0.400089 -0.575707 -0.803424
v -0.457355 -0.544539 -0.758767
v -0.270875 -0.550000 -0.897103
v -0.459732 -0.807179 -0.879164
v -0.413168 -0.745133 -0.870464
v -0.343919 -0.616823 -0.864585
v -0.527269 -0.778740 -0.798910
v -0.539431 -0.766975 -0.784616
v -0.407822 -0.672215 -0.836794
v -0.232464 -0.349503 -1.180358
v -0.805120 -0.513979 -1.161958
v -0.872438 -0.435822 -0.943515
v -0.861001 -0.567121 -1.022222
v -0.879542 -0.531160 -0.980366
v -0.858364 -0.484620 -1.078550
v -0.813675 -0.706208 -1.029758
v -0.790253 -0.709455 -1.062597
v -0.775094 -0.738444 -1.048012
v -0.832727 -0.498700 -1.109046
v -0.826453 -0.561171 -1.128917
v -0.271455 -0.340266 -1.201018
v -0.553390 -0.810756 -0.980858
v -0.518564 -0.823929 -0.924147
v -0.511305 -0.827129 -0.904236
v -0.612657 -0.803659 -0.949827
v -0.699578 -0.766088 -1.043694
v -0.659298 -0.762477 -1.103410
v -0.817243 -0.263562 -0.931894
v -0.778478 -0.235734 -0.895829
v -0.742562 -0.200182 -0.882238
v -0.717410 -0.196051 -0.861831
v -0.733173 -0.175921 -0.896381
v -0.636245 -0.702216 -0.773605
v -0.677870 -0.693992 -0.794001
v -0.321936 -0.506637 -1.232407
v -0.751170 -0.180984 -0.957791
v -0.729151 -0.184577 -0.991953
v -0.415548 -0.231879 -1.198094
v -0.409570 -0.268352 -1.216115
v -0.836147 -0.308580 -0.924924
v -0.688738 -0.252666 -0.831518
v -0.519078 -0.528464 -0.728653
v -0.539438 -0.503326 -0.729393
v -0.590002 -0.499201 -0.750674
v -0.704121 -0.557257 -0.799257
v -0.729061 -0.614645 -0.812431
v -0.194162 -0.606753 -1.171366
v -0.171997 -0.612366 -1.143059
v -0.674514 -0.315971 -0.811949
v -0.744143 -0.366955 -0.839386
v -0.168608 -0.667341 -1.056555
v -0.204600 -0.652280 -1.004050
v -0.233595 -0.649302 -1.177125
v -0.217163 -0.621457 -1.180606
v -0.478287 -0.569618 -0.752396
v -0.829875 -0.613759 -0.894153
v -0.146755 -0.545361 -1.039656
v -0.442325 -0.402649 -0.755038
v -0.141827 -0.439920 -1.138122
v -0.334688 -0.432332 -0.838527
v -0.734630 -0.386216 -1.152631
v -0.284222 -0.607362 -1.209377
v -0.783872 -0.714957 -0.890375
v -0.562114 -0.238238 -0.812142
v -0.124711 -0.545892 -1.094123
v -0.330121 -0.405677 -1.240507
v -0.775623 -0.624320 -1.173032
v -0.520479 -0.647025 -0.749978
v -0.235671 -0.743298 -1.077668
v -0.258239 -0.727605 -1.136724
v -0.371313 -0.813528 -1.079882
v -0.544346 -0.727272 -0.761935
v -0.379122 -0.779175 -1.143887
v -0.465988 -0.222714 -0.919319
v -0.376155 -0.698994 -1.204979
v -0.854665 -0.493156 -0.910442
v -0.448399 -0.594573 -1.229619
v -0.363817 -0.774421 -0.953627
v -0.240903 -0.471821 -1.218640
v -0.334009 -0.810194 -1.030627
v -0.570259 -0.660581 -0.743522
v -0.465869 -0.781623 -1.141058
v -0.583947 -0.409533 -1.237604
v -0.541152 -0.459147 -1.248987
v -0.532562 -0.798584 -0.852104
v -0.693362 -0.756831 -0.846815
v -0.686807 -0.778069 -0.896355
v -0.426216 -0.712151 -1.198135
v -0.748593 -0.253074 -0.865498
v -0.572647 -0.736945 -1.174031
v -0.843035 -0.313623 -1.013614
v -0.752272 -0.749796 -0.993968
v -0.851011 -0.617840 -0.918242
v -0.835864 -0.663091 -0.990991
v -0.555900 -0.304973 -0.772519
v -0.745698 -0.677581 -1.170696
v -0.254280 -0.281470 -1.100824
v -0.482681 -0.721174 -0.798734
v -0.260903 -0.289653 -1.156946
v -0.767780 -0.553399 -1.209900
v -0.591795 -0.247157 -0.789639
v -0.883067 -0.451817 -0.972827
v -0.874546 -0.471604 -1.032679
v -0.826904 -0.626282 -1.082931
v -0.217517 -0.400701 -1.195316
v -0.828455 -0.379412 -1.072301
v -0.546054 -0.800455 -1.058482
v -0.641218 -0.461400 -1.232046
v -0.271134 -0.563284 -1.215772
v -0.799479 -0.240726 -0.955981
v -0.793397 -0.259809 -1.005996
v -0.665045 -0.154450 -0.988378
v -0.485557 -0.258008 -1.197409
v -0.664158 -0.144564 -0.885195
v -0.470274 -0.335748 -1.237703
v -0.860427 -0.382471 -0.923287
v -0.436648 -0.422001 -1.253166
v -0.484221 -0.189017 -1.077475
v -0.457552 -0.209514 -1.157707
v -0.669996 -0.189771 -0.844371
v -0.580868 -0.571432 -0.743160
v -0.615130 -0.190861 -0.846087
v -0.334917 -0.260807 -1.179759
v -0.652206 -0.622542 -0.774679
v -0.340915 -0.325938 -1.221746
v -0.224198 -0.683451 -1.145148
v -0.668588 -0.438122 -0.794027
v -0.159820 -0.629160 -1.102071
v -0.260637 -0.775947 -1.031350
v -0.278761 -0.690826 -1.182184
v -0.212296 -0.564140 -1.199400
v -0.864527 -0.571146 -0.942489
v -0.186760 -0.350851 -1.080809
v -0.453065 -0.350355 -0.766094
v -0.351169 -0.352206 -0.855479
v -0.771026 -0.686508 -0.854066
v -0.734812 -0.678070 -0.826640
v -0.808197 -0.624910 -0.871101
v -0.148063 -0.478437 -1.011555
v -0.180035 -0.439975 -1.178637
v -0.158014 -0.383973 -1.128395
v -0.393184 -0.449893 -0.782687
v -0.764809 -0.273911 -1.048601
v -0.633397 -0.157435 -1.021957
v -0.629332 -0.170284 -1.060455
v -0.627370 -0.246555 -1.122099
v -0.563119 -0.309782 -1.201289
v -0.738219 -0.450296 -1.191288
v -0.806108 -0.398265 -1.109751
v -0.681420 -0.229898 -1.074921
v -0.645825 -0.315094 -1.161152
v -0.311658 -0.643152 -1.204925
v -0.792250 -0.730691 -0.931357
v -0.751068 -0.760753 -0.919020
v -0.752875 -0.721618 -0.863347
v -0.525829 -0.256218 -0.807285
v -0.156046 -0.545861 -1.156079
v -0.128500 -0.504708 -1.124402
v -0.370119 -0.358687 -1.240987
v -0.291541 -0.391708 -1.226503
v -0.759505 -0.596264 -1.205493
v -0.519965 -0.601617 -0.744801
v -0.266112 -0.785853 -1.054126
v -0.270020 -0.760312 -1.107450
v -0.339484 -0.820101 -1.053403
v -0.579001 -0.699364 -0.754825
v -0.332290 -0.796296 -1.110388
v -0.375147 -0.224338 -1.054883
v -0.550860 -0.157672 -1.016221
v -0.701391 -0.137179 -0.927304
v -0.539132 -0.177081 -0.950989
v -0.642539 -0.132467 -0.950196
v -0.599163 -0.154861 -0.918543
v -0.226126 -0.367293 -0.972640
v -0.370266 -0.252123 -0.971925
v -0.308836 -0.324261 -0.938764
v -0.473794 -0.260120 -0.841372
v -0.615551 -0.161829 -0.877482
v -0.352059 -0.746669 -1.166386
v -0.793635 -0.589356 -0.853923
v -0.781364 -0.518223 -0.848601
v -0.842377 -0.376106 -0.901909
v -0.807080 -0.404205 -0.873632
v -0.812843 -0.470039 -0.874554
v -0.853009 -0.555963 -0.914636
v -0.349501 -0.657767 -1.208410
v -0.400501 -0.648891 -1.216651
v -0.538696 -0.702590 -1.202992
v -0.686934 -0.684399 -1.198143
v -0.720857 -0.588786 -1.223489
v -0.729131 -0.545921 -1.227897
v -0.598423 -0.511013 -1.243429
v -0.535483 -0.630809 -1.222507
v -0.678210 -0.623661 -1.218475
v -0.608092 -0.588749 -1.230163
v -0.386377 -0.478356 -1.246377
v -0.435283 -0.520256 -1.244043
v -0.418576 -0.793928 -0.922830
v -0.252246 -0.420329 -1.217029
v -0.194686 -0.485309 -1.194022
v -0.387850 -0.812516 -1.001955
v -0.511279 -0.763969 -1.162626
v -0.551821 -0.363207 -1.229570
v -0.624197 -0.769185 -0.794848
v -0.485554 -0.463901 -1.250832
v -0.583229 -0.801698 -0.847693
v -0.657587 -0.761018 -0.819454
v -0.645346 -0.786576 -0.866595
v -0.477328 -0.729614 -1.191587
v -0.781490 -0.302824 -0.872259
v -0.632507 -0.731894 -1.170526
v -0.868302 -0.360936 -1.009584
v -0.861236 -0.338755 -0.969968
v -0.839173 -0.301864 -0.952132
v -0.736456 -0.758314 -0.961917
v -0.823701 -0.668696 -0.904146
v -0.831209 -0.673223 -0.947830
v -0.542271 -0.390791 -0.752385
v -0.536524 -0.341757 -0.762006
v -0.752854 -0.711219 -1.128040
v -0.377119 -0.209616 -1.151164
v -0.323202 -0.240860 -1.101254
v -0.279239 -0.690640 -0.956232
v -0.206098 -0.464672 -0.952038
v -0.416966 -0.536464 -0.782916
v -0.272326 -0.501765 -0.901210
v -0.423705 -0.775897 -0.885428
v -0.297800 -0.604444 -0.897387
v -0.509741 -0.778137 -0.813597
v -0.551806 -0.758420 -0.777920
v -0.569496 -0.778459 -0.791635
v -0.506825 -0.690535 -0.765637
v -0.430110 -0.707121 -0.838854
v -0.383943 -0.621582 -0.834934
v -0.219479 -0.339141 -1.163457
v -0.788423 -0.513379 -1.181986
v -0.581145 -0.283773 -0.782565
v -0.876103 -0.415293 -0.957477
v -0.884337 -0.414385 -1.002477
v -0.850279 -0.603821 -1.029595
v -0.871048 -0.536070 -1.012246
v -0.865055 -0.454730 -1.062279
v -0.798516 -0.735197 -1.015174
v -0.792775 -0.691548 -1.084547
v -0.793007 -0.718036 -1.046789
v -0.821433 -0.524617 -1.133307
v -0.816908 -0.592692 -1.128760
v -0.842707 -0.473583 -1.099729
v -0.292182 -0.347142 -1.213326
v -0.257392 -0.368436 -1.208874
v -0.821911 -0.342837 -1.049808
v -0.510178 -0.816376 -1.001552
v -0.493969 -0.828428 -0.921217
v -0.499098 -0.810397 -0.883815
v -0.658794 -0.789357 -0.939558
v -0.732557 -0.755791 -1.034188
v -0.675889 -0.753728 -1.127214
v -0.461313 -0.805075 -1.096513
v -0.561537 -0.812781 -0.951611
v -0.655360 -0.771813 -1.071119
v -0.789243 -0.267156 -0.889013
v -0.767713 -0.204313 -0.902645
v -0.695388 -0.484466 -1.222532
v -0.616348 -0.715247 -0.770579
v -0.656358 -0.686583 -0.781423
v -0.692540 -0.705193 -0.807259
v -0.339001 -0.474539 -1.238567
v -0.289078 -0.512063 -1.226175
v -0.772175 -0.203710 -0.937334
v -0.762775 -0.215596 -0.987389
v -0.713747 -0.167098 -0.981948
v -0.748113 -0.166583 -0.922316
v -0.462643 -0.221279 -1.180091
v -0.690090 -0.169174 -0.868615
v -0.438427 -0.280236 -1.219571
v -0.820513 -0.294772 -0.912954
v -0.847515 -0.327186 -0.932031
v -0.855978 -0.429419 -0.905662
v -0.429270 -0.371194 -1.245837
v -0.546795 -0.170521 -1.054719
v -0.512707 -0.205437 -1.130389
v -0.698296 -0.233794 -0.841623
v -0.523819 -0.504929 -0.729315
v -0.575193 -0.515731 -0.743166
v -0.594319 -0.218599 -0.824668
v -0.382211 -0.221381 -1.173548
v -0.603454 -0.612423 -0.752532
v -0.701608 -0.589944 -0.798524
v -0.748033 -0.626862 -0.824649
v -0.368219 -0.282933 -1.208464
v -0.175918 -0.598260 -1.156375
v -0.183481 -0.640376 -1.132646
v -0.662460 -0.280420 -0.813762
v -0.768129 -0.359737 -0.853628
v -0.719134 -0.517470 -0.810545
v -0.596635 -0.444777 -0.759865
v -0.699396 -0.356613 -0.819007
v -0.181222 -0.677026 -1.074976
v -0.180926 -0.638123 -1.025367
v -0.229901 -0.694488 -1.005283
v -0.242924 -0.669702 -1.172716
v -0.293446 -0.731082 -1.162161
v -0.184023 -0.526407 -1.185185
v -0.206029 -0.604321 -1.181406
v -0.232318 -0.632687 -1.185245
v -0.500716 -0.562676 -0.744313
v -0.469097 -0.532405 -0.748898
v -0.877903 -0.523189 -0.967173
v -0.168091 -0.381058 -1.032157
v -0.494203 -0.330146 -0.760946
v -0.420406 -0.317474 -0.810694
vn -0.7355 -0.1235 0.6662
vn 0.8093 -0.0899 0.5805
vn 0.2631 0.1849 0.9469
vn 0.2630 0.1849 0.9469
vn 0.7720 0.2154 -0.5980
vn 0.7578 0.0412 0.6512
vn -0.4879 0.4532 -0.7460
vn 0.1712 -0.2210 -0.9601
vn -0.5923 -0.5560 0.5831
vn 0.2125 0.7795 0.5892
vn 0.9559 -0.2146 -0.2007
vn 0.2264 0.0734 -0.9713
vn -0.6497 -0.4303 -0.6267
vn 0.4464 -0.1673 0.8791
vn 0.4464 -0.1673 0.8790
vn 0.6901 -0.6546 -0.3086
vn 0.6104 -0.6343 -0.4744
vn 0.0767 -0.9630 -0.2584
vn 0.0767 -0.9630 -0.2583
vn 0.0960 -0.3894 0.9160
vn 0.1222 -0.7097 -0.6938
vn 0.4327 0.8326 0.3457
vn 0.1476 -0.5545 -0.8190
vn -0.8210 -0.0595 0.5677
vn -0.8210 -0.0595 0.5678
vn 0.0331 -0.1983 -0.9796
vn 0.3825 -0.6628 0.6437
vn 0.3234 0.0197 -0.9461
vn 0.3234 0.0197 -0.9460
vn 0.0057 -0.5966 0.8025
vn -0.2242 -0.2185 0.9497
vn -0.0775 -0.7921 -0.6054
vn -0.2419 0.4043 -0.8820
vn -0.1480 -0.6012 0.7853
vn 0.0112 -0.0631 -0.9979
vn -0.2199 -0.8367 0.5016
vn 0.3451 -0.9379 0.0364
vn -0.4500 -0.6912 0.5655
vn -0.3315 -0.9115 0.2434
vn -0.0107 -0.4290 -0.9032
vn -0.5481 0.2483 0.7987
vn -0.3904 -0.6857 -0.6143
vn -0.8551 0.4861 -0.1801
vn -0.3473 -0.9305 0.1168
vn -0.9247 -0.3687 0.0953
vn -0.9208 -0.3897 -0.0181
vn -0.2604 0.2835 0.9229
vn -0.6735 -0.3758 -0.6365
vn 0.5644 0.8119 0.1493
vn 0.7986 -0.2996 0.5219
vn 0.5034 0.5384 -0.6758
vn -0.6644 -0.0146 -0.7472
vn -0.3813 0.1938 0.9039
vn -0.9413 0.0497 0.3339
vn -0.9238 -0.0323 -0.3815
vn -0.8812 -0.2639 -0.3923
vn 0.5001 0.2727 -0.8219
vn -0.6225 0.5881 -0.5163
vn -0.1903 -0.9638 -0.1867
vn -0.8000 0.5457 0.2494
vn -0.8000 0.5456 0.2494
vn -0.4198 0.2247 -0.8794
vn -0.5006 -0.5507 0.6679
vn 0.1855 -0.1701 -0.9678
vn -0.7770 0.6290 0.0233
vn -0.6351 0.6458 -0.4237
vn -0.0210 0.7570 -0.6530
vn -0.4927 0.8282 0.2671
vn -0.5789 0.7922 -0.1931
vn -0.2156 0.5567 -0.8022
vn -0.1496 0.8187 0.5544
vn -0.0768 0.2761 -0.9581
vn -0.8908 0.0833 0.4468
vn 0.0193 0.0895 -0.9958
vn 0.0721 0.9970 -0.0279
vn -0.3271 0.9082 0.2612
vn -0.3562 0.5070 0.7849
vn -0.3883 -0.0057 0.9215
vn 0.3179 0.6594 0.6813
vn 0.3679 0.5502 -0.7496
vn -0.4422 -0.0137 0.8968
vn 0.3171 0.4522 -0.8336
vn 0.6528 -0.5210 -0.5500
vn -0.4336 0.1109 0.8943
vn 0.7980 -0.5060 -0.3273
vn 0.7980 -0.5060 -0.3272
vn 0.6489 -0.5973 0.4713
vn 0.3605 -0.4464 -0.8190
vn 0.3606 -0.4464 -0.8190
vn 0.4624 -0.1774 -0.8688
vn 0.3054 -0.0130 0.9521
vn -0.9600 -0.1579 0.2311
vn 0.7195 0.6202 0.3124
vn 0.2440 0.3151 0.9172
vn 0.2440 0.3151 0.9171
vn 0.7057 0.5154 0.4862
vn -0.5943 -0.3544 0.7219
vn -0.4955 -0.2493 0.8321
vn -0.7727 -0.1330 0.6206
vn 0.8641 -0.2952 0.4077
vn 0.3378 0.2134 0.9167
vn 0.6299 0.1517 -0.7617
vn 0.6299 0.1517 -0.7618
vn 0.7846 0.4159 -0.4599
vn 0.7845 0.4159 -0.4599
vn 0.5841 -0.0836 0.8074
vn -0.5565 0.5400 -0.6314
vn -0.3815 0.9227 -0.0551
vn -0.4382 0.5675 -0.6971
vn -0.4451 0.5555 -0.7024
vn -0.3461 0.4691 -0.8125
vn -0.4917 0.4910 -0.7192
vn -0.5559 0.4711 -0.6848
vn -0.4425 0.5530 -0.7059
vn -0.4384 0.5122 -0.7385
vn 0.1410 -0.2534 -0.9570
vn -0.6169 -0.7575 0.2137
vn -0.5874 -0.7323 0.3446
vn -0.6173 -0.5820 0.5294
vn 0.2298 0.5289 0.8170
vn 0.3751 0.7498 0.5451
vn 0.7591 -0.1705 -0.6282
vn 0.8720 -0.1121 -0.4765
vn 0.0928 0.1822 -0.9789
vn 0.3654 0.1587 -0.9172
vn -0.6052 -0.3448 -0.7175
vn 0.4583 -0.0574 0.8869
vn 0.6911 -0.6669 -0.2784
vn 0.6130 -0.6412 -0.4617
vn 0.6130 -0.6412 -0.4616
vn 0.0314 -0.9143 -0.4039
vn -0.2262 -0.2320 0.9460
vn 0.1957 -0.8412 -0.5040
vn 0.1957 -0.8413 -0.5040
vn 0.4580 0.8731 0.1673
vn 0.3161 0.9449 0.0845
vn 0.3161 0.9450 0.0845
vn -0.2387 0.9710 0.0141
vn -0.2921 0.9155 0.2765
vn 0.3449 0.8920 0.2923
vn 0.0838 0.9616 -0.2614
vn 0.6348 0.7673 0.0910
vn 0.3815 0.6309 0.6756
vn 0.4492 0.8289 0.3334
vn 0.6832 0.4820 0.5486
vn 0.4086 0.7501 0.5200
vn 0.4087 0.7501 0.5200
vn 0.3305 0.7230 0.6067
vn 0.1677 -0.5966 -0.7848
vn -0.6263 -0.0166 0.7794
vn -0.5967 0.0855 0.7979
vn -0.6861 0.1246 0.7168
vn -0.5597 0.0335 0.8280
vn -0.5592 0.0404 0.8281
vn -0.8211 -0.0596 0.5677
vn 0.2224 -0.2227 -0.9492
vn 0.2224 -0.2228 -0.9492
vn 0.0428 -0.2069 -0.9774
vn -0.0212 -0.3437 -0.9388
vn -0.1336 -0.3586 -0.9239
vn -0.0765 -0.2580 -0.9631
vn -0.1605 0.0478 -0.9859
vn -0.0380 -0.1013 -0.9941
vn -0.0184 -0.2171 -0.9760
vn -0.0978 -0.2467 -0.9641
vn -0.0249 -0.2126 -0.9768
vn 0.1876 -0.1013 -0.9770
vn 0.0342 -0.1932 -0.9806
vn 0.7686 -0.5257 -0.3647
vn 0.3203 0.1780 -0.9304
vn 0.5773 -0.0128 -0.8165
vn 0.3019 -0.9495 0.0854
vn -0.0106 -0.8782 -0.4782
vn -0.2624 0.2947 -0.9189
vn -0.3170 -0.3957 0.8619
vn -0.0816 -0.0570 -0.9950
vn -0.2135 -0.9342 0.2859
vn -0.4909 -0.7681 0.4112
vn -0.3422 -0.9221 0.1808
vn 0.0607 -0.4072 -0.9113
vn -0.6805 0.2932 0.6716
vn -0.5433 0.2573 0.7992
vn 0.0786 -0.5941 -0.8006
vn -0.8526 0.4300 -0.2970
vn -0.8671 0.4665 0.1747
vn -0.8862 0.4506 0.1076
vn -0.4177 -0.8879 -0.1928
vn -0.8275 -0.3156 0.4644
vn -0.9211 -0.3855 0.0544
vn -0.1270 0.2905 0.9484
vn -0.0166 0.0160 0.9997
vn -0.0515 0.2475 0.9675
vn -0.2111 0.0605 0.9756
vn -0.7229 -0.5885 -0.3619
vn 0.3664 0.9148 -0.1700
vn 0.4205 0.8800 0.2209
vn 0.6483 -0.3907 0.6535
vn 0.4714 -0.0814 0.8782
vn 0.5320 -0.2011 0.8225
vn 0.7257 0.0800 0.6833
vn 0.5567 -0.5097 0.6560
vn 0.6050 -0.3031 0.7363
vn 0.4271 -0.7673 0.4783
vn 0.0342 -0.5849 0.8104
vn 0.1136 -0.7175 0.6872
vn 0.4518 -0.1786 0.8740
vn 0.5353 -0.3861 0.7512
vn 0.5900 -0.3057 0.7473
vn 0.5168 0.4935 -0.6996
vn -0.7639 0.1247 -0.6331
vn -0.1285 0.1520 0.9800
vn -0.9500 0.0409 0.3095
vn -0.9847 0.0866 -0.1514
vn -0.9483 -0.2339 -0.2147
vn -0.9472 -0.2371 -0.2158
vn -0.9643 -0.0782 -0.2528
vn -0.8634 -0.4965 -0.0894
vn -0.6913 -0.5967 -0.4074
vn -0.6896 -0.5793 -0.4346
vn -0.8772 0.0633 -0.4760
vn -0.8835 -0.2694 -0.3832
vn -0.7810 -0.0806 -0.6193
vn 0.3598 0.4129 -0.8367
vn 0.3598 0.4130 -0.8367
vn 0.4987 0.4547 -0.7379
vn -0.6121 0.4015 -0.6813
vn -0.1803 -0.9773 -0.1110
vn -0.1680 -0.9811 -0.0964
vn -0.0125 -0.7698 0.6382
vn -0.3030 -0.9523 -0.0351
vn -0.3328 -0.9318 -0.1452
vn -0.2559 -0.9514 -0.1713
vn -0.1043 -0.9407 -0.3227
vn -0.1784 -0.9769 -0.1174
vn -0.2681 -0.9337 -0.2373
vn -0.7613 0.3755 0.5286
vn -0.6222 0.3636 0.6933
vn -0.5732 0.5668 0.5917
vn -0.0878 0.1717 -0.9812
vn -0.3188 -0.2763 0.9066
vn -0.3189 -0.2763 0.9066
vn -0.4590 -0.1529 0.8752
vn -0.5629 -0.2092 0.7996
vn 0.1582 -0.1043 -0.9819
vn 0.1676 -0.1102 -0.9797
vn -0.7948 0.5831 -0.1682
vn -0.6316 0.6152 -0.4718
vn -0.5435 0.7230 -0.4264
vn -0.5871 0.5925 0.5516
vn -0.2242 0.4616 -0.8583
vn -0.3816 0.5713 0.7267
vn -0.0705 0.4326 -0.8989
vn -0.0705 0.4325 -0.8989
vn -0.7528 0.3974 0.5248
vn -0.8599 0.4085 0.3061
vn -0.9188 0.0431 0.3923
vn 0.0256 0.1640 -0.9861
vn 0.4847 0.4811 -0.7305
vn -0.0643 0.7769 -0.6263
vn -0.4457 0.2366 0.8634
vn -0.0022 0.0276 0.9996
vn -0.3815 0.0767 0.9212
vn 0.2588 0.7577 0.5991
vn 0.3634 0.5696 -0.7372
vn -0.3803 0.0051 0.9249
vn -0.4419 -0.0139 0.8970
vn -0.5041 -0.0775 0.8602
vn 0.3161 0.4614 -0.8290
vn 0.6862 -0.3893 -0.6145
vn 0.7173 -0.4814 -0.5037
vn -0.4092 0.1843 0.8936
vn -0.4825 0.1109 0.8688
vn -0.4616 0.0765 0.8838
vn -0.3987 0.1053 0.9110
vn -0.4329 0.1096 0.8948
vn -0.4328 0.1096 0.8948
vn 0.7996 -0.5394 -0.2640
vn 0.7329 -0.3276 0.5963
vn 0.6080 -0.3847 0.6945
vn 0.5288 -0.4033 -0.7468
vn 0.3233 -0.5647 -0.7594
vn 0.5845 -0.0369 -0.8106
vn 0.5469 -0.3899 -0.7409
vn 0.5286 -0.4052 -0.7459
vn 0.2425 -0.2932 0.9248
vn 0.4991 -0.2024 0.8426
vn -0.9655 -0.1517 0.2116
vn 0.6911 0.7225 -0.0191
vn 0.3304 0.3060 0.8929
vn 0.4994 0.6425 0.5812
vn -0.3904 -0.6857 -0.6144
vn -0.9238 -0.0322 -0.3815
vn -0.8812 -0.2639 -0.3924
vn 0.3605 -0.4463 -0.8190
vn -0.7727 -0.1330 0.6207
vn -0.7727 -0.1329 0.6206
vn -0.0185 -0.2171 -0.9760
vn 0.7686 -0.5256 -0.3647
vn -0.1751 -0.8792 0.4431
vn 0.0608 -0.4072 -0.9113
vn -0.6804 0.2932 0.6716
vn 0.5168 0.4934 -0.6996
vn -0.5327 0.7992 -0.2785
vn -0.0705 0.4326 -0.8988
vn 0.7174 -0.4814 -0.5037
vn 0.5288 -0.4032 -0.7468
vn 0.5468 -0.3899 -0.7409
vn 0.2425 -0.2931 0.9248
s 0
f 105//1 104//1 48//1
f 533//1 496//1 105//1
f 104//1 106//1 43//1
f 108//2 107//2 102//2
f 109//2 108//2 4//2
f 5//2 497//2 109//2
f 1//3 498//3 110//3
f 112//4 111//4 321//4
f 110//4 112//4 99//4
f 2//5 499//5 113//5
f 115//5 114//5 97//5
f 113//5 115//5 102//5
f 117//6 116//6 99//6
f 3//6 500//6 117//6
f 100//6 500//6 118//6
f 120//7 119//7 67//7
f 121//7 120//7 62//7
f 66//7 501//7 121//7
f 12//8 502//8 122//8
f 124//8 123//8 9//8
f 8//8 502//8 124//8
f 126//9 125//9 194//9
f 43//9 503//9 126//9
f 44//9 503//9 43//9
f 128//10 127//10 88//10
f 541//10 504//10 128//10
f 107//11 130//11 102//11
f 5//11 505//11 107//11
f 6//11 505//11 131//11
f 87//12 506//12 132//12
f 91//12 506//12 133//12
f 132//12 134//12 93//12
f 56//13 507//13 135//13
f 137//13 136//13 52//13
f 135//13 137//13 51//13
f 139//14 138//14 14//14
f 19//15 508//15 139//15
f 20//14 508//14 140//14
f 15//16 509//16 141//16
f 143//16 142//16 371//16
f 16//16 509//16 143//16
f 145//17 144//17 16//17
f 146//17 145//17 25//17
f 17//17 510//17 146//17
f 148//18 147//18 371//18
f 149//18 148//18 31//18
f 32//19 511//19 149//19
f 151//20 150//20 20//20
f 27//20 512//20 151//20
f 150//20 152//20 21//20
f 154//21 153//21 25//21
f 32//21 513//21 154//21
f 153//21 155//21 33//21
f 157//22 156//22 88//22
f 158//22 157//22 94//22
f 83//22 514//22 158//22
f 160//23 159//23 318//23
f 161//23 160//23 33//23
f 163//24 162//24 718//24
f 53//25 516//25 163//25
f 162//24 164//24 48//24
f 166//26 165//26 9//26
f 40//26 517//26 166//26
f 165//26 167//26 69//26
f 22//27 518//27 168//27
f 170//27 169//27 412//27
f 168//27 170//27 23//27
f 172//28 171//28 93//28
f 98//29 519//29 172//29
f 171//29 173//29 103//29
f 23//30 520//30 174//30
f 176//30 175//30 31//30
f 24//30 520//30 176//30
f 20//31 521//31 177//31
f 178//31 140//31 19//31
f 177//31 178//31 26//31
f 180//32 179//32 38//32
f 33//32 522//32 180//32
f 32//32 522//32 155//32
f 182//33 181//33 67//33
f 183//33 182//33 78//33
f 68//33 523//33 183//33
f 671//34 184//34 644//34
f 78//35 524//35 183//35
f 186//35 185//35 69//35
f 68//35 524//35 186//35
f 188//36 187//36 417//36
f 28//36 671//36 188//36
f 28//37 525//37 189//37
f 191//37 190//37 34//37
f 189//37 191//37 29//37
f 193//38 192//38 417//38
f 36//38 526//38 193//38
f 196//39 195//39 34//39
f 194//39 527//39 196//39
f 594//39 527//39 194//39
f 33//40 528//40 161//40
f 198//40 197//40 40//40
f 161//40 198//40 515//40
f 71//41 529//41 199//41
f 201//41 200//41 471//41
f 701//41 529//41 201//41
f 38//42 530//42 202//42
f 204//42 203//42 47//42
f 39//42 530//42 204//42
f 205//43 206//43 60//43
f 208//44 207//44 37//44
f 357//44 532//44 208//44
f 683//44 532//44 357//44
f 210//45 209//45 44//45
f 209//45 211//45 49//45
f 213//46 212//46 357//46
f 214//46 213//46 49//46
f 50//46 534//46 214//46
f 216//47 535//47 215//47
f 129//47 535//47 216//47
f 215//47 217//47 92//47
f 219//48 218//48 46//48
f 137//48 219//48 51//48
f 52//48 536//48 137//48
f 95//49 537//49 220//49
f 96//49 537//49 221//49
f 220//49 222//49 89//49
f 29//50 538//50 223//50
f 225//50 224//50 14//50
f 21//50 538//50 225//50
f 226//51 222//51 96//51
f 90//51 539//51 226//51
f 222//51 227//51 89//51
f 229//52 228//52 56//52
f 230//52 229//52 63//52
f 57//52 540//52 230//52
f 232//53 231//53 92//53
f 231//53 233//53 80//53
f 235//54 234//54 53//54
f 236//54 235//54 60//54
f 54//54 542//54 236//54
f 54//55 543//55 237//55
f 239//55 238//55 424//55
f 237//55 239//55 55//55
f 50//56 544//56 240//56
f 242//56 241//56 55//56
f 51//56 544//56 242//56
f 97//57 545//57 243//57
f 98//57 545//57 244//57
f 243//57 245//57 690//57
f 424//58 546//58 246//58
f 248//58 247//58 66//58
f 61//58 546//58 248//58
f 250//59 249//59 31//59
f 251//59 250//59 37//59
f 38//59 547//59 251//59
f 253//60 702//60 712//60
f 252//61 253//61 468//61
f 255//62 254//62 64//62
f 67//62 548//62 255//62
f 68//62 548//62 181//62
f 257//63 256//63 36//63
f 258//63 257//63 644//63
f 103//64 549//64 259//64
f 8//64 549//64 260//64
f 259//64 124//64 9//64
f 262//65 261//65 476//65
f 65//65 550//65 262//65
f 264//66 263//66 70//66
f 531//66 551//66 264//66
f 266//67 265//67 70//67
f 73//67 552//67 266//67
f 265//67 267//67 74//67
f 268//68 610//68 712//68
f 72//68 610//68 268//68
f 270//69 269//69 476//69
f 272//70 271//70 76//70
f 273//70 272//70 478//70
f 77//70 553//70 273//70
f 72//71 554//71 274//71
f 81//71 554//71 275//71
f 274//71 276//71 82//71
f 77//72 555//72 277//72
f 279//72 278//72 86//72
f 277//72 279//72 78//72
f 59//73 556//73 280//73
f 280//73 282//73 718//73
f 284//74 283//74 78//74
f 285//74 284//74 87//74
f 79//74 557//74 285//74
f 287//75 286//75 346//75
f 83//75 558//75 287//75
f 286//75 288//75 84//75
f 290//76 289//76 76//76
f 84//76 559//76 290//76
f 85//76 559//76 84//76
f 292//77 291//77 471//77
f 293//77 292//77 80//77
f 81//77 560//77 293//77
f 295//78 294//78 18//78
f 19//78 561//78 295//78
f 13//78 561//78 296//78
f 80//79 562//79 293//79
f 298//79 297//79 88//79
f 81//79 562//79 298//79
f 300//80 299//80 478//80
f 89//80 563//80 300//80
f 299//80 227//80 90//80
f 35//81 564//81 301//81
f 26//81 564//81 302//81
f 301//81 303//81 18//81
f 305//82 304//82 86//82
f 306//82 305//82 90//82
f 91//82 565//82 306//82
f 16//83 566//83 307//83
f 308//83 144//83 17//83
f 307//83 308//83 11//83
f 58//84 567//84 309//84
f 311//84 310//84 18//84
f 309//84 311//84 92//84
f 5//85 568//85 131//85
f 313//85 312//85 16//85
f 6//86 568//86 313//86
f 23//87 569//87 314//87
f 315//87 174//87 24//87
f 314//87 315//87 15//87
f 317//88 316//88 12//88
f 17//89 570//89 317//89
f 8//90 571//90 7//90
f 319//90 260//90 103//90
f 7//90 571//90 319//90
f 321//91 322//91 320//91
f 320//91 322//91 10//91
f 324//92 323//92 53//92
f 49//92 572//92 324//92
f 323//92 211//92 533//92
f 325//93 221//93 95//93
f 326//93 325//93 102//93
f 96//93 573//93 326//93
f 328//94 327//94 361//94
f 1//95 574//95 328//95
f 327//94 110//94 99//94
f 94//96 575//96 329//96
f 99//96 575//96 330//96
f 329//96 116//96 100//96
f 43//97 576//97 42//97
f 332//97 331//97 36//97
f 42//97 576//97 332//97
f 36//98 577//98 332//98
f 35//98 577//98 333//98
f 332//98 334//98 42//98
f 104//99 335//99 48//99
f 43//99 578//99 104//99
f 102//100 579//100 108//100
f 101//100 579//100 336//100
f 108//100 337//100 4//100
f 338//101 111//101 1//101
f 98//102 580//102 339//102
f 97//103 580//103 244//103
f 339//102 114//102 2//102
f 97//104 581//104 115//104
f 326//104 340//104 96//104
f 115//105 326//105 102//105
f 99//106 582//106 117//106
f 321//106 582//106 112//106
f 117//106 341//106 3//106
f 66//107 583//107 342//107
f 264//107 343//107 531//107
f 342//107 264//107 70//107
f 265//108 344//108 70//108
f 74//108 584//108 265//108
f 75//108 584//108 345//108
f 75//109 585//109 344//109
f 344//109 347//109 70//109
f 346//110 586//110 348//110
f 76//110 586//110 349//110
f 348//110 350//110 66//110
f 76//111 587//111 351//111
f 77//111 587//111 271//111
f 351//111 352//111 67//111
f 353//112 120//112 67//112
f 63//112 588//112 353//112
f 62//112 588//112 354//112
f 62//113 589//113 121//113
f 61//113 589//113 355//113
f 121//113 248//113 66//113
f 342//114 348//114 66//114
f 70//114 590//114 342//114
f 348//114 347//114 346//114
f 351//115 350//115 76//115
f 67//115 591//115 351//115
f 350//115 119//115 66//115
f 12//116 592//116 123//116
f 318//116 592//116 316//116
f 123//116 356//116 9//116
f 359//117 358//117 594//117
f 44//117 593//117 359//117
f 359//118 125//118 44//118
f 194//119 595//119 126//119
f 36//119 595//119 194//119
f 126//119 331//119 43//119
f 216//120 360//120 129//120
f 362//121 360//121 361//121
f 127//121 362//121 88//121
f 129//121 596//121 127//121
f 7//122 597//122 363//122
f 365//122 364//122 2//122
f 6//122 597//122 365//122
f 2//123 598//123 365//123
f 130//123 113//123 102//123
f 365//123 130//123 6//123
f 304//124 366//124 86//124
f 91//124 599//124 304//124
f 366//124 133//124 87//124
f 367//125 134//125 91//125
f 690//125 600//125 367//125
f 134//125 368//125 93//125
f 228//126 136//126 56//126
f 57//126 601//126 228//126
f 136//126 369//126 52//126
f 370//127 139//127 14//127
f 296//127 370//127 13//127
f 19//127 602//127 296//127
f 315//128 142//128 15//128
f 24//128 603//128 315//128
f 143//129 145//129 16//129
f 371//130 604//130 143//130
f 25//129 604//129 372//129
f 371//131 605//131 148//131
f 24//131 605//131 371//131
f 148//131 176//131 31//131
f 20//132 606//132 151//132
f 373//132 177//132 26//132
f 151//132 373//132 27//132
f 25//133 607//133 154//133
f 371//134 607//134 372//134
f 154//133 147//133 32//133
f 375//135 374//135 95//135
f 84//135 608//135 375//135
f 83//135 608//135 288//135
f 377//136 376//136 83//136
f 75//137 609//137 377//137
f 74//136 609//136 345//136
f 73//138 610//138 378//138
f 378//138 379//138 82//138
f 379//139 274//139 82//139
f 376//140 156//140 83//140
f 74//140 611//140 376//140
f 88//140 611//140 380//140
f 267//141 381//141 74//141
f 73//141 612//141 267//141
f 82//141 612//141 378//141
f 380//142 382//142 88//142
f 74//142 613//142 380//142
f 82//142 613//142 381//142
f 384//143 383//143 101//143
f 385//143 384//143 95//143
f 100//143 614//143 385//143
f 374//144 386//144 95//144
f 158//144 374//144 83//144
f 94//144 615//144 158//144
f 329//145 386//145 94//145
f 100//145 616//145 329//145
f 386//145 385//145 95//145
f 362//146 157//146 88//146
f 361//147 617//147 362//147
f 157//146 387//146 94//146
f 82//148 618//148 382//148
f 81//148 618//148 276//148
f 382//148 298//148 88//148
f 318//149 619//149 160//149
f 25//149 619//149 388//149
f 160//149 153//149 33//149
f 389//150 335//150 42//150
f 41//150 620//150 389//150
f 335//150 390//150 48//150
f 41//151 621//151 390//151
f 392//151 391//151 58//151
f 48//151 621//151 392//151
f 59//152 622//152 394//152
f 393//152 280//152 718//152
f 396//153 395//153 58//153
f 394//153 623//153 396//153
f 718//153 623//153 393//153
f 392//154 162//154 48//154
f 395//154 392//154 58//154
f 718//154 624//154 395//154
f 323//155 164//155 53//155
f 105//155 323//155 533//155
f 48//155 625//155 105//155
f 318//156 626//156 356//156
f 515//157 626//157 159//157
f 356//156 397//156 9//156
f 515//158 627//158 397//158
f 40//158 627//158 198//158
f 397//158 166//158 9//158
f 399//159 398//159 40//159
f 39//159 628//159 399//159
f 398//159 204//159 47//159
f 401//160 400//160 47//160
f 46//160 629//160 401//160
f 52//160 629//160 218//160
f 369//161 402//161 52//161
f 57//161 630//161 369//161
f 402//161 403//161 64//161
f 57//162 631//162 403//162
f 404//162 230//162 63//162
f 403//162 404//162 64//162
f 254//163 405//163 64//163
f 68//163 632//163 254//163
f 69//163 632//163 186//163
f 40//164 633//164 167//164
f 406//164 398//164 47//164
f 167//164 406//164 69//164
f 400//165 407//165 47//165
f 52//165 634//165 400//165
f 407//165 402//165 64//165
f 406//166 405//166 69//166
f 47//166 635//166 406//166
f 64//166 635//166 407//166
f 79//167 636//167 408//167
f 87//167 636//167 285//167
f 408//167 409//167 9//167
f 410//168 165//168 69//168
f 79//168 637//168 410//168
f 165//168 408//168 9//168
f 411//169 169//169 22//169
f 30//169 638//169 411//169
f 245//170 368//170 690//170
f 98//170 639//170 245//170
f 93//170 639//170 172//170
f 98//171 640//171 173//171
f 413//171 339//171 2//171
f 103//171 640//171 413//171
f 170//172 175//172 23//172
f 412//172 641//172 170//172
f 31//172 641//172 414//172
f 202//173 180//173 38//173
f 39//173 642//173 202//173
f 180//173 415//173 33//173
f 352//174 182//174 67//174
f 77//174 643//174 352//174
f 78//174 643//174 277//174
f 416//175 184//175 27//175
f 78//176 645//176 185//176
f 79//176 645//176 283//176
f 185//176 410//176 69//176
f 28//177 646//177 190//177
f 418//177 188//177 417//177
f 34//177 646//177 418//177
f 417//178 647//178 193//178
f 644//178 647//178 417//178
f 193//178 257//178 36//178
f 418//179 196//179 34//179
f 417//179 648//179 418//179
f 196//179 192//179 194//179
f 33//180 649//180 197//180
f 399//180 415//180 39//180
f 197//180 399//180 40//180
f 394//181 419//181 59//181
f 419//181 420//181 701//181
f 421//182 420//182 394//182
f 199//182 421//182 71//182
f 701//182 650//182 199//182
f 422//183 203//183 38//183
f 46//183 651//183 422//183
f 47//183 651//183 401//183
f 423//184 206//184 531//184
f 424//184 652//184 423//184
f 60//184 652//184 424//184
f 60//185 653//185 205//185
f 205//185 425//185 65//185
f 426//186 425//186 281//186
f 468//186 654//186 426//186
f 65//186 654//186 468//186
f 427//187 208//187 37//187
f 594//187 655//187 427//187
f 208//187 358//187 357//187
f 44//188 656//188 210//188
f 210//188 106//188 533//188
f 357//189 657//189 213//189
f 44//189 657//189 357//189
f 213//189 209//189 49//189
f 429//190 428//190 92//190
f 431//190 658//190 429//190
f 1//190 658//190 430//190
f 322//191 432//191 10//191
f 430//192 338//192 1//192
f 433//193 428//193 1//193
f 216//193 659//193 433//193
f 428//193 215//193 92//193
f 434//194 219//194 46//194
f 45//194 660//194 434//194
f 219//194 435//194 51//194
f 85//195 661//195 436//195
f 436//195 437//195 89//195
f 375//196 437//196 84//196
f 220//196 375//196 95//196
f 89//196 662//196 220//196
f 22//197 663//197 438//197
f 23//197 663//197 168//197
f 438//197 439//197 4//197
f 337//198 440//198 4//198
f 101//198 664//198 337//198
f 100//198 664//198 383//198
f 3//199 665//199 441//199
f 321//199 665//199 341//199
f 441//199 442//199 14//199
f 440//200 443//200 4//200
f 100//200 666//200 440//200
f 3//200 666//200 118//200
f 30//201 667//201 444//201
f 445//201 411//201 22//201
f 29//201 667//201 445//201
f 438//202 446//202 22//202
f 4//202 668//202 438//202
f 3//202 668//202 443//202
f 28//203 669//203 447//203
f 223//203 189//203 29//203
f 21//203 669//203 223//203
f 27//204 670//204 152//204
f 152//204 448//204 21//204
f 448//205 447//205 21//205
f 138//206 225//206 14//206
f 20//206 672//206 138//206
f 225//206 150//206 21//206
f 29//207 673//207 224//207
f 449//207 445//207 22//207
f 224//207 449//207 14//207
f 446//208 449//208 22//208
f 441//208 446//208 3//208
f 14//208 674//208 441//208
f 96//209 675//209 226//209
f 97//209 675//209 340//209
f 226//209 450//209 90//209
f 56//210 676//210 229//210
f 354//210 451//210 62//210
f 63//210 676//210 354//210
f 217//211 232//211 92//211
f 129//211 677//211 217//211
f 541//211 677//211 129//211
f 452//212 235//212 53//212
f 281//212 678//212 452//212
f 60//212 678//212 281//212
f 236//213 238//213 54//213
f 60//213 679//213 236//213
f 214//214 241//214 50//214
f 49//214 680//214 214//214
f 241//214 453//214 55//214
f 454//215 453//215 49//215
f 237//215 454//215 54//215
f 55//215 681//215 237//215
f 239//216 455//216 55//216
f 424//216 682//216 239//216
f 61//216 682//216 246//216
f 456//217 212//217 50//217
f 51//218 684//218 240//218
f 457//218 435//218 45//218
f 50//218 684//218 457//218
f 458//219 457//219 45//219
f 683//219 685//219 458//219
f 457//219 456//219 50//219
f 451//220 459//220 62//220
f 460//220 451//220 56//220
f 55//220 686//220 460//220
f 56//221 687//221 460//221
f 51//221 687//221 135//221
f 460//221 242//221 55//221
f 455//222 459//222 55//222
f 61//222 688//222 455//222
f 62//222 688//222 355//222
f 306//223 367//223 91//223
f 90//224 689//224 306//224
f 690//223 689//223 461//223
f 450//225 461//225 90//225
f 243//225 450//225 97//225
f 423//226 247//226 424//226
f 531//226 691//226 423//226
f 247//226 343//226 66//226
f 31//227 692//227 250//227
f 412//227 692//227 414//227
f 250//227 462//227 37//227
f 412//228 693//228 463//228
f 30//228 693//228 412//228
f 463//228 464//228 34//228
f 30//229 694//229 464//229
f 29//229 694//229 444//229
f 464//229 191//229 34//229
f 195//230 465//230 34//230
f 427//230 195//230 594//230
f 37//230 695//230 427//230
f 207//231 466//231 37//231
f 683//231 696//231 207//231
f 45//231 696//231 458//231
f 45//232 697//232 467//232
f 46//232 697//232 434//232
f 467//232 422//232 38//232
f 179//233 249//233 38//233
f 32//233 698//233 179//233
f 31//233 698//233 149//233
f 463//234 462//234 412//234
f 34//234 699//234 463//234
f 462//234 465//234 37//234
f 37//235 700//235 251//235
f 467//235 466//235 45//235
f 251//235 467//235 38//235
f 252//236 469//236 702//236
f 201//237 469//237 701//237
f 470//237 201//237 471//237
f 472//238 471//238 72//238
f 470//238 472//238 702//238
f 64//239 703//239 255//239
f 63//239 703//239 404//239
f 255//239 353//239 67//239
f 27//240 704//240 416//240
f 26//241 704//241 373//241
f 416//240 473//240 258//240
f 302//242 473//242 26//242
f 474//242 302//242 35//242
f 258//242 705//242 474//242
f 333//243 474//243 35//243
f 36//243 706//243 333//243
f 258//243 706//243 256//243
f 87//244 707//244 409//244
f 93//244 707//244 132//244
f 409//244 475//244 9//244
f 93//245 708//245 475//245
f 103//245 708//245 171//245
f 475//245 259//245 9//245
f 253//246 261//246 468//246
f 712//246 709//246 253//246
f 262//247 263//247 65//247
f 476//247 710//247 262//247
f 263//247 477//247 70//247
f 477//248 266//248 70//248
f 476//248 711//248 477//248
f 266//248 269//248 73//248
f 268//249 472//249 72//249
f 289//250 272//250 76//250
f 85//250 713//250 289//250
f 72//251 714//251 275//251
f 275//251 291//251 81//251
f 273//252 278//252 77//252
f 479//253 273//253 478//253
f 86//253 715//253 479//253
f 419//254 480//254 59//254
f 701//254 716//254 419//254
f 426//255 480//255 468//255
f 281//255 717//255 426//255
f 59//255 717//255 281//255
f 452//256 282//256 281//256
f 163//256 452//256 53//256
f 279//257 284//257 78//257
f 86//257 719//257 279//257
f 87//257 719//257 366//257
f 346//258 720//258 287//258
f 75//258 720//258 346//258
f 287//258 377//258 83//258
f 76//259 721//259 290//259
f 286//259 349//259 346//259
f 290//259 286//259 84//259
f 471//260 722//260 292//260
f 481//260 200//260 71//260
f 292//260 481//260 80//260
f 10//261 723//261 482//261
f 483//261 432//261 431//261
f 482//261 483//261 13//261
f 484//262 483//262 431//262
f 294//262 484//262 18//262
f 13//262 724//262 294//262
f 80//263 725//263 297//263
f 541//263 725//263 233//263
f 297//263 128//263 88//263
f 478//264 726//264 300//264
f 85//264 726//264 478//264
f 300//264 436//264 89//264
f 19//265 727//265 178//265
f 303//265 295//265 18//265
f 26//265 727//265 303//265
f 485//266 301//266 18//266
f 41//266 728//266 485//266
f 35//266 728//266 486//266
f 41//267 729//267 486//267
f 42//267 729//267 389//267
f 486//267 334//267 35//267
f 86//268 730//268 305//268
f 478//268 730//268 479//268
f 305//268 299//268 90//268
f 7//269 731//269 487//269
f 488//269 363//269 6//269
f 487//269 488//269 11//269
f 313//270 488//270 6//270
f 307//270 313//270 16//270
f 11//270 732//270 307//270
f 231//271 489//271 92//271
f 80//271 733//271 231//271
f 489//271 481//271 71//271
f 71//272 734//272 490//272
f 394//272 734//272 421//272
f 490//272 396//272 58//272
f 391//273 310//273 58//273
f 41//273 735//273 391//273
f 310//273 485//273 18//273
f 484//274 311//274 18//274
f 431//274 736//274 484//274
f 311//274 429//274 92//274
f 489//275 309//275 92//275
f 71//276 737//276 489//276
f 309//275 490//275 58//275
f 491//277 312//277 5//277
f 15//277 738//277 491//277
f 16//277 738//277 141//277
f 5//278 739//278 491//278
f 492//278 109//278 4//278
f 491//278 492//278 15//278
f 439//279 492//279 4//279
f 314//279 439//279 23//279
f 15//279 740//279 314//279
f 308//280 493//280 11//280
f 317//280 308//280 17//280
f 12//280 741//280 317//280
f 17//281 742//281 318//281
f 388//281 146//281 25//281
f 318//281 742//281 388//281
f 364//282 413//282 2//282
f 7//282 743//282 364//282
f 103//282 743//282 319//282
f 494//283 487//283 11//283
f 8//283 744//283 494//283
f 493//284 494//284 11//284
f 122//284 493//284 12//284
f 8//284 745//284 122//284
f 10//285 746//285 495//285
f 13//285 746//285 482//285
f 495//285 370//285 14//285
f 442//286 495//286 14//286
f 321//286 747//286 442//286
f 10//286 747//286 320//286
f 53//287 748//287 324//287
f 454//287 234//287 54//287
f 324//287 454//287 49//287
f 384//288 325//288 95//288
f 101//288 749//288 384//288
f 325//288 336//288 102//288
f 361//289 750//289 328//289
f 216//289 750//289 361//289
f 328//289 433//289 1//289
f 387//290 330//290 94//290
f 361//290 751//290 387//290
f 99//290 751//290 327//290
f 105//1 496//1 104//1
f 533//1 106//1 496//1
f 104//1 496//1 106//1
f 108//2 497//2 107//2
f 109//2 497//2 108//2
f 5//2 107//2 497//2
f 1//4 111//4 498//4
f 112//4 498//4 111//4
f 110//4 498//4 112//4
f 2//5 114//5 499//5
f 115//5 499//5 114//5
f 113//5 499//5 115//5
f 117//6 500//6 116//6
f 3//6 118//6 500//6
f 100//6 116//6 500//6
f 120//7 501//7 119//7
f 121//7 501//7 120//7
f 66//7 119//7 501//7
f 12//8 123//8 502//8
f 124//8 502//8 123//8
f 8//8 122//8 502//8
f 126//9 503//9 125//9
f 44//9 125//9 503//9
f 128//10 504//10 127//10
f 541//10 129//10 504//10
f 129//10 127//10 504//10
f 107//11 505//11 130//11
f 5//11 131//11 505//11
f 6//11 130//11 505//11
f 87//12 133//12 506//12
f 91//12 134//12 506//12
f 132//12 506//12 134//12
f 56//13 136//13 507//13
f 137//13 507//13 136//13
f 135//13 507//13 137//13
f 139//15 508//15 138//15
f 19//15 140//15 508//15
f 20//15 138//15 508//15
f 15//16 142//16 509//16
f 143//16 509//16 142//16
f 16//16 141//16 509//16
f 145//17 510//17 144//17
f 146//17 510//17 145//17
f 17//17 144//17 510//17
f 148//18 511//18 147//18
f 149//19 511//19 148//19
f 32//18 147//18 511//18
f 151//20 512//20 150//20
f 27//20 152//20 512//20
f 150//20 512//20 152//20
f 154//21 513//21 153//21
f 32//21 155//21 513//21
f 153//21 513//21 155//21
f 157//22 514//22 156//22
f 158//22 514//22 157//22
f 83//22 156//22 514//22
f 160//23 515//23 159//23
f 161//23 515//23 160//23
f 163//24 516//24 162//24
f 53//25 164//25 516//25
f 162//25 516//25 164//25
f 166//26 517//26 165//26
f 40//26 167//26 517//26
f 165//26 517//26 167//26
f 22//27 169//27 518//27
f 170//27 518//27 169//27
f 168//27 518//27 170//27
f 172//29 519//29 171//29
f 98//28 173//28 519//28
f 171//28 519//28 173//28
f 23//30 175//30 520//30
f 176//30 520//30 175//30
f 24//30 174//30 520//30
f 20//31 140//31 521//31
f 178//31 521//31 140//31
f 177//31 521//31 178//31
f 180//32 522//32 179//32
f 33//32 155//32 522//32
f 32//32 179//32 522//32
f 182//33 523//33 181//33
f 183//33 523//33 182//33
f 68//33 181//33 523//33
f 27//34 184//34 671//34
f 78//35 185//35 524//35
f 186//35 524//35 185//35
f 68//35 183//35 524//35
f 188//36 671//36 187//36
f 28//37 190//37 525//37
f 191//37 525//37 190//37
f 189//37 525//37 191//37
f 193//38 526//38 192//38
f 36//38 194//38 526//38
f 194//38 192//38 526//38
f 196//39 527//39 195//39
f 594//39 195//39 527//39
f 33//40 197//40 528//40
f 198//40 528//40 197//40
f 161//40 528//40 198//40
f 71//41 200//41 529//41
f 201//41 529//41 200//41
f 701//41 199//41 529//41
f 38//42 203//42 530//42
f 204//42 530//42 203//42
f 39//291 202//291 530//291
f 65//43 531//43 205//43
f 205//43 531//43 206//43
f 208//44 532//44 207//44
f 683//44 207//44 532//44
f 210//45 533//45 209//45
f 209//45 533//45 211//45
f 213//46 534//46 212//46
f 214//46 534//46 213//46
f 50//46 212//46 534//46
f 129//47 217//47 535//47
f 215//47 535//47 217//47
f 219//48 536//48 218//48
f 137//48 536//48 219//48
f 52//48 218//48 536//48
f 95//49 221//49 537//49
f 96//49 222//49 537//49
f 220//49 537//49 222//49
f 29//50 224//50 538//50
f 225//50 538//50 224//50
f 21//50 223//50 538//50
f 226//51 539//51 222//51
f 90//51 227//51 539//51
f 222//51 539//51 227//51
f 229//52 540//52 228//52
f 230//52 540//52 229//52
f 57//52 228//52 540//52
f 232//53 541//53 231//53
f 231//53 541//53 233//53
f 235//54 542//54 234//54
f 236//54 542//54 235//54
f 54//54 234//54 542//54
f 54//55 238//55 543//55
f 239//292 543//292 238//292
f 237//55 543//55 239//55
f 50//56 241//56 544//56
f 242//293 544//293 241//293
f 51//56 240//56 544//56
f 97//57 244//57 545//57
f 98//57 245//57 545//57
f 243//57 545//57 245//57
f 424//58 247//58 546//58
f 248//58 546//58 247//58
f 61//58 246//58 546//58
f 250//59 547//59 249//59
f 251//59 547//59 250//59
f 38//59 249//59 547//59
f 252//61 702//61 253//61
f 255//62 548//62 254//62
f 67//62 181//62 548//62
f 68//62 254//62 548//62
f 257//63 258//63 256//63
f 103//64 260//64 549//64
f 8//64 124//64 549//64
f 259//64 549//64 124//64
f 468//65 261//65 550//65
f 262//65 550//65 261//65
f 65//65 468//65 550//65
f 65//66 263//66 551//66
f 264//66 551//66 263//66
f 531//66 65//66 551//66
f 266//67 552//67 265//67
f 73//67 267//67 552//67
f 265//67 552//67 267//67
f 270//69 610//69 269//69
f 73//69 269//69 610//69
f 272//70 553//70 271//70
f 273//70 553//70 272//70
f 77//70 271//70 553//70
f 72//71 275//71 554//71
f 81//71 276//71 554//71
f 274//71 554//71 276//71
f 77//72 278//72 555//72
f 279//72 555//72 278//72
f 277//72 555//72 279//72
f 59//73 281//73 556//73
f 281//73 282//73 556//73
f 280//73 556//73 282//73
f 284//74 557//74 283//74
f 285//74 557//74 284//74
f 79//74 283//74 557//74
f 287//75 558//75 286//75
f 83//75 288//75 558//75
f 286//75 558//75 288//75
f 290//76 559//76 289//76
f 85//76 289//76 559//76
f 292//77 560//77 291//77
f 293//77 560//77 292//77
f 81//77 291//77 560//77
f 295//78 561//78 294//78
f 19//78 296//78 561//78
f 13//78 294//78 561//78
f 80//79 297//79 562//79
f 298//79 562//79 297//79
f 81//79 293//79 562//79
f 300//80 563//80 299//80
f 89//80 227//80 563//80
f 299//80 563//80 227//80
f 35//81 302//81 564//81
f 26//81 303//81 564//81
f 301//81 564//81 303//81
f 305//82 565//82 304//82
f 306//82 565//82 305//82
f 91//82 304//82 565//82
f 16//83 144//83 566//83
f 308//83 566//83 144//83
f 307//83 566//83 308//83
f 58//84 310//84 567//84
f 311//84 567//84 310//84
f 309//84 567//84 311//84
f 5//85 312//85 568//85
f 313//85 568//85 312//85
f 6//85 131//85 568//85
f 23//87 174//87 569//87
f 315//87 569//87 174//87
f 314//87 569//87 315//87
f 317//294 570//294 316//294
f 17//88 318//88 570//88
f 316//88 570//88 318//88
f 8//90 260//90 571//90
f 319//90 571//90 260//90
f 324//92 572//92 323//92
f 49//92 211//92 572//92
f 323//92 572//92 211//92
f 325//93 573//93 221//93
f 326//93 573//93 325//93
f 96//93 221//93 573//93
f 328//94 574//94 327//94
f 1//94 110//94 574//94
f 327//94 574//94 110//94
f 94//96 330//96 575//96
f 99//96 116//96 575//96
f 329//96 575//96 116//96
f 43//97 331//97 576//97
f 332//97 576//97 331//97
f 36//98 333//98 577//98
f 35//98 334//98 577//98
f 332//98 577//98 334//98
f 42//295 335//295 578//295
f 104//296 578//296 335//296
f 43//295 42//295 578//295
f 102//100 336//100 579//100
f 101//100 337//100 579//100
f 108//100 579//100 337//100
f 338//101 322//101 111//101
f 321//101 111//101 322//101
f 98//102 244//102 580//102
f 97//102 114//102 580//102
f 339//102 580//102 114//102
f 97//104 340//104 581//104
f 326//105 581//105 340//105
f 115//104 581//104 326//104
f 99//106 112//106 582//106
f 321//106 341//106 582//106
f 117//106 582//106 341//106
f 66//107 343//107 583//107
f 264//107 583//107 343//107
f 342//107 583//107 264//107
f 265//108 584//108 344//108
f 74//108 345//108 584//108
f 75//108 344//108 584//108
f 75//109 346//109 585//109
f 346//109 347//109 585//109
f 344//109 585//109 347//109
f 346//110 349//110 586//110
f 76//110 350//110 586//110
f 348//110 586//110 350//110
f 76//111 271//111 587//111
f 77//111 352//111 587//111
f 351//111 587//111 352//111
f 353//112 588//112 120//112
f 63//112 354//112 588//112
f 62//112 120//112 588//112
f 62//113 355//113 589//113
f 61//113 248//113 589//113
f 121//113 589//113 248//113
f 342//114 590//114 348//114
f 70//114 347//114 590//114
f 348//114 590//114 347//114
f 351//115 591//115 350//115
f 67//115 119//115 591//115
f 350//115 591//115 119//115
f 12//116 316//116 592//116
f 318//116 356//116 592//116
f 123//116 592//116 356//116
f 357//117 358//117 593//117
f 359//117 593//117 358//117
f 44//117 357//117 593//117
f 194//118 125//118 594//118
f 359//118 594//118 125//118
f 36//119 331//119 595//119
f 126//119 595//119 331//119
f 360//120 216//120 361//120
f 362//121 596//121 360//121
f 127//121 596//121 362//121
f 129//121 360//121 596//121
f 7//122 364//122 597//122
f 365//122 597//122 364//122
f 6//122 363//122 597//122
f 2//123 113//123 598//123
f 130//123 598//123 113//123
f 365//123 598//123 130//123
f 304//124 599//124 366//124
f 91//124 133//124 599//124
f 366//124 599//124 133//124
f 367//125 600//125 134//125
f 690//125 368//125 600//125
f 134//125 600//125 368//125
f 228//126 601//126 136//126
f 57//126 369//126 601//126
f 136//126 601//126 369//126
f 370//127 602//127 139//127
f 296//127 602//127 370//127
f 19//127 139//127 602//127
f 315//128 603//128 142//128
f 24//128 371//128 603//128
f 371//128 142//128 603//128
f 143//129 604//129 145//129
f 371//129 372//129 604//129
f 25//129 145//129 604//129
f 24//131 176//131 605//131
f 148//131 605//131 176//131
f 20//132 177//132 606//132
f 373//132 606//132 177//132
f 151//132 606//132 373//132
f 25//133 372//133 607//133
f 371//133 147//133 607//133
f 154//134 607//134 147//134
f 375//135 608//135 374//135
f 84//135 288//135 608//135
f 83//135 374//135 608//135
f 377//137 609//137 376//137
f 75//136 345//136 609//136
f 74//137 376//137 609//137
f 378//138 610//138 379//138
f 72//139 274//139 610//139
f 379//139 610//139 274//139
f 376//140 611//140 156//140
f 74//140 380//140 611//140
f 88//140 156//140 611//140
f 267//141 612//141 381//141
f 73//141 378//141 612//141
f 82//141 381//141 612//141
f 380//142 613//142 382//142
f 74//142 381//142 613//142
f 82//142 382//142 613//142
f 384//143 614//143 383//143
f 385//143 614//143 384//143
f 100//143 383//143 614//143
f 374//144 615//144 386//144
f 158//144 615//144 374//144
f 94//144 386//144 615//144
f 329//145 616//145 386//145
f 100//145 385//145 616//145
f 386//145 616//145 385//145
f 362//147 617//147 157//147
f 361//146 387//146 617//146
f 157//146 617//146 387//146
f 82//148 276//148 618//148
f 81//148 298//148 618//148
f 382//148 618//148 298//148
f 318//149 388//149 619//149
f 25//149 153//149 619//149
f 160//149 619//149 153//149
f 389//150 620//150 335//150
f 41//150 390//150 620//150
f 335//150 620//150 390//150
f 41//151 391//151 621//151
f 392//151 621//151 391//151
f 48//151 390//151 621//151
f 394//152 622//152 393//152
f 59//152 280//152 622//152
f 393//152 622//152 280//152
f 396//153 623//153 395//153
f 394//153 393//153 623//153
f 718//153 395//153 623//153
f 392//154 624//154 162//154
f 395//154 624//154 392//154
f 718//154 162//154 624//154
f 323//155 625//155 164//155
f 105//155 625//155 323//155
f 48//155 164//155 625//155
f 318//157 159//157 626//157
f 515//156 397//156 626//156
f 356//156 626//156 397//156
f 515//158 198//158 627//158
f 40//158 166//158 627//158
f 397//158 627//158 166//158
f 399//159 628//159 398//159
f 39//159 204//159 628//159
f 398//159 628//159 204//159
f 401//160 629//160 400//160
f 46//160 218//160 629//160
f 52//160 400//160 629//160
f 369//161 630//161 402//161
f 57//161 403//161 630//161
f 402//161 630//161 403//161
f 57//162 230//162 631//162
f 404//162 631//162 230//162
f 403//162 631//162 404//162
f 254//163 632//163 405//163
f 68//163 186//163 632//163
f 69//163 405//163 632//163
f 40//297 398//297 633//297
f 406//297 633//297 398//297
f 167//164 633//164 406//164
f 400//165 634//165 407//165
f 52//165 402//165 634//165
f 407//165 634//165 402//165
f 406//166 635//166 405//166
f 47//166 407//166 635//166
f 64//166 405//166 635//166
f 79//167 285//167 636//167
f 87//167 409//167 636//167
f 408//167 636//167 409//167
f 410//168 637//168 165//168
f 79//168 408//168 637//168
f 165//168 637//168 408//168
f 411//169 638//169 169//169
f 30//169 412//169 638//169
f 412//298 169//298 638//298
f 245//170 639//170 368//170
f 98//170 172//170 639//170
f 93//170 368//170 639//170
f 98//171 339//171 640//171
f 413//171 640//171 339//171
f 103//171 173//171 640//171
f 170//172 641//172 175//172
f 412//172 414//172 641//172
f 31//172 175//172 641//172
f 202//173 642//173 180//173
f 39//173 415//173 642//173
f 180//173 642//173 415//173
f 352//174 643//174 182//174
f 77//174 277//174 643//174
f 78//174 182//174 643//174
f 416//175 644//175 184//175
f 258//175 644//175 416//175
f 78//176 283//176 645//176
f 79//176 410//176 645//176
f 185//176 645//176 410//176
f 671//299 644//299 187//299
f 187//299 644//299 417//299
f 28//177 188//177 646//177
f 418//177 646//177 188//177
f 34//177 190//177 646//177
f 644//178 257//178 647//178
f 193//178 647//178 257//178
f 418//179 648//179 196//179
f 417//179 192//179 648//179
f 196//179 648//179 192//179
f 33//180 415//180 649//180
f 399//300 649//300 415//300
f 197//180 649//180 399//180
f 419//301 394//301 420//301
f 421//182 650//182 420//182
f 199//182 650//182 421//182
f 701//182 420//182 650//182
f 422//183 651//183 203//183
f 46//183 401//183 651//183
f 47//183 203//183 651//183
f 423//184 652//184 206//184
f 60//184 206//184 652//184
f 60//185 281//185 653//185
f 281//185 425//185 653//185
f 205//185 653//185 425//185
f 426//186 654//186 425//186
f 65//186 425//186 654//186
f 427//187 655//187 208//187
f 594//187 358//187 655//187
f 208//187 655//187 358//187
f 44//188 43//188 656//188
f 43//188 106//188 656//188
f 210//188 656//188 106//188
f 44//189 209//189 657//189
f 213//189 657//189 209//189
f 429//190 658//190 428//190
f 431//190 430//190 658//190
f 1//190 428//190 658//190
f 431//191 432//191 322//191
f 430//192 322//192 338//192
f 431//192 322//192 430//192
f 433//193 659//193 428//193
f 216//193 215//193 659//193
f 428//193 659//193 215//193
f 434//194 660//194 219//194
f 45//194 435//194 660//194
f 219//194 660//194 435//194
f 85//195 84//195 661//195
f 84//195 437//195 661//195
f 436//195 661//195 437//195
f 375//196 662//196 437//196
f 220//196 662//196 375//196
f 89//196 437//196 662//196
f 22//197 168//197 663//197
f 23//197 439//197 663//197
f 438//197 663//197 439//197
f 337//198 664//198 440//198
f 101//198 383//198 664//198
f 100//198 440//198 664//198
f 3//199 341//199 665//199
f 321//199 442//199 665//199
f 441//199 665//199 442//199
f 440//200 666//200 443//200
f 100//200 118//200 666//200
f 3//200 443//200 666//200
f 30//201 411//201 667//201
f 445//201 667//201 411//201
f 29//201 444//201 667//201
f 438//202 668//202 446//202
f 4//202 443//202 668//202
f 3//202 446//202 668//202
f 28//203 189//203 669//203
f 223//203 669//203 189//203
f 21//203 447//203 669//203
f 27//204 671//204 670//204
f 671//204 448//204 670//204
f 152//204 670//204 448//204
f 28//205 447//205 671//205
f 448//205 671//205 447//205
f 138//206 672//206 225//206
f 20//206 150//206 672//206
f 225//206 672//206 150//206
f 29//207 445//207 673//207
f 449//207 673//207 445//207
f 224//207 673//207 449//207
f 446//208 674//208 449//208
f 441//208 674//208 446//208
f 14//208 449//208 674//208
f 96//209 340//209 675//209
f 97//209 450//209 675//209
f 226//302 675//302 450//302
f 56//210 451//210 676//210
f 354//210 676//210 451//210
f 63//210 229//210 676//210
f 217//211 677//211 232//211
f 541//211 232//211 677//211
f 452//212 678//212 235//212
f 60//212 235//212 678//212
f 236//213 679//213 238//213
f 60//213 424//213 679//213
f 424//213 238//213 679//213
f 214//214 680//214 241//214
f 49//214 453//214 680//214
f 241//214 680//214 453//214
f 454//215 681//215 453//215
f 237//215 681//215 454//215
f 55//215 453//215 681//215
f 239//216 682//216 455//216
f 424//216 246//216 682//216
f 61//216 455//216 682//216
f 212//217 683//217 357//217
f 456//217 683//217 212//217
f 51//218 435//218 684//218
f 457//218 684//218 435//218
f 50//218 240//218 684//218
f 458//219 685//219 457//219
f 683//219 456//219 685//219
f 457//219 685//219 456//219
f 451//220 686//220 459//220
f 460//220 686//220 451//220
f 55//220 459//220 686//220
f 56//221 135//221 687//221
f 51//221 242//221 687//221
f 460//221 687//221 242//221
f 455//222 688//222 459//222
f 61//222 355//222 688//222
f 62//222 459//222 688//222
f 306//223 689//223 367//223
f 90//223 461//223 689//223
f 690//223 367//223 689//223
f 450//225 690//225 461//225
f 243//225 690//225 450//225
f 423//226 691//226 247//226
f 531//226 343//226 691//226
f 247//226 691//226 343//226
f 31//227 414//227 692//227
f 412//227 462//227 692//227
f 250//227 692//227 462//227
f 30//228 464//228 693//228
f 463//228 693//228 464//228
f 30//229 444//229 694//229
f 29//229 191//229 694//229
f 464//229 694//229 191//229
f 195//230 695//230 465//230
f 427//230 695//230 195//230
f 37//230 465//230 695//230
f 207//231 696//231 466//231
f 683//231 458//231 696//231
f 45//231 466//231 696//231
f 45//232 434//232 697//232
f 46//232 422//232 697//232
f 467//232 697//232 422//232
f 179//233 698//233 249//233
f 32//233 149//233 698//233
f 31//233 249//233 698//233
f 463//234 699//234 462//234
f 34//234 465//234 699//234
f 462//234 699//234 465//234
f 37//235 466//235 700//235
f 467//235 700//235 466//235
f 251//235 700//235 467//235
f 468//236 701//236 252//236
f 252//236 701//236 469//236
f 201//237 702//237 469//237
f 470//237 702//237 201//237
f 470//238 471//238 472//238
f 64//239 404//239 703//239
f 63//239 353//239 703//239
f 255//239 703//239 353//239
f 27//241 373//241 704//241
f 26//240 473//240 704//240
f 416//241 704//241 473//241
f 302//242 705//242 473//242
f 474//242 705//242 302//242
f 258//242 473//242 705//242
f 333//243 706//243 474//243
f 36//243 256//243 706//243
f 258//243 474//243 706//243
f 87//244 132//244 707//244
f 93//244 475//244 707//244
f 409//244 707//244 475//244
f 93//245 171//245 708//245
f 103//245 259//245 708//245
f 475//245 708//245 259//245
f 253//246 709//246 261//246
f 712//246 476//246 709//246
f 476//246 261//246 709//246
f 262//247 710//247 263//247
f 476//247 477//247 710//247
f 263//247 710//247 477//247
f 477//248 711//248 266//248
f 476//248 269//248 711//248
f 266//248 711//248 269//248
f 472//249 712//249 702//249
f 268//249 712//249 472//249
f 476//303 712//303 270//303
f 270//303 712//303 610//303
f 289//250 713//250 272//250
f 85//250 478//250 713//250
f 478//250 272//250 713//250
f 72//251 471//251 714//251
f 291//251 714//251 471//251
f 275//251 714//251 291//251
f 273//253 715//253 278//253
f 479//304 715//304 273//304
f 86//253 278//253 715//253
f 419//254 716//254 480//254
f 701//254 468//254 716//254
f 468//254 480//254 716//254
f 426//255 717//255 480//255
f 59//255 480//255 717//255
f 452//256 718//256 282//256
f 163//256 718//256 452//256
f 279//257 719//257 284//257
f 86//257 366//257 719//257
f 87//257 284//257 719//257
f 75//258 377//258 720//258
f 287//258 720//258 377//258
f 76//259 349//259 721//259
f 286//259 721//259 349//259
f 290//259 721//259 286//259
f 471//260 200//260 722//260
f 481//260 722//260 200//260
f 292//260 722//260 481//260
f 10//261 432//261 723//261
f 483//261 723//261 432//261
f 482//261 723//261 483//261
f 484//262 724//262 483//262
f 294//262 724//262 484//262
f 13//262 483//262 724//262
f 80//263 233//263 725//263
f 541//263 128//263 725//263
f 297//263 725//263 128//263
f 85//264 436//264 726//264
f 300//264 726//264 436//264
f 19//265 295//265 727//265
f 303//265 727//265 295//265
f 26//265 178//265 727//265
f 485//266 728//266 301//266
f 41//266 486//266 728//266
f 35//266 301//266 728//266
f 41//267 389//267 729//267
f 42//267 334//267 729//267
f 486//267 729//267 334//267
f 86//268 479//268 730//268
f 478//268 299//268 730//268
f 305//268 730//268 299//268
f 7//269 363//269 731//269
f 488//269 731//269 363//269
f 487//269 731//269 488//269
f 313//305 732//305 488//305
f 307//305 732//305 313//305
f 11//270 488//270 732//270
f 231//271 733//271 489//271
f 80//271 481//271 733//271
f 489//271 733//271 481//271
f 71//272 421//272 734//272
f 394//272 396//272 734//272
f 490//272 734//272 396//272
f 391//273 735//273 310//273
f 41//273 485//273 735//273
f 310//273 735//273 485//273
f 484//274 736//274 311//274
f 431//274 429//274 736//274
f 311//274 736//274 429//274
f 489//275 737//275 309//275
f 71//275 490//275 737//275
f 309//276 737//276 490//276
f 491//277 738//277 312//277
f 15//277 141//277 738//277
f 16//277 312//277 738//277
f 5//278 109//278 739//278
f 492//278 739//278 109//278
f 491//278 739//278 492//278
f 439//279 740//279 492//279
f 314//279 740//279 439//279
f 15//279 492//279 740//279
f 308//306 741//306 493//306
f 317//280 741//280 308//280
f 12//306 493//306 741//306
f 17//281 146//281 742//281
f 388//281 742//281 146//281
f 364//282 743//282 413//282
f 7//282 319//282 743//282
f 103//282 413//282 743//282
f 487//283 744//283 7//283
f 494//307 744//307 487//307
f 8//283 7//283 744//283
f 493//284 745//284 494//284
f 122//284 745//284 493//284
f 8//284 494//284 745//284
f 10//285 482//285 746//285
f 13//308 370//308 746//308
f 495//308 746//308 370//308
f 442//286 747//286 495//286
f 321//286 320//286 747//286
f 10//286 495//286 747//286
f 53//287 234//287 748//287
f 454//287 748//287 234//287
f 324//287 748//287 454//287
f 384//288 749//288 325//288
f 101//288 336//288 749//288
f 325//288 749//288 336//288
f 216//289 433//289 750//289
f 328//289 750//289 433//289
f 387//290 751//290 330//290
f 361//290 327//290 751//290
f 99//290 330//290 751//290
