# Blender 4.3.2
# www.blender.org
mtllib rock6_high_res.mtl
o rock6
v 0.804094 -0.395809 -0.800198
v 0.701929 -0.614329 -0.742266
v 0.956473 -0.724322 -0.872831
v 1.253169 -0.596798 -1.035725
v 1.137998 -0.428270 -0.963780
v 0.536888 -0.452184 -0.918980
v 0.668276 -0.816026 -1.004852
v 1.046169 -0.806826 -1.147663
v 1.170078 -0.447196 -1.174633
v 0.853038 -0.239736 -1.088687
v 0.761044 -0.552890 -1.180359
v 0.881314 -0.492221 -0.793428
v 0.726053 -0.491791 -0.747039
v 0.957376 -0.399693 -0.865210
v 0.814459 -0.688937 -0.792674
v 1.173168 -0.597696 -0.961081
v 1.126437 -0.656696 -0.949410
v 1.238687 -0.512292 -1.019788
v 0.823973 -0.289146 -0.918575
v 1.035123 -0.288896 -0.999282
v 0.595006 -0.553555 -0.786429
v 0.655024 -0.383546 -0.832269
v 0.824521 -0.817132 -0.918370
v 0.654253 -0.721125 -0.831339
v 1.196849 -0.705159 -1.090630
v 1.031680 -0.815980 -0.998669
v 1.220292 -0.387689 -1.101874
v 1.264522 -0.551247 -1.122507
v 0.661309 -0.297844 -1.030979
v 0.536552 -0.656671 -0.948386
v 0.838776 -0.864981 -1.112244
v 1.136798 -0.650155 -1.178873
v 1.032479 -0.301525 -1.160138
v 0.595718 -0.487315 -1.095417
v 0.792361 -0.343349 -1.169177
v 0.673241 -0.729972 -1.127033
v 0.902339 -0.719729 -1.199315
v 0.974939 -0.487077 -1.201468
v 0.909894 -0.571173 -0.800799
v 0.880781 -0.540378 -0.787049
v 0.874016 -0.393287 -0.826377
v 0.869805 -0.433115 -0.803436
v 0.946540 -0.463178 -0.833179
v 0.968196 -0.588054 -0.831632
v 0.985225 -0.561812 -0.836218
v 1.041160 -0.540292 -0.868902
v 0.811537 -0.342611 -0.846278
v 0.869987 -0.352068 -0.856725
v 0.647335 -0.590539 -0.750929
v 0.705774 -0.554979 -0.735280
v 0.655357 -0.515407 -0.753329
v 0.863526 -0.753409 -0.852691
v 0.886573 -0.710789 -0.830486
v 0.815490 -0.755871 -0.843487
v 1.242194 -0.643914 -1.064237
v 1.204277 -0.624513 -0.997488
v 1.206042 -0.657756 -1.026031
v 1.156522 -0.364469 -1.021434
v 1.197411 -0.470440 -0.993308
v 1.250004 -0.454685 -1.065571
v 0.733065 -0.381305 -0.806495
v 0.731404 -0.324394 -0.874607
v 0.673833 -0.664779 -0.771005
v 0.609144 -0.643002 -0.799838
v 0.997396 -0.773155 -0.924688
v 0.927414 -0.831203 -0.958391
v 1.275125 -0.582224 -1.081624
v 1.244324 -0.632854 -1.114488
v 1.100719 -0.359195 -0.974728
v 1.139804 -0.327260 -1.054623
v 0.544434 -0.462253 -1.006108
v 0.580108 -0.369217 -0.973734
v 0.614462 -0.375606 -1.071653
v 0.657873 -0.792980 -1.070484
v 0.591871 -0.752656 -0.978765
v 0.585839 -0.699944 -1.046130
v 0.981491 -0.781382 -1.183499
v 0.948900 -0.848710 -1.139248
v 0.863405 -0.810518 -1.171015
v 1.163139 -0.542397 -1.180343
v 1.107730 -0.509433 -1.191910
v 0.819801 -0.269415 -1.139470
v 0.936994 -0.254628 -1.130515
v 0.912857 -0.309228 -1.176457
v 0.769260 -0.447030 -1.180020
v 0.884383 -0.405193 -1.193726
v 0.839312 -0.452649 -1.192687
v 1.061308 -0.394794 -1.189653
v 1.114773 -0.368721 -1.175563
v 0.941807 -0.607417 -1.206392
v 0.823903 -0.636859 -1.194908
v 1.026052 -0.690343 -1.197562
v 1.096385 -0.742792 -1.170749
v 0.781584 -0.737511 -1.175030
v 0.710646 -0.641564 -1.163094
v 0.750003 -0.816558 -1.133907
v 0.741454 -0.854131 -1.065228
v 0.616872 -0.613763 -1.113643
v 0.673163 -0.520351 -1.151009
v 0.544478 -0.578903 -1.025947
v 0.517231 -0.547820 -0.927333
v 0.682358 -0.403607 -1.141883
v 0.712965 -0.305967 -1.114468
v 0.755441 -0.252415 -1.070515
v 0.942863 -0.246775 -1.046282
v 1.045409 -0.275199 -1.087855
v 1.141370 -0.329285 -1.133937
v 1.208461 -0.405190 -1.149880
v 1.229607 -0.497680 -1.154750
v 1.216293 -0.601489 -1.154243
v 1.218322 -0.645865 -1.138665
v 1.129228 -0.768413 -1.121860
v 1.046037 -0.829019 -1.083276
v 0.938617 -0.861658 -1.056099
v 0.831528 -0.860911 -1.018324
v 0.738835 -0.832582 -0.965708
v 0.650750 -0.779502 -0.918444
v 0.580173 -0.700411 -0.881998
v 0.547700 -0.606577 -0.855458
v 0.549240 -0.502235 -0.845315
v 0.580841 -0.408260 -0.871324
v 0.646304 -0.328201 -0.926766
v 0.735633 -0.275085 -0.974826
v 0.836212 -0.248006 -1.010171
v 1.260066 -0.465029 -1.119505
v 1.277083 -0.554940 -1.066977
v 1.259862 -0.556075 -1.032851
v 1.125292 -0.769079 -1.045197
v 1.092518 -0.738111 -0.968423
v 1.035640 -0.676707 -0.894309
v 0.733437 -0.779271 -0.870864
v 0.715675 -0.683638 -0.775109
v 0.748731 -0.655172 -0.759027
v 0.612292 -0.463592 -0.797530
v 0.683819 -0.438354 -0.775308
v 0.762190 -0.437260 -0.768482
v 0.928966 -0.277263 -0.955077
v 0.999073 -0.338513 -0.922954
v 1.053478 -0.414307 -0.911553
v 1.080740 -0.466548 -0.908831
v 1.162332 -0.530130 -0.951842
v 1.223111 -0.560545 -0.996127
v 1.071706 -0.610639 -0.896658
v 0.915369 -0.674045 -0.826131
v 0.872032 -0.633498 -0.794762
v 0.777319 -0.629503 -0.756186
v 0.763599 -0.598444 -0.746994
v 0.953064 -0.528301 -0.820270
v 0.799861 -0.508981 -0.758595
v 0.666677 -0.553145 -0.741029
v 1.221518 -0.442487 -1.032508
v 0.757381 -0.345890 -0.838822
v 0.640003 -0.634382 -0.769064
v 0.942433 -0.798048 -0.919508
v 1.260893 -0.620719 -1.090010
v 0.572715 -0.396901 -1.020292
v 0.604906 -0.753655 -1.033183
v 0.929557 -0.820230 -1.170727
v 0.889574 -0.271130 -1.155467
v 0.934893 -0.360139 -1.190382
v 0.875266 -0.588701 -1.202296
v 1.011480 -0.626391 -1.203051
v 1.037541 -0.742649 -1.187785
v 0.769765 -0.676599 -1.180548
v 0.795878 -0.793702 -1.164639
v 0.713334 -0.829233 -1.096305
v 0.660902 -0.593411 -1.145667
v 0.576056 -0.633075 -1.064573
v 0.525605 -0.529950 -0.986523
v 0.703303 -0.453132 -1.160627
v 0.666329 -0.356914 -1.114003
v 0.757975 -0.268717 -1.112906
v 0.976850 -0.251796 -1.090181
v 1.114178 -0.304835 -1.093470
v 1.160464 -0.361194 -1.157563
v 1.208660 -0.548916 -1.165169
v 1.141709 -0.737269 -1.148733
v 0.978164 -0.855306 -1.094995
v 0.900158 -0.857467 -1.010817
v 0.769029 -0.857036 -1.019808
v 0.599716 -0.748139 -0.925150
v 0.574226 -0.651953 -0.841840
v 0.529738 -0.553966 -0.871807
v 0.596150 -0.362148 -0.923116
v 0.702563 -0.304622 -0.924524
v 0.771346 -0.251680 -1.020934
v 1.240559 -0.452908 -1.143234
v 1.267498 -0.480399 -1.090714
v 1.105827 -0.794371 -1.083457
v 1.135476 -0.733428 -1.010241
v 1.046907 -0.736282 -0.930403
v 0.706424 -0.801819 -0.915659
v 0.760161 -0.752551 -0.835522
v 0.576044 -0.456161 -0.831664
v 0.648338 -0.471208 -0.771551
v 0.723222 -0.416751 -0.779405
v 0.904388 -0.251133 -1.002238
v 0.942836 -0.313753 -0.917000
v 1.052112 -0.369161 -0.932924
v 1.158568 -0.489653 -0.955642
v 0.743064 -0.560693 -0.739481
v 0.801241 -0.456372 -0.769470
vn 0.4274 -0.0199 0.9038
vn 0.3987 0.1161 0.9097
vn 0.2983 0.4525 0.8404
vn 0.4174 0.3516 0.8380
vn 0.4349 -0.1264 0.8916
vn 0.5341 -0.1164 0.8374
vn 0.2341 0.6176 0.7508
vn 0.3821 0.5718 0.7260
vn -0.2160 -0.1440 0.9657
vn -0.1624 0.2307 0.9594
vn -0.5321 0.1139 0.8390
vn 0.3408 -0.5727 0.7456
vn 0.2297 -0.5862 0.7769
vn 0.1606 -0.7544 0.6365
vn 0.7187 -0.4748 0.5080
vn 0.5950 -0.5052 0.6251
vn 0.6241 0.4163 0.6612
vn 0.7081 0.2914 0.6432
vn 0.7228 0.5484 0.4205
vn 0.0651 0.6480 0.7588
vn -0.0259 0.8059 0.5915
vn -0.2286 0.7443 0.6275
vn -0.2707 -0.3583 0.8935
vn -0.6425 -0.1987 0.7401
vn -0.4873 -0.5537 0.6752
vn 0.3215 -0.5495 0.7712
vn 0.1470 -0.7521 0.6424
vn 0.3335 -0.7407 0.5833
vn 0.8736 -0.3872 0.2949
vn 0.8186 -0.5672 -0.0902
vn 0.8547 -0.2559 -0.4517
vn 0.6026 0.4316 0.6712
vn 0.6862 0.6310 0.3618
vn 0.5234 0.6716 0.5245
vn -0.9112 0.3927 -0.1243
vn -0.7402 0.6023 -0.2990
vn -0.7995 0.2503 -0.5460
vn -0.6569 -0.7379 -0.1550
vn -0.8708 -0.4220 -0.2523
vn -0.6939 -0.3919 -0.6041
vn 0.1923 -0.6023 -0.7748
vn -0.0637 -0.7185 -0.6926
vn -0.0373 -0.2828 -0.9585
vn 0.1723 -0.0555 -0.9835
vn -0.0840 0.8833 -0.4612
vn 0.0658 0.6252 -0.7777
vn -0.1666 0.3957 -0.9031
vn -0.1654 0.1390 -0.9764
vn -0.0565 0.0318 -0.9979
vn -0.1180 0.2097 -0.9706
vn 0.1093 0.3060 -0.9457
vn 0.0323 0.0971 -0.9948
vn 0.1663 0.1056 -0.9804
vn 0.0804 0.0522 -0.9954
vn -0.0507 0.0548 -0.9972
vn -0.0719 -0.0375 -0.9967
vn -0.1770 0.0379 -0.9835
vn 0.0751 0.0201 -0.9970
vn 0.1793 -0.0540 -0.9823
vn 0.0317 -0.0739 -0.9968
vn 0.2279 -0.1833 -0.9563
vn 0.2412 -0.4909 -0.8371
vn 0.0565 -0.1794 -0.9822
vn -0.1791 -0.1176 -0.9768
vn -0.4091 -0.1608 -0.8982
vn -0.2936 -0.0192 -0.9557
vn -0.1590 -0.2310 -0.9599
vn -0.2323 -0.6630 -0.7117
vn -0.4045 -0.2897 -0.8675
vn -0.3247 -0.8122 -0.4847
vn -0.5537 -0.8183 -0.1546
vn -0.6009 -0.4477 -0.6621
vn -0.4942 -0.1409 -0.8579
vn -0.5770 0.0211 -0.8164
vn -0.3218 -0.0152 -0.9467
vn -0.7025 -0.2646 -0.6607
vn -0.9061 -0.2304 -0.3549
vn -0.7783 -0.0399 -0.6266
vn -0.9656 -0.1276 -0.2266
vn -0.9754 0.2071 -0.0755
vn -0.8531 0.0872 -0.5144
vn -0.5430 0.1246 -0.8305
vn -0.3238 0.1695 -0.9308
vn -0.2841 0.0251 -0.9585
vn -0.6399 0.2611 -0.7227
vn -0.6170 0.6231 -0.4806
vn -0.4068 0.3629 -0.8383
vn -0.5292 0.7482 -0.4002
vn -0.1861 0.9133 -0.3623
vn -0.3466 0.4576 -0.8188
vn 0.3420 0.9262 0.1588
vn 0.3110 0.8738 -0.3739
vn 0.1249 0.9870 -0.1007
vn 0.4016 0.8969 0.1853
vn 0.5971 0.8021 -0.0087
vn 0.3073 0.8917 -0.3323
vn 0.6450 0.6649 -0.3767
vn 0.3474 0.2198 -0.9116
vn 0.3269 0.5729 -0.7516
vn 0.6025 -0.0849 -0.7936
vn 0.3488 -0.0980 -0.9321
vn 0.3406 0.0315 -0.9397
vn 0.6949 -0.2387 -0.6783
vn 0.6878 -0.5908 -0.4218
vn 0.7297 -0.5701 -0.3775
vn 0.4776 -0.6044 -0.6376
vn 0.4471 -0.2698 -0.8528
vn 0.3242 -0.9251 0.1976
vn 0.1112 -0.9840 -0.1395
vn 0.3433 -0.8689 -0.3565
vn 0.2549 -0.9145 0.3143
vn 0.0436 -0.9021 0.4293
vn 0.0450 -0.9979 0.0467
vn -0.0662 -0.9157 0.3964
vn -0.3387 -0.9138 0.2240
vn -0.1094 -0.9940 0.0029
vn -0.5011 -0.7094 0.4956
vn -0.8292 -0.5215 0.2012
vn -0.5789 -0.7865 0.2150
vn -0.5674 -0.5656 0.5985
vn -0.7221 -0.2128 0.6583
vn -0.8565 -0.4044 0.3208
vn -0.7916 -0.0821 0.6055
vn -0.9463 0.1705 0.2745
vn -0.9499 -0.2129 0.2287
vn -0.4968 0.7159 0.4906
vn -0.5935 0.7916 0.1452
vn -0.8174 0.5464 0.1827
vn -0.3411 0.7971 0.4983
vn -0.1348 0.8921 0.4313
vn -0.4365 0.8712 0.2246
vn -0.1007 0.9165 0.3872
vn -0.0711 0.9935 0.0894
vn -0.3833 0.9134 0.1371
vn 0.7935 0.4821 -0.3713
vn 0.7264 0.0614 -0.6846
vn 0.4123 0.1311 -0.9016
vn 0.8938 0.4409 0.0822
vn 0.8827 0.1736 0.4366
vn 0.9746 0.0563 -0.2167
vn 0.8529 0.2813 0.4398
vn 0.8812 -0.1758 0.4388
vn 0.9750 0.0468 -0.2174
vn 0.6759 -0.7365 0.0283
vn 0.5330 -0.8049 0.2609
vn 0.4800 -0.8297 -0.2850
vn 0.7383 -0.5678 0.3640
vn 0.6191 -0.4418 0.6493
vn 0.5740 -0.6446 0.5050
vn 0.5385 -0.3978 0.7428
vn 0.4676 -0.4289 0.7729
vn 0.5230 -0.6099 0.5954
vn -0.1027 -0.8757 0.4717
vn -0.3075 -0.7847 0.5382
vn -0.3680 -0.8809 0.2977
vn 0.0091 -0.7734 0.6338
vn 0.0783 -0.6020 0.7946
vn -0.1851 -0.7123 0.6770
vn 0.1116 -0.5839 0.8041
vn -0.0601 -0.4372 0.8974
vn -0.2337 -0.6716 0.7031
vn -0.6705 0.2164 0.7097
vn -0.5064 0.5563 0.6589
vn -0.8271 0.4052 0.3894
vn -0.5679 0.2074 0.7965
vn -0.1974 0.3467 0.9170
vn -0.4176 0.5401 0.7307
vn -0.1186 0.3895 0.9134
vn 0.0457 0.5775 0.8151
vn -0.2596 0.6309 0.7312
vn -0.0057 0.9125 0.4091
vn 0.2414 0.9087 0.3405
vn 0.0222 0.9928 0.1177
vn 0.1423 0.7449 0.6519
vn 0.3611 0.5254 0.7704
vn 0.3358 0.7094 0.6197
vn 0.4438 0.4363 0.7827
vn 0.5283 0.4035 0.7471
vn 0.4296 0.6277 0.6492
vn 0.5499 0.1498 0.8217
vn 0.6374 0.1504 0.7557
vn 0.5853 0.2962 0.7547
vn 0.5659 -0.0219 0.8241
vn 0.5830 -0.0176 0.8123
vn 0.6938 0.1239 0.7094
vn 0.6741 -0.2135 0.7071
vn 0.4965 -0.1735 0.8505
vn 0.4806 -0.2323 0.8456
vn 0.4492 -0.3827 0.8073
vn 0.5423 -0.2677 0.7964
vn 0.3554 -0.3362 0.8721
vn 0.4103 -0.4176 0.8107
vn 0.4218 -0.1700 0.8906
vn 0.3637 -0.1316 0.9222
vn 0.3449 -0.3250 0.8805
vn 0.1354 -0.2394 0.9614
vn 0.2567 -0.3841 0.8869
vn 0.4499 0.3399 0.8259
vn 0.4849 0.2006 0.8512
vn 0.5357 0.3203 0.7813
vn 0.4358 0.2168 0.8735
vn 0.4942 0.2164 0.8420
vn 0.1875 0.1527 0.9703
vn 0.0926 -0.1223 0.9882
vn 0.3698 0.1180 0.9216
vn 0.3445 0.2216 0.9123
vn 0.2828 0.4234 0.8607
vn 0.2041 0.2381 0.9495
vn 0.4189 -0.0094 0.9080
vn 0.3569 -0.0782 0.9309
vn 0.4291 0.2314 0.8731
vn 0.4640 0.4048 0.7879
vn 0.2648 0.5884 0.7640
vn 0.2313 0.7628 0.6039
vn -0.1495 -0.1060 0.9831
vn -0.1274 0.2726 0.9536
vn -0.5346 0.0532 0.8434
vn 0.1856 -0.5311 0.8267
vn 0.6944 -0.4472 0.5638
vn 0.6551 -0.6506 0.3842
vn 0.6127 0.4149 0.6727
vn 0.7752 0.2927 0.5599
vn 0.7262 0.5456 0.4182
vn 0.0652 0.6481 0.7587
vn 0.0174 0.8626 0.5056
vn -0.2479 0.7405 0.6247
vn -0.2849 -0.3253 0.9017
vn -0.6596 -0.2123 0.7210
vn -0.4863 -0.5828 0.6510
vn 0.3374 -0.5486 0.7650
vn 0.0913 -0.7749 0.6255
vn 0.3955 -0.7687 0.5027
vn 0.8768 -0.3814 0.2928
vn 0.6999 -0.7032 -0.1251
vn 0.8816 -0.2370 -0.4082
vn 0.5016 0.6904 0.5213
vn -0.9210 0.3811 -0.0804
vn -0.6904 0.6647 -0.2856
vn -0.8126 0.2360 -0.5329
vn -0.6605 -0.7368 -0.1447
vn -0.9044 -0.3716 -0.2098
vn -0.7031 -0.3723 -0.6059
vn 0.2824 -0.6186 -0.7332
vn -0.1103 -0.7698 -0.6287
vn -0.0264 -0.2801 -0.9596
vn 0.2279 0.0417 -0.9728
vn -0.0694 0.8877 -0.4552
vn 0.2185 0.5699 -0.7921
vn -0.1922 0.4265 -0.8839
vn -0.1677 0.1379 -0.9761
vn -0.1766 0.0169 -0.9841
vn -0.1243 0.2114 -0.9695
vn 0.0950 0.3269 -0.9403
vn -0.0091 0.0842 -0.9964
vn 0.0893 0.3255 -0.9413
vn 0.2064 0.1027 -0.9731
vn -0.0449 0.0586 -0.9973
vn -0.1020 -0.0437 -0.9938
vn -0.1821 0.0213 -0.9830
vn 0.0602 0.0455 -0.9972
vn 0.1814 -0.0430 -0.9825
vn 0.0261 -0.0796 -0.9965
vn 0.2759 -0.1177 -0.9540
vn 0.2707 -0.4839 -0.8322
vn 0.0450 -0.1740 -0.9837
vn -0.1701 -0.1216 -0.9779
vn -0.3862 -0.2036 -0.8997
vn -0.2455 -0.0158 -0.9693
vn -0.1448 -0.2154 -0.9657
vn -0.1731 -0.6488 -0.7410
vn -0.4393 -0.2702 -0.8567
vn -0.2090 -0.8467 -0.4892
vn -0.5956 -0.7827 -0.1804
vn -0.5625 -0.4433 -0.6980
vn -0.5053 -0.2199 -0.8345
vn -0.6004 0.0424 -0.7986
vn -0.3283 0.0027 -0.9446
vn -0.6784 -0.2859 -0.6768
vn -0.8949 -0.2661 -0.3583
vn -0.7700 0.0061 -0.6380
vn -0.9575 -0.2092 -0.1986
vn -0.9653 0.2364 -0.1109
vn -0.8518 0.0875 -0.5165
vn -0.5370 0.0903 -0.8387
vn -0.2940 0.2270 -0.9284
vn -0.3150 0.0054 -0.9491
vn -0.6622 0.2033 -0.7212
vn -0.6557 0.5959 -0.4636
vn -0.4044 0.3625 -0.8397
vn -0.5978 0.7356 -0.3186
vn -0.1675 0.8950 -0.4134
vn -0.3492 0.4562 -0.8185
vn 0.3123 0.9327 0.1805
vn 0.3139 0.8738 -0.3715
vn 0.0249 0.9952 -0.0945
vn 0.4351 0.8737 0.2173
vn 0.6637 0.7480 -0.0060
vn 0.3409 0.8621 -0.3750
vn 0.6541 0.6444 -0.3961
vn 0.3262 0.2190 -0.9196
vn 0.1820 0.6531 -0.7350
vn 0.6031 -0.0774 -0.7939
vn 0.2926 -0.1537 -0.9438
vn 0.3234 0.0598 -0.9444
vn 0.7191 -0.2007 -0.6653
vn 0.4364 -0.2802 -0.8550
vn 0.7208 -0.5953 -0.3551
vn 0.3836 -0.6866 -0.6176
vn 0.4371 -0.2720 -0.8573
vn 0.3354 -0.9226 0.1903
vn 0.0084 -0.9882 -0.1528
vn 0.3891 -0.8712 -0.2995
vn 0.2713 -0.9096 0.3146
vn 0.0021 -0.9159 0.4013
vn -0.0127 -0.9966 0.0815
vn -0.0488 -0.9201 0.3887
vn -0.3526 -0.9228 0.1551
vn -0.0627 -0.9973 0.0384
vn -0.5351 -0.6765 0.5059
vn -0.8307 -0.5314 0.1663
vn -0.5319 -0.8338 0.1481
vn -0.5692 -0.5683 0.5943
vn -0.7243 -0.2281 0.6507
vn -0.8687 -0.3749 0.3238
vn -0.7944 -0.0115 0.6073
vn -0.9427 0.2334 0.2382
vn -0.9463 -0.2660 0.1837
vn -0.4681 0.7430 0.4784
vn -0.5565 0.8287 0.0606
vn -0.8049 0.5410 0.2437
vn -0.3492 0.7845 0.5125
vn -0.1348 0.8906 0.4343
vn -0.3852 0.8994 0.2065
vn -0.1170 0.9117 0.3939
vn -0.1242 0.9919 0.0251
vn -0.4272 0.8956 0.1238
vn 0.7794 0.4899 -0.3905
vn 0.7666 -0.0225 -0.6417
vn 0.4125 0.1524 -0.8981
vn 0.8512 0.5216 0.0588
vn 0.8500 0.2559 0.4604
vn 0.9737 0.0580 -0.2204
vn 0.9016 -0.2531 0.3509
vn 0.7667 -0.6412 0.0338
vn 0.4903 -0.8450 0.2134
vn 0.4729 -0.8364 -0.2772
vn 0.7222 -0.6026 0.3394
vn 0.6562 -0.4198 0.6271
vn 0.5624 -0.6552 0.5044
vn 0.5965 -0.3304 0.7315
vn 0.4044 -0.4168 0.8141
vn 0.4877 -0.6198 0.6148
vn -0.1005 -0.8630 0.4950
vn -0.3290 -0.7489 0.5753
vn -0.3721 -0.8787 0.2991
vn 0.0357 -0.8100 0.5854
vn 0.1057 -0.6160 0.7806
vn -0.1836 -0.7123 0.6774
vn -0.1128 -0.4437 0.8891
vn -0.6580 0.1651 0.7347
vn -0.5230 0.5741 0.6301
vn -0.8404 0.3722 0.3938
vn -0.5309 0.2496 0.8098
vn -0.2046 0.3265 0.9228
vn -0.4170 0.5344 0.7352
vn -0.0499 0.3940 0.9178
vn 0.0854 0.5899 0.8029
vn -0.2657 0.6241 0.7348
vn 0.0596 0.8860 0.4598
vn 0.2914 0.8930 0.3429
vn 0.0326 0.9932 0.1116
vn 0.1519 0.7407 0.6545
vn 0.3161 0.5283 0.7880
vn 0.3822 0.7328 0.5630
vn 0.3889 0.4038 0.8281
vn 0.5619 0.3678 0.7410
vn 0.4750 0.6183 0.6262
vn 0.5389 0.1283 0.8326
vn 0.6561 0.1308 0.7433
vn 0.5550 0.2894 0.7799
vn 0.7071 -0.1648 0.6876
vn 0.6336 0.1660 0.7556
vn 0.5902 -0.3209 0.7407
vn 0.6615 -0.2101 0.7200
vn 0.5414 -0.0773 0.8372
vn 0.5404 -0.2704 0.7968
vn 0.4750 -0.2376 0.8473
vn 0.4354 -0.2115 0.8750
vn 0.3124 -0.3495 0.8833
vn 0.3710 -0.1090 0.9222
vn 0.1150 -0.2349 0.9652
vn 0.4753 0.2913 0.8302
vn 0.4882 0.0540 0.8711
vn 0.3272 -0.0101 0.9449
vn 0.1320 0.1402 0.9813
vn 0.1105 -0.1358 0.9846
vn 0.3281 -0.0105 0.9446
vn 0.3881 0.1768 0.9045
vn 0.2331 0.4312 0.8716
vn 0.1215 0.1979 0.9727
s 0
f 148//1 39//1 45//1
f 12//2 40//2 148//2
f 42//3 41//3 1//3
f 41//4 43//4 14//4
f 45//5 39//5 44//5
f 46//6 45//6 16//6
f 1//7 48//7 47//7
f 48//8 41//8 14//8
f 2//9 150//9 49//9
f 51//10 50//10 13//10
f 21//11 150//11 51//11
f 53//12 52//12 3//12
f 54//13 53//13 15//13
f 23//14 52//14 54//14
f 4//15 57//15 55//15
f 57//16 56//16 17//16
f 59//17 58//17 5//17
f 18//18 151//18 59//18
f 27//19 151//19 60//19
f 1//20 152//20 61//20
f 62//21 47//21 19//21
f 61//22 62//22 22//22
f 2//23 153//23 63//23
f 21//24 153//24 49//24
f 63//25 64//25 24//25
f 3//26 154//26 65//26
f 66//27 52//27 23//27
f 65//28 66//28 26//28
f 4//29 155//29 67//29
f 68//30 55//30 25//30
f 28//31 155//31 68//31
f 5//32 58//32 69//32
f 70//33 58//33 27//33
f 69//34 70//34 20//34
f 72//35 71//35 6//35
f 73//36 72//36 29//36
f 34//37 156//37 73//37
f 7//38 157//38 74//38
f 76//39 75//39 30//39
f 36//40 157//40 76//40
f 78//41 77//41 8//41
f 79//42 78//42 31//42
f 37//43 158//43 79//43
f 81//44 80//44 32//44
f 10//45 159//45 82//45
f 84//46 83//46 33//46
f 35//47 159//47 84//47
f 35//48 87//48 85//48
f 87//49 86//49 38//49
f 84//50 86//50 35//50
f 33//51 160//51 84//51
f 38//52 160//52 88//52
f 81//53 89//53 9//53
f 38//54 88//54 81//54
f 90//55 87//55 38//55
f 37//56 161//56 90//56
f 11//57 161//57 91//57
f 81//58 90//58 38//58
f 32//59 162//59 81//59
f 90//60 92//60 37//60
f 93//61 92//61 32//61
f 8//62 163//62 93//62
f 92//63 77//63 37//63
f 94//64 91//64 37//64
f 36//65 164//65 94//65
f 11//66 164//66 95//66
f 79//67 94//67 37//67
f 31//68 165//68 79//68
f 94//69 96//69 36//69
f 97//70 96//70 31//70
f 7//71 166//71 97//71
f 36//72 166//72 74//72
f 98//73 95//73 36//73
f 99//74 98//74 34//74
f 11//75 167//75 99//75
f 76//76 98//76 36//76
f 30//77 168//77 76//77
f 98//78 100//78 34//78
f 101//79 100//79 30//79
f 6//80 169//80 101//80
f 100//81 71//81 34//81
f 34//82 170//82 99//82
f 85//83 102//83 35//83
f 11//84 170//84 85//84
f 73//85 102//85 34//85
f 29//86 171//86 73//86
f 102//87 103//87 35//87
f 104//88 103//88 29//88
f 10//89 172//89 104//89
f 35//90 172//90 82//90
f 20//91 173//91 105//91
f 33//92 173//92 106//92
f 105//93 83//93 10//93
f 20//94 174//94 106//94
f 107//95 70//95 27//95
f 33//96 174//96 107//96
f 27//97 175//97 107//97
f 9//98 175//98 108//98
f 107//99 89//99 33//99
f 28//100 176//100 109//100
f 80//101 110//101 32//101
f 109//102 80//102 9//102
f 68//103 110//103 28//103
f 25//104 111//104 68//104
f 25//105 177//105 111//105
f 93//106 112//106 8//106
f 32//107 177//107 93//107
f 26//108 178//108 113//108
f 78//109 114//109 31//109
f 8//110 178//110 78//110
f 66//111 114//111 26//111
f 23//112 179//112 66//112
f 31//113 179//113 115//113
f 23//114 180//114 115//114
f 7//115 180//115 116//115
f 31//116 180//116 97//116
f 24//117 181//117 117//117
f 30//118 181//118 118//118
f 117//119 75//119 7//119
f 24//120 182//120 118//120
f 119//121 64//121 21//121
f 30//122 182//122 119//122
f 21//123 183//123 119//123
f 101//124 120//124 6//124
f 119//125 101//125 30//125
f 22//126 184//126 121//126
f 72//127 122//127 29//127
f 6//128 184//128 72//128
f 62//129 122//129 22//129
f 19//130 185//130 62//130
f 29//131 185//131 123//131
f 19//132 186//132 123//132
f 10//133 186//133 124//133
f 123//134 104//134 29//134
f 27//135 187//135 108//135
f 109//136 125//136 28//136
f 9//137 187//137 109//137
f 60//138 125//138 27//138
f 18//139 188//139 60//139
f 28//140 188//140 126//140
f 127//141 126//141 18//141
f 4//142 126//142 127//142
f 28//143 126//143 67//143
f 128//144 112//144 25//144
f 26//145 189//145 128//145
f 8//146 189//146 113//146
f 25//147 190//147 128//147
f 17//148 190//148 57//148
f 128//149 129//149 26//149
f 130//150 129//150 17//150
f 65//151 130//151 3//151
f 26//152 191//152 65//152
f 23//153 192//153 116//153
f 117//154 131//154 24//154
f 7//155 192//155 117//155
f 54//156 131//156 23//156
f 15//157 193//157 54//157
f 131//158 132//158 24//158
f 133//159 132//159 15//159
f 2//160 132//160 133//160
f 24//161 132//161 63//161
f 134//162 120//162 21//162
f 22//163 194//163 134//163
f 6//164 194//164 121//164
f 51//165 134//165 21//165
f 13//166 195//166 51//166
f 134//167 135//167 22//167
f 13//168 196//168 135//168
f 61//169 136//169 1//169
f 22//170 196//170 61//170
f 19//171 197//171 124//171
f 105//172 137//172 20//172
f 10//173 197//173 105//173
f 48//174 137//174 19//174
f 14//175 198//175 48//175
f 137//176 138//176 20//176
f 139//177 138//177 14//177
f 69//178 139//178 5//178
f 20//179 199//179 69//179
f 141//180 140//180 46//180
f 59//181 141//181 18//181
f 5//182 200//182 59//182
f 16//183 141//183 46//183
f 142//184 141//184 16//184
f 18//185 142//185 127//185
f 142//186 56//186 4//186
f 143//187 45//187 44//187
f 44//188 130//188 143//188
f 3//189 130//189 144//189
f 143//190 130//190 17//190
f 53//191 145//191 15//191
f 3//192 144//192 53//192
f 39//193 145//193 44//193
f 147//194 145//194 39//194
f 15//195 145//195 146//195
f 133//196 147//196 2//196
f 15//197 146//197 133//197
f 43//198 139//198 14//198
f 46//199 140//199 43//199
f 139//200 140//200 5//200
f 148//201 43//201 12//201
f 43//202 148//202 46//202
f 13//203 201//203 149//203
f 2//204 201//204 50//204
f 149//205 40//205 12//205
f 42//206 149//206 12//206
f 1//207 202//207 42//207
f 149//208 136//208 13//208
f 148//209 40//209 39//209
f 147//210 39//210 40//210
f 12//211 43//211 42//211
f 41//212 42//212 43//212
f 1//213 41//213 48//213
f 19//214 47//214 48//214
f 2//215 50//215 150//215
f 51//216 150//216 50//216
f 21//217 49//217 150//217
f 54//218 52//218 53//218
f 4//219 56//219 57//219
f 25//220 55//220 57//220
f 59//221 151//221 58//221
f 18//222 60//222 151//222
f 27//223 58//223 151//223
f 1//224 47//224 152//224
f 62//225 152//225 47//225
f 61//226 152//226 62//226
f 2//227 49//227 153//227
f 21//228 64//228 153//228
f 63//229 153//229 64//229
f 3//230 52//230 154//230
f 66//231 154//231 52//231
f 65//232 154//232 66//232
f 4//233 55//233 155//233
f 68//234 155//234 55//234
f 28//235 67//235 155//235
f 69//236 58//236 70//236
f 72//237 156//237 71//237
f 73//238 156//238 72//238
f 34//239 71//239 156//239
f 7//240 75//240 157//240
f 76//241 157//241 75//241
f 36//242 74//242 157//242
f 78//243 158//243 77//243
f 79//244 158//244 78//244
f 37//245 77//245 158//245
f 9//246 80//246 81//246
f 10//247 83//247 159//247
f 84//248 159//248 83//248
f 35//249 82//249 159//249
f 35//250 86//250 87//250
f 11//251 85//251 87//251
f 84//252 160//252 86//252
f 33//253 88//253 160//253
f 38//254 86//254 160//254
f 33//255 89//255 88//255
f 81//256 88//256 89//256
f 90//257 161//257 87//257
f 37//258 91//258 161//258
f 11//259 87//259 161//259
f 81//260 162//260 90//260
f 32//261 92//261 162//261
f 90//262 162//262 92//262
f 93//263 163//263 92//263
f 8//264 77//264 163//264
f 92//265 163//265 77//265
f 94//266 164//266 91//266
f 36//267 95//267 164//267
f 11//268 91//268 164//268
f 79//269 165//269 94//269
f 31//270 96//270 165//270
f 94//271 165//271 96//271
f 97//272 166//272 96//272
f 7//273 74//273 166//273
f 36//274 96//274 166//274
f 98//275 167//275 95//275
f 99//276 167//276 98//276
f 11//277 95//277 167//277
f 76//278 168//278 98//278
f 30//279 100//279 168//279
f 98//280 168//280 100//280
f 101//281 169//281 100//281
f 6//282 71//282 169//282
f 100//283 169//283 71//283
f 34//284 102//284 170//284
f 85//285 170//285 102//285
f 11//286 99//286 170//286
f 73//287 171//287 102//287
f 29//288 103//288 171//288
f 102//289 171//289 103//289
f 104//290 172//290 103//290
f 10//291 82//291 172//291
f 35//292 103//292 172//292
f 20//293 106//293 173//293
f 33//294 83//294 173//294
f 105//295 173//295 83//295
f 20//296 70//296 174//296
f 107//297 174//297 70//297
f 33//298 106//298 174//298
f 27//299 108//299 175//299
f 9//300 89//300 175//300
f 107//301 175//301 89//301
f 28//302 110//302 176//302
f 80//303 176//303 110//303
f 109//304 176//304 80//304
f 68//305 111//305 110//305
f 32//306 110//306 111//306
f 25//307 112//307 177//307
f 93//308 177//308 112//308
f 32//309 111//309 177//309
f 26//310 114//310 178//310
f 78//311 178//311 114//311
f 8//312 113//312 178//312
f 66//313 179//313 114//313
f 23//314 115//314 179//314
f 31//315 114//315 179//315
f 23//316 116//316 180//316
f 7//317 97//317 180//317
f 31//318 115//318 180//318
f 24//319 118//319 181//319
f 30//320 75//320 181//320
f 117//321 181//321 75//321
f 24//322 64//322 182//322
f 119//323 182//323 64//323
f 30//324 118//324 182//324
f 21//325 120//325 183//325
f 101//326 183//326 120//326
f 119//327 183//327 101//327
f 22//328 122//328 184//328
f 72//329 184//329 122//329
f 6//330 121//330 184//330
f 62//331 185//331 122//331
f 19//332 123//332 185//332
f 29//333 122//333 185//333
f 19//334 124//334 186//334
f 10//335 104//335 186//335
f 123//336 186//336 104//336
f 27//337 125//337 187//337
f 109//338 187//338 125//338
f 9//339 108//339 187//339
f 60//340 188//340 125//340
f 18//341 126//341 188//341
f 28//342 125//342 188//342
f 4//343 67//343 126//343
f 128//344 189//344 112//344
f 26//345 113//345 189//345
f 8//346 112//346 189//346
f 25//347 57//347 190//347
f 17//348 129//348 190//348
f 128//349 190//349 129//349
f 130//350 191//350 129//350
f 65//351 191//351 130//351
f 26//352 129//352 191//352
f 23//353 131//353 192//353
f 117//354 192//354 131//354
f 7//355 116//355 192//355
f 54//356 193//356 131//356
f 15//357 132//357 193//357
f 131//358 193//358 132//358
f 2//359 63//359 132//359
f 134//360 194//360 120//360
f 22//361 121//361 194//361
f 6//362 120//362 194//362
f 51//363 195//363 134//363
f 13//364 135//364 195//364
f 134//365 195//365 135//365
f 13//366 136//366 196//366
f 61//367 196//367 136//367
f 22//368 135//368 196//368
f 19//369 137//369 197//369
f 105//370 197//370 137//370
f 10//371 124//371 197//371
f 48//372 198//372 137//372
f 14//373 138//373 198//373
f 137//374 198//374 138//374
f 139//375 199//375 138//375
f 69//376 199//376 139//376
f 20//377 138//377 199//377
f 141//378 200//378 140//378
f 59//379 200//379 141//379
f 5//380 140//380 200//380
f 4//381 127//381 142//381
f 18//382 141//382 142//382
f 17//383 56//383 16//383
f 142//384 16//384 56//384
f 16//385 45//385 143//385
f 17//386 16//386 143//386
f 44//387 144//387 130//387
f 44//388 145//388 144//388
f 53//389 144//389 145//389
f 147//390 146//390 145//390
f 133//391 146//391 147//391
f 43//392 140//392 139//392
f 45//393 46//393 148//393
f 149//394 201//394 147//394
f 13//395 50//395 201//395
f 2//396 147//396 201//396
f 147//397 40//397 149//397
f 42//398 202//398 149//398
f 1//399 136//399 202//399
f 149//400 202//400 136//400
