# Blender 4.3.2
# www.blender.org
mtllib rock3_high_res.mtl
o rock3
v 0.065968 0.380270 -0.861029
v 0.362074 0.275885 -0.851776
v -0.010944 0.561275 -1.118806
v 0.180623 0.152919 -1.139772
v 0.607618 0.164647 -1.064541
v 0.389852 0.792292 -1.127626
v 0.346238 0.447464 -1.236302
v 0.276859 0.730128 -0.957523
v 0.509378 0.739015 -0.909398
v 0.067167 0.628099 -0.970533
v 0.276859 0.164153 -0.957523
v 0.067167 0.266181 -0.970533
v 0.714278 0.283787 -0.927978
v 0.509378 0.155267 -0.909398
v 0.758571 0.629861 -0.924324
v 0.184597 0.738914 -1.172512
v 0.002411 0.326636 -1.152573
v 0.392039 0.093356 -1.159602
v 0.601037 0.730287 -1.084331
v 0.155212 0.521878 -1.266647
v 0.247430 0.247006 -1.247472
v 0.497287 0.265382 -1.189388
v 0.558668 0.519307 -1.142689
v 0.268144 0.436469 -0.823314
v 0.277635 0.604928 -0.853066
v 0.260738 0.504029 -0.825216
v 0.275595 0.410583 -0.828180
v 0.445285 0.442777 -0.815261
v 0.452736 0.416891 -0.820126
v 0.236732 0.671236 -0.909261
v 0.317761 0.663821 -0.901328
v -0.007978 0.446642 -0.952314
v 0.080490 0.447437 -0.858382
v 0.043518 0.480623 -0.904024
v 0.319466 0.220019 -0.904649
v 0.281161 0.290940 -0.850259
v 0.238554 0.235074 -0.903132
v 0.730823 0.344052 -0.885584
v 0.658889 0.380369 -0.836031
v 0.642344 0.320103 -0.878426
v 0.671687 0.594562 -0.879416
v 0.652313 0.521474 -0.836743
v 0.739197 0.556773 -0.881652
v 0.131886 0.620221 -0.915766
v 0.172013 0.679114 -0.964028
v 0.066567 0.323225 -0.915781
v 0.029594 0.356412 -0.961424
v 0.435726 0.215576 -0.880587
v 0.393119 0.159710 -0.933460
v 0.788922 0.447328 -0.919438
v 0.751600 0.365557 -0.923708
v 0.547090 0.649139 -0.871953
v 0.633975 0.684438 -0.916861
v 0.072134 0.541577 -1.192726
v 0.086827 0.650095 -1.145659
v 0.169905 0.630396 -1.219579
v 0.214026 0.199962 -1.193622
v 0.091517 0.239777 -1.146173
v 0.124920 0.286821 -1.200022
v 0.552453 0.215014 -1.126965
v 0.499828 0.129001 -1.112072
v 0.444663 0.179369 -1.174495
v 0.644392 0.545344 -1.077544
v 0.717268 0.451232 -1.022159
v 0.631543 0.425196 -1.087304
v 0.381931 0.679956 -1.221439
v 0.495445 0.761289 -1.105978
v 0.491484 0.705122 -1.152885
v 0.364084 0.563710 -1.228871
v 0.470300 0.599632 -1.182064
v 0.452453 0.483386 -1.189496
v 0.579853 0.624797 -1.113510
v 0.665577 0.650833 -1.048365
v 0.527978 0.392345 -1.166039
v 0.421762 0.356423 -1.212845
v 0.600852 0.298234 -1.110654
v 0.656018 0.247866 -1.048230
v 0.372359 0.256194 -1.218430
v 0.296834 0.347235 -1.241887
v 0.319735 0.170181 -1.203537
v 0.286331 0.123137 -1.149687
v 0.201321 0.384442 -1.257060
v 0.250725 0.484671 -1.251474
v 0.078811 0.424257 -1.209610
v -0.004267 0.443955 -1.135689
v 0.268571 0.600917 -1.244043
v 0.283264 0.709435 -1.196975
v 0.287225 0.765603 -1.150069
v 0.449615 0.765653 -1.018512
v 0.555207 0.734651 -0.996865
v 0.679804 0.680074 -1.004328
v 0.759520 0.509354 -0.965918
v 0.746670 0.389206 -0.975679
v 0.704418 0.331085 -1.031919
v 0.660948 0.224217 -0.996259
v 0.558498 0.159957 -0.986969
v 0.450709 0.124311 -1.034500
v 0.334449 0.128754 -1.058563
v 0.228741 0.158536 -1.048648
v 0.123895 0.209550 -1.055153
v 0.034789 0.296408 -1.061553
v -0.002783 0.386639 -1.052444
v -0.009461 0.503959 -1.035560
v 0.028111 0.594687 -1.044670
v 0.125882 0.683506 -1.071522
v 0.230728 0.734521 -1.065017
v 0.333355 0.761210 -1.042574
v 0.773746 0.538594 -0.921881
v 0.719823 0.483686 -0.838979
v 0.611828 0.219527 -0.918688
v 0.539894 0.255843 -0.869136
v 0.466242 0.316152 -0.840325
v 0.172013 0.215167 -0.964028
v 0.133708 0.286088 -0.909638
v 0.133108 0.343132 -0.854886
v 0.029594 0.537371 -0.961424
v 0.081090 0.571352 -0.913134
v 0.095013 0.514604 -0.855735
v 0.393119 0.734571 -0.933460
v 0.434021 0.668265 -0.877266
v 0.471733 0.578388 -0.839820
v 0.468315 0.479814 -0.816771
v 0.594069 0.481750 -0.827875
v 0.633138 0.461049 -0.829643
v 0.646910 0.421365 -0.831748
v 0.464715 0.375894 -0.824409
v 0.359020 0.395369 -0.819945
v 0.279635 0.350682 -0.834343
v 0.200249 0.305995 -0.848742
v 0.413490 0.538664 -0.830952
v 0.364527 0.491922 -0.820993
v 0.177875 0.509316 -0.840475
v 0.344118 0.447141 -0.810214
v 0.277376 0.646662 -0.887885
v 0.051001 0.447172 -0.889693
v 0.279727 0.248678 -0.886014
v 0.677352 0.348175 -0.866680
v 0.687732 0.557603 -0.865937
v 0.180211 0.656857 -0.929685
v 0.041719 0.364364 -0.927959
v 0.382770 0.198435 -0.906232
v 0.747367 0.404318 -0.843189
v 0.617584 0.642713 -0.889410
v 0.109622 0.607356 -1.185988
v 0.143488 0.242187 -1.179939
v 0.498981 0.174462 -1.137844
v 0.664401 0.473924 -1.062336
v 0.457607 0.734178 -1.144465
v 0.428946 0.548909 -1.200143
v 0.513879 0.643183 -1.149486
v 0.629941 0.606991 -1.079806
v 0.467398 0.410718 -1.189460
v 0.586791 0.371925 -1.121332
v 0.603108 0.253705 -1.095283
v 0.363652 0.319951 -1.224387
v 0.378919 0.201915 -1.198821
v 0.273364 0.164427 -1.182282
v 0.249627 0.405449 -1.250140
v 0.135018 0.365173 -1.222231
v 0.048893 0.469930 -1.179342
v 0.294460 0.549766 -1.241463
v 0.240580 0.646916 -1.220199
v 0.318793 0.737054 -1.173859
v 0.500089 0.753865 -1.040452
v 0.622995 0.699721 -0.972684
v 0.696575 0.643843 -1.007018
v 0.741152 0.449931 -0.987919
v 0.735873 0.354067 -0.959778
v 0.675438 0.259840 -1.008146
v 0.503012 0.137757 -1.044514
v 0.392759 0.137592 -1.008841
v 0.283174 0.136809 -1.085632
v 0.083400 0.248579 -1.087626
v 0.020533 0.346486 -1.025140
v -0.005504 0.444851 -1.074564
v 0.080273 0.642763 -1.087284
v 0.176208 0.699047 -1.033523
v 0.283769 0.753778 -1.085887
v 0.730117 0.571380 -1.012399
v 0.755772 0.520292 -0.894247
v 0.610425 0.201234 -0.967306
v 0.598022 0.265158 -0.888750
v 0.480621 0.262524 -0.863349
v 0.174883 0.194418 -1.022609
v 0.181425 0.245443 -0.925599
v 0.111128 0.317482 -0.893435
v 0.016082 0.545339 -1.013884
v 0.051401 0.529782 -0.926194
v 0.119595 0.585015 -0.895756
v 0.392030 0.753812 -0.998182
v 0.381634 0.688886 -0.904018
v 0.484281 0.631931 -0.863013
v 0.584802 0.559263 -0.834507
v 0.570410 0.356419 -0.828874
v 0.546453 0.438411 -0.820307
v 0.430501 0.342558 -0.833532
v 0.307114 0.325750 -0.840154
v 0.250480 0.375720 -0.835034
v 0.192170 0.425797 -0.836415
v 0.358664 0.597514 -0.845133
v 0.117717 0.440224 -0.851060
v 0.196606 0.612343 -0.860999
vn -0.1711 0.0090 0.9852
vn -0.0686 0.2761 0.9587
vn -0.1356 -0.2206 0.9659
vn 0.0416 -0.1730 0.9840
vn 0.0502 0.0095 0.9987
vn -0.0166 0.6405 0.7678
vn -0.7224 0.1294 0.6793
vn -0.1049 -0.6402 0.7610
vn 0.2248 -0.6012 0.7669
vn 0.2699 0.4312 0.8610
vn 0.2698 0.4312 0.8610
vn -0.3892 0.7279 0.5646
vn -0.8337 -0.3869 0.3940
vn -0.1843 -0.5978 0.7802
vn 0.8771 -0.4131 0.2450
vn 0.2527 0.4606 0.8509
vn 0.2527 0.4605 0.8509
vn -0.5576 0.3927 -0.7313
vn -0.4500 -0.5154 -0.7293
vn 0.4793 -0.4261 -0.7673
vn 0.6051 -0.0000 -0.7962
vn 0.3251 0.5926 -0.7370
vn 0.4043 -0.0036 -0.9146
vn 0.5031 0.1351 -0.8536
vn 0.5809 0.1066 -0.8070
vn 0.3799 0.0777 -0.9218
vn 0.3799 0.0777 -0.9217
vn 0.6052 0.0001 -0.7961
vn 0.6338 -0.2235 -0.7405
vn 0.2302 -0.0593 -0.9713
vn 0.2369 -0.3047 -0.9225
vn -0.2499 -0.6471 -0.7203
vn 0.1497 -0.0187 -0.9885
vn -0.4096 -0.1995 -0.8902
vn -0.6536 0.0712 -0.7535
vn 0.1707 0.0367 -0.9846
vn -0.1032 0.4075 -0.9073
vn 0.0012 0.6409 -0.7676
vn 0.2635 0.9604 0.0901
vn 0.2635 0.9604 0.0902
vn 0.4040 0.8994 0.1668
vn 0.7665 0.3926 -0.5083
vn 0.8187 -0.0410 -0.5727
vn 0.8833 -0.3895 -0.2610
vn 0.8524 -0.4406 -0.2814
vn 0.2674 -0.9571 0.1114
vn -0.0946 -0.9551 0.2807
vn -0.2496 -0.9494 0.1903
vn -0.6984 -0.7157 0.0108
vn -0.8996 -0.3937 0.1893
vn -0.9984 -0.0540 -0.0194
vn -0.6696 0.7425 0.0181
vn -0.4376 0.8710 0.2234
vn -0.2809 0.9464 0.1592
vn 0.9108 0.1411 -0.3879
vn 0.7822 0.1463 0.6056
vn 0.5277 -0.7999 0.2858
vn 0.3496 -0.4377 0.8284
vn 0.0468 -0.3834 0.9224
vn -0.4339 -0.8558 0.2819
vn -0.3713 -0.6830 0.6290
vn -0.4105 -0.6337 0.6557
vn -0.8752 0.3910 0.2848
vn -0.7536 0.3668 0.5455
vn -0.4978 0.5534 0.6678
vn -0.0955 0.9537 0.2851
vn -0.1879 0.5650 0.8034
vn 0.0232 0.3928 0.9193
vn 0.0861 0.0951 0.9917
vn 0.0865 0.0784 0.9932
vn 0.1108 -0.0143 0.9937
vn 0.1004 -0.0743 0.9922
vn 0.0242 -0.0969 0.9950
vn -0.0066 -0.2576 0.9662
vn -0.0299 -0.2580 0.9657
vn -0.1174 -0.1095 0.9870
vn -0.0072 0.2279 0.9737
vn -0.0138 0.2221 0.9749
vn -0.1925 0.0029 0.9813
vn -0.1924 0.0029 0.9813
vn -0.1800 0.0170 0.9835
vn 0.8525 -0.4406 -0.2814
vn 0.7875 0.2432 0.5664
vn -0.1514 -0.1113 0.9822
vn -0.0116 0.2390 0.9709
vn -0.1630 0.2212 0.9615
s 0
f 26//1 24//1 133//1
f 24//1 26//1 199//1
f 26//2 25//2 202//2
f 25//2 26//2 200//2
f 27//3 24//3 199//3
f 127//3 133//3 27//3
f 133//4 127//4 28//4
f 28//4 29//4 195//4
f 28//5 122//5 133//5
f 202//6 134//6 30//6
f 31//6 25//6 200//6
f 30//6 31//6 8//6
f 1//7 135//7 32//7
f 34//7 33//7 118//7
f 2//8 136//8 35//8
f 37//8 36//8 129//8
f 35//8 37//8 11//8
f 142//9 137//9 38//9
f 40//9 39//9 194//9
f 13//9 137//9 40//9
f 42//10 41//10 193//10
f 109//10 138//10 42//10
f 41//11 43//11 15//11
f 202//12 139//12 44//12
f 45//12 30//12 8//12
f 44//12 45//12 10//12
f 1//13 140//13 46//13
f 46//13 47//13 12//13
f 2//14 141//14 48//14
f 49//14 35//14 11//14
f 48//14 49//14 14//14
f 51//15 38//15 13//15
f 50//15 142//15 51//15
f 193//16 143//16 52//16
f 53//17 41//17 15//17
f 52//17 53//17 9//17
f 55//18 54//18 3//18
f 56//18 55//18 16//18
f 20//18 144//18 56//18
f 4//19 145//19 57//19
f 59//19 58//19 17//19
f 21//19 145//19 59//19
f 61//20 60//20 5//20
f 62//20 61//20 18//20
f 22//20 146//20 62//20
f 179//21 147//21 63//21
f 65//21 64//21 94//21
f 63//21 65//21 23//21
f 6//22 148//22 66//22
f 68//22 67//22 19//22
f 66//22 148//22 68//22
f 70//23 69//23 66//23
f 71//23 70//23 23//23
f 7//23 149//23 71//23
f 68//24 70//24 66//24
f 19//24 150//24 68//24
f 23//24 150//24 72//24
f 19//25 151//25 72//25
f 179//25 151//25 73//25
f 72//25 63//25 23//25
f 74//26 71//26 23//26
f 75//26 74//26 22//26
f 7//27 152//27 75//27
f 23//28 153//28 74//28
f 76//28 65//28 94//28
f 74//28 76//28 22//28
f 77//29 76//29 94//29
f 5//29 154//29 77//29
f 76//29 60//29 22//29
f 78//30 75//30 22//30
f 21//30 155//30 78//30
f 7//30 155//30 79//30
f 62//31 78//31 22//31
f 18//31 156//31 62//31
f 78//31 80//31 21//31
f 81//32 80//32 18//32
f 4//32 157//32 81//32
f 21//32 157//32 57//32
f 82//33 79//33 21//33
f 83//33 82//33 20//33
f 7//33 158//33 83//33
f 59//34 82//34 21//34
f 17//34 159//34 59//34
f 82//34 84//34 20//34
f 85//35 84//35 17//35
f 3//35 160//35 85//35
f 84//35 54//35 20//35
f 86//36 83//36 20//36
f 69//36 86//36 66//36
f 7//36 161//36 69//36
f 56//37 86//37 20//37
f 16//37 162//37 56//37
f 86//37 87//37 66//37
f 88//38 87//38 16//38
f 6//38 163//38 88//38
f 90//39 89//39 9//39
f 19//40 164//40 90//40
f 89//39 67//39 6//39
f 9//41 165//41 90//41
f 91//41 53//41 15//41
f 19//41 165//41 91//41
f 15//42 166//42 91//42
f 91//42 73//42 19//42
f 50//43 167//43 92//43
f 64//43 93//43 94//43
f 92//43 64//43 179//43
f 51//44 93//44 50//44
f 13//44 168//44 51//44
f 13//45 169//45 94//45
f 77//45 95//45 5//45
f 94//45 169//45 77//45
f 14//46 170//46 96//46
f 61//46 97//46 18//46
f 5//46 170//46 61//46
f 49//47 97//47 14//47
f 11//47 171//47 49//47
f 97//47 98//47 18//47
f 99//48 98//48 11//48
f 4//48 172//48 99//48
f 98//48 81//48 18//48
f 12//49 173//49 100//49
f 17//49 173//49 101//49
f 100//49 58//49 4//49
f 12//50 174//50 101//50
f 102//50 47//50 32//50
f 101//50 102//50 17//50
f 32//51 175//51 102//51
f 3//51 175//51 103//51
f 102//51 85//51 17//51
f 10//52 176//52 104//52
f 55//52 105//52 16//52
f 3//52 176//52 55//52
f 45//53 105//53 10//53
f 8//53 177//53 45//53
f 105//53 106//53 16//53
f 107//54 106//54 8//54
f 6//54 178//54 107//54
f 106//54 88//54 16//54
f 92//55 108//55 50//55
f 43//56 108//56 15//56
f 109//56 180//56 43//56
f 50//56 180//56 109//56
f 110//57 95//57 13//57
f 96//57 110//57 14//57
f 5//57 181//57 96//57
f 13//58 182//58 110//58
f 194//58 182//58 40//58
f 110//58 111//58 14//58
f 112//59 111//59 194//59
f 2//59 183//59 112//59
f 14//59 183//59 48//59
f 11//60 184//60 99//60
f 100//60 113//60 12//60
f 4//60 184//60 100//60
f 37//61 113//61 11//61
f 129//61 185//61 37//61
f 113//61 114//61 12//61
f 115//62 114//62 129//62
f 1//62 186//62 115//62
f 114//62 46//62 12//62
f 116//63 103//63 32//63
f 10//63 187//63 116//63
f 3//63 187//63 104//63
f 34//64 116//64 32//64
f 118//64 188//64 34//64
f 116//64 117//64 10//64
f 118//65 189//65 117//65
f 202//65 189//65 118//65
f 117//65 44//65 10//65
f 8//66 190//66 107//66
f 89//66 119//66 9//66
f 6//66 190//66 89//66
f 8//67 191//67 119//67
f 200//67 191//67 31//67
f 119//67 120//67 9//67
f 121//68 120//68 200//68
f 52//68 121//68 193//68
f 9//68 192//68 52//68
f 42//69 123//69 109//69
f 195//70 123//70 122//70
f 123//70 124//70 109//70
f 125//71 124//71 195//71
f 142//71 109//71 125//71
f 195//72 194//72 125//72
f 125//72 39//72 142//72
f 126//73 29//73 127//73
f 194//73 195//73 126//73
f 127//74 196//74 126//74
f 2//74 196//74 127//74
f 126//74 112//74 194//74
f 36//75 128//75 129//75
f 2//75 197//75 36//75
f 27//76 128//76 127//76
f 199//76 198//76 27//76
f 130//77 121//77 200//77
f 121//77 122//77 193//77
f 130//78 131//78 122//78
f 199//79 201//79 1//79
f 118//80 201//80 199//80
f 199//81 132//81 118//81
f 27//3 133//3 24//3
f 28//4 127//4 29//4
f 195//5 122//5 28//5
f 202//6 25//6 134//6
f 31//6 134//6 25//6
f 30//6 134//6 31//6
f 1//7 33//7 135//7
f 34//7 135//7 33//7
f 32//7 135//7 34//7
f 2//8 36//8 136//8
f 37//8 136//8 36//8
f 35//8 136//8 37//8
f 142//9 39//9 137//9
f 40//9 137//9 39//9
f 13//9 38//9 137//9
f 42//11 138//11 41//11
f 109//10 43//10 138//10
f 41//10 138//10 43//10
f 202//12 30//12 139//12
f 45//12 139//12 30//12
f 44//12 139//12 45//12
f 1//13 32//13 140//13
f 47//13 140//13 32//13
f 46//13 140//13 47//13
f 2//14 35//14 141//14
f 49//14 141//14 35//14
f 48//14 141//14 49//14
f 51//15 142//15 38//15
f 193//17 41//17 143//17
f 53//17 143//17 41//17
f 52//16 143//16 53//16
f 55//18 144//18 54//18
f 56//18 144//18 55//18
f 20//18 54//18 144//18
f 4//19 58//19 145//19
f 59//19 145//19 58//19
f 21//19 57//19 145//19
f 61//20 146//20 60//20
f 62//20 146//20 61//20
f 22//20 60//20 146//20
f 179//21 64//21 147//21
f 65//21 147//21 64//21
f 63//21 147//21 65//21
f 6//22 67//22 148//22
f 68//22 148//22 67//22
f 70//23 149//23 69//23
f 71//23 149//23 70//23
f 7//23 69//23 149//23
f 68//24 150//24 70//24
f 19//24 72//24 150//24
f 23//24 70//24 150//24
f 19//25 73//25 151//25
f 179//25 63//25 151//25
f 72//25 151//25 63//25
f 74//26 152//26 71//26
f 75//26 152//26 74//26
f 7//26 71//26 152//26
f 23//28 65//28 153//28
f 76//28 153//28 65//28
f 74//28 153//28 76//28
f 77//29 154//29 76//29
f 5//29 60//29 154//29
f 76//29 154//29 60//29
f 78//30 155//30 75//30
f 21//30 79//30 155//30
f 7//30 75//30 155//30
f 62//31 156//31 78//31
f 18//31 80//31 156//31
f 78//31 156//31 80//31
f 81//32 157//32 80//32
f 4//32 57//32 157//32
f 21//32 80//32 157//32
f 82//33 158//33 79//33
f 83//33 158//33 82//33
f 7//33 79//33 158//33
f 59//34 159//34 82//34
f 17//34 84//34 159//34
f 82//34 159//34 84//34
f 85//35 160//35 84//35
f 3//35 54//35 160//35
f 84//35 160//35 54//35
f 86//36 161//36 83//36
f 69//36 161//36 86//36
f 7//36 83//36 161//36
f 56//37 162//37 86//37
f 16//37 87//37 162//37
f 86//37 162//37 87//37
f 88//38 163//38 87//38
f 6//38 66//38 163//38
f 66//38 87//38 163//38
f 90//40 164//40 89//40
f 19//39 67//39 164//39
f 89//39 164//39 67//39
f 9//41 53//41 165//41
f 91//41 165//41 53//41
f 19//41 90//41 165//41
f 15//42 179//42 166//42
f 179//42 73//42 166//42
f 91//42 166//42 73//42
f 50//43 93//43 167//43
f 64//43 167//43 93//43
f 92//43 167//43 64//43
f 51//44 168//44 93//44
f 13//44 94//44 168//44
f 94//44 93//44 168//44
f 13//82 95//82 169//82
f 77//45 169//45 95//45
f 14//46 97//46 170//46
f 61//46 170//46 97//46
f 5//46 96//46 170//46
f 49//47 171//47 97//47
f 11//47 98//47 171//47
f 97//47 171//47 98//47
f 99//48 172//48 98//48
f 4//48 81//48 172//48
f 98//48 172//48 81//48
f 12//49 101//49 173//49
f 17//49 58//49 173//49
f 100//49 173//49 58//49
f 12//50 47//50 174//50
f 102//50 174//50 47//50
f 101//50 174//50 102//50
f 32//51 103//51 175//51
f 3//51 85//51 175//51
f 102//51 175//51 85//51
f 10//52 105//52 176//52
f 55//52 176//52 105//52
f 3//52 104//52 176//52
f 45//53 177//53 105//53
f 8//53 106//53 177//53
f 105//53 177//53 106//53
f 107//54 178//54 106//54
f 6//54 88//54 178//54
f 106//54 178//54 88//54
f 15//55 108//55 179//55
f 92//55 179//55 108//55
f 43//56 180//56 108//56
f 50//56 108//56 180//56
f 109//83 142//83 50//83
f 110//57 181//57 95//57
f 96//57 181//57 110//57
f 5//57 95//57 181//57
f 13//58 40//58 182//58
f 194//58 111//58 182//58
f 110//58 182//58 111//58
f 112//59 183//59 111//59
f 2//59 48//59 183//59
f 14//59 111//59 183//59
f 11//60 113//60 184//60
f 100//60 184//60 113//60
f 4//60 99//60 184//60
f 37//61 185//61 113//61
f 129//61 114//61 185//61
f 113//61 185//61 114//61
f 115//62 186//62 114//62
f 1//62 46//62 186//62
f 114//62 186//62 46//62
f 116//63 187//63 103//63
f 10//63 104//63 187//63
f 3//63 103//63 187//63
f 34//64 188//64 116//64
f 118//64 117//64 188//64
f 116//64 188//64 117//64
f 202//65 44//65 189//65
f 117//65 189//65 44//65
f 8//66 119//66 190//66
f 89//66 190//66 119//66
f 6//66 107//66 190//66
f 8//67 31//67 191//67
f 200//67 120//67 191//67
f 119//67 191//67 120//67
f 121//68 192//68 120//68
f 52//68 192//68 121//68
f 9//68 120//68 192//68
f 123//69 193//69 122//69
f 42//69 193//69 123//69
f 123//70 195//70 124//70
f 125//71 109//71 124//71
f 125//72 194//72 39//72
f 126//73 195//73 29//73
f 2//74 112//74 196//74
f 126//74 196//74 112//74
f 127//75 128//75 197//75
f 36//75 197//75 128//75
f 2//75 127//75 197//75
f 27//76 198//76 128//76
f 199//76 129//76 198//76
f 129//76 128//76 198//76
f 115//84 199//84 1//84
f 129//84 199//84 115//84
f 130//77 122//77 121//77
f 131//78 200//78 26//78
f 130//78 200//78 131//78
f 26//85 133//85 131//85
f 131//85 133//85 122//85
f 118//80 33//80 201//80
f 1//80 201//80 33//80
f 132//81 199//81 26//81
f 26//86 202//86 132//86
f 132//86 202//86 118//86
