v 0.59999999999999998 -1.2 0
v 0.59671313722096397 -1.1372829220394078 0
v 0.58688856044028337 -1.0752529855093444 0
v 0.57063390977709205 -1.0145898033750316 0
v 0.54812727458556054 -0.95595801415451986 0
v 0.51961524227066325 -0.90000000000000002 0
v 0.48541019662496843 -0.84732884862451607 0
v 0.44588689528643655 -0.79852163618468508 0
v 0.40147836381531493 -0.75411310471356341 0
v 0.35267115137548388 -0.71458980337503153 0
v 0.30000000000000004 -0.68038475772933682 0
v 0.2440419858454802 -0.65187272541443941 0
v 0.18541019662496847 -0.6293660902229079 0
v 0.12474701449065567 -0.61311143955971659 0
v 0.062717077960592199 -0.60328686277903598 0
v 3.6739403974420595e-17 -0.59999999999999998 0
v -0.062717077960591991 -0.60328686277903598 0
v -0.12474701449065546 -0.61311143955971659 0
v -0.18541019662496841 -0.62936609022290779 0
v -0.24404198584548004 -0.65187272541443941 0
v -0.29999999999999988 -0.68038475772933671 0
v -0.35267115137548383 -0.71458980337503153 0
v -0.40147836381531471 -0.7541131047135633 0
v -0.44588689528643649 -0.79852163618468497 0
v -0.48541019662496837 -0.84732884862451607 0
v -0.51961524227066302 -0.89999999999999969 0
v -0.54812727458556043 -0.95595801415451964 0
v -0.57063390977709205 -1.0145898033750314 0
v -0.58688856044028337 -1.0752529855093442 0
v -0.59671313722096397 -1.1372829220394076 0
v -0.59999999999999998 -1.2 0
v -0.59671313722096397 -1.2627170779605921 0
v -0.58688856044028337 -1.3247470144906557 0
v -0.57063390977709216 -1.3854101966249683 0
v -0.54812727458556054 -1.44404198584548 0
v -0.51961524227066314 -1.5 0
v -0.48541019662496843 -1.5526711513754838 0
v -0.44588689528643655 -1.6014783638153149 0
v -0.40147836381531488 -1.6458868952864365 0
v -0.35267115137548394 -1.6854101966249684 0
v -0.29999999999999977 -1.7196152422706632 0
v -0.24404198584548004 -1.7481272745855605 0
v -0.18541019662496852 -1.770633909777092 0
v -0.12474701449065535 -1.7868885604402833 0
v -0.062717077960592019 -1.7967131372209639 0
v -1.1021821192326178e-16 -1.7999999999999998 0
v 0.062717077960592324 -1.7967131372209639 0
v 0.12474701449065564 -1.7868885604402833 0
v 0.18541019662496833 -1.770633909777092 0
v 0.24404198584548031 -1.7481272745855603 0
v 0.30000000000000004 -1.7196152422706632 0
v 0.35267115137548372 -1.6854101966249684 0
v 0.40147836381531465 -1.6458868952864367 0
v 0.44588689528643655 -1.6014783638153149 0
v 0.48541019662496837 -1.5526711513754838 0
v 0.51961524227066302 -1.5000000000000002 0
v 0.54812727458556054 -1.44404198584548 0
v 0.57063390977709205 -1.3854101966249686 0
v 0.58688856044028337 -1.3247470144906559 0
v 0.59671313722096397 -1.2627170779605921 0
f 2 1 2
f 3 2 3
f 4 3 4
f 5 4 5
f 6 5 6
f 7 6 7
f 8 7 8
f 9 8 9
f 10 9 10
f 11 10 11
f 12 11 12
f 13 12 13
f 14 13 14
f 15 14 15
f 16 15 16
f 17 16 17
f 18 17 18
f 19 18 19
f 20 19 20
f 21 20 21
f 22 21 22
f 23 22 23
f 24 23 24
f 25 24 25
f 26 25 26
f 27 26 27
f 28 27 28
f 29 28 29
f 30 29 30
f 31 30 31
f 32 31 32
f 33 32 33
f 34 33 34
f 35 34 35
f 36 35 36
f 37 36 37
f 38 37 38
f 39 38 39
f 40 39 40
f 41 40 41
f 42 41 42
f 43 42 43
f 44 43 44
f 45 44 45
f 46 45 46
f 47 46 47
f 48 47 48
f 49 48 49
f 50 49 50
f 51 50 51
f 52 51 52
f 53 52 53
f 54 53 54
f 55 54 55
f 56 55 56
f 57 56 57
f 58 57 58
f 59 58 59
f 60 59 60
f 1 60 1
