v 2.5 -0.5 0
v 2.4990131207314632 -0.43717848184374342 0
v 2.4960534568565431 -0.37441896094137328 0
v 2.49112392920616 -0.31178337336297135 0
v 2.484229402628956 -0.24933353287139148 0
v 2.4753766811902755 -0.18713106991953826 0
v 2.4645745014573777 -0.12523737082855074 0
v 2.4518335238774949 -0.063713517206914871 0
v 2.4371663222572622 -0.0026202256702904103 0
v 2.4205873713538861 0.05798221207845855 0
v 2.4021130325903073 0.11803398874989479 0
v 2.3817615379084511 0.17747584049058285 0
v 2.3595529717765027 0.23624910536935595 0
v 2.3355092513679621 0.29429578126956124 0
v 2.3096541049320392 0.35155858313014543 0
v 2.2820130483767356 0.40798099947909361 0
v 2.2526133600877269 0.46350734820343065 0
v 2.2214840540078873 0.51808283150074264 0
v 2.1886558510040302 0.57165358995799331 0
v 2.1541611485491234 0.62416675570426117 0
v 2.1180339887498949 0.67557050458494627 0
v 2.0803100247513808 0.72581410730595297 0
v 2.0410264855515781 0.77484797949737949 0
v 2.0002221392609192 0.82262373064730365 0
v 1.9579372548428231 0.86909421185737745 0
v 1.9142135623730949 0.91421356237309515 0
v 1.8690942118573775 0.9579372548428231 0
v 1.8226237306473037 1.0002221392609192 0
v 1.7748479794973793 1.0410264855515785 0
v 1.725814107305953 1.0803100247513808 0
v 1.6755705045849461 1.1180339887498949 0
v 1.6241667557042612 1.1541611485491237 0
v 1.5716535899579931 1.1886558510040302 0
v 1.5180828315007424 1.2214840540078873 0
v 1.4635073482034304 1.2526133600877274 0
v 1.4079809994790937 1.2820130483767356 0
v 1.3515585831301453 1.3096541049320392 0
v 1.294295781269561 1.3355092513679623 0
v 1.2362491053693558 1.3595529717765029 0
v 1.1774758404905825 1.3817615379084511 0
v 1.1180339887498949 1.4021130325903071 0
v 1.0579822120784586 1.4205873713538861 0
v 0.99737977432970948 1.4371663222572622 0
v 0.93628648279308502 1.4518335238774949 0
v 0.87476262917144898 1.4645745014573774 0
v 0.81286893008046146 1.4753766811902755 0
v 0.75066646712860852 1.4842294026289558 0
v 0.68821662663702854 1.49112392920616 0
v 0.62558103905862661 1.4960534568565431 0
v 0.56282151815625636 1.4990131207314632 0
v 0.49999999999999967 1.5 0
v 0.43717848184374342 1.4990131207314632 0
v 0.37441896094137317 1.4960534568565431 0
v 0.31178337336297124 1.49112392920616 0
v 0.24933353287139126 1.4842294026289555 0
v 0.18713106991953793 1.4753766811902753 0
v 0.12523737082855035 1.4645745014573772 0
v 0.063713517206914871 1.4518335238774949 0
v 0.0026202256702902993 1.4371663222572622 0
v -0.057982212078458661 1.4205873713538861 0
v -0.11803398874989512 1.4021130325903071 0
v -0.17747584049058307 1.3817615379084509 0
v -0.23624910536935595 1.3595529717765029 0
v -0.29429578126956135 1.3355092513679623 0
v -0.35155858313014543 1.3096541049320389 0
v -0.4079809994790935 1.2820130483767358 0
v -0.46350734820343087 1.2526133600877269 0
v -0.51808283150074264 1.2214840540078873 0
v -0.57165358995799376 1.1886558510040299 0
v -0.62416675570426139 1.1541611485491234 0
v -0.67557050458494605 1.1180339887498949 0
v -0.72581410730595319 1.0803100247513806 0
v -0.77484797949737949 1.0410264855515785 0
v -0.8226237306473041 1.0002221392609187 0
v -0.86909421185737745 0.95793725484282288 0
v -0.91421356237309492 0.91421356237309515 0
v -0.95793725484282333 0.86909421185737701 0
v -1.000222139260919 0.82262373064730365 0
v -1.0410264855515787 0.77484797949737905 0
v -1.0803100247513808 0.72581410730595275 0
v -1.1180339887498947 0.6755705045849465 0
v -1.1541611485491239 0.62416675570426094 0
v -1.1886558510040302 0.57165358995799331 0
v -1.2214840540078875 0.51808283150074219 0
v -1.2526133600877272 0.46350734820343042 0
v -1.282013048376736 0.40798099947909294 0
v -1.3096541049320392 0.35155858313014499 0
v -1.3355092513679623 0.29429578126956124 0
v -1.3595529717765029 0.23624910536935551 0
v -1.3817615379084509 0.17747584049058263 0
v -1.4021130325903073 0.11803398874989424 0
v -1.4205873713538861 0.057982212078458217 0
v -1.4371663222572622 -0.0026202256702903548 0
v -1.4518335238774949 -0.063713517206915371 0
v -1.4645745014573774 -0.12523737082855085 0
v -1.4753766811902755 -0.18713106991953893 0
v -1.4842294026289558 -0.24933353287139182 0
v -1.49112392920616 -0.31178337336297129 0
v -1.4960534568565431 -0.37441896094137372 0
v -1.4990131207314632 -0.43717848184374353 0
v -1.5 -0.49999999999999978 0
v -1.4990131207314632 -0.56282151815625603 0
v -1.4960534568565431 -0.62558103905862583 0
v -1.49112392920616 -0.68821662663702821 0
v -1.4842294026289558 -0.75066646712860763 0
v -1.4753766811902755 -0.81286893008046057 0
v -1.4645745014573774 -0.87476262917144865 0
v -1.4518335238774951 -0.93628648279308413 0
v -1.4371663222572624 -0.99737977432970915 0
v -1.4205873713538864 -1.0579822120784579 0
v -1.4021130325903075 -1.1180339887498938 0
v -1.3817615379084511 -1.1774758404905823 0
v -1.3595529717765031 -1.236249105369355 0
v -1.3355092513679625 -1.2942957812695608 0
v -1.3096541049320394 -1.3515585831301444 0
v -1.2820130483767362 -1.4079809994790926 0
v -1.2526133600877274 -1.46350734820343 0
v -1.2214840540078877 -1.5180828315007417 0
v -1.1886558510040304 -1.5716535899579929 0
v -1.1541611485491241 -1.6241667557042605 0
v -1.1180339887498949 -1.6755705045849461 0
v -1.0803100247513813 -1.7258141073059525 0
v -1.0410264855515792 -1.7748479794973786 0
v -1.0002221392609194 -1.8226237306473034 0
v -0.95793725484282355 -1.8690942118573768 0
v -0.91421356237309537 -1.9142135623730949 0
v -0.8690942118573779 -1.9579372548428227 0
v -0.82262373064730454 -2.0002221392609183 0
v -0.77484797949737905 -2.041026485551579 0
v -0.72581410730595297 -2.0803100247513808 0
v -0.6755705045849465 -2.1180339887498949 0
v -0.62416675570426183 -2.1541611485491234 0
v -0.5716535899579942 -2.1886558510040297 0
v -0.51808283150074375 -2.2214840540078864 0
v -0.46350734820343209 -2.2526133600877261 0
v -0.40798099947909383 -2.2820130483767356 0
v -0.35155858313014587 -2.3096541049320387 0
v -0.29429578126956224 -2.3355092513679621 0
v -0.23624910536935562 -2.3595529717765027 0
v -0.17747584049058274 -2.3817615379084511 0
v -0.11803398874989512 -2.4021130325903073 0
v -0.057982212078459217 -2.4205873713538857 0
v 0.0026202256702894111 -2.4371663222572622 0
v 0.063713517206913539 -2.4518335238774944 0
v 0.12523737082854902 -2.4645745014573768 0
v 0.18713106991953793 -2.4753766811902755 0
v 0.24933353287139082 -2.4842294026289555 0
v 0.3117833733629703 -2.49112392920616 0
v 0.37441896094137361 -2.4960534568565431 0
v 0.43717848184374342 -2.4990131207314632 0
v 0.49999999999999961 -2.5 0
v 0.56282151815625592 -2.4990131207314632 0
v 0.62558103905862561 -2.4960534568565431 0
v 0.68821662663702721 -2.49112392920616 0
v 0.75066646712860852 -2.484229402628956 0
v 0.81286893008046135 -2.4753766811902755 0
v 0.87476262917144854 -2.4645745014573777 0
v 0.93628648279308402 -2.4518335238774949 0
v 0.99737977432970992 -2.4371663222572622 0
v 1.0579822120784583 -2.4205873713538861 0
v 1.1180339887498945 -2.4021130325903073 0
v 1.1774758404905821 -2.3817615379084511 0
v 1.236249105369355 -2.3595529717765031 0
v 1.2942957812695599 -2.3355092513679629 0
v 1.3515585831301453 -2.3096541049320392 0
v 1.4079809994790933 -2.282013048376736 0
v 1.46350734820343 -2.2526133600877278 0
v 1.5180828315007417 -2.2214840540078877 0
v 1.5716535899579935 -2.1886558510040297 0
v 1.6241667557042612 -2.1541611485491234 0
v 1.6755705045849458 -2.1180339887498949 0
v 1.7258141073059523 -2.0803100247513813 0
v 1.7748479794973786 -2.041026485551579 0
v 1.8226237306473025 -2.0002221392609201 0
v 1.8690942118573772 -1.9579372548428231 0
v 1.9142135623730947 -1.9142135623730954 0
v 1.9579372548428224 -1.8690942118573779 0
v 2.0002221392609183 -1.8226237306473045 0
v 2.041026485551579 -1.7748479794973793 0
v 2.0803100247513804 -1.725814107305953 0
v 2.1180339887498949 -1.6755705045849467 0
v 2.1541611485491234 -1.6241667557042618 0
v 2.1886558510040297 -1.5716535899579942 0
v 2.2214840540078864 -1.518082831500744 0
v 2.2526133600877269 -1.4635073482034306 0
v 2.2820130483767356 -1.4079809994790939 0
v 2.3096541049320387 -1.351558583130146 0
v 2.3355092513679621 -1.2942957812695624 0
v 2.3595529717765027 -1.2362491053693558 0
v 2.3817615379084511 -1.1774758404905827 0
v 2.4021130325903073 -1.1180339887498953 0
v 2.4205873713538857 -1.0579822120784592 0
v 2.4371663222572622 -0.9973797743297107 0
v 2.4518335238774949 -0.9362864827930848 0
v 2.4645745014573777 -0.87476262917144942 0
v 2.4753766811902755 -0.81286893008046224 0
v 2.4842294026289555 -0.75066646712860929 0
v 2.49112392920616 -0.68821662663702976 0
v 2.4960534568565431 -0.6255810390586265 0
v 2.4990131207314632 -0.56282151815625669 0
f 2 1 2
f 3 2 3
f 4 3 4
f 5 4 5
f 6 5 6
f 7 6 7
f 8 7 8
f 9 8 9
f 10 9 10
f 11 10 11
f 12 11 12
f 13 12 13
f 14 13 14
f 15 14 15
f 16 15 16
f 17 16 17
f 18 17 18
f 19 18 19
f 20 19 20
f 21 20 21
f 22 21 22
f 23 22 23
f 24 23 24
f 25 24 25
f 26 25 26
f 27 26 27
f 28 27 28
f 29 28 29
f 30 29 30
f 31 30 31
f 32 31 32
f 33 32 33
f 34 33 34
f 35 34 35
f 36 35 36
f 37 36 37
f 38 37 38
f 39 38 39
f 40 39 40
f 41 40 41
f 42 41 42
f 43 42 43
f 44 43 44
f 45 44 45
f 46 45 46
f 47 46 47
f 48 47 48
f 49 48 49
f 50 49 50
f 51 50 51
f 52 51 52
f 53 52 53
f 54 53 54
f 55 54 55
f 56 55 56
f 57 56 57
f 58 57 58
f 59 58 59
f 60 59 60
f 61 60 61
f 62 61 62
f 63 62 63
f 64 63 64
f 65 64 65
f 66 65 66
f 67 66 67
f 68 67 68
f 69 68 69
f 70 69 70
f 71 70 71
f 72 71 72
f 73 72 73
f 74 73 74
f 75 74 75
f 76 75 76
f 77 76 77
f 78 77 78
f 79 78 79
f 80 79 80
f 81 80 81
f 82 81 82
f 83 82 83
f 84 83 84
f 85 84 85
f 86 85 86
f 87 86 87
f 88 87 88
f 89 88 89
f 90 89 90
f 91 90 91
f 92 91 92
f 93 92 93
f 94 93 94
f 95 94 95
f 96 95 96
f 97 96 97
f 98 97 98
f 99 98 99
f 100 99 100
f 101 100 101
f 102 101 102
f 103 102 103
f 104 103 104
f 105 104 105
f 106 105 106
f 107 106 107
f 108 107 108
f 109 108 109
f 110 109 110
f 111 110 111
f 112 111 112
f 113 112 113
f 114 113 114
f 115 114 115
f 116 115 116
f 117 116 117
f 118 117 118
f 119 118 119
f 120 119 120
f 121 120 121
f 122 121 122
f 123 122 123
f 124 123 124
f 125 124 125
f 126 125 126
f 127 126 127
f 128 127 128
f 129 128 129
f 130 129 130
f 131 130 131
f 132 131 132
f 133 132 133
f 134 133 134
f 135 134 135
f 136 135 136
f 137 136 137
f 138 137 138
f 139 138 139
f 140 139 140
f 141 140 141
f 142 141 142
f 143 142 143
f 144 143 144
f 145 144 145
f 146 145 146
f 147 146 147
f 148 147 148
f 149 148 149
f 150 149 150
f 151 150 151
f 152 151 152
f 153 152 153
f 154 153 154
f 155 154 155
f 156 155 156
f 157 156 157
f 158 157 158
f 159 158 159
f 160 159 160
f 161 160 161
f 162 161 162
f 163 162 163
f 164 163 164
f 165 164 165
f 166 165 166
f 167 166 167
f 168 167 168
f 169 168 169
f 170 169 170
f 171 170 171
f 172 171 172
f 173 172 173
f 174 173 174
f 175 174 175
f 176 175 176
f 177 176 177
f 178 177 178
f 179 178 179
f 180 179 180
f 181 180 181
f 182 181 182
f 183 182 183
f 184 183 184
f 185 184 185
f 186 185 186
f 187 186 187
f 188 187 188
f 189 188 189
f 190 189 190
f 191 190 191
f 192 191 192
f 193 192 193
f 194 193 194
f 195 194 195
f 196 195 196
f 197 196 197
f 198 197 198
f 199 198 199
f 200 199 200
f 1 200 1
