v 1.3999999999999999 0.40000000000000002 0
v 1.4375642667047317 0.43382067696718046 0
v 1.4689511494091394 0.47187524507105538 0
v 1.4904795102640138 0.51263999078388356 0
v 1.4994387464349583 0.55390971079803264 0
v 1.4944103226844709 0.59313562148434218 0
v 1.4754219911443796 0.62782568317221421 0
v 1.4439160840349099 0.65594748112367007 0
v 1.4025383578988271 0.67627280016019553 0
v 1.3547779224766909 0.68861084570074471 0
v 1.3045084971874736 0.69389262614623659 0
v 1.255493910586811 0.6940901391925165 0
v 1.2109246876379318 0.69197771629379723 0
v 1.1730472726960324 0.69076581271694315 0
v 1.1429337149876766 0.69365641633369157 0
v 1.1204194696096774 0.70338137289060532 0
v 1.104213201868208 0.72178851582117498 0
v 1.0921584733695004 0.74953496546696008 0
v 1.0816062972433504 0.7859330265686606 0
v 1.0698426834890589 0.82897365105541487 0
v 1.0545084971874736 0.87552825814757673 0
v 1.0339511187653185 0.92170516272108494 0
v 1.0074581539514456 0.96331537030099967 0
v 0.97534120627133802 0.99638705737381861 0
v 0.93885992635964566 1.0176608421526909 0
v 0.89999999999999991 1.0249999999999999 0
v 0.86114007364035439 1.0176608421526909 0
v 0.82465879372866202 0.9963870573738185 0
v 0.79254184604855449 0.96331537030099934 0
v 0.76604888123468151 0.92170516272108494 0
v 0.7454915028125263 0.87552825814757662 0
v 0.73015731651094118 0.82897365105541476 0
v 0.71839370275664949 0.7859330265686606 0
v 0.7078415266304996 0.74953496546695975 0
v 0.69578679813179189 0.72178851582117498 0
v 0.67958053039032262 0.70338137289060532 0
v 0.65706628501232345 0.69365641633369157 0
v 0.62695272730396767 0.69076581271694315 0
v 0.58907531236206812 0.69197771629379723 0
v 0.54450608941318879 0.6940901391925165 0
v 0.49549150281252641 0.69389262614623659 0
v 0.44522207752330917 0.68861084570074471 0
v 0.39746164210117307 0.67627280016019542 0
v 0.35608391596508993 0.65594748112366996 0
v 0.32457800885562049 0.6278256831722141 0
v 0.305589677315529 0.59313562148434196 0
v 0.3005612535650416 0.55390971079803264 0
v 0.30952048973598645 0.51263999078388345 0
v 0.33104885059086087 0.47187524507105527 0
v 0.36243573329526857 0.4338206769671803 0
v 0.39999999999999991 0.40000000000000008 0
v 0.43953753827645975 0.37103015743786727 0
v 0.47683644809466125 0.34654201150675135 0
v 0.50819225953532476 0.32525867619815896 0
v 0.53085558530632737 0.3052198236331779 0
v 0.5433538063893173 0.28411862710939495 0
v 0.54564550525612798 0.2597011304875364 0
v 0.53908903156889054 0.23016818955859761 0
v 0.5262316778549635 0.19451912605848037 0
v 0.51044999697467608 0.15278405072174828 0
v 0.49549150281252641 0.10610737385376356 0
v 0.48498066781102189 0.056666149443827196 0
v 0.48195606021652015 0.0074306103651088362 0
v 0.48850016676734359 -0.038202814704468124 0
v 0.50550972523898696 -0.076856826442097681 0
v 0.53263421731720428 -0.10563562148434202 0
v 0.56838640688921105 -0.12253940968084009 0
v 0.61040479926778457 -0.12677171457690362 0
v 0.65582700567827767 -0.11889402589735898 0
v 0.70171813080438106 -0.10080283483283659 0
v 0.74549150281252619 -0.075528258147576854 0
v 0.78526123160046335 -0.046877998407546417 0
v 0.8200768393657204 -0.01897188042768938 0
v 0.85000797270703354 0.0042723560593406207 0
v 0.8760694068303323 0.019634113724419533 0
v 0.89999999999999991 0.025000000000000022 0
v 0.92393059316966752 0.019634113724419422 0
v 0.94999202729296628 0.0042723560593407317 0
v 0.97992316063427898 -0.018971880427688992 0
v 1.0147387683995366 -0.046877998407546251 0
v 1.0545084971874736 -0.075528258147576688 0
v 1.0982818691956187 -0.10080283483283647 0
v 1.144172994321722 -0.11889402589735898 0
v 1.1895952007322146 -0.12677171457690362 0
v 1.2316135931107888 -0.12253940968083998 0
v 1.2673657826827955 -0.10563562148434225 0
v 1.2944902747610132 -0.076856826442098014 0
v 1.3114998332326562 -0.038202814704468346 0
v 1.3180439397834798 0.0074306103651083366 0
v 1.3150193321889783 0.056666149443826863 0
v 1.3045084971874739 0.10610737385376329 0
v 1.2895500030253242 0.15278405072174764 0
v 1.2737683221450367 0.19451912605848015 0
v 1.2609109684311097 0.23016818955859716 0
v 1.2543544947438718 0.25970113048753629 0
v 1.2566461936106825 0.28411862710939467 0
v 1.2691444146936726 0.30521982363317762 0
v 1.2918077404646753 0.32525867619815885 0
v 1.3231635519053384 0.34654201150675101 0
v 1.3604624617235401 0.3710301574378671 0
f 2 1 2
f 3 2 3
f 4 3 4
f 5 4 5
f 6 5 6
f 7 6 7
f 8 7 8
f 9 8 9
f 10 9 10
f 11 10 11
f 12 11 12
f 13 12 13
f 14 13 14
f 15 14 15
f 16 15 16
f 17 16 17
f 18 17 18
f 19 18 19
f 20 19 20
f 21 20 21
f 22 21 22
f 23 22 23
f 24 23 24
f 25 24 25
f 26 25 26
f 27 26 27
f 28 27 28
f 29 28 29
f 30 29 30
f 31 30 31
f 32 31 32
f 33 32 33
f 34 33 34
f 35 34 35
f 36 35 36
f 37 36 37
f 38 37 38
f 39 38 39
f 40 39 40
f 41 40 41
f 42 41 42
f 43 42 43
f 44 43 44
f 45 44 45
f 46 45 46
f 47 46 47
f 48 47 48
f 49 48 49
f 50 49 50
f 51 50 51
f 52 51 52
f 53 52 53
f 54 53 54
f 55 54 55
f 56 55 56
f 57 56 57
f 58 57 58
f 59 58 59
f 60 59 60
f 61 60 61
f 62 61 62
f 63 62 63
f 64 63 64
f 65 64 65
f 66 65 66
f 67 66 67
f 68 67 68
f 69 68 69
f 70 69 70
f 71 70 71
f 72 71 72
f 73 72 73
f 74 73 74
f 75 74 75
f 76 75 76
f 77 76 77
f 78 77 78
f 79 78 79
f 80 79 80
f 81 80 81
f 82 81 82
f 83 82 83
f 84 83 84
f 85 84 85
f 86 85 86
f 87 86 87
f 88 87 88
f 89 88 89
f 90 89 90
f 91 90 91
f 92 91 92
f 93 92 93
f 94 93 94
f 95 94 95
f 96 95 96
f 97 96 97
f 98 97 98
f 99 98 99
f 100 99 100
f 1 100 1
