v 0.5 0.55146222423826718 1.70130161670408
v 0.5 -1.5514622242382672 1.70130161670408
v 0.5 0.55146222423826718 -1.70130161670408
v 0.5 -1.5514622242382672 -1.70130161670408
v 1.5514622242382672 1.20130161670408 0
v -0.55146222423826718 1.20130161670408 0
v 1.5514622242382672 -2.2013016167040798 0
v -0.55146222423826718 -2.2013016167040798 0
v 2.2013016167040798 -0.5 1.0514622242382672
v -1.20130161670408 -0.5 1.0514622242382672
v 2.2013016167040798 -0.5 -1.0514622242382672
v -1.20130161670408 -0.5 -1.0514622242382672
v 0.5 -0.5 2
v 1.1180339887498949 1.1180339887498947 1
v -0.11803398874989479 1.1180339887498947 1
v 1.5 0.11803398874989479 1.6180339887498947
v -0.5 0.11803398874989479 1.6180339887498947
v 1.1180339887498949 -2.1180339887498949 1
v -0.11803398874989479 -2.1180339887498949 1
v 1.5 -1.1180339887498949 1.6180339887498947
v -0.5 -1.1180339887498949 1.6180339887498947
v 0.5 -0.5 -2
v 1.1180339887498949 1.1180339887498947 -1
v -0.11803398874989479 1.1180339887498947 -1
v 1.5 0.11803398874989479 -1.6180339887498947
v -0.5 0.11803398874989479 -1.6180339887498947
v 1.1180339887498949 -2.1180339887498949 -1
v -0.11803398874989479 -2.1180339887498949 -1
v 1.5 -1.1180339887498949 -1.6180339887498947
v -0.5 -1.1180339887498949 -1.6180339887498947
v 0.5 1.5 0
v 2.1180339887498949 0.5 0.61803398874989479
v 2.1180339887498949 0.5 -0.61803398874989479
v -1.1180339887498947 0.5 0.61803398874989479
v -1.1180339887498947 0.5 -0.61803398874989479
v 0.5 -2.5 0
v 2.1180339887498949 -1.5 0.61803398874989479
v 2.1180339887498949 -1.5 -0.61803398874989479
v -1.1180339887498947 -1.5 0.61803398874989479
v -1.1180339887498947 -1.5 -0.61803398874989479
v 2.5 -0.5 0
v -1.5 -0.5 0
v 0.5 0.046533057825343449 1.9238767155678351
v 0.82124407128004628 0.8875609551208985 1.4040928895523261
v 0.17875592871995372 0.8875609551208985 1.4040928895523261
v 1.0197838260155088 0.36777712910538962 1.7253369608323725
v -0.019783826015508876 0.36777712910538962 1.7253369608323725
v 0.5 -1.0465330578253433 1.9238767155678351
v 0.82124407128004628 -1.8875609551208985 1.4040928895523261
v 0.17875592871995372 -1.8875609551208985 1.4040928895523261
v 1.0197838260155088 -1.3677771291053897 1.7253369608323725
v -0.019783826015508876 -1.3677771291053897 1.7253369608323725
v 0.5 0.046533057825343449 -1.9238767155678351
v 0.82124407128004628 0.8875609551208985 -1.4040928895523261
v 0.17875592871995372 0.8875609551208985 -1.4040928895523261
v 1.0197838260155088 0.36777712910538962 -1.7253369608323725
v -0.019783826015508876 0.36777712910538962 -1.7253369608323725
v 0.5 -1.0465330578253433 -1.9238767155678351
v 0.82124407128004628 -1.8875609551208985 -1.4040928895523261
v 0.17875592871995372 -1.8875609551208985 -1.4040928895523261
v 1.0197838260155088 -1.3677771291053897 -1.7253369608323725
v -0.019783826015508876 -1.3677771291053897 -1.7253369608323725
v 1.3677771291053897 1.2253369608323725 0.51978382601550888
v 1.3677771291053897 1.2253369608323725 -0.51978382601550888
v 1.0465330578253433 1.4238767155678351 0
v 1.8875609551208985 0.90409288955232614 0.32124407128004628
v 1.8875609551208985 0.90409288955232614 -0.32124407128004628
v -0.36777712910538962 1.2253369608323725 0.51978382601550888
v -0.36777712910538962 1.2253369608323725 -0.51978382601550888
v -0.046533057825343449 1.4238767155678351 0
v -0.8875609551208985 0.90409288955232614 0.32124407128004628
v -0.8875609551208985 0.90409288955232614 -0.32124407128004628
v 1.3677771291053897 -2.2253369608323723 0.51978382601550888
v 1.3677771291053897 -2.2253369608323723 -0.51978382601550888
v 1.0465330578253433 -2.4238767155678351 0
v 1.8875609551208985 -1.9040928895523261 0.32124407128004628
v 1.8875609551208985 -1.9040928895523261 -0.32124407128004628
v -0.36777712910538962 -2.2253369608323723 0.51978382601550888
v -0.36777712910538962 -2.2253369608323723 -0.51978382601550888
v -0.046533057825343449 -2.4238767155678351 0
v -0.8875609551208985 -1.9040928895523261 0.32124407128004628
v -0.8875609551208985 -1.9040928895523261 -0.32124407128004628
v 1.9040928895523261 -0.17875592871995372 1.3875609551208985
v 1.9040928895523261 -0.82124407128004628 1.3875609551208985
v 2.2253369608323723 0.019783826015508876 0.86777712910538962
v 2.2253369608323723 -1.0197838260155088 0.86777712910538962
v 2.4238767155678351 -0.5 0.54653305782534345
v -0.90409288955232614 -0.17875592871995372 1.3875609551208985
v -0.90409288955232614 -0.82124407128004628 1.3875609551208985
v -1.2253369608323725 0.019783826015508876 0.86777712910538962
v -1.2253369608323725 -1.0197838260155088 0.86777712910538962
v -1.4238767155678351 -0.5 0.54653305782534345
v 1.9040928895523261 -0.17875592871995372 -1.3875609551208985
v 1.9040928895523261 -0.82124407128004628 -1.3875609551208985
v 2.2253369608323723 0.019783826015508876 -0.86777712910538962
v 2.2253369608323723 -1.0197838260155088 -0.86777712910538962
v 2.4238767155678351 -0.5 -0.54653305782534345
v -0.90409288955232614 -0.17875592871995372 -1.3875609551208985
v -0.90409288955232614 -0.82124407128004628 -1.3875609551208985
v -1.2253369608323725 0.019783826015508876 -0.86777712910538962
v -1.2253369608323725 -1.0197838260155088 -0.86777712910538962
v -1.4238767155678351 -0.5 -0.54653305782534345
v 1.0257311121191335 -0.17508030376709371 1.9021130325903073
v -0.025731112119133592 -0.17508030376709371 1.9021130325903073
v 1.0257311121191335 -0.82491969623290629 1.9021130325903073
v -0.025731112119133592 -0.82491969623290629 1.9021130325903073
v 0.5 1.2013016167040798 1.0514622242382672
v 1.3506508083520399 0.67557050458494627 1.3763819204711736
v 0.82491969623290629 1.4021130325903073 0.52573111211913359
v 1.6755705045849463 0.8763819204711738 0.8506508083520401
v -0.35065080835203999 0.67557050458494627 1.3763819204711736
v 0.17508030376709371 1.4021130325903073 0.52573111211913359
v -0.67557050458494627 0.8763819204711738 0.8506508083520401
v 1.5514622242382672 -0.5 1.7013016167040798
v 1.8763819204711738 0.3506508083520401 1.1755705045849463
v -0.55146222423826718 -0.5 1.7013016167040798
v -0.8763819204711738 0.3506508083520401 1.1755705045849463
v 0.5 -2.2013016167040798 1.0514622242382672
v 1.3506508083520399 -1.6755705045849463 1.3763819204711736
v 0.82491969623290629 -2.4021130325903073 0.52573111211913359
v 1.6755705045849463 -1.8763819204711738 0.8506508083520401
v -0.35065080835203999 -1.6755705045849463 1.3763819204711736
v 0.17508030376709371 -2.4021130325903073 0.52573111211913359
v -0.67557050458494627 -1.8763819204711738 0.8506508083520401
v 1.8763819204711738 -1.3506508083520401 1.1755705045849463
v -0.8763819204711738 -1.3506508083520401 1.1755705045849463
v 1.0257311121191335 -0.17508030376709371 -1.9021130325903073
v -0.025731112119133592 -0.17508030376709371 -1.9021130325903073
v 1.0257311121191335 -0.82491969623290629 -1.9021130325903073
v -0.025731112119133592 -0.82491969623290629 -1.9021130325903073
v 0.5 1.2013016167040798 -1.0514622242382672
v 1.3506508083520399 0.67557050458494627 -1.3763819204711736
v 0.82491969623290629 1.4021130325903073 -0.52573111211913359
v 1.6755705045849463 0.8763819204711738 -0.8506508083520401
v -0.35065080835203999 0.67557050458494627 -1.3763819204711736
v 0.17508030376709371 1.4021130325903073 -0.52573111211913359
v -0.67557050458494627 0.8763819204711738 -0.8506508083520401
v 1.5514622242382672 -0.5 -1.7013016167040798
v 1.8763819204711738 0.3506508083520401 -1.1755705045849463
v -0.55146222423826718 -0.5 -1.7013016167040798
v -0.8763819204711738 0.3506508083520401 -1.1755705045849463
v 0.5 -2.2013016167040798 -1.0514622242382672
v 1.3506508083520399 -1.6755705045849463 -1.3763819204711736
v 0.82491969623290629 -2.4021130325903073 -0.52573111211913359
v 1.6755705045849463 -1.8763819204711738 -0.8506508083520401
v -0.35065080835203999 -1.6755705045849463 -1.3763819204711736
v 0.17508030376709371 -2.4021130325903073 -0.52573111211913359
v -0.67557050458494627 -1.8763819204711738 -0.8506508083520401
v 1.8763819204711738 -1.3506508083520401 -1.1755705045849463
v -0.8763819204711738 -1.3506508083520401 -1.1755705045849463
v 2.2013016167040798 0.55146222423826718 0
v 2.4021130325903073 0.025731112119133592 0.32491969623290629
v 2.4021130325903073 0.025731112119133592 -0.32491969623290629
v -1.2013016167040798 0.55146222423826718 0
v -1.4021130325903073 0.025731112119133592 0.32491969623290629
v -1.4021130325903073 0.025731112119133592 -0.32491969623290629
v 2.2013016167040798 -1.5514622242382672 0
v 2.4021130325903073 -1.0257311121191335 0.32491969623290629
v 2.4021130325903073 -1.0257311121191335 -0.32491969623290629
v -1.2013016167040798 -1.5514622242382672 0
v -1.4021130325903073 -1.0257311121191335 0.32491969623290629
v -1.4021130325903073 -1.0257311121191335 -0.32491969623290629
v 0.5 0.30671069723472877 1.8300868424659682
v 0.66217258688660707 0.73128404174736139 1.5676860848399428
v 0.33782741311339298 0.73128404174736139 1.5676860848399428
v 0.76240075762602566 0.46888328412133562 1.7298586717265496
v 0.23759924237397428 0.46888328412133562 1.7298586717265496
v 0.5 -1.3067106972347289 1.8300868424659682
v 0.66217258688660707 -1.7312840417473614 1.5676860848399428
v 0.33782741311339298 -1.7312840417473614 1.5676860848399428
v 0.76240075762602566 -1.4688832841213357 1.7298586717265496
v 0.23759924237397428 -1.4688832841213357 1.7298586717265496
v 0.5 0.30671069723472877 -1.8300868424659682
v 0.66217258688660707 0.73128404174736139 -1.5676860848399428
v 0.33782741311339298 0.73128404174736139 -1.5676860848399428
v 0.76240075762602566 0.46888328412133562 -1.7298586717265496
v 0.23759924237397428 0.46888328412133562 -1.7298586717265496
v 0.5 -1.3067106972347289 -1.8300868424659682
v 0.66217258688660707 -1.7312840417473614 -1.5676860848399428
v 0.33782741311339298 -1.7312840417473614 -1.5676860848399428
v 0.76240075762602566 -1.4688832841213357 -1.7298586717265496
v 0.23759924237397428 -1.4688832841213357 -1.7298586717265496
v 1.4688832841213357 1.2298586717265496 0.26240075762602572
v 1.4688832841213357 1.2298586717265496 -0.26240075762602572
v 1.3067106972347289 1.3300868424659682 0
v 1.7312840417473614 1.0676860848399428 0.16217258688660702
v 1.7312840417473614 1.0676860848399428 -0.16217258688660702
v -0.46888328412133562 1.2298586717265496 0.26240075762602572
v -0.46888328412133562 1.2298586717265496 -0.26240075762602572
v -0.30671069723472877 1.3300868424659682 0
v -0.73128404174736139 1.0676860848399428 0.16217258688660702
v -0.73128404174736139 1.0676860848399428 -0.16217258688660702
v 1.4688832841213357 -2.2298586717265496 0.26240075762602572
v 1.4688832841213357 -2.2298586717265496 -0.26240075762602572
v 1.3067106972347289 -2.3300868424659682 0
v 1.7312840417473614 -2.0676860848399428 0.16217258688660702
v 1.7312840417473614 -2.0676860848399428 -0.16217258688660702
v -0.46888328412133562 -2.2298586717265496 0.26240075762602572
v -0.46888328412133562 -2.2298586717265496 -0.26240075762602572
v -0.30671069723472877 -2.3300868424659682 0
v -0.73128404174736139 -2.0676860848399428 0.16217258688660702
v -0.73128404174736139 -2.0676860848399428 -0.16217258688660702
v 2.0676860848399428 -0.33782741311339298 1.2312840417473614
v 2.0676860848399428 -0.66217258688660707 1.2312840417473614
v 2.2298586717265496 -0.23759924237397428 0.96888328412133562
v 2.2298586717265496 -0.76240075762602566 0.96888328412133562
v 2.3300868424659682 -0.5 0.80671069723472877
v -1.0676860848399428 -0.33782741311339298 1.2312840417473614
v -1.0676860848399428 -0.66217258688660707 1.2312840417473614
v -1.2298586717265496 -0.23759924237397428 0.96888328412133562
v -1.2298586717265496 -0.76240075762602566 0.96888328412133562
v -1.3300868424659682 -0.5 0.80671069723472877
v 2.0676860848399428 -0.33782741311339298 -1.2312840417473614
v 2.0676860848399428 -0.66217258688660707 -1.2312840417473614
v 2.2298586717265496 -0.23759924237397428 -0.96888328412133562
v 2.2298586717265496 -0.76240075762602566 -0.96888328412133562
v 2.3300868424659682 -0.5 -0.80671069723472877
v -1.0676860848399428 -0.33782741311339298 -1.2312840417473614
v -1.0676860848399428 -0.66217258688660707 -1.2312840417473614
v -1.2298586717265496 -0.23759924237397428 -0.96888328412133562
v -1.2298586717265496 -0.76240075762602566 -0.96888328412133562
v -1.3300868424659682 -0.5 -0.80671069723472877
v 0.5 -0.22409551574473258 1.9808777639137238
v 0.5 -0.77590448425526737 1.9808777639137238
v 0.76614220828118262 -0.3355150694412754 1.9753766811902758
v 0.23385779171881738 -0.3355150694412754 1.9753766811902758
v 0.76614220828118262 -0.6644849305587246 1.9753766811902758
v 0.23385779171881738 -0.6644849305587246 1.9753766811902758
v 0.974172650701152 1.0173046003265149 1.2136502985436286
v 1.2500771349564195 1.1878229492447805 0.76722746537009556
v 0.81286893008046168 1.1803557706542778 1.0385169794563667
v 1.2434960689203689 0.91421356237309492 1.2030019100150913
v 0.97735386063918628 1.2820130483767358 0.77237477117518405
v 1.4079809994790937 1.0158708400955532 0.93685970173390887
v 0.025827349298848001 1.0173046003265149 1.2136502985436286
v -0.25007713495641948 1.1878229492447805 0.76722746537009556
v 0.18713106991953826 1.1803557706542778 1.0385169794563667
v -0.24349606892036901 0.91421356237309492 1.2030019100150913
v 0.022646139360813722 1.2820130483767358 0.77237477117518405
v -0.40798099947909372 1.0158708400955532 0.93685970173390887
v 1.2672274653700955 0.25007713495641948 1.6878229492447805
v 1.7136502985436286 -0.025827349298848001 1.5173046003265149
v 1.272374771175184 -0.022646139360813722 1.7820130483767358
v 1.4368597017339089 0.4079809994790935 1.5158708400955532
v 1.5385169794563667 -0.18713106991953826 1.6803557706542778
v 1.7030019100150915 0.24349606892036901 1.4142135623730949
v -0.26722746537009556 0.25007713495641948 1.6878229492447805
v -0.7136502985436286 -0.025827349298848001 1.5173046003265149
v -0.27237477117518405 -0.022646139360813722 1.7820130483767358
v -0.43685970173390876 0.4079809994790935 1.5158708400955532
v -0.53851697945636667 -0.18713106991953826 1.6803557706542778
v -0.70300191001509149 0.24349606892036901 1.4142135623730949
v 0.974172650701152 -2.0173046003265149 1.2136502985436286
v 1.2500771349564195 -2.1878229492447803 0.76722746537009556
v 0.81286893008046168 -2.1803557706542778 1.0385169794563667
v 1.2434960689203689 -1.9142135623730949 1.2030019100150913
v 0.97735386063918628 -2.2820130483767356 0.77237477117518405
v 1.4079809994790937 -2.0158708400955532 0.93685970173390887
v 0.025827349298848001 -2.0173046003265149 1.2136502985436286
v -0.25007713495641948 -2.1878229492447803 0.76722746537009556
v 0.18713106991953826 -2.1803557706542778 1.0385169794563667
v -0.24349606892036901 -1.9142135623730949 1.2030019100150913
v 0.022646139360813722 -2.2820130483767356 0.77237477117518405
v -0.40798099947909372 -2.0158708400955532 0.93685970173390887
v 1.2672274653700955 -1.2500771349564195 1.6878229492447805
v 1.7136502985436286 -0.974172650701152 1.5173046003265149
v 1.272374771175184 -0.97735386063918628 1.7820130483767358
v 1.5385169794563667 -0.81286893008046168 1.6803557706542778
v 1.4368597017339089 -1.4079809994790935 1.5158708400955532
v 1.7030019100150915 -1.2434960689203689 1.4142135623730949
v -0.26722746537009556 -1.2500771349564195 1.6878229492447805
v -0.7136502985436286 -0.974172650701152 1.5173046003265149
v -0.27237477117518405 -0.97735386063918628 1.7820130483767358
v -0.53851697945636667 -0.81286893008046168 1.6803557706542778
v -0.43685970173390876 -1.4079809994790935 1.5158708400955532
v -0.70300191001509149 -1.2434960689203689 1.4142135623730949
v 0.5 -0.22409551574473258 -1.9808777639137238
v 0.5 -0.77590448425526737 -1.9808777639137238
v 0.76614220828118262 -0.3355150694412754 -1.9753766811902758
v 0.23385779171881738 -0.3355150694412754 -1.9753766811902758
v 0.76614220828118262 -0.6644849305587246 -1.9753766811902758
v 0.23385779171881738 -0.6644849305587246 -1.9753766811902758
v 0.974172650701152 1.0173046003265149 -1.2136502985436286
v 1.2500771349564195 1.1878229492447805 -0.76722746537009556
v 0.81286893008046168 1.1803557706542778 -1.0385169794563667
v 1.2434960689203689 0.91421356237309492 -1.2030019100150913
v 0.97735386063918628 1.2820130483767358 -0.77237477117518405
v 1.4079809994790937 1.0158708400955532 -0.93685970173390887
v 0.025827349298848001 1.0173046003265149 -1.2136502985436286
v -0.25007713495641948 1.1878229492447805 -0.76722746537009556
v 0.18713106991953826 1.1803557706542778 -1.0385169794563667
v -0.24349606892036901 0.91421356237309492 -1.2030019100150913
v 0.022646139360813722 1.2820130483767358 -0.77237477117518405
v -0.40798099947909372 1.0158708400955532 -0.93685970173390887
v 1.2672274653700955 0.25007713495641948 -1.6878229492447805
v 1.7136502985436286 -0.025827349298848001 -1.5173046003265149
v 1.272374771175184 -0.022646139360813722 -1.7820130483767358
v 1.4368597017339089 0.4079809994790935 -1.5158708400955532
v 1.5385169794563667 -0.18713106991953826 -1.6803557706542778
v 1.7030019100150915 0.24349606892036901 -1.4142135623730949
v -0.26722746537009556 0.25007713495641948 -1.6878229492447805
v -0.7136502985436286 -0.025827349298848001 -1.5173046003265149
v -0.27237477117518405 -0.022646139360813722 -1.7820130483767358
v -0.43685970173390876 0.4079809994790935 -1.5158708400955532
v -0.53851697945636667 -0.18713106991953826 -1.6803557706542778
v -0.70300191001509149 0.24349606892036901 -1.4142135623730949
v 0.974172650701152 -2.0173046003265149 -1.2136502985436286
v 1.2500771349564195 -2.1878229492447803 -0.76722746537009556
v 0.81286893008046168 -2.1803557706542778 -1.0385169794563667
v 1.2434960689203689 -1.9142135623730949 -1.2030019100150913
v 0.97735386063918628 -2.2820130483767356 -0.77237477117518405
v 1.4079809994790937 -2.0158708400955532 -0.93685970173390887
v 0.025827349298848001 -2.0173046003265149 -1.2136502985436286
v -0.25007713495641948 -2.1878229492447803 -0.76722746537009556
v 0.18713106991953826 -2.1803557706542778 -1.0385169794563667
v -0.24349606892036901 -1.9142135623730949 -1.2030019100150913
v 0.022646139360813722 -2.2820130483767356 -0.77237477117518405
v -0.40798099947909372 -2.0158708400955532 -0.93685970173390887
v 1.2672274653700955 -1.2500771349564195 -1.6878229492447805
v 1.7136502985436286 -0.974172650701152 -1.5173046003265149
v 1.272374771175184 -0.97735386063918628 -1.7820130483767358
v 1.5385169794563667 -0.81286893008046168 -1.6803557706542778
v 1.4368597017339089 -1.4079809994790935 -1.5158708400955532
v 1.7030019100150915 -1.2434960689203689 -1.4142135623730949
v -0.26722746537009556 -1.2500771349564195 -1.6878229492447805
v -0.7136502985436286 -0.974172650701152 -1.5173046003265149
v -0.27237477117518405 -0.97735386063918628 -1.7820130483767358
v -0.53851697945636667 -0.81286893008046168 -1.6803557706542778
v -0.43685970173390876 -1.4079809994790935 -1.5158708400955532
v -0.70300191001509149 -1.2434960689203689 -1.4142135623730949
v 0.77590448425526737 1.4808777639137238 0
v 0.22409551574473258 1.4808777639137238 0
v 0.6644849305587246 1.4753766811902758 0.26614220828118262
v 0.3355150694412754 1.4753766811902758 0.26614220828118262
v 0.6644849305587246 1.4753766811902758 -0.26614220828118262
v 0.3355150694412754 1.4753766811902758 -0.26614220828118262
v 2.0173046003265149 0.7136502985436286 0.474172650701152
v 2.1878229492447803 0.26722746537009556 0.75007713495641948
v 1.9142135623730949 0.70300191001509149 0.74349606892036901
v 2.0158708400955532 0.43685970173390887 0.90798099947909372
v 2.1803557706542778 0.53851697945636667 0.31286893008046174
v 2.2820130483767356 0.27237477117518405 0.47735386063918628
v 2.0173046003265149 0.7136502985436286 -0.474172650701152
v 2.1878229492447803 0.26722746537009556 -0.75007713495641948
v 1.9142135623730949 0.70300191001509149 -0.74349606892036901
v 2.0158708400955532 0.43685970173390887 -0.90798099947909372
v 2.1803557706542778 0.53851697945636667 -0.31286893008046174
v 2.2820130483767356 0.27237477117518405 -0.47735386063918628
v -1.0173046003265149 0.7136502985436286 0.474172650701152
v -1.1878229492447805 0.26722746537009556 0.75007713495641948
v -0.91421356237309492 0.70300191001509149 0.74349606892036901
v -1.0158708400955532 0.43685970173390887 0.90798099947909372
v -1.1803557706542778 0.53851697945636667 0.31286893008046174
v -1.2820130483767358 0.27237477117518405 0.47735386063918628
v -1.0173046003265149 0.7136502985436286 -0.474172650701152
v -1.1878229492447805 0.26722746537009556 -0.75007713495641948
v -0.91421356237309492 0.70300191001509149 -0.74349606892036901
v -1.0158708400955532 0.43685970173390887 -0.90798099947909372
v -1.1803557706542778 0.53851697945636667 -0.31286893008046174
v -1.2820130483767358 0.27237477117518405 -0.47735386063918628
v 0.77590448425526737 -2.4808777639137238 0
v 0.22409551574473258 -2.4808777639137238 0
v 0.6644849305587246 -2.4753766811902755 0.26614220828118262
v 0.3355150694412754 -2.4753766811902755 0.26614220828118262
v 0.6644849305587246 -2.4753766811902755 -0.26614220828118262
v 0.3355150694412754 -2.4753766811902755 -0.26614220828118262
v 2.0173046003265149 -1.7136502985436286 0.474172650701152
v 2.1878229492447803 -1.2672274653700955 0.75007713495641948
v 1.9142135623730949 -1.7030019100150915 0.74349606892036901
v 2.0158708400955532 -1.4368597017339089 0.90798099947909372
v 2.1803557706542778 -1.5385169794563667 0.31286893008046174
v 2.2820130483767356 -1.272374771175184 0.47735386063918628
v 2.0173046003265149 -1.7136502985436286 -0.474172650701152
v 2.1878229492447803 -1.2672274653700955 -0.75007713495641948
v 1.9142135623730949 -1.7030019100150915 -0.74349606892036901
v 2.0158708400955532 -1.4368597017339089 -0.90798099947909372
v 2.1803557706542778 -1.5385169794563667 -0.31286893008046174
v 2.2820130483767356 -1.272374771175184 -0.47735386063918628
v -1.0173046003265149 -1.7136502985436286 0.474172650701152
v -1.1878229492447805 -1.2672274653700955 0.75007713495641948
v -0.91421356237309492 -1.7030019100150915 0.74349606892036901
v -1.0158708400955532 -1.4368597017339089 0.90798099947909372
v -1.1803557706542778 -1.5385169794563667 0.31286893008046174
v -1.2820130483767358 -1.272374771175184 0.47735386063918628
v -1.0173046003265149 -1.7136502985436286 -0.474172650701152
v -1.1878229492447805 -1.2672274653700955 -0.75007713495641948
v -0.91421356237309492 -1.7030019100150915 -0.74349606892036901
v -1.0158708400955532 -1.4368597017339089 -0.90798099947909372
v -1.1803557706542778 -1.5385169794563667 -0.31286893008046174
v -1.2820130483767358 -1.272374771175184 -0.47735386063918628
v 2.4808777639137238 -0.5 0.27590448425526742
v 2.4808777639137238 -0.5 -0.27590448425526742
v 2.4753766811902755 -0.23385779171881738 0.1644849305587246
v 2.4753766811902755 -0.23385779171881738 -0.1644849305587246
v 2.4753766811902755 -0.76614220828118262 0.1644849305587246
v 2.4753766811902755 -0.76614220828118262 -0.1644849305587246
v -1.4808777639137238 -0.5 0.27590448425526742
v -1.4808777639137238 -0.5 -0.27590448425526742
v -1.4753766811902758 -0.23385779171881738 0.1644849305587246
v -1.4753766811902758 -0.23385779171881738 -0.1644849305587246
v -1.4753766811902758 -0.76614220828118262 0.1644849305587246
v -1.4753766811902758 -0.76614220828118262 -0.1644849305587246
v 0.76331074270412924 0.21645758697315787 1.848609201222692
v 0.23668925729587076 0.21645758697315787 1.848609201222692
v 0.76558495365580492 -0.059765945053415148 1.9327851948048784
v 0.23441504634419508 -0.059765945053415148 1.9327851948048784
v 0.5 0.90581406097554673 1.4225634699244327
v 0.92604573129825951 0.64250331827141727 1.585298458518563
v 0.66228370323987928 1.0604087414202534 1.2404791652268943
v 1.0920091851555374 0.7948237877644484 1.4046196934867472
v 0.073954268701740489 0.64250331827141727 1.585298458518563
v 0.33771629676012072 1.0604087414202534 1.2404791652268943
v -0.092009185155537354 0.7948237877644484 1.4046196934867472
v 1.028165501318131 0.10251775818646414 1.8324883503824314
v 1.1923060295779841 0.53224324010212198 1.5669033967266266
v -0.028165501318131114 0.10251775818646414 1.8324883503824314
v -0.19230602957798415 0.53224324010212198 1.5669033967266266
v 0.76331074270412924 -1.2164575869731578 1.848609201222692
v 0.23668925729587076 -1.2164575869731578 1.848609201222692
v 0.76558495365580492 -0.94023405494658485 1.9327851948048784
v 0.23441504634419508 -0.94023405494658485 1.9327851948048784
v 0.5 -1.9058140609755467 1.4225634699244327
v 0.92604573129825951 -1.6425033182714173 1.585298458518563
v 0.66228370323987928 -2.0604087414202534 1.2404791652268943
v 1.0920091851555374 -1.7948237877644484 1.4046196934867472
v 0.073954268701740489 -1.6425033182714173 1.585298458518563
v 0.33771629676012072 -2.0604087414202534 1.2404791652268943
v -0.092009185155537354 -1.7948237877644484 1.4046196934867472
v 1.028165501318131 -1.102517758186464 1.8324883503824314
v 1.1923060295779841 -1.532243240102122 1.5669033967266266
v -0.028165501318131114 -1.102517758186464 1.8324883503824314
v -0.19230602957798415 -1.532243240102122 1.5669033967266266
v 0.76331074270412924 0.21645758697315787 -1.848609201222692
v 0.23668925729587076 0.21645758697315787 -1.848609201222692
v 0.76558495365580492 -0.059765945053415148 -1.9327851948048784
v 0.23441504634419508 -0.059765945053415148 -1.9327851948048784
v 0.5 0.90581406097554673 -1.4225634699244327
v 0.92604573129825951 0.64250331827141727 -1.585298458518563
v 0.66228370323987928 1.0604087414202534 -1.2404791652268943
v 1.0920091851555374 0.7948237877644484 -1.4046196934867472
v 0.073954268701740489 0.64250331827141727 -1.585298458518563
v 0.33771629676012072 1.0604087414202534 -1.2404791652268943
v -0.092009185155537354 0.7948237877644484 -1.4046196934867472
v 1.028165501318131 0.10251775818646414 -1.8324883503824314
v 1.1923060295779841 0.53224324010212198 -1.5669033967266266
v -0.028165501318131114 0.10251775818646414 -1.8324883503824314
v -0.19230602957798415 0.53224324010212198 -1.5669033967266266
v 0.76331074270412924 -1.2164575869731578 -1.848609201222692
v 0.23668925729587076 -1.2164575869731578 -1.848609201222692
v 0.76558495365580492 -0.94023405494658485 -1.9327851948048784
v 0.23441504634419508 -0.94023405494658485 -1.9327851948048784
v 0.5 -1.9058140609755467 -1.4225634699244327
v 0.92604573129825951 -1.6425033182714173 -1.585298458518563
v 0.66228370323987928 -2.0604087414202534 -1.2404791652268943
v 1.0920091851555374 -1.7948237877644484 -1.4046196934867472
v 0.073954268701740489 -1.6425033182714173 -1.585298458518563
v 0.33771629676012072 -2.0604087414202534 -1.2404791652268943
v -0.092009185155537354 -1.7948237877644484 -1.4046196934867472
v 1.028165501318131 -1.102517758186464 -1.8324883503824314
v 1.1923060295779841 -1.532243240102122 -1.5669033967266266
v -0.028165501318131114 -1.102517758186464 -1.8324883503824314
v -0.19230602957798415 -1.532243240102122 -1.5669033967266266
v 1.2164575869731578 1.348609201222692 0.26331074270412924
v 1.6425033182714173 1.085298458518563 0.42604573129825957
v 1.102517758186464 1.3324883503824314 0.52816550131813111
v 1.5322432401021222 1.0669033967266268 0.69230602957798426
v 1.2164575869731578 1.348609201222692 -0.26331074270412924
v 1.6425033182714173 1.085298458518563 -0.42604573129825957
v 1.102517758186464 1.3324883503824314 -0.52816550131813111
v 1.5322432401021222 1.0669033967266268 -0.69230602957798426
v 0.94023405494658485 1.4327851948048784 0.26558495365580492
v 0.94023405494658485 1.4327851948048784 -0.26558495365580492
v 1.9058140609755467 0.92256346992443272 0
v 1.7948237877644482 0.90461969348674742 0.59200918515553735
v 2.0604087414202534 0.74047916522689428 0.16228370323987931
v 1.7948237877644482 0.90461969348674742 -0.59200918515553735
v 2.0604087414202534 0.74047916522689428 -0.16228370323987931
v -0.21645758697315787 1.348609201222692 0.26331074270412924
v -0.64250331827141727 1.085298458518563 0.42604573129825957
v -0.10251775818646414 1.3324883503824314 0.52816550131813111
v -0.53224324010212221 1.0669033967266268 0.69230602957798426
v -0.21645758697315787 1.348609201222692 -0.26331074270412924
v -0.64250331827141727 1.085298458518563 -0.42604573129825957
v -0.10251775818646414 1.3324883503824314 -0.52816550131813111
v -0.53224324010212221 1.0669033967266268 -0.69230602957798426
v 0.059765945053415148 1.4327851948048784 0.26558495365580492
v 0.059765945053415148 1.4327851948048784 -0.26558495365580492
v -0.90581406097554673 0.92256346992443272 0
v -0.79482378776444818 0.90461969348674742 0.59200918515553735
v -1.0604087414202534 0.74047916522689428 0.16228370323987931
v -0.79482378776444818 0.90461969348674742 -0.59200918515553735
v -1.0604087414202534 0.74047916522689428 -0.16228370323987931
v 1.2164575869731578 -2.348609201222692 0.26331074270412924
v 1.6425033182714173 -2.085298458518563 0.42604573129825957
v 1.102517758186464 -2.3324883503824312 0.52816550131813111
v 1.5322432401021222 -2.0669033967266266 0.69230602957798426
v 1.2164575869731578 -2.348609201222692 -0.26331074270412924
v 1.6425033182714173 -2.085298458518563 -0.42604573129825957
v 1.102517758186464 -2.3324883503824312 -0.52816550131813111
v 1.5322432401021222 -2.0669033967266266 -0.69230602957798426
v 0.94023405494658485 -2.4327851948048784 0.26558495365580492
v 0.94023405494658485 -2.4327851948048784 -0.26558495365580492
v 1.9058140609755467 -1.9225634699244327 0
v 1.7948237877644482 -1.9046196934867474 0.59200918515553735
v 2.0604087414202534 -1.7404791652268943 0.16228370323987931
v 1.7948237877644482 -1.9046196934867474 -0.59200918515553735
v 2.0604087414202534 -1.7404791652268943 -0.16228370323987931
v -0.21645758697315787 -2.348609201222692 0.26331074270412924
v -0.64250331827141727 -2.085298458518563 0.42604573129825957
v -0.10251775818646414 -2.3324883503824312 0.52816550131813111
v -0.53224324010212221 -2.0669033967266266 0.69230602957798426
v -0.21645758697315787 -2.348609201222692 -0.26331074270412924
v -0.64250331827141727 -2.085298458518563 -0.42604573129825957
v -0.10251775818646414 -2.3324883503824312 -0.52816550131813111
v -0.53224324010212221 -2.0669033967266266 -0.69230602957798426
v 0.059765945053415148 -2.4327851948048784 0.26558495365580492
v 0.059765945053415148 -2.4327851948048784 -0.26558495365580492
v -0.90581406097554673 -1.9225634699244327 0
v -0.79482378776444818 -1.9046196934867474 0.59200918515553735
v -1.0604087414202534 -1.7404791652268943 0.16228370323987931
v -0.79482378776444818 -1.9046196934867474 -0.59200918515553735
v -1.0604087414202534 -1.7404791652268943 -0.16228370323987931
v 1.9225634699244327 -0.5 1.4058140609755467
v 2.085298458518563 -0.073954268701740433 1.1425033182714173
v 1.7404791652268941 -0.33771629676012072 1.5604087414202532
v 1.9046196934867474 0.092009185155537354 1.2948237877644482
v 2.085298458518563 -0.92604573129825951 1.1425033182714173
v 1.7404791652268941 -0.66228370323987928 1.5604087414202532
v 1.9046196934867474 -1.0920091851555374 1.2948237877644482
v 2.348609201222692 -0.23668925729587076 0.71645758697315787
v 2.0669033967266266 0.19230602957798415 1.032243240102122
v 2.3324883503824312 0.028165501318131114 0.60251775818646414
v 2.348609201222692 -0.76331074270412924 0.71645758697315787
v 2.0669033967266266 -1.1923060295779841 1.032243240102122
v 2.3324883503824312 -1.028165501318131 0.60251775818646414
v 2.4327851948048784 -0.23441504634419508 0.44023405494658485
v 2.4327851948048784 -0.76558495365580492 0.44023405494658485
v -0.92256346992443272 -0.5 1.4058140609755467
v -1.085298458518563 -0.073954268701740433 1.1425033182714173
v -0.74047916522689405 -0.33771629676012072 1.5604087414202532
v -0.90461969348674742 0.092009185155537354 1.2948237877644482
v -1.085298458518563 -0.92604573129825951 1.1425033182714173
v -0.74047916522689405 -0.66228370323987928 1.5604087414202532
v -0.90461969348674742 -1.0920091851555374 1.2948237877644482
v -1.348609201222692 -0.23668925729587076 0.71645758697315787
v -1.0669033967266264 0.19230602957798415 1.032243240102122
v -1.3324883503824314 0.028165501318131114 0.60251775818646414
v -1.348609201222692 -0.76331074270412924 0.71645758697315787
v -1.0669033967266264 -1.1923060295779841 1.032243240102122
v -1.3324883503824314 -1.028165501318131 0.60251775818646414
v -1.4327851948048784 -0.23441504634419508 0.44023405494658485
v -1.4327851948048784 -0.76558495365580492 0.44023405494658485
v 1.9225634699244327 -0.5 -1.4058140609755467
v 2.085298458518563 -0.073954268701740433 -1.1425033182714173
v 1.7404791652268941 -0.33771629676012072 -1.5604087414202532
v 1.9046196934867474 0.092009185155537354 -1.2948237877644482
v 2.085298458518563 -0.92604573129825951 -1.1425033182714173
v 1.7404791652268941 -0.66228370323987928 -1.5604087414202532
v 1.9046196934867474 -1.0920091851555374 -1.2948237877644482
v 2.348609201222692 -0.23668925729587076 -0.71645758697315787
v 2.0669033967266266 0.19230602957798415 -1.032243240102122
v 2.3324883503824312 0.028165501318131114 -0.60251775818646414
v 2.348609201222692 -0.76331074270412924 -0.71645758697315787
v 2.0669033967266266 -1.1923060295779841 -1.032243240102122
v 2.3324883503824312 -1.028165501318131 -0.60251775818646414
v 2.4327851948048784 -0.23441504634419508 -0.44023405494658485
v 2.4327851948048784 -0.76558495365580492 -0.44023405494658485
v -0.92256346992443272 -0.5 -1.4058140609755467
v -1.085298458518563 -0.073954268701740433 -1.1425033182714173
v -0.74047916522689405 -0.33771629676012072 -1.5604087414202532
v -0.90461969348674742 0.092009185155537354 -1.2948237877644482
v -1.085298458518563 -0.92604573129825951 -1.1425033182714173
v -0.74047916522689405 -0.66228370323987928 -1.5604087414202532
v -0.90461969348674742 -1.0920091851555374 -1.2948237877644482
v -1.348609201222692 -0.23668925729587076 -0.71645758697315787
v -1.0669033967266264 0.19230602957798415 -1.032243240102122
v -1.3324883503824314 0.028165501318131114 -0.60251775818646414
v -1.348609201222692 -0.76331074270412924 -0.71645758697315787
v -1.0669033967266264 -1.1923060295779841 -1.032243240102122
v -1.3324883503824314 -1.028165501318131 -0.60251775818646414
v -1.4327851948048784 -0.23441504634419508 -0.44023405494658485
v -1.4327851948048784 -0.76558495365580492 -0.44023405494658485
v 1.0328094022691348 -0.5 1.9277225269352452
v 1.2992141034037021 -0.33535283993607967 1.8259649858645981
v -0.032809402269134758 -0.5 1.9277225269352452
v -0.29921410340370225 -0.33535283993607967 1.8259649858645981
v 1.2992141034037021 -0.66464716006392033 1.8259649858645981
v -0.29921410340370225 -0.66464716006392033 1.8259649858645981
v 0.66464716006392033 1.3259649858645983 0.79921410340370236
v 0.33535283993607967 1.3259649858645983 0.79921410340370236
v 1.526750882460896 0.79315558359546356 1.128508423531543
v 1.628508423531543 0.52675088246089596 1.2931555835954633
v 0.5 1.4277225269352452 0.53280940226913476
v 1.7931555835954636 0.62850842353154301 1.026750882460896
v -0.52675088246089596 0.79315558359546356 1.128508423531543
v -0.62850842353154301 0.52675088246089596 1.2931555835954633
v -0.79315558359546356 0.62850842353154301 1.026750882460896
v 0.66464716006392033 -2.3259649858645983 0.79921410340370236
v 0.33535283993607967 -2.3259649858645983 0.79921410340370236
v 1.526750882460896 -1.7931555835954636 1.128508423531543
v 1.628508423531543 -1.526750882460896 1.2931555835954633
v 0.5 -2.4277225269352449 0.53280940226913476
v 1.7931555835954636 -1.628508423531543 1.026750882460896
v -0.52675088246089596 -1.7931555835954636 1.128508423531543
v -0.62850842353154301 -1.526750882460896 1.2931555835954633
v -0.79315558359546356 -1.628508423531543 1.026750882460896
v 1.0328094022691348 -0.5 -1.9277225269352452
v 1.2992141034037021 -0.33535283993607967 -1.8259649858645981
v -0.032809402269134758 -0.5 -1.9277225269352452
v -0.29921410340370225 -0.33535283993607967 -1.8259649858645981
v 1.2992141034037021 -0.66464716006392033 -1.8259649858645981
v -0.29921410340370225 -0.66464716006392033 -1.8259649858645981
v 0.66464716006392033 1.3259649858645983 -0.79921410340370236
v 0.33535283993607967 1.3259649858645983 -0.79921410340370236
v 1.526750882460896 0.79315558359546356 -1.128508423531543
v 1.628508423531543 0.52675088246089596 -1.2931555835954633
v 0.5 1.4277225269352452 -0.53280940226913476
v 1.7931555835954636 0.62850842353154301 -1.026750882460896
v -0.52675088246089596 0.79315558359546356 -1.128508423531543
v -0.62850842353154301 0.52675088246089596 -1.2931555835954633
v -0.79315558359546356 0.62850842353154301 -1.026750882460896
v 0.66464716006392033 -2.3259649858645983 -0.79921410340370236
v 0.33535283993607967 -2.3259649858645983 -0.79921410340370236
v 1.526750882460896 -1.7931555835954636 -1.128508423531543
v 1.628508423531543 -1.526750882460896 -1.2931555835954633
v 0.5 -2.4277225269352449 -0.53280940226913476
v 1.7931555835954636 -1.628508423531543 -1.026750882460896
v -0.52675088246089596 -1.7931555835954636 -1.128508423531543
v -0.62850842353154301 -1.526750882460896 -1.2931555835954633
v -0.79315558359546356 -1.628508423531543 -1.026750882460896
v 2.3259649858645983 0.29921410340370236 0.16464716006392036
v 2.3259649858645983 0.29921410340370236 -0.16464716006392036
v 2.4277225269352449 0.032809402269134758 0
v -1.3259649858645983 0.29921410340370236 0.16464716006392036
v -1.3259649858645983 0.29921410340370236 -0.16464716006392036
v -1.4277225269352452 0.032809402269134758 0
v 2.3259649858645983 -1.2992141034037024 0.16464716006392036
v 2.3259649858645983 -1.2992141034037024 -0.16464716006392036
v 2.4277225269352449 -1.0328094022691348 0
v -1.3259649858645983 -1.2992141034037024 0.16464716006392036
v -1.3259649858645983 -1.2992141034037024 -0.16464716006392036
v -1.4277225269352452 -1.0328094022691348 0
f 1 163 166
f 1 166 164
f 1 164 165
f 1 165 167
f 1 167 163
f 2 169 171
f 9 206 207
f 9 207 205
f 5 187 184
f 5 184 185
f 6 189 192
f 6 192 191
f 10 212 211
f 10 211 209
f 2 170 169
f 4 179 180
f 4 180 182
f 4 182 178
f 4 178 181
f 4 181 179
f 2 171 168
f 9 205 203
f 5 185 183
f 6 191 188
f 10 209 208
f 7 196 193
f 7 197 196
f 11 215 217
f 11 213 215
f 3 175 174
f 3 177 175
f 12 222 220
f 12 221 222
f 8 198 201
f 8 200 198
f 7 195 194
f 8 202 199
f 12 218 219
f 3 176 173
f 11 216 214
f 9 203 204
f 5 183 186
f 6 188 190
f 10 208 210
f 2 168 172
f 9 204 206
f 11 217 216
f 5 186 187
f 3 174 176
f 6 190 189
f 12 220 218
f 10 210 212
f 8 201 202
f 2 172 170
f 7 193 195
f 8 199 200
f 12 219 221
f 3 173 177
f 11 214 213
f 7 194 197
f 20 268 267
f 32 339 340
f 31 334 333
f 34 352 351
f 21 273 274
f 37 370 369
f 38 378 377
f 33 347 348
f 25 298 300
f 24 293 291
f 26 306 304
f 42 399 400
f 40 389 390
f 19 262 264
f 36 363 364
f 36 366 365
f 40 388 387
f 26 303 305
f 25 299 297
f 38 375 376
f 13 225 223
f 16 244 241
f 14 231 229
f 15 238 235
f 17 249 247
f 18 256 253
f 37 372 368
f 41 393 391
f 33 345 343
f 23 287 284
f 24 294 290
f 35 359 355
f 42 401 397
f 39 382 380
f 19 261 259
f 27 309 307
f 28 316 313
f 30 327 325
f 22 281 278
f 29 323 319
f 20 267 265
f 32 340 338
f 31 333 331
f 34 351 349
f 21 274 272
f 37 369 367
f 38 377 373
f 33 348 344
f 25 300 296
f 24 291 289
f 26 304 301
f 42 400 398
f 40 390 386
f 19 264 260
f 36 364 362
f 36 365 361
f 40 387 385
f 26 305 302
f 25 297 295
f 38 376 374
f 16 245 242
f 14 234 230
f 15 239 236
f 17 252 248
f 13 228 224
f 20 270 266
f 41 396 392
f 32 341 337
f 23 286 283
f 31 336 332
f 35 358 356
f 34 354 350
f 39 383 379
f 21 275 271
f 18 257 254
f 28 317 314
f 30 330 326
f 22 280 277
f 29 322 320
f 27 312 308
f 16 243 245
f 14 232 234
f 15 237 239
f 17 250 252
f 13 226 228
f 20 269 270
f 41 395 396
f 32 342 341
f 23 288 286
f 31 335 336
f 35 357 358
f 34 353 354
f 39 384 383
f 21 276 275
f 18 255 257
f 28 315 317
f 30 329 330
f 22 282 280
f 29 321 322
f 27 310 312
f 16 241 243
f 14 229 232
f 15 235 237
f 17 247 250
f 13 223 226
f 20 265 269
f 41 391 395
f 32 338 342
f 23 284 288
f 31 331 335
f 35 355 357
f 34 349 353
f 39 380 384
f 21 272 276
f 18 253 255
f 28 313 315
f 30 325 329
f 22 278 282
f 29 319 321
f 27 307 310
f 13 224 227
f 16 242 246
f 14 230 233
f 15 236 240
f 17 248 251
f 18 254 258
f 37 367 371
f 41 392 394
f 33 344 346
f 23 283 285
f 24 289 292
f 35 356 360
f 42 398 402
f 39 379 381
f 19 260 263
f 27 308 311
f 28 314 318
f 30 326 328
f 22 277 279
f 29 320 324
f 20 266 268
f 32 337 339
f 31 332 334
f 34 350 352
f 21 271 273
f 37 368 370
f 38 374 378
f 33 343 347
f 25 295 298
f 24 290 293
f 26 302 306
f 42 397 399
f 40 385 389
f 19 259 262
f 36 361 363
f 36 362 366
f 40 386 388
f 26 301 303
f 25 296 299
f 38 373 375
f 13 227 225
f 16 246 244
f 14 233 231
f 15 240 238
f 17 251 249
f 18 258 256
f 37 371 372
f 41 394 393
f 33 346 345
f 23 285 287
f 24 292 294
f 35 360 359
f 42 402 401
f 39 381 382
f 19 263 261
f 27 311 309
f 28 318 316
f 30 328 327
f 22 279 281
f 29 324 323
f 103 414 405
f 108 410 415
f 107 412 409
f 111 417 413
f 104 406 416
f 119 430 425
f 158 537 535
f 152 532 536
f 134 470 476
f 133 472 469
f 137 491 485
f 154 490 492
f 161 550 552
f 126 544 549
f 118 424 427
f 142 457 454
f 146 462 458
f 130 451 461
f 129 459 450
f 143 455 460
f 105 420 429
f 115 526 531
f 109 465 471
f 113 481 489
f 116 540 543
f 121 496 504
f 157 505 507
f 153 566 562
f 139 561 556
f 131 439 442
f 135 443 447
f 156 577 581
f 162 582 580
f 124 519 511
f 123 510 516
f 144 499 502
f 148 515 521
f 140 573 570
f 127 435 444
f 149 559 564
f 114 528 525
f 110 474 466
f 112 486 480
f 117 546 541
f 106 431 421
f 125 534 529
f 159 565 567
f 151 477 475
f 132 445 440
f 136 484 487
f 141 571 576
f 155 551 547
f 160 522 520
f 122 428 432
f 120 501 495
f 147 517 514
f 150 579 574
f 128 446 436
f 138 555 558
f 145 506 500
f 103 583 584
f 108 592 591
f 107 589 590
f 111 595 596
f 104 586 585
f 119 600 601
f 158 637 639
f 152 633 631
f 134 618 615
f 133 613 617
f 137 619 621
f 154 635 634
f 161 642 640
f 126 606 605
f 118 599 598
f 142 622 623
f 146 628 629
f 130 612 609
f 129 607 611
f 143 625 624
f 43 403 163
f 46 408 166
f 44 407 164
f 45 411 165
f 47 404 167
f 49 423 169
f 86 533 206
f 87 530 207
f 67 468 187
f 64 467 184
f 69 483 189
f 72 488 192
f 92 548 212
f 91 542 211
f 50 422 170
f 59 452 179
f 60 456 180
f 62 449 182
f 58 448 178
f 61 453 181
f 51 418 171
f 85 524 205
f 65 463 185
f 71 479 191
f 89 538 209
f 76 494 196
f 77 503 197
f 95 560 215
f 93 554 213
f 55 437 175
f 57 441 177
f 102 575 222
f 101 578 221
f 78 509 198
f 80 508 200
f 75 497 195
f 82 513 202
f 98 568 218
f 56 433 176
f 96 557 216
f 83 523 203
f 63 464 183
f 68 478 188
f 88 539 208
f 48 419 168
f 84 527 204
f 97 563 217
f 66 473 186
f 54 438 174
f 70 482 190
f 100 569 220
f 90 545 210
f 81 518 201
f 52 426 172
f 73 493 193
f 79 512 199
f 99 572 219
f 53 434 173
f 94 553 214
f 74 498 194
f 114 587 268
f 110 594 339
f 112 593 334
f 117 597 352
f 106 588 273
f 125 603 370
f 159 638 378
f 151 632 347
f 132 616 298
f 136 614 293
f 141 620 306
f 155 636 399
f 160 641 389
f 122 604 262
f 120 602 363
f 147 626 366
f 150 630 388
f 128 610 303
f 138 608 299
f 145 627 375
f 103 405 225
f 108 415 244
f 107 409 231
f 111 413 238
f 104 416 249
f 119 425 256
f 158 535 372
f 152 536 393
f 134 476 345
f 133 469 287
f 137 485 294
f 154 492 359
f 161 552 401
f 126 549 382
f 118 427 261
f 142 454 309
f 146 458 316
f 130 461 327
f 129 450 281
f 143 460 323
f 105 429 267
f 115 531 340
f 109 471 333
f 113 489 351
f 116 543 274
f 121 504 369
f 157 507 377
f 153 562 348
f 139 556 300
f 131 442 291
f 135 447 304
f 156 581 400
f 162 580 390
f 124 511 264
f 123 516 364
f 144 502 365
f 148 521 387
f 140 570 305
f 127 444 297
f 149 564 376
f 114 525 245
f 110 466 234
f 112 480 239
f 117 541 252
f 106 421 228
f 125 529 270
f 159 567 396
f 151 475 341
f 132 440 286
f 136 487 336
f 141 576 358
f 155 547 354
f 160 520 383
f 122 432 275
f 120 495 257
f 147 514 317
f 150 574 330
f 128 436 280
f 138 558 322
f 145 500 312
f 103 584 243
f 108 591 232
f 107 590 237
f 111 596 250
f 104 585 226
f 119 601 269
f 158 639 395
f 152 631 342
f 134 615 288
f 133 617 335
f 137 621 357
f 154 634 353
f 161 640 384
f 126 605 276
f 118 598 255
f 142 623 315
f 146 629 329
f 130 609 282
f 129 611 321
f 143 624 310
f 46 414 241
f 44 410 229
f 45 412 235
f 47 417 247
f 43 406 223
f 51 430 265
f 87 537 391
f 85 532 338
f 64 470 284
f 65 472 331
f 72 491 355
f 71 490 349
f 91 550 380
f 89 544 272
f 49 424 253
f 60 457 313
f 62 462 325
f 58 451 278
f 61 459 319
f 59 455 307
f 48 420 224
f 83 526 242
f 63 465 230
f 68 481 236
f 88 540 248
f 73 496 254
f 76 505 367
f 97 566 392
f 95 561 344
f 54 439 283
f 55 443 289
f 100 577 356
f 102 582 398
f 81 519 379
f 78 510 260
f 74 499 308
f 79 515 314
f 99 573 326
f 53 435 277
f 94 559 320
f 84 528 266
f 66 474 337
f 70 486 332
f 90 546 350
f 52 431 271
f 86 534 368
f 96 565 374
f 67 477 343
f 56 445 295
f 69 484 290
f 98 571 302
f 92 551 397
f 82 522 385
f 50 428 259
f 75 501 361
f 80 517 362
f 101 579 386
f 57 446 301
f 93 555 296
f 77 506 373
f 105 583 227
f 115 592 246
f 109 589 233
f 113 595 240
f 116 586 251
f 121 600 258
f 157 637 371
f 153 633 394
f 139 618 346
f 131 613 285
f 135 619 292
f 156 635 360
f 162 642 402
f 124 606 381
f 123 599 263
f 144 622 311
f 148 628 318
f 140 612 328
f 127 607 279
f 149 625 324
f 46 403 414
f 44 408 410
f 45 407 412
f 47 411 417
f 43 404 406
f 51 423 430
f 87 533 537
f 85 530 532
f 64 468 470
f 65 467 472
f 72 483 491
f 71 488 490
f 91 548 550
f 89 542 544
f 49 422 424
f 60 452 457
f 62 456 462
f 58 449 451
f 61 448 459
f 59 453 455
f 48 418 420
f 83 524 526
f 63 463 465
f 68 479 481
f 88 538 540
f 73 494 496
f 76 503 505
f 97 560 566
f 95 554 561
f 54 437 439
f 55 441 443
f 100 575 577
f 102 578 582
f 81 509 519
f 78 508 510
f 74 497 499
f 79 513 515
f 99 568 573
f 53 433 435
f 94 557 559
f 84 523 528
f 66 464 474
f 70 478 486
f 90 539 546
f 52 419 431
f 86 527 534
f 96 563 565
f 67 473 477
f 56 438 445
f 69 482 484
f 98 569 571
f 92 545 551
f 82 518 522
f 50 426 428
f 75 493 501
f 80 512 517
f 101 572 579
f 57 434 446
f 93 553 555
f 77 498 506
f 105 587 583
f 115 594 592
f 109 593 589
f 113 597 595
f 116 588 586
f 121 603 600
f 157 638 637
f 153 632 633
f 139 616 618
f 131 614 613
f 135 620 619
f 156 636 635
f 162 641 642
f 124 604 606
f 123 602 599
f 144 626 622
f 148 630 628
f 140 610 612
f 127 608 607
f 149 627 625
f 46 166 403
f 44 164 408
f 45 165 407
f 47 167 411
f 43 163 404
f 51 171 423
f 87 207 533
f 85 205 530
f 64 184 468
f 65 185 467
f 72 192 483
f 71 191 488
f 91 211 548
f 89 209 542
f 49 169 422
f 60 180 452
f 62 182 456
f 58 178 449
f 61 181 448
f 59 179 453
f 48 168 418
f 83 203 524
f 63 183 463
f 68 188 479
f 88 208 538
f 73 193 494
f 76 196 503
f 97 217 560
f 95 215 554
f 54 174 437
f 55 175 441
f 100 220 575
f 102 222 578
f 81 201 509
f 78 198 508
f 74 194 497
f 79 199 513
f 99 219 568
f 53 173 433
f 94 214 557
f 84 204 523
f 66 186 464
f 70 190 478
f 90 210 539
f 52 172 419
f 86 206 527
f 96 216 563
f 67 187 473
f 56 176 438
f 69 189 482
f 98 218 569
f 92 212 545
f 82 202 518
f 50 170 426
f 75 195 493
f 80 200 512
f 101 221 572
f 57 177 434
f 93 213 553
f 77 197 498
f 105 267 587
f 115 340 594
f 109 333 593
f 113 351 597
f 116 274 588
f 121 369 603
f 157 377 638
f 153 348 632
f 139 300 616
f 131 291 614
f 135 304 620
f 156 400 636
f 162 390 641
f 124 264 604
f 123 364 602
f 144 365 626
f 148 387 630
f 140 305 610
f 127 297 608
f 149 376 627
f 43 223 405
f 46 241 415
f 44 229 409
f 45 235 413
f 47 247 416
f 49 253 425
f 86 368 535
f 87 391 536
f 67 343 476
f 64 284 469
f 69 290 485
f 72 355 492
f 92 397 552
f 91 380 549
f 50 259 427
f 59 307 454
f 60 313 458
f 62 325 461
f 58 278 450
f 61 319 460
f 51 265 429
f 85 338 531
f 65 331 471
f 71 349 489
f 89 272 543
f 76 367 504
f 77 373 507
f 95 344 562
f 93 296 556
f 55 289 442
f 57 301 447
f 102 398 581
f 101 386 580
f 78 260 511
f 80 362 516
f 75 361 502
f 82 385 521
f 98 302 570
f 56 295 444
f 96 374 564
f 83 242 525
f 63 230 466
f 68 236 480
f 88 248 541
f 48 224 421
f 84 266 529
f 97 392 567
f 66 337 475
f 54 283 440
f 70 332 487
f 100 356 576
f 90 350 547
f 81 379 520
f 52 271 432
f 73 254 495
f 79 314 514
f 99 326 574
f 53 277 436
f 94 320 558
f 74 308 500
f 114 245 584
f 110 234 591
f 112 239 590
f 117 252 596
f 106 228 585
f 125 270 601
f 159 396 639
f 151 341 631
f 132 286 615
f 136 336 617
f 141 358 621
f 155 354 634
f 160 383 640
f 122 275 605
f 120 257 598
f 147 317 623
f 150 330 629
f 128 280 609
f 138 322 611
f 145 312 624
f 103 243 414
f 108 232 410
f 107 237 412
f 111 250 417
f 104 226 406
f 119 269 430
f 158 395 537
f 152 342 532
f 134 288 470
f 133 335 472
f 137 357 491
f 154 353 490
f 161 384 550
f 126 276 544
f 118 255 424
f 142 315 457
f 146 329 462
f 130 282 451
f 129 321 459
f 143 310 455
f 105 227 420
f 115 246 526
f 109 233 465
f 113 240 481
f 116 251 540
f 121 258 496
f 157 371 505
f 153 394 566
f 139 346 561
f 131 285 439
f 135 292 443
f 156 360 577
f 162 402 582
f 124 381 519
f 123 263 510
f 144 311 499
f 148 318 515
f 140 328 573
f 127 279 435
f 149 324 559
f 114 268 528
f 110 339 474
f 112 334 486
f 117 352 546
f 106 273 431
f 125 370 534
f 159 378 565
f 151 347 477
f 132 298 445
f 136 293 484
f 141 306 571
f 155 399 551
f 160 389 522
f 122 262 428
f 120 363 501
f 147 366 517
f 150 388 579
f 128 303 446
f 138 299 555
f 145 375 506
f 103 225 583
f 108 244 592
f 107 231 589
f 111 238 595
f 104 249 586
f 119 256 600
f 158 372 637
f 152 393 633
f 134 345 618
f 133 287 613
f 137 294 619
f 154 359 635
f 161 401 642
f 126 382 606
f 118 261 599
f 142 309 622
f 146 316 628
f 130 327 612
f 129 281 607
f 143 323 625
f 43 405 403
f 46 415 408
f 44 409 407
f 45 413 411
f 47 416 404
f 49 425 423
f 86 535 533
f 87 536 530
f 67 476 468
f 64 469 467
f 69 485 483
f 72 492 488
f 92 552 548
f 91 549 542
f 50 427 422
f 59 454 452
f 60 458 456
f 62 461 449
f 58 450 448
f 61 460 453
f 51 429 418
f 85 531 524
f 65 471 463
f 71 489 479
f 89 543 538
f 76 504 494
f 77 507 503
f 95 562 560
f 93 556 554
f 55 442 437
f 57 447 441
f 102 581 575
f 101 580 578
f 78 511 509
f 80 516 508
f 75 502 497
f 82 521 513
f 98 570 568
f 56 444 433
f 96 564 557
f 83 525 523
f 63 466 464
f 68 480 478
f 88 541 539
f 48 421 419
f 84 529 527
f 97 567 563
f 66 475 473
f 54 440 438
f 70 487 482
f 100 576 569
f 90 547 545
f 81 520 518
f 52 432 426
f 73 495 493
f 79 514 512
f 99 574 572
f 53 436 434
f 94 558 553
f 74 500 498
f 114 584 587
f 110 591 594
f 112 590 593
f 117 596 597
f 106 585 588
f 125 601 603
f 159 639 638
f 151 631 632
f 132 615 616
f 136 617 614
f 141 621 620
f 155 634 636
f 160 640 641
f 122 605 604
f 120 598 602
f 147 623 626
f 150 629 630
f 128 609 610
f 138 611 608
f 145 624 627
f 403 166 163
f 408 164 166
f 407 165 164
f 411 167 165
f 404 163 167
f 423 171 169
f 533 207 206
f 530 205 207
f 468 184 187
f 467 185 184
f 483 192 189
f 488 191 192
f 548 211 212
f 542 209 211
f 422 169 170
f 452 180 179
f 456 182 180
f 449 178 182
f 448 181 178
f 453 179 181
f 418 168 171
f 524 203 205
f 463 183 185
f 479 188 191
f 538 208 209
f 494 193 196
f 503 196 197
f 560 217 215
f 554 215 213
f 437 174 175
f 441 175 177
f 575 220 222
f 578 222 221
f 509 201 198
f 508 198 200
f 497 194 195
f 513 199 202
f 568 219 218
f 433 173 176
f 557 214 216
f 523 204 203
f 464 186 183
f 478 190 188
f 539 210 208
f 419 172 168
f 527 206 204
f 563 216 217
f 473 187 186
f 438 176 174
f 482 189 190
f 569 218 220
f 545 212 210
f 518 202 201
f 426 170 172
f 493 195 193
f 512 200 199
f 572 221 219
f 434 177 173
f 553 213 214
f 498 197 194
f 587 267 268
f 594 340 339
f 593 333 334
f 597 351 352
f 588 274 273
f 603 369 370
f 638 377 378
f 632 348 347
f 616 300 298
f 614 291 293
f 620 304 306
f 636 400 399
f 641 390 389
f 604 264 262
f 602 364 363
f 626 365 366
f 630 387 388
f 610 305 303
f 608 297 299
f 627 376 375
f 405 223 225
f 415 241 244
f 409 229 231
f 413 235 238
f 416 247 249
f 425 253 256
f 535 368 372
f 536 391 393
f 476 343 345
f 469 284 287
f 485 290 294
f 492 355 359
f 552 397 401
f 549 380 382
f 427 259 261
f 454 307 309
f 458 313 316
f 461 325 327
f 450 278 281
f 460 319 323
f 429 265 267
f 531 338 340
f 471 331 333
f 489 349 351
f 543 272 274
f 504 367 369
f 507 373 377
f 562 344 348
f 556 296 300
f 442 289 291
f 447 301 304
f 581 398 400
f 580 386 390
f 511 260 264
f 516 362 364
f 502 361 365
f 521 385 387
f 570 302 305
f 444 295 297
f 564 374 376
f 525 242 245
f 466 230 234
f 480 236 239
f 541 248 252
f 421 224 228
f 529 266 270
f 567 392 396
f 475 337 341
f 440 283 286
f 487 332 336
f 576 356 358
f 547 350 354
f 520 379 383
f 432 271 275
f 495 254 257
f 514 314 317
f 574 326 330
f 436 277 280
f 558 320 322
f 500 308 312
f 584 245 243
f 591 234 232
f 590 239 237
f 596 252 250
f 585 228 226
f 601 270 269
f 639 396 395
f 631 341 342
f 615 286 288
f 617 336 335
f 621 358 357
f 634 354 353
f 640 383 384
f 605 275 276
f 598 257 255
f 623 317 315
f 629 330 329
f 609 280 282
f 611 322 321
f 624 312 310
f 414 243 241
f 410 232 229
f 412 237 235
f 417 250 247
f 406 226 223
f 430 269 265
f 537 395 391
f 532 342 338
f 470 288 284
f 472 335 331
f 491 357 355
f 490 353 349
f 550 384 380
f 544 276 272
f 424 255 253
f 457 315 313
f 462 329 325
f 451 282 278
f 459 321 319
f 455 310 307
f 420 227 224
f 526 246 242
f 465 233 230
f 481 240 236
f 540 251 248
f 496 258 254
f 505 371 367
f 566 394 392
f 561 346 344
f 439 285 283
f 443 292 289
f 577 360 356
f 582 402 398
f 519 381 379
f 510 263 260
f 499 311 308
f 515 318 314
f 573 328 326
f 435 279 277
f 559 324 320
f 528 268 266
f 474 339 337
f 486 334 332
f 546 352 350
f 431 273 271
f 534 370 368
f 565 378 374
f 477 347 343
f 445 298 295
f 484 293 290
f 571 306 302
f 551 399 397
f 522 389 385
f 428 262 259
f 501 363 361
f 517 366 362
f 579 388 386
f 446 303 301
f 555 299 296
f 506 375 373
f 583 225 227
f 592 244 246
f 589 231 233
f 595 238 240
f 586 249 251
f 600 256 258
f 637 372 371
f 633 393 394
f 618 345 346
f 613 287 285
f 619 294 292
f 635 359 360
f 642 401 402
f 606 382 381
f 599 261 263
f 622 309 311
f 628 316 318
f 612 327 328
f 607 281 279
f 625 323 324
f 403 405 414
f 408 415 410
f 407 409 412
f 411 413 417
f 404 416 406
f 423 425 430
f 533 535 537
f 530 536 532
f 468 476 470
f 467 469 472
f 483 485 491
f 488 492 490
f 548 552 550
f 542 549 544
f 422 427 424
f 452 454 457
f 456 458 462
f 449 461 451
f 448 450 459
f 453 460 455
f 418 429 420
f 524 531 526
f 463 471 465
f 479 489 481
f 538 543 540
f 494 504 496
f 503 507 505
f 560 562 566
f 554 556 561
f 437 442 439
f 441 447 443
f 575 581 577
f 578 580 582
f 509 511 519
f 508 516 510
f 497 502 499
f 513 521 515
f 568 570 573
f 433 444 435
f 557 564 559
f 523 525 528
f 464 466 474
f 478 480 486
f 539 541 546
f 419 421 431
f 527 529 534
f 563 567 565
f 473 475 477
f 438 440 445
f 482 487 484
f 569 576 571
f 545 547 551
f 518 520 522
f 426 432 428
f 493 495 501
f 512 514 517
f 572 574 579
f 434 436 446
f 553 558 555
f 498 500 506
f 587 584 583
f 594 591 592
f 593 590 589
f 597 596 595
f 588 585 586
f 603 601 600
f 638 639 637
f 632 631 633
f 616 615 618
f 614 617 613
f 620 621 619
f 636 634 635
f 641 640 642
f 604 605 606
f 602 598 599
f 626 623 622
f 630 629 628
f 610 609 612
f 608 611 607
f 627 624 625
