v -0.86501256093628398 -0.24095798235514576 0.016810286815440278
v -0.85916878915008355 -0.20484413148998859 0.10292928681544028
v -0.86343784836431392 -0.1781919943256749 0.060754286815440317
v -0.85361583135298735 -0.29678216879046437 0.090072286815440328
v -0.8398620248915778 -0.11194058392119834 0.11147628681544031
v -0.8677069075785443 -0.15153985716136115 0.018579286815440299
v -0.84764316851141963 -0.33008175864290784 0.0059552868154403305
v -0.81361365692303456 -0.26077154867312069 0.16362428681544028
v -0.84038607292282719 -0.072021981845712957 0.03247728681544032
v -0.8097293446252205 -0.17215135113907626 0.1739452868154403
v -0.83455780680992475 -0.17927602422229283 -0.05375971318455966
v -0.8398651330737491 -0.38612962737616424 0.077330286815440297
v -0.82527362431895468 -0.27026700350246302 -0.05767271318455966
v -0.80704763594262996 -0.34857643351613432 0.15165328681544032
v -0.78235635277474114 -0.042102865807052581 0.096283286815440294
v -0.78133604198962903 -0.09011215068926863 0.17572628681544034
v -0.81532590211252298 -0.085867278626872032 -0.047669713184559703
v -0.82557793492224552 -0.41700709283464493 -0.0068477131845596784
v -0.8017388715852567 -0.35530088620820388 -0.067975713184559666
v -0.76520694127692512 -0.31333529419954503 0.22186528681544032
v -0.76944673845913292 -0.22825782679445747 0.23428828681544039
v -0.76543011386148496 -0.023498288352797658 0.0036752868154403262
v -0.76169256975768096 -0.14411097659940009 0.24373928681544038
v -0.78576554035524737 -0.21209774654479985 -0.10137371318455968
v -0.76362634691578524 -0.13324251314301427 -0.10760871318455967
v -0.82305881500218325 -0.47260150791132643 0.0639562868154403
v -0.79707910831515627 -0.43572536933166961 0.13994328681544033
v -0.76223618554708261 -0.28853800123773954 -0.11295171318455965
v -0.75630701228772235 -0.39859517240868364 0.20843728681544033
v -0.70136006958312136 -0.0057497463515927549 0.072407286815440286
v -0.7157354160780246 -0.035725200195554363 0.15919428681544029
v -0.72208139681010297 -0.073212196054759926 0.24069328681544039
v -0.72688913664792087 -0.057724626243719157 -0.078711713184559662
v -0.79872090639954374 -0.50076776172417081 -0.019797713184559695
v -0.7721708416402705 -0.43919726747141696 -0.079827713184559668
v -0.73101708552475053 -0.37053755525534154 -0.12266371318455968
v -0.72369123290301085 -0.36538237258500394 0.28221328681544039
v -0.73281031847542144 -0.28123092896213397 0.29704228681544037
v -0.73518461984943362 -0.19652750063201641 0.3101972868154404
v -0.67279851933808721 -0.013084652049717704 -0.01684271318455971
v -0.72350145507070407 -0.11185051194115039 0.31895628681544036
v -0.72035446206365938 -0.21264242877486089 -0.13757071318455966
v -0.67979343098876643 -0.1304732836159779 -0.13332471318455966
v -0.79877100518250532 -0.55208871708464669 0.04849028681544032
v -0.78133095172208644 -0.52135631131650451 0.12683828681544029
v -0.74323116866171623 -0.48347086634415753 0.1935892868154403
v -0.68538767773393505 -0.29610662825540784 -0.14894871318455966
v -0.71018155869847022 -0.44906101638404722 0.26562528681544034
v -0.61280322006346011 0.005577575977715743 0.051917286815440278
v -0.63687230060186251 -0.0054694165105544368 0.1379422868154403
v -0.65151477287992743 -0.034836819521139151 0.2208642868154404
v -0.66357948735847971 -0.059535028090811015 0.30555928681544037
v -0.63265201921336434 -0.066028118197445695 -0.089084713184559655
v -0.76237604557120997 -0.57693645526928194 -0.028601713184559674
v -0.7350034164609166 -0.52137175881019626 -0.088169713184559656
v -0.69338681691069348 -0.45361111531504955 -0.13029871318455966
v -0.64749473460095075 -0.37867401314078752 -0.15476671318455967
v -0.68487139201310876 -0.41858650112868639 0.34274228681544033
v -0.69782506968149793 -0.33434367171994755 0.35969128681544033
v -0.70499261857715168 -0.24927430016653351 0.37487728681544036
v -0.70441299005484159 -0.16246208114561383 0.38755128681544032
v -0.58020159242285996 -0.026031558701734958 -0.026070713184559668
v -0.67349191825729837 -0.084421394552714288 0.38677728681544038
v -0.63892908042200747 -0.21777807367217711 -0.15638371318455968
v -0.59234897754752847 -0.14466463476247354 -0.13501971318455966
v -0.76211294705450594 -0.61500400214546658 0.03980328681544032
v -0.74577688716781321 -0.60495930282799626 0.10670728681544028
v -0.71890874254587922 -0.56615900377534922 0.1731382868154403
v -0.68857617303596674 -0.52977662721847318 0.24390028681544035
v -0.60043996973820424 -0.30149452313857494 -0.16365571318455965
v -0.66447063894704872 -0.50072346800492085 0.32183928681544033
v -0.52237163528209163 -0.0034473390318658925 0.03870928681544028
v -0.55162856484947387 0.0087625920608648267 0.1189952868154403
v -0.57419747573647706 -0.01029402189268197 0.19979028681544031
v -0.5906929092238884 -0.03256407703546027 0.28127828681544037
v -0.59851708126381542 -0.047889998113477938 0.36639228681544039
v -0.5439317575517234 -0.085592100299511711 -0.088357713184559677
v -0.71707249297487918 -0.6337821581864902 -0.022653713184559721
v -0.68364930394086343 -0.59951391217365124 -0.081103713184559667
v -0.64482816338946036 -0.53732163728932014 -0.12615271318455967
v -0.60206957013297269 -0.46240956216303458 -0.15125971318455966
v -0.5585149777755184 -0.38352169529279917 -0.16059871318455968
v -0.64110954537036358 -0.47175285165142644 0.40120128681544037
v -0.66035395056329171 -0.38774995964370801 0.42038528681544035
v -0.67106876205808075 -0.30316101696866837 0.43707128681544033
v -0.67396326653923933 -0.21579067635328247 0.45026928681544037
v -0.6536799374341149 -0.11629878710389087 0.45283128681544033
v -0.49043828492668895 -0.047741087677460325 -0.029165713184559683
v -0.55299279575076088 -0.22777096196648239 -0.15596271318455968
v -0.50623521120793435 -0.16170412579976076 -0.13101471318455968
v -0.69647820822801954 -0.65406093075203908 0.050947286815440307
v -0.67246955141299025 -0.63118413412449204 0.13085828681544032
v -0.64797675507980923 -0.59690894485030555 0.20787928681544038
v -0.62774836912872367 -0.5717272271405478 0.2887772868154404
v -0.51307326436204004 -0.30587963860554107 -0.16282671318455966
v -0.60750255072257231 -0.5488714092802055 0.37234328681544032
v -0.4326182925989136 -0.024418121973759532 0.032738286815440332
v -0.46321049849160589 0.0065851461865348848 0.1044782868154403
v -0.49124100873027088 0.0023407378932510658 0.18250628681544034
v -0.5145396952787975 -0.013543626309117929 0.25786728681544041
v -0.53021114099324396 -0.017328507577950514 0.33658128681544036
v -0.58443904333882346 -0.0268017630478663 0.43533128681544037
v -0.45677901385199304 -0.10441982399647277 -0.089369713184559663
v -0.64039780095157439 -0.65459716270561907 -0.018178713184559714
v -0.5911088124260665 -0.60841233058367283 -0.07850771318455968
v -0.54983204367211214 -0.53893498122265759 -0.11787871318455967
v -0.51054391346854999 -0.4617715024901124 -0.13740371318455966
v -0.47011659572689357 -0.38520438974674748 -0.15032171318455967
v -0.57732872435929106 -0.51456495025863691 0.45311928681544039
v -0.61189401428284496 -0.43922727560311908 0.47819328681544032
v -0.63004168904753688 -0.35728242061590854 0.4939832868154404
v -0.634106466313758 -0.27196601935175524 0.50896728681544046
v -0.62729346522904572 -0.17967796830380156 0.51317328681544039
v -0.40131286637649766 -0.069857455309899841 -0.032664713184559713
v -0.56722595388537189 0.033846885020062334 0.38786928681544036
v -0.57834424722302591 -0.097085917708122874 0.48433128681544041
v -0.46390508980575917 -0.24144636461857691 -0.16231471318455967
v -0.42115840693899698 -0.16598225171947456 -0.14763571318455967
v -0.61244152924048512 -0.65716428035304941 0.069109286815440318
v -0.5890167217636384 -0.62953983989405238 0.15270128681544032
v -0.56724262425226124 -0.59852883914326993 0.23392128681544039
v -0.5483235939386869 -0.57738269299334322 0.31678928681544033
v -0.43164096517967765 -0.30473237942021125 -0.17234871318455966
v -0.52501154830221897 -0.5496096935650634 0.39347828681544034
v -0.34517334185370963 -0.050923841831345851 0.030019286815440305
v -0.37554383444468953 -0.011375187242583462 0.097474286815440292
v -0.4050348304892577 0.003056529817394682 0.16799728681544029
v -0.41955507293171834 -0.0093117389544328244 0.25384728681544039
v -0.46348969201966073 -0.0037605460558378656 0.31052228681544031
v -0.50217707075252471 0.066271435351087482 0.34486828681544041
v -0.53350032201209963 -0.014501617373998632 0.48507928681544038
v -0.57493054383921027 0.065452221810598454 0.4612542868154404
v -0.36893347318185488 -0.10559503519923651 -0.10412071318455968
v -0.55284385117090828 -0.64343640601959595 0.0035172868154402792
v -0.50448436686814691 -0.59126184202552923 -0.050109713184559673
v -0.46394108630149744 -0.52366265242318311 -0.087604713184559674
v -0.42430375169516077 -0.45151375525693865 -0.11376571318455966
v -0.37969869111053478 -0.39061824174205123 -0.14969471318455968
v -0.48367944724491596 -0.50996195765002161 0.45916728681544033
v -0.52726391784455551 -0.46106823606381853 0.52264328681544026
v -0.58202415654645034 -0.40559575975239442 0.52697128681544037
v -0.57702649296939079 -0.33023457088185881 0.55229228681544029
v -0.57202659326462924 -0.23952723656565084 0.55526728681544046
v -0.55230701769593449 -0.15189668490357044 0.53850328681544046
v -0.31114144012462142 -0.080271750951105628 -0.041666713184559667
v -0.5333539415229942 0.12003116263798363 0.40398128681544038
v -0.49955665082922063 -0.094911903106786419 0.49428228681544034
v -0.3399275621694916 -0.13445064124629197 -0.18384171318455966
v -0.52697925141991142 -0.63919332415369623 0.092548286815440306
v -0.50577111869163849 -0.61165702596058469 0.1770532868154403
v -0.48660407262445948 -0.58378146644945317 0.26079928681544035
v -0.46603255278480504 -0.57047019722046133 0.34061928681544035
v -0.3560958701167225 -0.33178850715533009 -0.20536571318455968
v -0.44962424984616267 -0.58432351468140686 0.40702128681544031
v -0.26052353779764154 -0.078449196420692688 0.027808286815440286
v -0.29355747737477644 -0.040261822035246919 0.099192286815440289
v -0.33602271340415757 -0.0074809266324523671 0.1562042868154403
v -0.33159017552627079 -0.014297188728432775 0.21739128681544034
v -0.39489264312082645 0.0058399545754280746 0.30064828681544037
v -0.4242282498611929 0.067912181111734637 0.32352828681544038
v -0.44343200066136634 0.14418945182985121 0.37178428681544035
v -0.4926156867073147 0.060660136736684189 0.49964528681544035
v -0.43489124432899262 -0.035428155417520368 0.4885082868154404
v -0.52855444406942265 0.13715093115841531 0.48450028681544038
v -0.28165488394382965 -0.084489755839321265 -0.11811671318455966
v -0.37970623883651822 -0.23381297567856141 -0.20912771318455967
v -0.46877056202222644 -0.61692210109334678 0.032602286815440307
v -0.42307405674553744 -0.56259875681579397 -0.017454713184559711
v -0.38337795686031928 -0.49810375307982391 -0.057477713184559659
v -0.34261461491787615 -0.43563205243318343 -0.10648571318455965
v -0.28976016165593066 -0.39564542321314511 -0.17612471318455966
v -0.39851125357926676 -0.56943515393818567 0.46111528681544039
v -0.44214840684876278 -0.49082555974934305 0.53487028681544047
v -0.48697704106340856 -0.39486184935807334 0.55795528681544027
v -0.50370070306005299 -0.2966267463156354 0.57550128681544033
v -0.49503221384408147 -0.20578583309151055 0.56345528681544033
v -0.52096876785147495 -0.085165556015425345 0.5759672868154404
v -0.21183049663939169 -0.070649916173709248 -0.043094713184559708
v -0.33159826132995585 -0.032126188100797426 0.29807928681544033
v -0.47320283007856534 0.18270770160592525 0.44613728681544035
v -0.45417279706218483 -0.084322438991340329 0.54627528681544035
v -0.32665399694534913 -0.18540957690315626 -0.26845771318455969
v -0.25696780769893712 -0.071459452382806377 -0.19859371318455968
v -0.44326852741819589 -0.61179645732355281 0.12004228681544032
v -0.42409296671017427 -0.58560885293649634 0.20699328681544032
v -0.40345948277994925 -0.56965867077762589 0.30141828681544031
v -0.41088269083400186 -0.63720690196235985 0.36358328681544033
v -0.29113135621119463 -0.35239837586593753 -0.25507221318455969
v -0.33141343440318238 -0.2781739424169406 -0.26981361318455965
v -0.414041581648943 -0.67303566657711156 0.44774028681544037
v -0.4020968248831206 -0.48962868087099032 0.45963528681544036
v -0.48099759598492142 -0.47628485617410382 0.59762828681544033
v -0.54939341690648913 -0.13935586023213264 0.60300728681544036
v -0.16683821050953068 -0.097477086100831958 0.015021286815440293
v -0.21584073240611631 -0.086975042668021099 0.11535728681544033
v -0.25789771772540115 -0.036812565972153544 0.17612228681544029
v -0.25919724893422758 -0.056254282919154019 0.25776628681544039
v -0.3702302133099345 0.020991648105288974 0.34744828681544032
v -0.39394757431503313 0.084084390128074948 0.40079628681544038
v -0.43840274766496634 0.1224145620873473 0.46806728681544035
v -0.43105895621265777 0.042067965593749646 0.47328328681544035
v -0.40400887445578559 -0.13190896843759412 0.50480728681544029
v -0.20477157687058406 -0.044893103894478426 -0.12995171318455967
v -0.29637913937949434 -0.12357001716016326 -0.26208291318455967
v -0.38674779478563248 -0.58365965850637602 0.063192286815440313
v -0.34413557392012389 -0.52784738754461424 0.014121286815440282
v -0.30512982652931653 -0.46703392131809063 -0.032865713184559719
v -0.2585657008777752 -0.42521037115424792 -0.092595713184559669
v -0.22522525222134077 -0.4012663604578825 -0.23727191318455967
v -0.33713174901244436 -0.63609366100316134 0.4967322868154404
v -0.32720442762359425 -0.52716610780360362 0.48922828681544034
v -0.37234890336952686 -0.48177615346759556 0.53160728681544045
v -0.39660535920245299 -0.51206798722564506 0.61489028681544045
v -0.44361901303021067 -0.41547778509435351 0.64060528681544038
v -0.42814273423949079 -0.35608655263465527 0.56653028681544026
v -0.43367709493864359 -0.25789302737895592 0.57035628681544037
v -0.48604145878348859 -0.17036284441282307 0.64961928681544046
v -0.53242903532042207 -0.090592538007305642 0.66215528681544034
v -0.4515348838302865 -0.087238493480024507 0.63786628681544033
v -0.14438736132724933 -0.036967630392782003 -0.066141713184559664
v -0.28053458888355493 -0.093969144219798365 0.33136028681544033
v -0.34826927596089285 -0.059570261726538287 0.36942828681544032
v -0.38819750598548353 -0.0037623334716444523 0.41995928681544031
v -0.37546544917490776 -0.093128232456504881 0.43547128681544039
v -0.42896080623345412 -0.16429164968178039 0.57920028681544045
v -0.29169089480603644 -0.1494260050704993 -0.33574961318455965
v -0.30789080293046622 -0.23305749170537882 -0.33858091318455968
v -0.24295019144001317 -0.030183817281968117 -0.27225481318455969
v -0.19777882310304018 -0.0018712861274790549 -0.20487371318455969
v -0.36184947482702179 -0.57767992947918345 0.15061528681544029
v -0.34433153285410972 -0.55253135450894542 0.24733628681544034
v -0.3441203276933259 -0.62029719972156006 0.32785228681544037
v -0.20307316578761242 -0.4135808910064917 -0.15725171318455966
v -0.34193503408327042 -0.70025283840225505 0.38778828681544036
v -0.23610370511824152 -0.37865689132192287 -0.31608041318455965
v -0.2865025147100384 -0.31389506425775021 -0.33114201318455966
v -0.30168299123817099 -0.61028767847466825 0.48069328681544038
v -0.33132075929099136 -0.72745228559579167 0.47834628681544039
v -0.33039007291509503 -0.43306932696559231 0.48647428681544042
v -0.45366991917212873 -0.49758629549203615 0.67308128681544033
v -0.077005925426208696 -0.056289149613690914 -0.019634713184559671
v -0.16635927225241487 -0.1548229347683403 0.068113286815440321
v -0.19392940751016724 -0.092460273842754057 0.20734828681544032
v -0.20869579416829795 -0.12255887002242132 0.29098428681544036
v -0.33954899469015803 -0.17436128725401265 0.46895428681544032
v -0.37573345098662836 -0.2144722782891246 0.53417028681544032
v -0.14029661588637379 0.013053160814254616 -0.13806471318455968
v -0.2665002537335146 -0.068036016259863774 -0.34032951318455967
v -0.3071345401403679 -0.54444016781885873 0.094088286815440292
v -0.26757796290753383 -0.48623832723264671 0.043858286815440295
v -0.2279832198907385 -0.43124485809826729 -0.010349713184559683
v -0.17479648006892715 -0.41172723099001091 -0.076018713184559661
v -0.15162701720462715 -0.43941100159428054 -0.22225071318455966
v -0.17876653488215566 -0.43832208558690544 -0.30075951318455968
v -0.26159144464557682 -0.70222126880928881 0.44672428681544035
v -0.29294863476707556 -0.46981431486065128 0.4212402868154404
v -0.27373914688278667 -0.55958950553281506 0.41546728681544037
v -0.37006420208490864 -0.3939526300240439 0.53965128681544039
v -0.37275841443672791 -0.42326008526675141 0.61324928681544044
v -0.39399295841012855 -0.4617397697020702 0.68992628681544033
v -0.36378581621115658 -0.30240974431761519 0.55067928681544043
v -0.48505704638460945 -0.11211927826832147 0.69922628681544041
v -0.074002059093651082 0.011728450028285042 -0.075859713184559668
v -0.088872581077327734 -0.13537728738869331 0.01613028681544032
v -0.16117970384223873 -0.15681696114810695 0.1522142868154403
v -0.31114330950017233 -0.13640607144672967 0.39804228681544035
v -0.23549019607136759 -0.16294156114766428 0.36671628681544038
v -0.27141003106621009 -0.10832452631599947 -0.41123811318455966
v -0.28417472178943626 -0.19247416923663452 -0.40993231318455969
v -0.27818066854364587 -0.27669739173925922 -0.40632201318455968
v -0.19804795409255427 0.048158510862863435 -0.27763481318455968
v -0.2406814795278876 0.017920795754826802 -0.34636461318455969
v -0.13936273368929686 0.063175810501317098 -0.21198571318455967
v -0.28430164065260832 -0.53751288653527651 0.18097028681544025
v -0.27856396403220801 -0.57903567748193274 0.32673028681544031
v -0.25959254643139007 -0.64908802159128687 0.37636228681544032
v -0.1207801978718975 -0.42821756106480807 -0.14391071318455967
v -0.24197593919237265 -0.35075535095264199 -0.39502541318455964
v -0.19747008446333178 -0.42010375356241741 -0.38135311318455967
v -0.28192024055494397 -0.38056833333710127 0.43319528681544034
v -0.31438734223257181 -0.34308936663490186 0.49923628681544036
v -0.0016819791785460947 -0.016904521194988809 -0.030185713184559704
v -0.0086327266751355103 -0.10347955831192369 -0.0022577131845596954
v -0.14830576177019228 -0.23535560768924102 0.10339428681544033
v -0.1034147770381279 -0.21675562447626034 0.037234286815440332
v -0.1544794925098511 -0.16665820430084655 0.23737828681544032
v -0.17513451232064844 -0.19989657779494474 0.31862528681544039
v -0.26572439255898589 -0.20525042926013082 0.44034628681544036
v -0.30417774739388892 -0.25211449269247782 0.50945528681544028
v -0.071637310782596136 0.063922662259387475 -0.14924771318455968
v -0.26013998958978757 -0.022780326060928335 -0.41673111318455969
v -0.27023878022879544 -0.51458805716403888 0.27131928681544032
v -0.23212085381894026 -0.49722305021866564 0.12427928681544032
v -0.19825751287359442 -0.43334921888979305 0.071580286815440319
v -0.1496686496581266 -0.38615230596067707 0.0061142868154402952
v -0.090836686983107706 -0.40530191657930809 -0.06732371318455968
v -0.076151328690756803 -0.47466707118473861 -0.20670371318455968
v -0.11406698743444525 -0.49017691397801549 -0.28464471318455969
v -0.14719861997068653 -0.48789772112889568 -0.36494511318455969
v -0.24624932214970438 -0.41912926722266403 0.36674528681544033
v -0.26240703749705396 -0.50043705211903189 0.35220228681544036
v 0.0017044812692313671 0.047811271859223514 -0.094401713184559671
v -0.021981596440982548 -0.19097780890234667 0.0099692868154402925
v -0.13370482922818561 -0.23107908444901762 0.18316328681544025
v -0.20531848878142661 -0.24512275059417341 0.39396728681544041
v -0.26095233826479447 -0.067232804854356898 -0.4863357131845597
v -0.26400862447796691 -0.15205835876703799 -0.48240871318455969
v -0.26385206487777468 -0.23672637855787512 -0.48076671318455966
v -0.24126785671465811 -0.31680329603685292 -0.47354471318455971
v -0.13563480965372393 0.10834174634100718 -0.28930041318455968
v -0.1956091998071296 0.093172295313132869 -0.35592161318455967
v -0.23836062936077695 0.06095366995248902 -0.42565571318455964
v -0.066896309967558909 0.10696656602370486 -0.22806461318455967
v -0.21371490766354534 -0.48660265233889194 0.21096728681544036
v -0.040078602372682015 -0.44796628882033451 -0.13024971318455966
v -0.20659268119945087 -0.39159179280065726 -0.46214171318455965
v -0.17017813791246073 -0.46657909337348707 -0.44747671318455967
v -0.2532935216873009 -0.29398773463206274 0.4554012868154404
v -0.21927054366482981 -0.33633993667944684 0.38735828681544032
v 0.077296348053738057 0.011358427511581837 -0.05249071318455964
v 0.070612966095807833 -0.072257099100432098 -0.014323713184559717
v 0.058590952137276081 -0.16295869782625869 -0.0045157131845596776
v -0.12052471799634423 -0.30621844516874885 0.046888286815440328
v -0.13539228656484653 -0.29405246545723845 0.13441028681544032
v -0.039253361882111093 -0.27639371020389963 0.013359286815440297
v -0.13978340593230523 -0.24042119137624418 0.26312828681544037
v -0.16761010405147797 -0.28702517984627141 0.32831928681544037
v 0.0056911080902917188 0.092704161258209683 -0.17275171318455967
v -0.25964170388552577 0.018126072538764193 -0.49575771318455963
v -0.21879938868268273 -0.45544469812546462 0.29457128681544037
v -0.16920393470261277 -0.43758560972429578 0.15425728681544032
v -0.15178769531190411 -0.36834228058823004 0.099699286815440324
v -0.062280273114728973 -0.35618455585962094 -0.0066767131845597016
v -0.005731280724433907 -0.40730909235289731 -0.058105713184559676
v 0.0058274631892563933 -0.49300595619946835 -0.19489271318455967
v -0.035556929945540314 -0.52266599190181684 -0.27160841318455969
v -0.078530266358896608 -0.5385817310362242 -0.35025001318455967
v -0.11787158721068507 -0.53459211828726794 -0.43290571318455967
v -0.18901920891946816 -0.37963208491690525 0.31893328681544036
v 0.08005880469565721 0.06739932988923375 -0.12489371318455966
v 0.044328501187896163 -0.25249364735886598 -0.00085071318455970379
v -0.12805089578756329 -0.29342504972168471 0.22535228681544034
v -0.25733655796407473 -0.028443251662589819 -0.56329171318455962
v -0.24559773148069722 -0.11212517394472406 -0.55264871318455966
v -0.24287469268399423 -0.1951503658492999 -0.55110071318455967
v -0.23023407529961146 -0.27656075041639083 -0.54937771318455964
v -0.20210911035510171 -0.35523941753887139 -0.54381471318455965
v -0.059226817067219009 0.14681864740788902 -0.30706141318455965
v -0.1259841349794249 0.1450650607494432 -0.37116601318455966
v -0.18239473421475619 0.12403888103293642 -0.44074471318455966
v -0.23475987286272681 0.098862686262033983 -0.5091147131845597
v 0.011965283648368519 0.13328863496511428 -0.2502501131845597
v -0.16591712514687204 -0.41811653620796502 0.24215128681544035
v 0.044538108721261099 -0.45352331398171036 -0.12019571318455965
v -0.18123645810666639 -0.4299152056951131 -0.52509371318455966
v -0.150790566189174 -0.51087637386602314 -0.51239771318455962
v 0.15486371257068218 0.027761656397856549 -0.090280713184559658
v 0.14923112552357973 -0.046893498622790297 -0.040905713184559711
v 0.13756188398539362 -0.13490590753206555 -0.023085713184559709
v 0.12485328913482255 -0.22510468589365998 -0.01488771318455967
v -0.13456670111621394 -0.36532178845084495 0.18644728681544032
v 0.023998396182684095 -0.33823483092363282 -0.012618713184559704
v 0.084458310997434838 0.1114433243981407 -0.20142671318455968
v -0.26366061593498347 0.055772051155725699 -0.57776171318455971
v 0.08094288322006124 -0.3976520972445432 -0.053965713184559644
v 0.091531225777075592 -0.48499965403862483 -0.19303971318455967
v 0.051445043804104446 -0.52667630730912918 -0.26580431318455966
v 0.008280879255143675 -0.5578756119039473 -0.34220431318455968
v -0.035524939573012809 -0.56747891123515282 -0.4233529131845597
v -0.081511532870073233 -0.57256236763343704 -0.50370771318455965
v -0.14936507293958218 -0.34092955029733918 0.27323528681544035
v 0.15815693769150316 0.082568405291615909 -0.16030871318455966
v 0.10884944762104701 -0.31720329891085997 -0.017510713184559712
v -0.23889126500175123 -0.074006978658787803 -0.6257677131845597
v -0.26454922170305678 0.0045300846926893401 -0.64490171318455969
v -0.21712677188699972 -0.15359979865844564 -0.61410071318455972
v -0.20771747329919166 -0.23412978787627411 -0.61773271318455969
v -0.18481146827369177 -0.31103149130585928 -0.61678171318455965
v -0.16999298374403538 -0.45879310757694758 -0.56888571318455972
v 0.021860070066693188 0.16991960617440299 -0.3269364931845597
v -0.045607253302781037 0.1774520658894494 -0.3889428131845597
v -0.10669780119076033 0.16388582603654606 -0.45707671318455967
v -0.16635460115479114 0.14714310988110652 -0.52696771318455971
v -0.22480103728017881 0.12802857748510266 -0.59639671318455967
v 0.092126292628151502 0.15149916720179407 -0.2743806131845597
v 0.12949918420748277 -0.43505297694568024 -0.12353271318455966
v -0.13731821425302715 -0.54789065195365572 -0.58243171318455977
v 0.2319483223288453 0.043002812634563126 -0.13005571318455966
v 0.22492562315190037 -0.027195678469378259 -0.080638713184559674
v 0.21341314313441459 -0.10914090394351426 -0.055421713184559657
v 0.20116150554510984 -0.19565943906975375 -0.042385713184559692
v 0.18864500958611694 -0.28570857029353908 -0.037392713184559667
v 0.16465845464451709 0.12991381331931878 -0.23252741318455966
v -0.26627443888713043 0.087766524033628057 -0.66510171318455968
v -0.17173877267457968 -0.3867090605552938 -0.62398271318455967
v 0.16459722020096265 -0.37119516897828769 -0.064498713184559658
v 0.1748177690293051 -0.46182726725835327 -0.19910671318455966
v 0.13782862831777129 -0.51102046384510058 -0.2667401131845597
v 0.098456367206057632 -0.55189019828210217 -0.33908241318455967
v 0.05590913377551604 -0.57361916126718282 -0.41770251318455964
v 0.013606198680066961 -0.57981189953956458 -0.49781671318455967
v -0.092824940241679726 -0.58319187720662891 -0.58147571318455971
v 0.23903042000424504 0.10214164760377853 -0.19402871318455966
v -0.20863589223957427 -0.11521253168288541 -0.6817927131845597
v -0.25051105490422554 -0.046835861187613403 -0.70698571318455972
v -0.27558772745840981 0.029369200727263456 -0.73173371318455971
v -0.17639096627273371 -0.18776099292441256 -0.67186371318455973
v -0.1566867625053848 -0.26765727833409159 -0.6792947131845597
v -0.15035815954564402 -0.33910344563361905 -0.68870871318455973
v -0.16984343585895767 -0.43624391441200111 -0.63726671318455974
v 0.10497990113900976 0.18481386085563983 -0.34636931318455966
v 0.03849618743824007 0.19532613147402073 -0.40660151318455967
v -0.023911709705482093 0.19005553529345487 -0.47330671318455964
v -0.08335309077587949 0.17407174423989691 -0.54182571318455963
v -0.14397333950117469 0.15989884562164136 -0.61265371318455975
v -0.20538265471900388 0.1476801373933837 -0.6849937131845597
v 0.1773346726089943 0.17426118391913076 -0.30908341318455967
v 0.21031961960563608 -0.40550341116117311 -0.13640971318455966
v -0.022780553857692315 -0.58932750999638073 -0.57687471318455974
v -0.1591560835471825 -0.51405470052841296 -0.65289471318455972
v -0.12043310107616403 -0.57968486529515117 -0.6600677131845597
v 0.31289812921994253 0.066553502439621048 -0.15835271318455968
v 0.30392436344143203 -0.0051138859092816347 -0.11348871318455966
v 0.29156053329240939 -0.083931402604849506 -0.087752713184559655
v 0.27664869165832662 -0.16646755619610934 -0.075463713184559661
v 0.2620127796393823 -0.25193032856293418 -0.070828713184559661
v 0.24189779769815176 -0.33646767722318005 -0.088625713184559668
v 0.24942383918365493 0.15710613149802677 -0.26636801318455966
v -0.26045798192912778 0.11411223584059393 -0.75498271318455967
v -0.16890738245440773 -0.40931924857797763 -0.7084677131845597
v 0.25665009050830256 -0.4330765954338896 -0.20903871318455966
v 0.22243483146776541 -0.48573579612844009 -0.27205771318455968
v 0.18617215537869539 -0.53057997568230397 -0.34065771318455967
v 0.14674303119944607 -0.56121295347515554 -0.41557591318455966
v 0.10481700212255027 -0.57168613598303197 -0.49383571318455965
v 0.063691026581198573 -0.57654750983947844 -0.57190771318455969
v -0.052378229300522883 -0.59779035380805912 -0.65675471318455969
v 0.32137154903152532 0.12995777521911656 -0.21855471318455968
v -0.15654425792666338 -0.13648944321369658 -0.72497171318455966
v -0.22084148963649514 -0.09786562636279221 -0.76475671318455962
v -0.2635144963283359 -0.032146435673328366 -0.79419971318455973
v -0.28196656877273568 0.049303274908088779 -0.8199667131845596
v -0.12907468064684274 -0.21042241787364085 -0.73341871318455976
v -0.091780434002904809 -0.29908504441493566 -0.73487871318455977
v -0.15345549859669749 -0.35812903705577515 -0.76976971318455967
v -0.17086817531345638 -0.48152612819733176 -0.7255367131845597
v 0.19247679193309117 0.19453967842377312 -0.37056571318455966
v 0.12345155948129119 0.20559484906809083 -0.4213474131845597
v 0.062166974775412914 0.20470882004597807 -0.48847471318455971
v 0.0029372195277951318 0.19286050677752936 -0.55582271318455967
v -0.054008038710852385 0.17373397316231964 -0.62356971318455967
v -0.10958455885909596 0.16114365496888711 -0.69565371318455971
v -0.16157087767834449 0.15827131217711526 -0.77244671318455971
v 0.26719469976527854 0.20555031483502295 -0.35585951318455966
v 0.2888344905823883 -0.37301123400260222 -0.15388271318455968
v 0.026127880440878049 -0.58200187919265978 -0.65011171318455974
v -0.14970866634649033 -0.55565094395586767 -0.73752771318455967
v -0.086706670950878209 -0.60037692148338706 -0.73800471318455974
v 0.39484993859396444 0.097317036068318319 -0.17560171318455967
v 0.38665996738974995 0.024928998661063462 -0.12878871318455967
v 0.37460215313418543 -0.055242103655346764 -0.10275871318455967
v 0.35770924762254086 -0.13747335615933479 -0.094772713184559654
v 0.33830499273743864 -0.21998502644883983 -0.097927713184559673
v 0.31669407241411629 -0.30117953800312541 -0.11476771318455967
v 0.33247502352161962 0.18548147236049778 -0.2915039131845597
v -0.23672969798116439 0.1322580258256269 -0.84559971318455962
v -0.17664905405754006 -0.43440941415712947 -0.79477971318455976
v 0.33889842501896938 -0.40442015289086886 -0.21760871318455968
v 0.30652647042998027 -0.45828518180656169 -0.27746591318455965
v 0.27200525844716106 -0.50348548460684461 -0.34414721318455965
v 0.23457591206710307 -0.53629250397102401 -0.4163145131845597
v 0.19435224275760235 -0.5535680746788163 -0.49215571318455964
v 0.15258548429250049 -0.55975823980729533 -0.56906571318455967
v 0.11167114410091747 -0.55619564978212832 -0.64598471318455974
v -0.0071522124258290021 -0.59233559937821512 -0.72927571318455975
v 0.40248578289622661 0.15904958510682482 -0.23871661318455967
v -0.16149706520723545 -0.12680762229810882 -0.8139547131845597
v -0.092953576595087392 -0.12460135482422234 -0.75344171318455966
v -0.22712368483979317 -0.09346600639765211 -0.85350471318455967
v -0.26978033986663608 -0.022541813630085727 -0.8818567131845596
v -0.2742218164031105 0.066471133858557463 -0.90776771318455962
v -0.056646266598005438 -0.21623744674945775 -0.76745571318455963
v -0.09440010935060375 -0.32089738822051189 -0.82123271318455959
v -0.1597547417846093 -0.3695103724475271 -0.85940971318455972
v -0.17082784968298273 -0.51534524751368194 -0.81169571318455969
v 0.20761773252127932 0.21481895432566261 -0.4320477131845597
v 0.14871257152250197 0.21335410596896759 -0.5022197131845596
v 0.090731980955087915 0.20500776979949192 -0.57032671318455974
v 0.035155595780463428 0.18641686621946729 -0.63602271318455972
v -0.017352984873609256 0.15376414108518871 -0.6979777131845597
v -0.058956959797250741 0.14011666635346592 -0.76944971318455968
v -0.16962680526624396 0.15290181395954222 -0.85515671318455966
v 0.34949451201430526 0.22513413603454796 -0.37473641318455964
v 0.36935243492925374 -0.34237714566697375 -0.16646671318455966
v 0.084466317731875656 -0.53831397138690251 -0.73618371318455966
v -0.12301832355933828 -0.58732373860228804 -0.81982071318455962
v -0.038965702618356204 -0.59888246563391145 -0.81194171318455965
v 0.47657838044586343 0.12687210457544168 -0.19568571318455966
v 0.47028639819000562 0.057130899794537837 -0.14160571318455967
v 0.45973201542472697 -0.024064331182742982 -0.10878871318455965
v 0.44269052871411751 -0.10851726798512146 -0.09805371318455966
v 0.42116257371378341 -0.19158077229583534 -0.10527271318455966
v 0.39691324466282241 -0.27096415270469815 -0.12792271318455967
v 0.41304922427659962 0.20927436875198774 -0.31294441318455968
v -0.20661328514144917 0.13058590226561761 -0.93046471318455959
v -0.015402498566466472 -0.3039240490158075 -0.76226871318455969
v -0.17981566491202192 -0.45914151808494513 -0.88215571318455965
v 0.29112935545305607 0.2273978938795656 -0.44521371318455971
v -0.08363653584268245 0.13930440025313101 -0.8496717131845597
v 0.4233261551292995 -0.37988590064187489 -0.22006771318455967
v 0.39176126969393599 -0.43324245401118822 -0.27899991318455969
v 0.35786317181269112 -0.47695633364950835 -0.34519281318455969
v 0.32102572135730911 -0.50803735642784176 -0.41685361318455971
v 0.28147056636876566 -0.52747827666923719 -0.49172271318455968
v 0.24056999024679795 -0.53755890824127328 -0.56769671318455961
v 0.19846157997395061 -0.5354597138020738 -0.6444967131845597
v 0.15270181213689946 -0.50020707043311252 -0.71561471318455971
v 0.037987946485141783 -0.56863622457248864 -0.78814771318455967
v 0.48227728919598478 0.18344193323929564 -0.26341861318455967
v -0.15302380401020593 -0.12286770921570279 -0.90352171318455965
v -0.088778263795015203 -0.10627534819780333 -0.84700171318455975
v -0.011364223478773194 -0.13812482161315603 -0.77155671318455976
v -0.22436261184632023 -0.086554699883344258 -0.94114871318455973
v -0.26103279529470336 -0.0091193899666019429 -0.96880871318455974
v -0.2410073459870736 0.071203155861064293 -0.98683871318455973
v 0.029952189562336307 -0.21125556343290267 -0.78150371318455969
v -0.091172900674515125 -0.32406334927064789 -0.91095871318455957
v -0.013918596081344464 -0.32838340170500691 -0.85400671318455967
v -0.1577213643322172 -0.38435939453573559 -0.94831371318455959
v -0.15305928216590503 -0.54900207382322941 -0.89749571318455956
v 0.23471081622728215 0.22161906868496045 -0.51570171318455971
v 0.17842009045585042 0.21292451567025805 -0.5846877131845597
v 0.12353682428596222 0.19635051740414211 -0.65142771318455972
v 0.072955935871272609 0.15365967149801474 -0.70659271318455974
v 0.020990491352112284 0.091906785055953844 -0.74582971318455971
v -0.022318855758553302 0.082152101829529645 -0.82031171318455964
v -0.11143723134056506 0.13288938140405432 -0.93190971318455973
v 0.37488217144619318 0.23946147830624892 -0.46192671318455969
v 0.43096939083947539 0.24015001351219945 -0.39568441318455971
v 0.45303280929233614 -0.31770971539030335 -0.16863771318455967
v 0.10235163584002108 -0.43554925472709544 -0.77603071318455963
v -0.072239727708975909 -0.59219366320905165 -0.89833771318455957
v 0.016648835222670105 -0.5707314158591863 -0.87784271318455964
v 0.077751303969217256 -0.51219438595437117 -0.83688671318455965
v 0.55694139731284631 0.14959777167317595 -0.22846281318455969
v 0.55390033251464033 0.084718336187861232 -0.16816371318455967
v 0.54540298708858037 0.0062762551420333934 -0.12534771318455967
v 0.52932253469983459 -0.07923813195150349 -0.10456871318455968
v 0.50635907684695025 -0.16456726845626843 -0.10654971318455966
v 0.48027784422141706 -0.24523223838735331 -0.12883471318455966
v 0.49075667085017194 0.22588251229711048 -0.33935071318455967
v -0.041730341105325336 -0.070994092722055813 -0.77780671318455963
v -0.15685379155548332 0.10330682213673087 -1.0062537131845597
v 0.077008852739780059 -0.28042911322011982 -0.77981871318455975
v 0.048234332095054844 -0.35616326887710381 -0.78218271318455967
v -0.16284365546105573 -0.48585927668641316 -0.97147371318455966
v 0.32040416035227492 0.23083950282200438 -0.53035571318455965
v -0.037969334466458698 0.083795592083044823 -0.90468471318455967
v 0.5075623446506623 -0.35673222117356951 -0.21860671318455968
v 0.47734117777910468 -0.41088876543113323 -0.27745261318455966
v 0.44461635239229702 -0.45441582790269169 -0.34359041318455968
v 0.40781763871853749 -0.4832769037308145 -0.4157760131845597
v 0.36792436870739842 -0.50015388906049796 -0.49067271318455963
v 0.3267802378129675 -0.51099608814287734 -0.5662637131845597
v 0.28480002825911954 -0.51414503762087826 -0.6432187131845597
v 0.23609196204536895 -0.48609265658616235 -0.71191571318455971
v 0.1820163115022965 -0.41991365593381408 -0.74714971318455969
v 0.55831866083202175 0.19992355681557333 -0.29954041318455965
v -0.13853692187109809 -0.10322506491465215 -0.99097771318455963
v -0.068940294358496371 -0.086761167687319604 -0.93387871318455962
v -0.031428889674081639 -0.042313814159780194 -0.86124271318455969
v 0.035675793244093229 -0.064597359018065459 -0.77323771318455969
v 0.072986787069781012 -0.13294337891081037 -0.79836971318455974
v -0.2093375614256171 -0.055964924259856441 -1.0161207131845595
v -0.19701997930877546 0.021829918988554742 -1.0414347131845596
v 0.11521921505831004 -0.20546887197499927 -0.81239471318455969
v -0.0001482387694719256 -0.34036243720471882 -0.94166071318455957
v -0.079533729953605733 -0.3432392442218497 -0.99841371318455963
v 0.057999365682061294 -0.38725706189186215 -0.8683667131845596
v -0.14772687855337871 -0.45001452823125548 -0.99608571318455974
v -0.10769171143893438 -0.55599328772521506 -0.97542571318455962
v 0.26583497545804691 0.22047773386204572 -0.59842771318455967
v 0.21174976449136526 0.20365635351768829 -0.66649371318455963
v 0.16146903727992104 0.15972133991704934 -0.72232871318455971
v 0.11657867383081574 0.087136129816042962 -0.74669471318455971
v -0.000973635599904904 0.0085587755942055921 -0.78013771318455971
v -0.016876774942807399 0.010452048960686522 -0.85352571318455972
v -0.062303546117546571 0.072214275261540395 -0.99057671318455953
v 0.4592428832118961 0.24560176131145312 -0.48110871318455967
v 0.40665063335269502 0.23822219420034441 -0.54659471318455966
v 0.51116016580319112 0.24429610694080017 -0.41925891318455966
v 0.53507555614517022 -0.29302223174288067 -0.16757071318455966
v 0.076212717214877435 -0.4276875454277051 -0.86406871318455969
v 0.1312476148528027 -0.34892784886288142 -0.76994571318455973
v -0.010972952051795271 -0.55958278753754143 -0.96590371318455959
v 0.062496255785611354 -0.50485071160729789 -0.92728571318455955
v 0.62991212158045884 0.16255816155388775 -0.28005461318455965
v 0.63285021558652577 0.10296905592532918 -0.21484371318455966
v 0.62892257487510261 0.02941139833176537 -0.16372371318455967
v 0.61544844490907669 -0.05288341531349805 -0.13198371318455968
v 0.59251235104047106 -0.13749184936761888 -0.12152671318455965
v 0.56302920788222321 -0.21883080951926004 -0.13280771318455967
v 0.5590076250721091 0.23147230744497044 -0.37447401318455964
v -0.11767042239698167 0.036019080913841095 -1.0461177131845596
v 0.1633887006822641 -0.278632167354675 -0.81088071318455968
v -0.13260980496971309 -0.41417073997574272 -1.0206977131845596
v 0.35379598170996174 0.22828144273351286 -0.61243771318455975
v 0.073639448716973255 0.013356747115841727 -0.7646167131845597
v -0.025431143382613042 0.0016225563027782441 -0.93468671318455954
v 0.58603807302855981 -0.3290150016961676 -0.21784271318455967
v 0.56080818713083647 -0.38599929828380536 -0.27560321318455966
v 0.53072157456775515 -0.43172913766116405 -0.34111411318455964
v 0.49513140622783747 -0.46091967999145184 -0.41380841318455969
v 0.45483160351834229 -0.47546903322710338 -0.48884771318455966
v 0.41280333250299794 -0.48448651089332323 -0.56413271318455971
v 0.3703202415056901 -0.48942810095265221 -0.64008071318455961
v 0.3227409061072759 -0.47224922182608475 -0.71304771318455962
v 0.26763870092517583 -0.40988011022370785 -0.74974571318455974
v 0.21488788955517299 -0.34922501499827452 -0.79087171318455973
v 0.62205409507069664 0.20586323091501307 -0.35503711318455966
v -0.13226276187542574 -0.043131715647127478 -1.0461137131845597
v -0.058120212134190094 -0.026492182059060898 -1.0129237131845596
v 0.11452571595238634 -0.052920538650508053 -0.80639471318455969
v 0.15530111226923218 -0.12614574694085129 -0.8330897131845596
v 0.20041095350845831 -0.20241644091082781 -0.84250071318455966
v 0.05944783362689568 -0.4108067210319174 -0.94823571318455957
v 0.0090949192945671553 -0.38425401451749253 -1.0191477131845597
v -0.063529597649477826 -0.39716259079855953 -1.0463917131845597
v -0.060045110186763687 -0.51808880324901296 -1.0303257131845596
v -0.10693950237307148 -0.45381508561540429 -1.0414267131845596
v 0.30112252347127644 0.20893520531696402 -0.67831871318455972
v 0.25128320818160987 0.16162970131946691 -0.73258871318455965
v 0.20473945594474294 0.089167464859962409 -0.75881471318455973
v 0.15655947318865679 0.025224987533671417 -0.79720071318455976
v 0.49284761433566626 0.24352356519483942 -0.56395071318455969
v 0.54448097244011862 0.24167059383580497 -0.49876471318455967
v 0.44169210222414779 0.23833306949517058 -0.62850171318455972
v 0.59461029813849264 0.2302592870295565 -0.43279371318455967
v 0.60890924350733788 -0.26313804844291921 -0.17277371318455967
v 0.038130089916036114 -0.47562393173307388 -1.0056127131845596
v 0.68819606593311544 0.1620339443313264 -0.35229831318455967
v 0.69806743346949596 0.10886218723264018 -0.2816545131845597
v 0.70211632276556757 0.043516514478293578 -0.22305971318455967
v 0.69618060959390082 -0.033906638069918393 -0.18141371318455968
v 0.67684966687512704 -0.11629172014406268 -0.16132671318455966
v 0.64624510292250859 -0.19323107298459602 -0.15826971318455968
v 0.25014351434667026 -0.27735111073837526 -0.83286871318455957
v 0.39145945332491183 0.21855820197181963 -0.69141971318455964
v 0.65108143535720941 -0.29311527604284277 -0.21928771318455967
v 0.63696167027849437 -0.35254916104224271 -0.27469181318455965
v 0.61341855115072275 -0.40251749669328829 -0.33947621318455967
v 0.58099385446585949 -0.43515282322596771 -0.41240821318455967
v 0.54119984845004321 -0.45000778193385993 -0.48770971318455969
v 0.49899178275395195 -0.45828930928057782 -0.5622407131845597
v 0.45619525956366802 -0.46381888935717425 -0.63634771318455963
v 0.40930103855097011 -0.45141406220754265 -0.70777071318455964
v 0.35456773634863248 -0.39846034186583684 -0.75031071318455966
v 0.30247683174382411 -0.34389452353189487 -0.7986927131845597
v 0.6630370787601515 0.19492016000644835 -0.43055571318455965
v 0.19862570024215961 -0.044487348716687802 -0.83592071318455963
v 0.24266582287231162 -0.12063021492207288 -0.85489571318455959
v 0.28930167303033727 -0.19643576582831043 -0.85229271318455968
v -0.018399181623368344 -0.45725949827531981 -1.0477057131845597
v 0.3489525425816371 0.16568442718636223 -0.74392471318455966
v 0.29272297669680158 0.089531345433862208 -0.76266171318455966
v 0.24528279010336715 0.0325751024750775 -0.81432671318455974
v 0.52851359271949294 0.25196455914842159 -0.64545171318455963
v 0.58029499778099924 0.24206255541906413 -0.57831371318455971
v 0.6262688306443277 0.22002383898968159 -0.50782171318455971
v 0.47766471081893502 0.24093764160709974 -0.71034071318455971
v 0.69495812014325664 -0.24728068416960935 -0.21867171318455966
v 0.72326316758518161 0.13882404931382036 -0.43378571318455966
v 0.74978460880470776 0.10396825094914047 -0.35929611318455967
v 0.76061175525518154 0.046932148173968347 -0.29868341318455965
v 0.76279126473106695 -0.021307193747349462 -0.24970441318455969
v 0.74881841386759918 -0.10096053434212478 -0.22239071318455966
v 0.72470531503582047 -0.18139347123702421 -0.21460471318455968
v 0.33863753284813369 -0.26780273142758987 -0.82901371318455963
v 0.43338846631649064 0.20966289705562874 -0.76956671318455971
v 0.70086955554354013 -0.30695069068467751 -0.27518111318455968
v 0.68897198966425344 -0.36088751767837485 -0.34000891318455967
v 0.6618883605368997 -0.39940498917238587 -0.41234221318455966
v 0.62427898777365143 -0.41926366955037264 -0.48783771318455971
v 0.58413107570670675 -0.43098854527103042 -0.56217671318455964
v 0.54270738305833788 -0.43938452313983661 -0.63466871318455964
v 0.49741578502267503 -0.43261054606754495 -0.70337371318455966
v 0.44780452436179341 -0.38638127443540632 -0.75107871318455977
v 0.38704126656256732 -0.32290374582389847 -0.77513971318455965
v 0.69382862005387314 0.16990995595376163 -0.51043471318455969
v 0.28921029164066148 -0.040837718952388469 -0.83994771318455963
v 0.33173046283687857 -0.11532127720610229 -0.84608571318455961
v 0.37282502172992715 -0.18734247768502915 -0.83351671318455955
v 0.41489939387440156 0.15475518683901907 -0.81787571318455976
v 0.37976756602830952 0.09174863389257909 -0.77814771318455978
v 0.33577321604537402 0.025806860618128924 -0.80187771318455958
v 0.62834059026973177 0.24420239546136829 -0.65989971318455964
v 0.56247281675516358 0.26121460043995798 -0.72837371318455968
v 0.66442460700343708 0.20568744821537471 -0.58694771318455974
v 0.50990489649684279 0.24818320662675364 -0.79503871318455976
v 0.74609696317619212 -0.24472604167940037 -0.27741701318455969
v 0.74230983014265006 0.100046058965919 -0.5118677131845597
v 0.76892020189324162 0.067640775518688967 -0.43949071318455968
v 0.80961170772594793 0.043583791737948185 -0.37745121318455965
v 0.82971040035542409 -0.013989548136301266 -0.32731100318455969
v 0.80593678080810738 -0.087600658562034153 -0.29741291318455965
v 0.77787977219883897 -0.16751366538757809 -0.28285231318455967
v 0.41608558156402786 -0.2515206212418522 -0.80226871318455961
v 0.46202021208082822 0.21340269377287685 -0.85654171318455963
v 0.74895732274297566 -0.30180250520114205 -0.34354861318455965
v 0.73175595199935095 -0.34707125103687697 -0.41558971318455967
v 0.70007341376566601 -0.37716650102871274 -0.48997271318455971
v 0.66565779806478953 -0.39988467940924299 -0.56452871318455966
v 0.628798844476682 -0.41856784242811457 -0.63755971318455962
v 0.58660336236682109 -0.4214400434162775 -0.70675971318455977
v 0.54132142997770483 -0.40301591876658244 -0.76776871318455964
v 0.46554314661644436 -0.30756201668384664 -0.78066671318455971
v 0.71509697295899999 0.13177924993219703 -0.58773571318455975
v 0.37722463568489062 -0.042000037099055476 -0.81828171318455967
v 0.41234819800623179 -0.11459015188001764 -0.81848471318455962
v 0.44866913659316365 -0.1814547148788194 -0.80199971318455976
v 0.42916490411196029 0.087295605905973683 -0.85674671318455964
v 0.43441564987532688 0.15050576279494593 -0.90866371318455963
v 0.42926415479713653 0.027274906024170431 -0.79273271318455962
v 0.64294040303846234 0.2472537545221824 -0.74192471318455966
v 0.69800614248400161 0.1629675149316302 -0.66601971318455977
v 0.5967428202354722 0.26220677656325686 -0.81383071318455968
v 0.54017538584483915 0.24951660365421274 -0.8818097131845597
v 0.79147848066783777 -0.2277425876091751 -0.34889801318455965
v 0.51123090222281786 -0.35356832399765176 -0.81320671318455973
v 0.77823235146453962 0.020549830352428244 -0.51207971318455969
v 0.74612708414225259 0.052780771331625287 -0.58398971318455972
v 0.80251517032295971 -0.018805912920176249 -0.44065071318455967
v 0.89285240143981015 -0.0049462042442787735 -0.41078641318455966
v 0.85782511892648661 -0.082416295045386098 -0.38631091318455968
v 0.81877697565246277 -0.14868329155504612 -0.35871421318455965
v 0.49214371847566085 -0.23853944276949118 -0.79806171318455976
v 0.48600604552016491 0.20859715236525217 -0.94448571318455965
v 0.69141112604556165 0.19022665538353561 -0.74629771318455962
v 0.78021758192191382 -0.27515589224441478 -0.42114711318455966
v 0.75938815659226866 -0.31639918010361368 -0.49425371318455968
v 0.7372680313665948 -0.35528693664729344 -0.56809071318455961
v 0.71192908539641575 -0.39050196409468219 -0.64202271318455972
v 0.67394012674390402 -0.41107530211984838 -0.71486071318455968
v 0.62670768302461044 -0.41466448479892276 -0.78426971318455974
v 0.57514871902515208 -0.39800254009542102 -0.84695871318455973
v 0.50581346015717754 -0.28628338448318508 -0.85427871318455972
v 0.71855763147176399 0.083066770220545816 -0.65954671318455971
v 0.45318269050911497 -0.052157371615557391 -0.79284871318455963
v 0.49224421201702762 -0.12150824552444826 -0.78660671318455977
v 0.53096433808040666 -0.1832404786549291 -0.79627171318455969
v 0.47837592645080484 0.022227292623964057 -0.87866471318455974
v 0.45292821685440521 0.070113142040021281 -0.94633171318455966
v 0.45906770607798575 0.13793886910633096 -0.99246571318455956
v 0.67640993402275651 0.22314148377280302 -0.82478771318455957
v 0.71118861314763804 0.11218112092494403 -0.73954271318455977
v 0.6356961073298707 0.24594953763589394 -0.89988971318455957
v 0.57139585943542981 0.23481306235358612 -0.96672971318455958
v 0.80686677879493041 -0.19377940220568685 -0.42890371318455967
v 0.53238320270026251 -0.35120591981718285 -0.89828671318455955
v 0.77033718805053464 -0.031064649699938385 -0.57988171318455972
v 0.79961823285353484 -0.065500631078210358 -0.50971871318455964
v 0.72725675581093463 -0.0017259904632039302 -0.64706871318455972
v 0.81448129156457305 -0.10922548308438911 -0.43701371318455967
v 0.54327445930965113 -0.1969554208407826 -0.88754471318455974
v 0.50583001089124269 -0.0082949352460213177 -0.80228971318455966
v 0.51760808076855969 0.16606366969384118 -1.0323937131845597
v 0.71132003003044109 0.13920694662191235 -0.82050671318455959
v 0.79282247872107492 -0.23813778833993998 -0.49992171318455969
v 0.77960541859544641 -0.28385899290232564 -0.57283071318455969
v 0.77097034450466451 -0.33090225040482757 -0.64747671318455968
v 0.7536006875425757 -0.37345325568107657 -0.72211371318455964
v 0.71343822174305738 -0.40044841172623613 -0.79602271318455964
v 0.66088184071604905 -0.40646467754017057 -0.86606671318455963
v 0.6042266176224258 -0.3900409517383992 -0.92999071318455973
v 0.51959505592327837 -0.27674935830639114 -0.93444471318455968
v 0.70095885575739392 0.028488501556586665 -0.72172471318455966
v 0.5349086869354942 -0.06370378207099564 -0.76443571318455972
v 0.58040085727337609 -0.13667607046398178 -0.76410971318455967
v 0.60613764053120611 -0.14788948263599605 -0.83518071318455966
v 0.53399535905306883 0.010178392260768443 -0.95487171318455966
v 0.56242553382048599 -0.0074965255419858212 -0.87343671318455973
v 0.50196619082124927 0.065238311455567466 -1.0253307131845597
v 0.70279974420680646 0.1709805844760135 -0.90200671318455972
v 0.70174267087467213 0.049295985951917254 -0.80279471318455964
v 0.66390406687262316 0.19885279482458657 -0.97971571318455974
v 0.59345197879726064 0.18487346984727221 -1.0339587131845596
v 0.80393125648937502 -0.15332520996565324 -0.50522871318455964
v 0.55554028589414606 -0.3433007403156435 -0.97942371318455956
v 0.74570674688908833 -0.088152111437455979 -0.64196371318455969
v 0.7854243662796212 -0.11641470885805365 -0.57746371318455969
v 0.68185436296679569 -0.072877547489501648 -0.69003171318455969
v 0.62192588667270232 -0.15352967058814221 -0.92700671318455963
v 0.58250516623567528 -0.016855678351448633 -0.78988271318455971
v 0.57529856588577721 0.096191202377021001 -1.0557397131845596
v 0.70420308033001311 0.067847590823519877 -0.88719171318455969
v 0.78985555128434159 -0.20098667704316769 -0.57602471318455972
v 0.78348295266063661 -0.24828350457716997 -0.65114471318455969
v 0.78697375152168292 -0.29463799350016118 -0.72888571318455964
v 0.78102458362707861 -0.34216631275680875 -0.80511171318455976
v 0.7461343454211331 -0.37737679850938516 -0.87913971318455975
v 0.69262112088594652 -0.38445125310650385 -0.94937771318455955
v 0.6419194526554225 -0.35855389666531734 -1.0132717131845597
v 0.56361164830146637 -0.2021791723577665 -0.97729271318455968
v 0.54200237330960355 -0.26876454694052349 -1.0021257131845596
v 0.64519813682072091 -0.0068102684433064553 -0.7639447131845597
v 0.61318661999489188 -0.072505271294380003 -0.72842971318455962
v 0.67375177796810459 -0.12757611221097293 -0.77079471318455972
v 0.69431787146850532 -0.13924445008287123 -0.8669107131845597
v 0.61617059950822206 0.038767572488570601 -1.0156097131845596
v 0.63526791829296558 0.01165395688544818 -0.93405771318455955
v 0.64370934527717505 0.0028848104372322103 -0.84740471318455968
v 0.69525209858803128 0.093380258718879061 -0.97126671318455959
v 0.6534951070109245 0.12583434617222505 -1.0335687131845597
v 0.59129490510876381 -0.30820175107353448 -1.0387647131845597
v 0.77098735065931878 -0.16740276758977191 -0.64855471318455971
v 0.7380743241740646 -0.13831444675698817 -0.71700571318455975
v 0.71654336555144815 -0.16122803410775394 -0.9538887131845597
v 0.64434015246397625 -0.18153335261904888 -1.0168027131845596
v 0.77645267396327 -0.2107530958605392 -0.72845071318455967
v 0.7901362958769732 -0.2510253435669042 -0.80913871318455977
v 0.79214536047614603 -0.29494262577375702 -0.88702671318455972
v 0.76180361768530935 -0.33578472226028311 -0.95938971318455968
v 0.73038373413368907 -0.30332587356531826 -1.0251887131845596
v 0.66417094624744466 -0.27070916112627547 -1.0568187131845597
v 0.59545446381962608 -0.23927135565662944 -1.0421287131845596
v 0.75336056636766846 -0.16597113162499949 -0.80239471318455968
v 0.77174594686674347 -0.19707757831863892 -0.88562671318455966
v 0.77712497813549453 -0.24517160838069335 -0.96650771318455964
v 0.7237966480276079 -0.21359998146815895 -1.0239817131845597
f 1 2 3
f 1 4 2
f 5 3 2
f 3 6 1
f 7 4 1
f 4 8 2
f 9 3 5
f 5 2 10
f 9 6 3
f 11 1 6
f 7 12 4
f 13 7 1
f 14 8 4
f 10 2 8
f 15 9 5
f 16 5 10
f 17 6 9
f 13 1 11
f 17 11 6
f 18 12 7
f 12 14 4
f 19 7 13
f 14 20 8
f 10 8 21
f 22 9 15
f 15 5 16
f 16 10 23
f 22 17 9
f 24 13 11
f 25 11 17
f 18 26 12
f 19 18 7
f 27 14 12
f 28 19 13
f 29 20 14
f 20 21 8
f 23 10 21
f 30 22 15
f 31 15 16
f 32 16 23
f 22 33 17
f 28 13 24
f 25 24 11
f 33 25 17
f 34 26 18
f 26 27 12
f 35 18 19
f 27 29 14
f 36 19 28
f 29 37 20
f 20 38 21
f 23 21 39
f 40 22 30
f 30 15 31
f 31 16 32
f 32 23 41
f 40 33 22
f 42 28 24
f 42 24 25
f 43 25 33
f 34 44 26
f 35 34 18
f 45 27 26
f 36 35 19
f 46 29 27
f 47 36 28
f 48 37 29
f 37 38 20
f 39 21 38
f 41 23 39
f 49 40 30
f 50 30 31
f 51 31 32
f 52 32 41
f 53 33 40
f 47 28 42
f 42 25 43
f 53 43 33
f 54 44 34
f 45 26 44
f 55 34 35
f 45 46 27
f 56 35 36
f 46 48 29
f 57 36 47
f 48 58 37
f 37 59 38
f 39 38 60
f 41 39 61
f 62 40 49
f 49 30 50
f 50 31 51
f 51 32 52
f 52 41 63
f 62 53 40
f 64 47 42
f 64 42 43
f 65 43 53
f 66 44 54
f 55 54 34
f 67 45 44
f 56 55 35
f 68 46 45
f 57 56 36
f 69 48 46
f 57 47 70
f 71 58 48
f 58 59 37
f 59 60 38
f 61 39 60
f 63 41 61
f 72 62 49
f 73 49 50
f 74 50 51
f 51 52 75
f 76 52 63
f 62 77 53
f 70 47 64
f 64 43 65
f 77 65 53
f 67 44 66
f 78 66 54
f 79 54 55
f 67 68 45
f 80 55 56
f 69 46 68
f 81 56 57
f 69 71 48
f 82 57 70
f 71 83 58
f 58 84 59
f 59 85 60
f 86 61 60
f 63 61 87
f 88 62 72
f 72 49 73
f 73 50 74
f 74 51 75
f 75 52 76
f 76 63 87
f 88 77 62
f 89 70 64
f 89 64 65
f 90 65 77
f 91 67 66
f 91 66 78
f 79 78 54
f 80 79 55
f 92 68 67
f 81 80 56
f 93 69 68
f 82 81 57
f 94 71 69
f 95 82 70
f 96 83 71
f 83 84 58
f 84 85 59
f 86 60 85
f 87 61 86
f 97 88 72
f 72 73 98
f 99 73 74
f 100 74 75
f 101 75 76
f 76 87 102
f 103 77 88
f 95 70 89
f 89 65 90
f 103 90 77
f 92 67 91
f 104 91 78
f 104 78 79
f 105 79 80
f 92 93 68
f 106 80 81
f 93 94 69
f 107 81 82
f 94 96 71
f 108 82 95
f 96 109 83
f 83 110 84
f 111 85 84
f 112 86 85
f 113 87 86
f 114 88 97
f 97 72 98
f 98 73 99
f 99 74 100
f 100 75 101
f 101 76 115
f 116 102 87
f 115 76 102
f 114 103 88
f 117 95 89
f 117 89 90
f 118 90 103
f 119 92 91
f 119 91 104
f 105 104 79
f 106 105 80
f 120 93 92
f 107 106 81
f 121 94 93
f 108 107 82
f 122 96 94
f 123 108 95
f 124 109 96
f 109 110 83
f 110 111 84
f 112 85 111
f 113 86 112
f 116 87 113
f 125 114 97
f 126 97 98
f 127 98 99
f 128 99 100
f 129 100 101
f 101 115 130
f 131 102 116
f 115 102 132
f 114 133 103
f 123 95 117
f 117 90 118
f 133 118 103
f 120 92 119
f 134 119 104
f 134 104 105
f 135 105 106
f 120 121 93
f 136 106 107
f 121 122 94
f 137 107 108
f 122 124 96
f 138 108 123
f 124 139 109
f 109 140 110
f 141 111 110
f 142 112 111
f 143 113 112
f 144 116 113
f 145 114 125
f 125 97 126
f 126 98 127
f 127 99 128
f 128 100 129
f 129 101 130
f 130 115 146
f 131 132 102
f 147 131 116
f 146 115 132
f 145 133 114
f 123 117 118
f 148 118 133
f 149 120 119
f 149 119 134
f 135 134 105
f 136 135 106
f 150 121 120
f 136 107 137
f 121 151 122
f 138 137 108
f 152 124 122
f 153 138 123
f 154 139 124
f 139 140 109
f 140 141 110
f 142 111 141
f 143 112 142
f 144 113 143
f 147 116 144
f 155 145 125
f 156 125 126
f 157 126 127
f 158 127 128
f 128 129 159
f 129 130 160
f 130 146 161
f 131 162 132
f 163 131 147
f 146 132 164
f 145 165 133
f 123 118 166
f 166 118 148
f 165 148 133
f 149 150 120
f 167 149 134
f 167 134 135
f 168 135 136
f 150 151 121
f 169 136 137
f 151 152 122
f 170 137 138
f 152 154 124
f 171 138 153
f 153 123 166
f 154 172 139
f 139 173 140
f 174 141 140
f 174 142 141
f 175 143 142
f 176 144 143
f 147 144 177
f 178 145 155
f 155 125 156
f 156 126 157
f 157 127 158
f 158 128 179
f 160 159 129
f 179 128 159
f 160 130 161
f 161 146 180
f 163 162 131
f 162 164 132
f 163 147 181
f 146 164 180
f 178 165 145
f 166 148 182
f 183 148 165
f 184 150 149
f 167 184 149
f 168 167 135
f 169 168 136
f 185 151 150
f 170 169 137
f 186 152 151
f 171 170 138
f 152 187 154
f 188 171 153
f 153 166 189
f 154 190 172
f 191 139 172
f 191 173 139
f 173 192 140
f 174 140 192
f 175 142 174
f 176 143 175
f 176 193 144
f 177 144 193
f 181 147 177
f 194 178 155
f 195 155 156
f 156 157 196
f 196 157 158
f 197 158 179
f 159 160 198
f 159 198 179
f 160 161 199
f 161 180 200
f 163 201 162
f 200 164 162
f 202 163 181
f 200 180 164
f 178 203 165
f 148 204 182
f 189 166 182
f 183 204 148
f 203 183 165
f 184 185 150
f 205 184 167
f 205 167 168
f 206 168 169
f 185 186 151
f 207 169 170
f 186 187 152
f 208 170 171
f 187 190 154
f 209 171 188
f 188 153 189
f 210 172 190
f 211 191 172
f 191 212 173
f 173 213 192
f 214 174 192
f 215 175 174
f 216 176 175
f 176 217 193
f 177 193 218
f 181 177 219
f 194 220 178
f 194 155 195
f 195 156 196
f 196 158 197
f 197 179 221
f 160 199 198
f 179 198 222
f 199 161 200
f 223 201 163
f 201 200 162
f 224 163 202
f 202 181 225
f 220 203 178
f 182 204 226
f 227 189 182
f 183 228 204
f 203 229 183
f 230 185 184
f 205 230 184
f 206 205 168
f 207 206 169
f 231 186 185
f 208 207 170
f 186 232 187
f 233 208 171
f 234 190 187
f 233 171 209
f 209 188 235
f 188 189 236
f 237 172 210
f 210 190 238
f 239 191 211
f 211 172 237
f 239 212 191
f 212 213 173
f 213 240 192
f 215 174 214
f 214 192 240
f 216 175 215
f 216 225 176
f 225 217 176
f 217 218 193
f 219 177 218
f 225 181 219
f 241 220 194
f 194 195 242
f 195 196 243
f 243 196 197
f 179 222 221
f 244 197 221
f 198 199 223
f 222 198 223
f 199 200 201
f 199 201 223
f 224 223 163
f 245 224 202
f 202 225 246
f 220 247 203
f 204 248 226
f 227 182 226
f 236 189 227
f 229 228 183
f 228 248 204
f 247 229 203
f 230 231 185
f 249 230 205
f 206 249 205
f 207 250 206
f 231 232 186
f 208 251 207
f 232 234 187
f 252 208 233
f 234 238 190
f 253 233 209
f 235 188 236
f 254 209 235
f 237 210 255
f 255 210 238
f 256 239 211
f 257 211 237
f 239 258 212
f 259 213 212
f 213 260 240
f 215 214 259
f 214 240 260
f 261 216 215
f 246 225 216
f 225 219 217
f 217 262 218
f 219 218 262
f 241 263 220
f 264 241 194
f 242 195 265
f 264 194 242
f 195 243 265
f 243 197 244
f 221 222 266
f 244 221 267
f 222 223 224
f 266 224 245
f 245 202 246
f 263 247 220
f 248 268 226
f 227 226 269
f 236 227 270
f 229 271 228
f 228 272 248
f 247 273 229
f 274 231 230
f 249 274 230
f 250 249 206
f 251 250 207
f 231 275 232
f 252 251 208
f 276 234 232
f 277 252 233
f 255 238 234
f 277 233 253
f 253 209 254
f 235 236 278
f 254 235 279
f 276 237 255
f 280 239 256
f 256 211 257
f 257 237 276
f 281 258 239
f 258 259 212
f 259 260 213
f 259 214 260
f 258 215 259
f 246 216 261
f 261 215 258
f 219 262 217
f 282 263 241
f 283 241 264
f 284 242 265
f 285 264 242
f 265 243 286
f 286 243 244
f 266 222 224
f 267 221 266
f 287 244 267
f 266 245 288
f 245 246 289
f 263 290 247
f 248 291 268
f 269 226 268
f 270 227 269
f 278 236 270
f 273 271 229
f 271 272 228
f 272 291 248
f 290 273 247
f 274 292 231
f 293 274 249
f 250 293 249
f 251 294 250
f 292 275 231
f 275 276 232
f 252 295 251
f 276 255 234
f 296 252 277
f 297 277 253
f 298 253 254
f 279 235 278
f 299 254 279
f 280 281 239
f 300 280 256
f 301 256 257
f 275 257 276
f 281 261 258
f 289 246 261
f 282 302 263
f 283 282 241
f 303 283 264
f 285 242 284
f 284 265 304
f 303 264 285
f 304 265 286
f 286 244 287
f 267 266 288
f 287 267 305
f 288 245 289
f 302 290 263
f 268 291 306
f 269 268 307
f 270 269 308
f 278 270 309
f 273 310 271
f 271 311 272
f 312 291 272
f 290 313 273
f 314 292 274
f 293 314 274
f 294 293 250
f 295 294 251
f 292 301 275
f 296 295 252
f 315 296 277
f 315 277 297
f 297 253 298
f 299 298 254
f 279 278 316
f 299 279 317
f 318 281 280
f 319 280 300
f 300 256 301
f 301 257 275
f 281 289 261
f 320 302 282
f 321 282 283
f 322 283 303
f 323 285 284
f 284 304 324
f 325 303 285
f 304 286 326
f 286 287 326
f 267 288 305
f 327 287 305
f 288 289 318
f 302 328 290
f 306 291 329
f 307 268 306
f 308 269 307
f 309 270 308
f 316 278 309
f 313 310 273
f 310 311 271
f 311 312 272
f 312 329 291
f 328 313 290
f 314 330 292
f 331 314 293
f 294 331 293
f 295 332 294
f 330 301 292
f 333 295 296
f 334 296 315
f 335 315 297
f 336 297 298
f 337 298 299
f 317 279 316
f 338 299 317
f 318 289 281
f 319 318 280
f 339 319 300
f 330 300 301
f 340 302 320
f 321 320 282
f 322 321 283
f 341 322 303
f 325 285 323
f 323 284 324
f 324 304 342
f 341 303 325
f 304 326 342
f 326 287 327
f 305 288 318
f 327 305 319
f 340 328 302
f 343 306 329
f 344 307 306
f 308 307 345
f 309 308 346
f 316 309 347
f 313 348 310
f 310 349 311
f 350 312 311
f 312 351 329
f 328 352 313
f 353 330 314
f 331 353 314
f 332 331 294
f 323 332 295
f 333 323 295
f 334 333 296
f 354 334 315
f 354 315 335
f 335 297 336
f 336 298 337
f 337 299 338
f 317 316 355
f 338 317 356
f 305 318 319
f 327 319 339
f 330 339 300
f 357 340 320
f 358 320 321
f 359 321 322
f 360 322 341
f 325 323 333
f 323 324 332
f 324 342 361
f 341 325 362
f 342 326 327
f 340 363 328
f 344 306 343
f 343 329 364
f 345 307 344
f 346 308 345
f 347 309 346
f 355 316 347
f 352 348 313
f 348 349 310
f 349 350 311
f 350 351 312
f 351 364 329
f 363 352 328
f 353 339 330
f 361 353 331
f 332 361 331
f 362 333 334
f 365 334 354
f 366 354 335
f 367 335 336
f 368 336 337
f 369 337 338
f 356 317 355
f 370 338 356
f 371 327 339
f 357 372 340
f 358 357 320
f 359 358 321
f 359 322 360
f 373 360 341
f 362 325 333
f 332 324 361
f 361 342 371
f 373 341 362
f 342 327 371
f 372 363 340
f 374 344 343
f 343 364 375
f 376 345 344
f 346 345 377
f 347 346 378
f 379 355 347
f 352 380 348
f 348 381 349
f 349 382 350
f 350 383 351
f 384 364 351
f 363 385 352
f 353 371 339
f 361 371 353
f 365 362 334
f 386 365 354
f 386 354 366
f 366 335 367
f 367 336 368
f 369 368 337
f 369 338 370
f 356 355 379
f 370 356 387
f 388 372 357
f 389 357 358
f 390 358 359
f 391 359 360
f 392 360 373
f 373 362 365
f 372 393 363
f 376 344 374
f 374 343 375
f 394 375 364
f 377 345 376
f 346 377 378
f 347 378 395
f 379 347 395
f 385 380 352
f 380 381 348
f 381 382 349
f 382 383 350
f 383 384 351
f 394 364 384
f 393 385 363
f 396 365 386
f 397 386 366
f 398 366 367
f 399 367 368
f 400 368 369
f 401 369 370
f 387 356 379
f 370 387 402
f 388 403 372
f 389 388 357
f 390 389 358
f 391 390 359
f 392 391 360
f 392 373 396
f 396 373 365
f 403 393 372
f 404 376 374
f 374 375 405
f 394 406 375
f 407 377 376
f 408 378 377
f 409 395 378
f 379 395 410
f 385 411 380
f 380 412 381
f 381 413 382
f 414 383 382
f 415 384 383
f 416 394 384
f 393 417 385
f 418 396 386
f 418 386 397
f 397 366 398
f 398 367 399
f 399 368 400
f 401 400 369
f 401 370 419
f 387 379 420
f 402 387 421
f 419 370 402
f 422 403 388
f 423 388 389
f 424 389 390
f 425 390 391
f 426 391 392
f 427 392 396
f 403 428 393
f 407 376 404
f 404 374 405
f 405 375 406
f 429 406 394
f 408 377 407
f 409 378 408
f 430 395 409
f 410 395 430
f 420 379 410
f 417 411 385
f 411 412 380
f 412 413 381
f 413 414 382
f 414 415 383
f 415 416 384
f 416 429 394
f 428 417 393
f 427 396 418
f 431 418 397
f 432 397 398
f 433 398 399
f 434 399 400
f 435 400 401
f 436 401 419
f 421 387 420
f 437 402 421
f 419 402 437
f 422 438 403
f 423 422 388
f 424 423 389
f 425 424 390
f 425 391 426
f 427 426 392
f 438 428 403
f 407 404 439
f 404 405 440
f 405 406 441
f 429 442 406
f 443 408 407
f 444 409 408
f 430 409 445
f 446 410 430
f 420 410 446
f 417 447 411
f 448 412 411
f 449 413 412
f 450 414 413
f 451 415 414
f 452 416 415
f 453 429 416
f 428 454 417
f 455 427 418
f 455 418 431
f 432 431 397
f 432 398 433
f 433 399 434
f 434 400 435
f 435 401 436
f 436 419 456
f 421 420 457
f 437 421 458
f 456 419 437
f 459 438 422
f 460 422 423
f 461 423 424
f 462 424 425
f 463 425 426
f 464 426 427
f 438 465 428
f 439 404 440
f 443 407 439
f 440 405 441
f 441 406 442
f 429 466 442
f 444 408 443
f 444 445 409
f 430 445 467
f 446 430 467
f 420 446 457
f 447 417 454
f 447 448 411
f 448 449 412
f 449 450 413
f 451 414 450
f 451 452 415
f 452 453 416
f 453 466 429
f 465 454 428
f 464 427 455
f 468 455 431
f 469 431 432
f 470 432 433
f 471 433 434
f 472 434 435
f 473 435 436
f 474 436 456
f 458 421 457
f 437 458 475
f 456 437 475
f 476 438 459
f 460 459 422
f 461 460 423
f 462 461 424
f 463 462 425
f 463 426 464
f 476 465 438
f 439 440 477
f 443 439 478
f 440 441 479
f 441 442 480
f 466 481 442
f 482 444 443
f 483 445 444
f 467 445 484
f 446 467 485
f 457 446 485
f 454 486 447
f 486 448 447
f 487 449 448
f 488 450 449
f 489 451 450
f 490 452 451
f 491 453 452
f 453 492 466
f 493 454 465
f 494 464 455
f 494 455 468
f 468 431 469
f 469 432 470
f 470 433 471
f 472 471 434
f 472 435 473
f 473 436 474
f 474 456 495
f 458 457 496
f 475 458 497
f 456 475 495
f 498 476 459
f 499 459 460
f 500 460 461
f 501 461 462
f 502 462 463
f 503 463 464
f 504 465 476
f 477 440 479
f 478 439 477
f 482 443 478
f 479 441 480
f 481 480 442
f 505 481 466
f 506 444 482
f 483 484 445
f 506 483 444
f 467 484 507
f 485 467 507
f 496 457 485
f 508 486 454
f 486 487 448
f 487 488 449
f 489 450 488
f 489 490 451
f 490 491 452
f 491 509 453
f 509 492 453
f 492 505 466
f 493 508 454
f 504 493 465
f 494 503 464
f 510 494 468
f 511 468 469
f 512 469 470
f 513 470 471
f 514 471 472
f 515 472 473
f 516 473 474
f 474 495 517
f 458 496 497
f 475 497 518
f 495 475 518
f 498 519 476
f 498 459 499
f 500 499 460
f 501 500 461
f 502 501 462
f 503 502 463
f 519 504 476
f 477 479 520
f 478 477 521
f 482 478 522
f 523 479 480
f 481 524 480
f 505 525 481
f 506 482 526
f 483 527 484
f 506 528 483
f 484 529 507
f 485 507 530
f 496 485 530
f 508 531 486
f 531 487 486
f 532 488 487
f 533 489 488
f 534 490 489
f 535 491 490
f 536 509 491
f 509 537 492
f 537 505 492
f 493 538 508
f 504 539 493
f 540 503 494
f 540 494 510
f 510 468 511
f 511 469 512
f 512 470 513
f 513 471 514
f 515 514 472
f 515 473 516
f 516 474 517
f 517 495 541
f 497 496 542
f 518 497 543
f 495 518 544
f 545 519 498
f 546 498 499
f 547 499 500
f 548 500 501
f 549 501 502
f 550 502 503
f 519 551 504
f 520 479 523
f 521 477 520
f 552 478 521
f 522 478 552
f 526 482 522
f 523 480 524
f 525 524 481
f 505 553 525
f 554 506 526
f 528 527 483
f 527 529 484
f 555 528 506
f 507 529 556
f 530 507 556
f 496 530 542
f 557 531 508
f 531 532 487
f 533 488 532
f 533 534 489
f 534 535 490
f 535 536 491
f 536 558 509
f 509 558 537
f 537 553 505
f 539 538 493
f 538 557 508
f 551 539 504
f 540 550 503
f 559 540 510
f 560 510 511
f 561 511 512
f 562 512 513
f 563 513 514
f 564 514 515
f 515 516 565
f 566 516 517
f 495 544 541
f 517 541 567
f 497 542 543
f 544 518 543
f 545 568 519
f 546 545 498
f 546 499 547
f 548 547 500
f 549 548 501
f 550 549 502
f 568 551 519
f 520 523 569
f 521 520 570
f 552 521 571
f 572 522 552
f 573 526 522
f 523 524 574
f 575 524 525
f 553 575 525
f 554 555 506
f 554 526 576
f 528 577 527
f 527 578 529
f 555 579 528
f 580 556 529
f 530 556 581
f 542 530 581
f 557 582 531
f 582 532 531
f 583 533 532
f 584 534 533
f 585 535 534
f 586 536 535
f 536 587 558
f 558 588 537
f 588 553 537
f 589 538 539
f 590 557 538
f 591 539 551
f 592 550 540
f 559 592 540
f 559 510 560
f 561 560 511
f 561 512 562
f 562 513 563
f 563 514 564
f 564 515 565
f 565 516 566
f 566 517 567
f 541 544 593
f 567 541 594
f 543 542 595
f 544 543 596
f 597 568 545
f 598 545 546
f 599 546 547
f 600 547 548
f 601 548 549
f 602 549 550
f 603 551 568
f 523 574 569
f 570 520 569
f 571 521 570
f 586 552 571
f 573 522 572
f 572 552 586
f 576 526 573
f 575 574 524
f 604 575 553
f 594 555 554
f 605 554 576
f 579 577 528
f 577 578 527
f 578 606 529
f 555 593 579
f 581 556 580
f 529 606 580
f 542 581 595
f 607 582 557
f 583 532 582
f 584 533 583
f 584 585 534
f 585 608 535
f 586 587 536
f 608 586 535
f 587 609 558
f 558 609 588
f 588 604 553
f 589 590 538
f 591 589 539
f 590 607 557
f 603 591 551
f 592 602 550
f 610 592 559
f 611 559 560
f 612 560 561
f 613 561 562
f 614 562 563
f 615 563 564
f 564 565 616
f 565 566 617
f 566 567 618
f 544 596 593
f 541 593 555
f 594 541 555
f 567 594 619
f 543 595 596
f 597 620 568
f 598 597 545
f 598 546 599
f 599 547 600
f 601 600 548
f 601 549 602
f 620 603 568
f 569 574 621
f 570 569 622
f 571 570 609
f 586 571 587
f 623 573 572
f 608 572 586
f 624 576 573
f 621 574 575
f 604 621 575
f 594 554 605
f 605 576 625
f 579 626 577
f 627 578 577
f 628 606 578
f 593 626 579
f 581 580 629
f 630 580 606
f 595 581 629
f 607 631 582
f 631 583 582
f 632 584 583
f 633 585 584
f 634 608 585
f 571 609 587
f 609 622 588
f 588 622 604
f 635 590 589
f 636 589 591
f 637 607 590
f 638 591 603
f 639 602 592
f 610 639 592
f 610 559 611
f 611 560 612
f 613 612 561
f 613 562 614
f 614 563 615
f 615 564 616
f 616 565 617
f 617 566 618
f 618 567 619
f 593 596 626
f 619 594 605
f 596 595 640
f 641 620 597
f 642 597 598
f 643 598 599
f 644 599 600
f 645 600 601
f 646 601 602
f 620 638 603
f 622 569 621
f 609 570 622
f 624 573 623
f 623 572 608
f 625 576 624
f 622 621 604
f 647 605 625
f 626 627 577
f 627 628 578
f 628 630 606
f 629 580 630
f 640 595 629
f 648 631 607
f 632 583 631
f 632 633 584
f 633 634 585
f 623 608 634
f 635 637 590
f 636 635 589
f 638 636 591
f 637 648 607
f 646 602 639
f 649 639 610
f 650 610 611
f 651 611 612
f 652 612 613
f 653 613 614
f 614 615 654
f 655 615 616
f 656 616 617
f 617 618 657
f 618 619 658
f 596 640 626
f 619 605 647
f 641 659 620
f 641 597 642
f 643 642 598
f 644 643 599
f 645 644 600
f 645 601 646
f 659 638 620
f 660 624 623
f 661 625 624
f 647 625 662
f 626 640 627
f 627 663 628
f 663 630 628
f 663 629 630
f 640 629 663
f 664 631 648
f 664 632 631
f 665 633 632
f 666 634 633
f 660 623 634
f 635 667 637
f 668 635 636
f 669 636 638
f 637 670 648
f 671 646 639
f 639 649 671
f 650 649 610
f 650 611 651
f 651 612 652
f 653 652 613
f 653 614 654
f 654 615 655
f 655 616 656
f 656 617 657
f 657 618 658
f 658 619 647
f 672 659 641
f 673 641 642
f 674 642 643
f 675 643 644
f 676 644 645
f 677 645 646
f 659 669 638
f 661 624 660
f 662 625 661
f 678 647 662
f 640 663 627
f 679 664 648
f 664 665 632
f 666 633 665
f 666 660 634
f 668 667 635
f 667 670 637
f 669 668 636
f 670 679 648
f 677 646 671
f 680 671 649
f 680 649 650
f 681 650 651
f 682 651 652
f 683 652 653
f 653 654 684
f 685 654 655
f 655 656 686
f 656 657 687
f 657 658 688
f 658 647 678
f 672 689 659
f 673 672 641
f 673 642 674
f 675 674 643
f 676 675 644
f 677 676 645
f 689 669 659
f 690 661 660
f 691 662 661
f 692 678 662
f 693 664 679
f 694 665 664
f 695 666 665
f 690 660 666
f 696 667 668
f 667 697 670
f 698 668 669
f 699 679 670
f 700 677 671
f 700 671 680
f 680 650 681
f 681 651 682
f 683 682 652
f 683 653 684
f 684 654 685
f 685 655 686
f 686 656 687
f 687 657 688
f 688 658 678
f 672 701 689
f 702 672 673
f 703 673 674
f 675 704 674
f 705 675 676
f 706 676 677
f 689 698 669
f 691 661 690
f 692 662 691
f 707 678 692
f 694 664 693
f 693 679 708
f 695 665 694
f 695 690 666
f 696 697 667
f 698 696 668
f 697 699 670
f 699 708 679
f 706 677 700
f 709 700 680
f 709 680 681
f 710 681 682
f 711 682 683
f 712 683 684
f 684 685 713
f 685 686 714
f 686 687 715
f 687 688 716
f 688 678 707
f 702 701 672
f 701 717 689
f 702 673 703
f 704 703 674
f 705 704 675
f 706 705 676
f 717 698 689
f 718 691 690
f 719 692 691
f 720 707 692
f 721 694 693
f 693 708 722
f 723 695 694
f 718 690 695
f 696 724 697
f 725 696 698
f 726 699 697
f 699 727 708
f 728 706 700
f 728 700 709
f 710 709 681
f 710 682 711
f 711 683 712
f 712 684 713
f 713 685 714
f 714 686 715
f 715 687 729
f 716 688 707
f 729 687 716
f 730 701 702
f 731 717 701
f 732 702 703
f 733 703 704
f 734 704 705
f 735 705 706
f 717 725 698
f 719 691 718
f 720 692 719
f 736 707 720
f 723 694 721
f 721 693 722
f 722 708 737
f 723 718 695
f 738 724 696
f 724 726 697
f 725 738 696
f 726 727 699
f 727 737 708
f 728 735 706
f 739 728 709
f 739 709 710
f 740 710 711
f 741 711 712
f 712 713 742
f 713 714 743
f 714 715 744
f 715 729 745
f 716 707 736
f 729 716 746
f 730 731 701
f 732 730 702
f 731 747 717
f 732 703 733
f 734 733 704
f 735 734 705
f 717 747 725
f 748 719 718
f 749 720 719
f 750 736 720
f 723 721 751
f 721 722 752
f 722 737 753
f 748 718 723
f 738 754 724
f 724 754 726
f 755 738 725
f 726 756 727
f 727 757 737
f 758 735 728
f 739 758 728
f 739 710 740
f 740 711 741
f 741 712 742
f 742 713 743
f 743 714 744
f 744 715 745
f 745 729 759
f 746 716 736
f 729 746 759
f 760 731 730
f 761 730 732
f 762 747 731
f 734 732 733
f 735 763 734
f 747 755 725
f 749 719 748
f 750 720 749
f 750 764 736
f 751 721 752
f 765 723 751
f 752 722 753
f 753 737 766
f 748 723 765
f 738 767 754
f 754 756 726
f 755 767 738
f 756 757 727
f 757 766 737
f 758 763 735
f 739 768 758
f 739 740 768
f 740 741 769
f 741 742 770
f 742 743 771
f 743 744 772
f 744 745 773
f 745 759 774
f 764 746 736
f 759 746 775
f 760 762 731
f 761 760 730
f 763 761 732
f 762 776 747
f 763 732 734
f 776 755 747
f 777 749 748
f 778 750 749
f 779 764 750
f 751 752 780
f 781 765 751
f 752 753 782
f 782 753 766
f 777 748 765
f 767 783 754
f 783 756 754
f 755 784 767
f 756 785 757
f 757 786 766
f 758 787 763
f 768 787 758
f 740 769 768
f 769 741 770
f 770 742 771
f 771 743 772
f 772 744 773
f 773 745 774
f 774 759 788
f 764 775 746
f 759 775 788
f 760 789 762
f 790 760 761
f 787 761 763
f 791 776 762
f 776 784 755
f 778 749 777
f 778 779 750
f 779 792 764
f 780 752 782
f 781 751 780
f 793 765 781
f 782 766 794
f 777 765 793
f 795 783 767
f 783 785 756
f 784 795 767
f 785 786 757
f 794 766 786
f 768 796 787
f 768 769 796
f 769 770 797
f 770 771 798
f 771 772 799
f 772 773 800
f 773 774 801
f 774 788 802
f 764 803 775
f 788 775 804
f 790 789 760
f 789 791 762
f 787 790 761
f 791 805 776
f 776 805 784
f 806 778 777
f 807 779 778
f 808 792 779
f 792 803 764
f 780 782 809
f 781 780 810
f 793 781 811
f 809 782 794
f 806 777 793
f 795 812 783
f 783 812 785
f 784 811 795
f 785 813 786
f 813 794 786
f 796 790 787
f 769 797 796
f 770 798 797
f 771 799 798
f 772 800 799
f 773 801 800
f 801 774 802
f 802 788 814
f 775 803 804
f 788 804 814
f 790 815 789
f 789 816 791
f 791 806 805
f 805 811 784
f 807 778 806
f 807 808 779
f 808 817 792
f 792 818 803
f 810 780 809
f 811 781 810
f 805 793 811
f 809 794 813
f 806 793 805
f 795 810 812
f 812 813 785
f 811 810 795
f 796 815 790
f 796 797 815
f 797 798 819
f 798 799 820
f 799 800 821
f 800 801 822
f 801 802 823
f 802 814 824
f 804 803 825
f 804 825 814
f 815 816 789
f 816 807 791
f 791 807 806
f 807 826 808
f 827 817 808
f 817 818 792
f 818 825 803
f 810 809 812
f 812 809 813
f 797 819 815
f 798 820 819
f 799 821 820
f 821 800 822
f 801 823 822
f 823 802 824
f 814 825 824
f 815 819 816
f 816 826 807
f 826 827 808
f 827 828 817
f 817 829 818
f 818 824 825
f 819 820 826
f 820 821 827
f 821 822 828
f 828 822 823
f 823 824 829
f 819 826 816
f 820 827 826
f 821 828 827
f 828 829 817
f 829 824 818
f 828 823 829
